<svg width="30" height="30" viewBox="0 0 30 30" fill="none" xmlns="http://www.w3.org/2000/svg">
<path d="M15 8.67188C13.5469 8.67188 12.3516 9.39844 11.5547 10.7812C10.8984 11.8828 10.5469 13.3828 10.5469 15C10.5469 16.6172 10.8984 18.1172 11.5547 19.2188C12.3516 20.6016 13.5469 21.3281 15 21.3281C16.4531 21.3281 17.6484 20.6016 18.4453 19.2188C19.1016 18.1172 19.4531 16.6172 19.4531 15C19.4531 13.3828 19.1016 11.8828 18.4453 10.7812C17.6484 9.39844 16.4531 8.67188 15 8.67188ZM15 19.9219C12.8906 19.9219 11.9531 17.4492 11.9531 15C11.9531 11.6016 13.4883 10.0781 15 10.0781C17.1094 10.0781 18.0469 12.5508 18.0469 15C18.0469 18.3984 16.5117 19.9219 15 19.9219ZM15 3.04688C12.6359 3.04687 10.3249 3.74791 8.3592 5.06134C6.39352 6.37477 4.86146 8.24159 3.95676 10.4257C3.05205 12.6099 2.81534 15.0133 3.27656 17.3319C3.73777 19.6506 4.87619 21.7805 6.54787 23.4521C8.21954 25.1238 10.3494 26.2622 12.6681 26.7234C14.9867 27.1847 17.3901 26.948 19.5743 26.0432C21.7584 25.1385 23.6252 23.6065 24.9387 21.6408C26.2521 19.6751 26.9531 17.3641 26.9531 15C26.9469 11.8317 25.6856 8.79501 23.4453 6.55471C21.205 4.3144 18.1683 3.05307 15 3.04688ZM15 25.5469C12.914 25.5469 10.8749 24.9283 9.14048 23.7694C7.40605 22.6105 6.05423 20.9633 5.25596 19.0361C4.4577 17.1089 4.24883 14.9883 4.65579 12.9424C5.06274 10.8965 6.06723 9.01724 7.54224 7.54223C9.01725 6.06723 10.8965 5.06273 12.9424 4.65578C14.9883 4.24883 17.1089 4.45769 19.0361 5.25596C20.9633 6.05423 22.6105 7.40605 23.7694 9.14047C24.9283 10.8749 25.5469 12.914 25.5469 15C25.5438 17.7963 24.4316 20.4771 22.4543 22.4543C20.4771 24.4316 17.7963 25.5438 15 25.5469Z" fill="#413C1C"/>
</svg>
