<svg width="30" height="30" viewBox="0 0 30 30" fill="none" xmlns="http://www.w3.org/2000/svg">
<path d="M15 3.04688C12.6359 3.04687 10.3249 3.74791 8.3592 5.06134C6.39352 6.37477 4.86146 8.24159 3.95676 10.4257C3.05205 12.6099 2.81534 15.0133 3.27656 17.3319C3.73777 19.6506 4.87619 21.7805 6.54787 23.4521C8.21954 25.1238 10.3494 26.2622 12.6681 26.7234C14.9867 27.1847 17.3901 26.948 19.5743 26.0432C21.7584 25.1385 23.6252 23.6065 24.9387 21.6408C26.2521 19.6751 26.9531 17.3641 26.9531 15C26.9469 11.8317 25.6856 8.79501 23.4453 6.55471C21.205 4.3144 18.1683 3.05307 15 3.04688ZM15 25.5469C12.914 25.5469 10.8749 24.9283 9.14048 23.7694C7.40605 22.6105 6.05423 20.9633 5.25596 19.0361C4.4577 17.1089 4.24883 14.9883 4.65579 12.9424C5.06274 10.8965 6.06723 9.01724 7.54224 7.54223C9.01725 6.06723 10.8965 5.06273 12.9424 4.65578C14.9883 4.24883 17.1089 4.45769 19.0361 5.25596C20.9633 6.05423 22.6105 7.40605 23.7694 9.14047C24.9283 10.8749 25.5469 12.914 25.5469 15C25.5438 17.7963 24.4316 20.4771 22.4543 22.4543C20.4771 24.4316 17.7963 25.5438 15 25.5469ZM17.8945 14.1797L13.5938 19.9219H17.8125C17.999 19.9219 18.1778 19.996 18.3097 20.1278C18.4416 20.2597 18.5156 20.4385 18.5156 20.625C18.5156 20.8115 18.4416 20.9903 18.3097 21.1222C18.1778 21.254 17.999 21.3281 17.8125 21.3281H12.1875C12.1119 21.3279 12.0368 21.316 11.9648 21.293C11.8248 21.2462 11.7029 21.1565 11.6167 21.0366C11.5305 20.9167 11.4842 20.7727 11.4844 20.625C11.4842 20.4673 11.538 20.3143 11.6367 20.1914L16.7578 13.3477C16.9913 13.0062 17.114 12.6011 17.1094 12.1875C17.1105 11.6999 16.9426 11.2269 16.6343 10.8491C16.3259 10.4713 15.8962 10.212 15.4183 10.1153C14.9403 10.0186 14.4436 10.0905 14.0127 10.3187C13.5818 10.547 13.2432 10.9175 13.0547 11.3672C13.0238 11.4592 12.9742 11.5438 12.9089 11.6156C12.8437 11.6875 12.7644 11.7451 12.6758 11.7848C12.5872 11.8245 12.4914 11.8454 12.3944 11.8463C12.2973 11.8471 12.2012 11.8279 12.1119 11.7898C12.0227 11.7516 11.9423 11.6955 11.8758 11.6247C11.8094 11.554 11.7583 11.4703 11.7258 11.3789C11.6932 11.2874 11.68 11.1903 11.6868 11.0935C11.6937 10.9967 11.7205 10.9023 11.7656 10.8164C12.083 10.0714 12.6478 9.45884 13.3646 9.08215C14.0814 8.70546 14.9063 8.58777 15.6998 8.74896C16.4934 8.91015 17.207 9.34034 17.72 9.96684C18.233 10.5933 18.5141 11.3777 18.5156 12.1875C18.5144 12.8882 18.3065 13.5731 17.918 14.1562L17.8945 14.1797Z" fill="#413C1C"/>
</svg>
