<svg width="30" height="30" viewBox="0 0 30 30" fill="none" xmlns="http://www.w3.org/2000/svg">
<path d="M15 3.04688C12.6359 3.04687 10.3249 3.74791 8.3592 5.06134C6.39352 6.37477 4.86146 8.24159 3.95676 10.4257C3.05205 12.6099 2.81534 15.0133 3.27656 17.3319C3.73777 19.6506 4.87619 21.7805 6.54787 23.4521C8.21954 25.1238 10.3494 26.2622 12.6681 26.7234C14.9867 27.1847 17.3901 26.948 19.5743 26.0432C21.7584 25.1385 23.6252 23.6065 24.9387 21.6408C26.2521 19.6751 26.9531 17.3641 26.9531 15C26.9469 11.8317 25.6856 8.79501 23.4453 6.55471C21.205 4.3144 18.1683 3.05307 15 3.04688ZM15 25.5469C12.914 25.5469 10.8749 24.9283 9.14048 23.7694C7.40605 22.6105 6.05423 20.9633 5.25596 19.0361C4.4577 17.1089 4.24883 14.9883 4.65579 12.9424C5.06274 10.8965 6.06723 9.01724 7.54224 7.54223C9.01725 6.06723 10.8965 5.06273 12.9424 4.65578C14.9883 4.24883 17.1089 4.45769 19.0361 5.25596C20.9633 6.05423 22.6105 7.40605 23.7694 9.14047C24.9283 10.8749 25.5469 12.914 25.5469 15C25.5438 17.7963 24.4316 20.4771 22.4543 22.4543C20.4771 24.4316 17.7963 25.5438 15 25.5469ZM17.3438 15C18.0897 15.7459 18.5087 16.7576 18.5087 17.8125C18.5087 18.8674 18.0897 19.8791 17.3438 20.625C16.5978 21.3709 15.5861 21.79 14.5313 21.79C13.4764 21.79 12.4647 21.3709 11.7188 20.625C11.6541 20.5604 11.6028 20.4836 11.5679 20.3992C11.5329 20.3147 11.5149 20.2242 11.5149 20.1328C11.5149 20.0414 11.5329 19.9509 11.5679 19.8664C11.6028 19.782 11.6541 19.7053 11.7188 19.6406C11.7834 19.576 11.8601 19.5247 11.9446 19.4897C12.029 19.4548 12.1195 19.4368 12.2109 19.4368C12.3024 19.4368 12.3929 19.4548 12.4773 19.4897C12.5618 19.5247 12.6385 19.576 12.7031 19.6406C13.003 19.9454 13.3737 20.1711 13.782 20.2978C14.1904 20.4244 14.6237 20.448 15.0434 20.3664C15.4631 20.2848 15.856 20.1006 16.1872 19.8302C16.5184 19.5597 16.7774 19.2115 16.9413 18.8166C17.1051 18.4217 17.1686 17.9924 17.1262 17.567C17.0837 17.1416 16.9366 16.7333 16.698 16.3785C16.4593 16.0238 16.1365 15.7336 15.7585 15.534C15.3804 15.3344 14.9588 15.2314 14.5313 15.2344C14.4032 15.2355 14.2772 15.2011 14.1676 15.1349C14.0579 15.0687 13.9688 14.9733 13.9102 14.8594C13.8483 14.7463 13.8198 14.6179 13.8281 14.4893C13.8364 14.3606 13.8811 14.237 13.957 14.1328L16.4648 10.5469H12.1875C12.001 10.5469 11.8222 10.4728 11.6903 10.3409C11.5585 10.2091 11.4844 10.0302 11.4844 9.84375C11.4844 9.65727 11.5585 9.47843 11.6903 9.34657C11.8222 9.2147 12.001 9.14062 12.1875 9.14062H17.8125C17.9406 9.13945 18.0665 9.1739 18.1762 9.24011C18.2859 9.30633 18.375 9.40171 18.4336 9.51562C18.4955 9.62871 18.5239 9.75706 18.5156 9.88571C18.5073 10.0144 18.4626 10.138 18.3867 10.2422L15.75 14.0156C16.3543 14.2073 16.9018 14.5455 17.3438 15Z" fill="#413C1C"/>
</svg>
