<svg width="522" height="522" viewBox="0 0 522 522" fill="none" xmlns="http://www.w3.org/2000/svg">
<g clip-path="url(#clip0_102_4485)">
<path d="M-0.269162 260.76C-0.378951 117.465 116.158 0.159696 260.901 0.239543C405.803 0.329371 523.238 118.493 521.691 263.805C520.174 406.122 403.907 522.1 259.663 521.561C115.679 521.022 -0.508703 404.046 -0.269162 260.76ZM515.104 260.93C515.293 121.597 402.17 6.88681 260.841 6.80696C120 6.72711 7.40614 120.449 6.25833 258.724C5.09057 399.435 118.932 514.944 260.551 515.013C401.761 515.083 515.253 400.533 515.104 260.93Z" fill="#413C1C"/>
<path d="M16.8183 260.99C16.2893 127.226 125.75 16.7978 261.569 17.247C396.501 17.6861 505.642 128.025 504.674 262.727C503.726 395.981 394.515 505.392 259.114 504.553C124.831 503.715 16.4091 394.155 16.8283 260.99H16.8183ZM20.6709 260.76C20.4613 392.358 127.157 500.152 259.783 500.631C393.207 501.11 500.372 393.227 500.761 261.629C501.15 129.462 394.026 21.1894 260.771 21.1595C127.586 21.1195 20.5811 129.153 20.6709 260.77V260.76Z" fill="#413C1C"/>
<path d="M441.744 260.78C441.784 360.889 360.13 442.033 260.102 441.714C160.353 441.394 79.0884 360.02 79.6573 259.832C80.2262 160.353 161.72 79.4079 262.008 80.1065C361.098 80.7952 441.644 161.431 441.734 260.78H441.744ZM260.631 436.494C357.575 436.494 436.593 357.705 436.514 260.91C436.434 163.896 357.725 85.5361 261.13 85.3365C163.966 85.1369 84.9272 163.926 84.8673 260.77C84.8174 357.555 163.766 436.494 260.631 436.484V436.494Z" fill="#413C1C"/>
<path d="M52.9177 254.473C56.8302 254.602 60.613 254.722 64.3957 254.842C64.4556 255.001 64.5155 255.171 64.5754 255.331C61.4913 257.487 58.4172 259.653 55.2333 261.878C56.401 265.591 57.5389 269.204 58.6667 272.807C58.527 272.907 58.3872 273.017 58.2475 273.117C55.2433 271.091 52.239 269.065 49.0751 266.929C45.991 268.885 42.9169 270.831 39.8328 272.787C39.703 272.718 39.5733 272.648 39.4335 272.578C40.5314 269.095 41.6393 265.601 42.8171 261.858C39.723 259.563 36.609 257.257 33.0059 254.592C37.3875 254.053 41.3 254.143 45.4021 253.944C46.5699 250.41 47.7177 246.897 48.8755 243.384C49.0052 243.384 49.1449 243.404 49.2747 243.404C50.4724 247.077 51.6801 250.74 52.9077 254.473H52.9177Z" fill="#413C1C"/>
<path d="M478.213 254.712H489.632C489.692 254.892 489.761 255.071 489.821 255.251C486.877 257.567 483.613 259.483 480.439 261.888C481.587 265.561 482.745 269.234 483.893 272.917C483.773 272.997 483.653 273.077 483.533 273.167C480.449 271.101 477.365 269.035 474.251 266.959C471.117 268.935 468.093 270.821 465.079 272.718C464.939 272.628 464.809 272.548 464.669 272.458C465.747 269.005 466.825 265.551 467.983 261.848C464.859 259.533 461.745 257.217 458.262 254.632C462.514 253.973 466.446 254.213 470.578 253.894C471.726 250.44 472.894 246.927 474.051 243.424C474.181 243.414 474.311 243.404 474.441 243.384C475.648 247.047 476.866 250.71 478.194 254.712H478.213Z" fill="#413C1C"/>
<path d="M325.607 340.029C329.11 340.428 329.939 341.436 329.539 344.74C329.4 345.917 329.1 347.095 328.681 348.213C328.072 349.85 327.413 350.109 325.707 349.7C323.691 349.211 321.694 348.682 319.668 348.253C316.245 347.514 312.811 348.073 309.418 348.413C299.936 349.361 290.634 351.167 281.731 354.671C277.719 356.248 273.726 357.874 270.393 360.729C270.223 360.879 269.954 360.909 269.634 361.028C264.314 357.276 258.456 358.184 252.647 359.501C249.233 360.27 245.9 361.408 242.536 362.406C240.45 363.025 238.703 364.252 236.877 365.42C227.625 371.359 217.794 376.109 206.954 378.385C202.363 379.353 197.692 379.972 193.031 380.571C191.324 380.79 189.528 380.591 187.791 380.361C185.994 380.122 185.326 379.114 184.917 377.347C184.278 374.642 185.306 372.147 185.755 369.612C186.583 364.981 187.801 360.43 189.997 356.198C190.107 355.988 190.236 355.768 190.276 355.539C190.875 352.086 193.241 350.059 195.965 348.233C197.592 347.145 199.409 346.197 200.247 344.191C200.397 343.841 201.165 343.642 201.664 343.582C202.533 343.482 203.411 343.552 204.389 343.552C204.758 342.923 205.148 342.344 205.457 341.715C209.949 332.832 215.538 324.688 222.315 317.402C226.497 312.901 230.878 308.589 235.09 304.117C235.989 303.169 236.727 301.952 237.196 300.724C238.803 296.512 239.312 292.06 239.622 287.599C239.761 285.613 239.891 283.607 239.731 281.63C239.452 278.157 237.855 276.74 234.332 276.48C232.505 276.341 230.669 276.251 228.852 276.021C226.507 275.722 224.431 274.684 222.544 273.296C219.8 271.28 218.203 268.675 218.612 265.122C218.802 263.435 218.153 262.168 216.636 261.359C216.356 261.21 216.097 261.02 215.807 260.88C214.17 260.112 213.342 258.924 213.751 257.048C213.831 256.668 213.761 256.259 213.761 255.72C210.527 254.482 210.128 251.927 210.767 248.903C210.997 247.825 211.096 246.717 211.276 245.43C210.378 245.041 209.499 244.701 208.671 244.282C207.044 243.454 205.367 242.685 203.85 241.687C202.273 240.649 201.814 239.022 202.513 237.255C203.072 235.858 203.75 234.501 204.519 233.203C205.607 231.357 206.795 229.56 207.992 227.784C209.14 226.087 210.358 224.44 211.595 222.703C211.625 222.753 211.575 222.554 211.466 222.514C210.567 222.194 209.549 222.055 209.44 220.807C209.32 219.47 210.318 219.12 211.256 218.601C212.274 218.042 213.202 217.304 214.31 216.545C213.771 215.926 213.452 215.487 213.073 215.128C211.376 213.521 210.977 211.625 211.735 209.449C211.835 209.149 211.845 208.79 212.025 208.541C213.691 206.205 212.663 204.378 210.957 202.662C210.617 202.322 210.358 201.863 209.959 201.644C207.693 200.376 206.904 198.051 205.856 195.935C204.988 194.178 204.978 192.332 206.176 190.715C206.984 189.617 206.924 188.679 206.176 187.67C205.208 186.373 205.307 184.996 205.876 183.588C206.296 182.55 206.505 181.542 206.405 180.364C206.325 179.446 206.715 178.229 207.344 177.56C208.411 176.432 208.541 175.294 208.402 173.877C208.092 170.763 208.811 167.848 210.468 165.184C211.535 163.467 212.863 161.98 214.689 161.032C216.147 160.283 217.324 159.315 218.093 157.798C218.422 157.149 219.161 156.68 219.78 156.211C220.458 155.692 221.187 155.233 221.926 154.783C222.524 154.424 223.163 153.865 223.802 153.845C225.299 153.785 226.217 153.067 227.186 152.009C229.99 148.915 234.581 148.116 238.344 150.013C239.522 150.601 240.65 150.651 241.808 150.312C243.874 149.703 245.88 149.973 247.946 150.392C249.882 150.781 251.878 150.991 253.844 151.001C255.731 151.001 257.497 151.25 259.154 152.139C261.26 153.266 263.356 154.424 265.472 155.542C266.5 156.081 267.558 156.57 268.866 157.199C268.446 154.025 267.668 151.18 267.838 148.396C267.957 146.519 266.78 144.473 268.217 142.677C268.357 142.507 268.247 142.038 268.117 141.788C267.598 140.8 268.077 140.102 268.476 139.173C269.015 137.936 269.255 136.399 269.085 135.061C268.866 133.265 269.325 132.157 270.962 131.408C272.07 130.899 272.848 130.051 273.387 128.883C273.726 128.154 274.525 127.635 275.114 127.027C276.85 125.24 278.936 124.362 281.462 124.432C282.02 124.442 282.609 123.933 283.168 123.623C284.126 123.084 285.025 122.336 286.212 123.204C286.462 123.384 287.041 123.314 287.36 123.154C289.267 122.186 291.313 122.475 293.209 122.775C294.746 123.014 296.553 123.713 297.521 124.831C298.489 125.949 299.457 126.607 300.755 127.007C302.002 127.386 303.19 127.765 303.439 129.352C303.579 130.231 304.378 130.41 305.126 130.36C307.502 130.201 308.809 131.478 310.127 133.335C311.524 135.301 313.51 136.848 315.237 138.585C315.846 139.203 316.504 139.782 316.983 140.491C317.682 141.519 317.932 142.836 319.269 143.445C319.648 143.615 319.798 144.383 319.968 144.902C320.267 145.811 320.457 146.759 320.776 147.657C321.225 148.935 321.146 150.063 320.537 151.33C319.888 152.668 319.309 154.165 319.209 155.632C319.04 158.057 317.622 159.125 315.636 159.894C313.63 160.662 311.634 161.471 309.638 162.289C309.208 162.469 308.839 162.748 308.12 163.177C310.167 164.615 312.093 164.794 314.109 164.056C314.997 163.736 315.866 163.247 316.604 162.668C319.359 160.522 322.273 158.606 324.389 155.672C326.615 152.578 328.292 152.787 330.388 156.011C331.895 158.337 332.943 160.802 332.494 163.676C332.434 164.066 332.444 164.485 332.324 164.854C331.745 166.561 331.176 168.278 330.498 169.944C330.268 170.503 329.849 171.082 329.35 171.422C327.034 173.039 325.327 175.244 323.491 177.33C322.732 178.199 321.625 178.788 320.597 179.366C319.03 180.255 317.393 181.033 315.516 181.991C318.501 183.538 319.658 186.283 321.485 188.409C321.964 188.968 321.575 190.275 321.136 191.373C321.645 191.962 322.144 192.571 322.673 193.14C326.595 197.332 326.465 204.349 320.906 207.852C319.698 208.61 318.99 209.489 318.77 211.026C318.261 214.729 315.287 217.264 311.634 217.463C311.334 217.483 311.035 217.553 310.376 217.643C311.025 218.591 311.544 219.35 312.073 220.098C313.091 221.526 314.089 222.963 315.137 224.37C316.095 225.648 315.945 226.885 315.107 228.133C314.618 228.862 314.069 229.56 313.62 230.309C312.851 231.596 312.732 232.824 313.36 234.361C314.668 237.525 315.017 240.829 313.321 244.052C313.021 244.621 312.702 245.17 312.482 245.769C312.063 246.947 312.003 248.065 312.901 249.133C314.159 250.62 314.468 252.416 314.339 254.303C314.219 256.059 313.57 257.517 312.033 258.535C310.147 259.792 308.49 261.339 307.701 263.515C306.653 266.41 304.657 268.126 301.713 268.775C300.046 269.144 298.918 269.913 298.479 271.739C298.09 273.326 296.712 274.175 295.175 274.564C293.488 274.983 292.9 275.981 292.48 277.698C291.233 282.798 291.912 287.849 292.301 292.919C292.301 292.999 292.301 293.079 292.331 293.158C293.748 297.969 295.075 302.81 296.613 307.581C297.511 310.375 299.297 312.671 301.703 314.388C304.976 316.723 307.272 319.827 309.129 323.321C310.286 325.506 311.634 327.602 312.672 329.838C313.8 332.263 315.496 333.721 318.121 334.389C321.315 335.208 323.91 337.014 325.597 340.019L325.607 340.029Z" fill="#413C1C"/>
<path d="M96.9149 125.27C100.318 128.644 101.836 133.125 101.746 138.614C101.656 144.124 99.9791 149.064 96.6654 153.795C94.1802 157.349 91.2657 160.043 87.8223 161.93C87.9421 162.569 88.0619 163.207 88.1916 163.846C88.3513 164.685 88.2116 165.473 87.7625 166.202C87.5129 166.621 87.1736 166.97 86.7444 167.26C86.0258 167.769 85.377 167.819 84.7882 167.419C84.4887 167.22 84.3091 166.91 84.2292 166.491C84.0496 165.553 83.8799 164.605 83.7202 163.656C79.129 165.004 74.9271 164.585 71.1543 162.06C67.2218 159.385 64.9562 155.173 64.6268 149.304C64.2874 143.455 66.064 137.566 69.9067 132.077C72.6115 128.204 75.8752 125.32 79.5582 123.473C79.5482 122.855 79.5382 122.236 79.5282 121.627C79.5282 120.739 79.8077 119.93 80.3766 119.222C80.8657 118.613 81.4446 118.204 82.1133 117.994C82.782 117.784 83.311 117.864 83.6903 118.234C83.9498 118.483 84.0795 118.832 84.0795 119.272C84.0795 120.13 84.0795 120.988 84.0795 121.847C89.3295 120.699 93.5813 121.956 96.9249 125.26L96.9149 125.27ZM79.7578 128.803C76.7036 129.362 74.1286 131.089 72.1224 133.963C69.757 137.347 69.1082 140.98 70.1961 144.683C71.1543 148.026 73.2602 150.831 76.4541 153.137C78.3106 154.484 80.2968 155.432 82.4227 156.031C81.0853 147.158 80.187 138.066 79.7578 128.803ZM90.9364 132.516C88.9701 130.72 86.7644 129.522 84.3191 128.983C84.7283 138.305 85.6066 147.458 86.944 156.39C90.088 156.101 92.5533 154.624 94.4397 151.919C96.5456 148.915 97.1645 145.591 96.3261 141.748C95.5675 138.225 93.8009 135.131 90.9264 132.506L90.9364 132.516Z" fill="#413C1C"/>
<path d="M126.997 104.021C128.983 106.765 129.172 110.229 127.755 114.441C126.487 118.234 124.461 121.457 121.607 124.272C118.852 126.987 115.978 128.913 112.884 130.061C109.161 131.408 106.166 131.069 103.931 128.803C102.893 127.755 102.384 126.378 102.424 124.671C102.464 122.964 103.162 121.368 104.5 119.92C105.607 118.723 106.865 118.004 108.232 117.764C109.6 117.535 110.678 117.874 111.466 118.762C111.816 119.152 112.065 119.661 112.235 120.28C112.424 121.038 112.325 121.617 111.925 122.026C111.856 122.106 111.766 122.196 111.666 122.296C111.566 122.396 111.496 122.475 111.446 122.525C110.847 123.154 110.808 123.743 111.317 124.302C111.955 125.001 113.063 124.941 114.63 124.162C115.998 123.473 117.305 122.495 118.573 121.248C120.04 119.801 121.128 118.154 121.846 116.287C122.685 114.121 122.625 112.385 121.597 111.087C120.229 109.351 117.724 109.121 114.091 110.618C110.798 112.065 107.494 113.622 104.19 115.279C100.248 116.686 97.1038 116.287 94.7583 113.842C92.9817 111.995 92.6024 109.291 93.7402 105.747C94.7483 102.603 96.6247 99.6291 99.3595 96.9543C100.637 95.6967 101.984 94.6786 103.392 93.9001C103.472 93.8702 103.981 93.6207 104.919 93.1615C105.697 92.8222 106.146 92.6026 106.266 92.4928C106.526 92.2533 106.586 92.0437 106.446 91.874C106.376 91.7842 106.216 91.6943 105.967 91.5945C105.717 91.5047 105.548 91.3949 105.458 91.2851C105.079 90.7961 105.238 90.2371 105.937 89.5984C106.586 89.0195 107.224 88.8797 107.853 89.1792C110.259 90.2671 112.634 91.3949 114.99 92.5527C115.009 92.5727 115.049 92.5926 115.109 92.6126C115.139 92.6625 115.169 92.6924 115.189 92.7124C115.389 92.9819 115.229 93.5109 114.71 94.2994C114.191 95.0878 113.722 95.6767 113.293 96.046C113.003 96.2955 112.265 96.3953 111.067 96.3454C109.55 96.3255 108.262 96.4752 107.224 96.7846C105.448 97.2936 103.741 98.3217 102.144 99.8886C100.857 101.146 99.9483 102.454 99.4393 103.771C98.8305 105.338 98.9503 106.576 99.7487 107.474C100.797 108.642 102.414 108.762 104.589 107.913C105.568 107.524 107.384 106.496 110.059 104.899C118.443 100.008 124.122 100.068 126.957 103.991L126.997 104.021Z" fill="#413C1C"/>
<path d="M149.585 65.5844C149.904 65.7341 150.134 65.9437 150.273 66.2231C150.613 66.9118 150.403 67.4707 149.635 67.9099C149.156 68.1894 148.637 68.2193 148.078 68.0197C146.71 67.5306 145.413 67.6604 144.205 68.389C141.62 69.956 139.065 71.5729 136.53 73.2497C140.802 80.6655 145.073 88.0713 149.345 95.4871C149.904 96.4452 151.062 96.4253 152.829 95.4471C153.557 94.978 154.116 95.0679 154.495 95.6967C154.905 96.3754 154.725 96.9642 153.946 97.4533C150.184 99.8587 146.481 102.414 142.848 105.109C142.149 105.628 141.57 105.588 141.101 104.989C140.901 104.749 140.842 104.46 140.921 104.121C141.001 103.781 141.241 103.482 141.63 103.222C142.928 102.015 143.307 100.987 142.748 100.098C138.207 92.8521 133.665 85.606 129.134 78.3599C126.808 80.0367 124.493 81.7733 122.217 83.5499C121.079 84.4382 120.421 85.6659 120.251 87.2129C120.181 87.8417 119.932 88.3408 119.492 88.7001C118.794 89.279 118.215 89.259 117.776 88.6402C117.596 88.3907 117.506 88.0713 117.526 87.702C117.596 85.1768 117.706 82.6517 117.856 80.1065C117.925 79.1184 118.395 78.4797 119.243 78.2102C120.021 77.9706 120.441 78.1802 120.5 78.839C120.72 79.1683 121.469 78.839 122.766 77.8509C128.116 73.8186 133.585 70.0458 139.175 66.5425C140.562 65.6742 141.151 65.0853 140.931 64.7559C140.402 64.4166 140.392 63.9176 140.911 63.2688C141.48 62.5602 142.209 62.3705 143.067 62.7099C145.263 63.6381 147.429 64.5963 149.575 65.5844H149.585Z" fill="#413C1C"/>
<path d="M191.644 71.014C190.885 74.2777 190.196 77.5514 189.578 80.8152C189.448 81.414 189.148 81.8133 188.669 81.9929C187.901 82.2923 187.402 82.1227 187.182 81.4739C187.132 81.3342 187.122 81.2044 187.142 81.0747C186.833 80.7653 185.875 80.9349 184.268 81.5937C177.78 84.2985 171.402 87.3626 165.164 90.7961C164.396 91.2153 163.817 91.1055 163.418 90.4467C163.248 90.1772 163.228 89.8878 163.338 89.5584C163.458 89.2291 163.737 88.9596 164.176 88.75C165.584 87.7519 166.073 86.7837 165.633 85.8256C161.961 77.9706 158.298 70.1157 154.625 62.2607C154.165 61.2826 152.998 61.2327 151.131 62.1609C150.153 62.6999 149.524 62.6001 149.235 61.8515C148.975 61.1528 149.275 60.554 150.133 60.0849C156.96 56.3121 163.937 52.9286 171.013 49.9244C172.45 49.3155 173.109 48.8364 172.969 48.4572C172.85 48.3474 172.77 48.2476 172.73 48.1378C172.49 47.489 172.81 46.99 173.678 46.6406C174.267 46.4011 174.826 46.461 175.335 46.8103C177.361 48.0879 179.357 49.3854 181.323 50.7128C181.613 50.9125 181.812 51.142 181.902 51.4115C182.152 52.18 181.842 52.719 180.964 53.0484C180.455 53.238 179.966 53.1881 179.477 52.8787C178.239 52.1601 176.952 52.0702 175.634 52.6092C171.203 54.4058 166.821 56.362 162.48 58.458C163.607 61.1129 164.735 63.7678 165.863 66.4327C168.767 65.0254 171.702 63.688 174.646 62.4204C175.914 61.8814 176.772 60.9133 177.241 59.516C177.411 58.9471 177.75 58.5678 178.239 58.3682C179.098 58.0188 179.657 58.2284 179.926 58.987C180.016 59.2565 180.016 59.5659 179.916 59.9152C179.247 62.2607 178.609 64.6062 178.01 66.9617C177.87 67.5805 177.531 67.9997 177.002 68.2293C176.213 68.5686 175.694 68.4189 175.455 67.7802C175.415 67.6704 175.395 67.5406 175.415 67.3809C175.175 67.0515 174.626 67.0715 173.768 67.4508C171.672 68.379 169.596 69.3471 167.52 70.3552C169.077 74.0282 170.634 77.6912 172.191 81.3641C176.772 79.1484 181.423 77.1123 186.114 75.2658C187.701 74.647 188.689 73.08 189.118 70.5349C189.318 69.9759 189.637 69.6067 190.077 69.447C190.855 69.1675 191.364 69.397 191.594 70.1356C191.684 70.4051 191.684 70.7145 191.614 71.0439L191.644 71.014Z" fill="#413C1C"/>
<path d="M230.819 67.5007C230.889 68.3091 230.47 68.7683 229.572 68.908C225.07 69.5967 220.579 70.445 216.127 71.4531C215.199 71.6627 214.63 71.4032 214.411 70.6547C214.191 69.9061 214.61 69.3971 215.658 69.1276C216.916 68.7283 217.485 68.2293 217.365 67.6005C217.305 67.2911 217.016 66.9517 216.487 66.6024C212.744 64.0773 208.871 61.6619 204.869 59.3563C204.28 59.516 203.701 59.6757 203.112 59.8354C203.921 63.1191 204.729 66.3928 205.538 69.6765C205.797 70.7345 206.875 71.1138 208.761 70.8543C209.59 70.6347 210.089 70.9142 210.259 71.6627C210.428 72.4213 210.099 72.9004 209.27 73.1199C205.118 74.2178 200.996 75.4555 196.904 76.8328C196.086 77.1123 195.537 76.8927 195.257 76.1641C195.138 75.8746 195.158 75.5752 195.317 75.2758C195.477 74.9764 195.796 74.7668 196.255 74.637C197.783 73.9084 198.411 73.0501 198.122 72.022C195.736 63.6181 193.341 55.2242 190.956 46.8203C190.656 45.7723 189.518 45.5128 187.552 46.0817C186.514 46.4311 185.895 46.2215 185.696 45.4429C185.516 44.7143 185.895 44.1854 186.833 43.866C193.97 41.4506 201.186 39.4045 208.472 37.7277C211.436 37.049 214.131 37.3485 216.477 38.5961C218.992 39.9634 220.459 42.1093 220.948 44.9739C221.417 47.7286 220.898 50.2937 219.471 52.6791C218.024 55.1543 215.978 56.6814 213.293 57.3202C217.465 59.8853 221.497 62.5901 225.39 65.3947C226.927 66.5026 228.194 66.8919 229.232 66.5226C230.21 66.4028 230.739 66.7222 230.799 67.4707L230.819 67.5007ZM213.073 46.1616C212.744 44.6445 211.955 43.4168 210.678 42.4886C209.191 41.4107 207.444 41.1013 205.478 41.5903C204.3 41.8798 203.132 42.1792 201.964 42.4886C200.008 43.0076 199.23 44.0855 199.619 45.6725C200.547 49.4453 201.485 53.2081 202.414 56.9808C204.29 56.4519 206.166 55.9628 208.053 55.4837C210.428 54.8849 211.995 53.5574 212.774 51.4415C213.403 49.8246 213.512 48.0679 213.073 46.1616Z" fill="#413C1C"/>
<path d="M264.754 59.506C263.008 62.3007 261.321 65.1153 259.704 67.9498C259.384 68.4688 258.985 68.7283 258.486 68.7283C258.077 68.7283 257.758 68.5786 257.498 68.2792C257.249 67.9798 257.199 67.6504 257.348 67.3011C257.408 67.2412 257.438 67.1813 257.438 67.1314C257.438 66.842 256.46 66.7022 254.514 66.7421C247.627 66.8919 240.75 67.4109 233.913 68.2992C233.005 68.4189 232.506 68.0796 232.406 67.2811C232.316 66.5326 232.726 66.1133 233.654 66.0235C235.271 65.6143 236.029 64.8857 235.919 63.8277C235.021 55.1044 234.113 46.3812 233.215 37.6579C233.105 36.5699 232.037 36.0909 230.021 36.2605C228.943 36.4003 228.394 36.0709 228.364 35.2625C228.344 34.5039 228.803 34.0647 229.751 33.945C234.672 33.3062 239.612 32.8271 244.553 32.5077C245.611 32.4379 246.13 32.7772 246.14 33.4958C246.14 34.3342 245.651 34.7834 244.673 34.8433C242.597 35.0928 241.609 35.8314 241.688 37.0091C242.267 45.3631 242.836 53.7071 243.415 62.0611C248.366 61.6719 253.316 61.4822 258.277 61.4623C259.953 61.4623 261.371 60.3444 262.578 58.1187C263.117 57.4599 263.706 57.2803 264.355 57.5498C264.804 57.7594 265.024 58.1286 265.014 58.6476C265.014 58.9371 264.914 59.2265 264.744 59.506H264.754Z" fill="#413C1C"/>
<path d="M309.209 73.3595C305.446 72.3414 301.653 71.4431 297.85 70.6646C296.762 70.4451 296.293 69.9161 296.443 69.0577C296.563 68.379 297.032 68.1195 297.84 68.2792C299.218 68.379 299.976 68.0796 300.116 67.341C300.146 67.2013 300.136 67.0416 300.116 66.8519C299.487 63.4085 298.809 59.9551 298.07 56.5117C295.844 54.9947 293.818 54.0864 292.061 53.777C289.896 53.3977 287.979 53.4676 286.332 53.9766C284.416 56.9908 282.57 60.035 280.773 63.0991C279.715 64.9256 278.338 66.2531 276.621 67.1114C275.134 67.8999 273.577 68.2393 271.92 68.1195C270.014 67.9898 268.576 67.351 267.578 66.1832C266.58 65.0155 266.091 63.7978 266.131 62.5302C266.181 61.0331 266.96 59.8753 268.497 59.0768C269.095 58.7574 269.774 58.6177 270.523 58.6676C271.471 58.7275 272.01 58.9171 272.16 59.2465C272.219 59.3962 272.16 59.5958 271.98 59.8454C271.8 60.0949 271.71 60.3045 271.7 60.4742C271.71 60.8235 271.86 61.1329 272.13 61.4124C272.399 61.6918 272.768 61.8415 273.218 61.8815C274.505 61.9713 275.453 61.4623 276.102 60.3344C280.274 52.8787 284.815 45.5428 289.706 38.3765C289.846 38.1669 289.916 37.9673 289.946 37.7976C290.035 37.1089 289.417 36.6099 288.109 36.3204C287.071 36.1807 286.652 35.7116 286.851 34.8932C287.041 34.1945 287.55 33.8851 288.379 34.0049C293.898 34.7335 299.397 35.6717 304.857 36.8195C305.825 37.0191 306.244 37.4782 306.105 38.1868C305.955 38.9554 305.416 39.2548 304.488 39.1051C303.559 38.9554 303.03 39.2249 302.911 39.9036C302.871 40.1331 302.881 40.3926 302.931 40.702C304.947 50.0042 306.574 59.3164 307.821 68.6186C307.971 69.7264 308.5 70.5149 309.398 70.994C310.356 71.2535 310.736 71.8025 310.526 72.6408C310.366 73.3096 309.927 73.5491 309.229 73.3595H309.209ZM296.952 51.4315C296.144 47.9981 295.275 44.5746 294.347 41.1512C292.311 44.0257 290.325 46.9301 288.408 49.8645C289.676 49.6349 291.103 49.6449 292.66 49.8944C293.848 50.0841 295.285 50.5931 296.952 51.4315Z" fill="#413C1C"/>
<path d="M358.424 56.5517C358.194 57.3601 357.615 57.5298 356.677 57.0707C355.07 56.2223 354.022 56.382 353.553 57.5098C349.68 66.812 345.818 76.1142 341.945 85.4263C340.588 84.7876 339.23 84.1588 337.863 83.5499C334.569 73.6389 330.507 63.7778 325.696 54.0564C323.94 60.1448 322.173 66.2231 320.416 72.3115C320.057 73.5591 320.526 74.3675 321.814 74.7767C322.702 75.0762 323.002 75.6251 322.732 76.4136C322.493 77.0923 321.964 77.282 321.155 77.0125C318.271 76.0343 315.376 75.1261 312.462 74.2877C311.703 74.0681 311.404 73.609 311.573 72.9103C311.783 72.0719 312.262 71.7925 313.021 72.062C314.767 72.4811 315.795 72.1318 316.095 70.994C318.35 62.5402 320.616 54.0864 322.872 45.6426C323.151 44.5846 322.702 43.826 321.494 43.3869C320.476 43.0875 320.127 42.5585 320.436 41.78C320.716 41.1412 321.255 40.9416 322.073 41.1711C324.329 41.8299 326.585 42.5385 328.83 43.2671C328.671 43.2571 334.579 52.9386 342.035 72.9403C344.311 67.1214 346.596 61.2926 348.872 55.4737C349.321 54.3259 348.892 53.4576 347.574 52.8887C346.646 52.4196 346.317 51.8307 346.586 51.1121C346.836 50.4434 347.445 50.3136 348.403 50.7228C351.487 52.0703 354.561 53.4776 357.605 54.9747C358.344 55.334 358.623 55.873 358.434 56.5816L358.424 56.5517Z" fill="#413C1C"/>
<path d="M387.22 93.3112C384.605 97.2138 380.852 99.3297 376.091 99.9485C371.32 100.567 366.918 99.5194 362.617 96.8046C357.536 93.6007 352.356 90.6464 347.076 87.9515C346.328 87.5723 346.048 87.0333 346.248 86.3346C346.358 86.0053 346.567 85.7857 346.887 85.6759C347.206 85.5661 347.575 85.636 348.005 85.8855C349.602 86.4744 350.62 86.3147 351.059 85.3565C354.692 77.4816 358.325 69.6067 361.958 61.7318C362.417 60.7536 361.738 59.7256 359.922 58.6976C358.894 58.1786 358.594 57.5697 359.034 56.8611C359.423 56.2622 360.032 56.1624 360.87 56.5916C367.068 59.7456 373.156 63.2089 379.125 66.9817C384.076 70.1157 387.399 74.4374 388.946 79.6574C390.503 84.8874 389.835 89.4487 387.23 93.3312L387.22 93.3112ZM380.403 88.221C382.399 84.9972 383.267 81.6336 382.898 78.1204C382.499 74.3775 380.732 71.4531 377.668 69.4769C376.141 68.5088 374.614 67.5706 373.067 66.6523C372.268 66.1732 371.49 65.9437 370.751 65.9537C370.012 65.9636 369.523 66.2132 369.284 66.7022C365.601 73.9983 361.908 81.2943 358.225 88.5903C357.686 89.6583 358.175 90.6264 359.682 91.5247C361.06 92.3431 362.437 93.1915 363.804 94.0498C366.559 95.7865 369.503 96.0161 372.767 94.7585C375.851 93.5807 378.416 91.4448 380.403 88.241V88.221Z" fill="#413C1C"/>
<path d="M410.385 122.865C408.089 125.32 404.886 125.889 400.793 124.851C397.11 123.913 393.877 122.126 390.952 119.441C388.128 116.846 386.052 114.042 384.674 110.918C383.057 107.155 383.067 103.971 384.884 101.306C385.732 100.068 386.92 99.3497 388.477 99.17C390.034 98.9904 391.551 99.5094 393.018 100.737C394.236 101.755 395.024 102.993 395.394 104.41C395.763 105.837 395.563 107.015 394.835 107.963C394.515 108.382 394.076 108.722 393.527 108.971C392.859 109.271 392.31 109.231 391.89 108.861C391.811 108.792 391.721 108.712 391.611 108.622C391.501 108.532 391.421 108.462 391.371 108.412C390.733 107.863 390.184 107.893 389.735 108.502C389.166 109.271 389.335 110.438 390.234 111.995C391.022 113.353 392.06 114.62 393.358 115.818C394.865 117.195 396.512 118.164 398.328 118.713C400.434 119.351 402.031 119.082 403.109 117.834C404.556 116.167 404.436 113.453 402.62 109.75C400.883 106.406 399.077 103.093 397.2 99.8088C395.484 95.8164 395.524 92.4429 397.5 89.6483C398.997 87.5323 401.412 86.7738 404.766 87.5223C407.75 88.1811 410.674 89.798 413.469 92.383C414.777 93.5907 415.875 94.9082 416.763 96.3155C416.803 96.3953 417.092 96.9044 417.631 97.8625C418.04 98.661 418.3 99.1201 418.42 99.2299C418.669 99.4794 418.869 99.5194 419.019 99.3497C419.088 99.2698 419.158 99.0802 419.208 98.8007C419.268 98.5213 419.338 98.3316 419.428 98.2218C419.827 97.7527 420.376 97.8625 421.055 98.5412C421.673 99.17 421.883 99.8387 421.683 100.557C420.975 103.262 420.236 105.957 419.468 108.632C419.448 108.652 419.438 108.702 419.428 108.772C419.388 108.812 419.358 108.841 419.348 108.861C419.118 109.111 418.609 108.991 417.811 108.522C417.012 108.053 416.403 107.614 416.004 107.195C415.735 106.915 415.555 106.137 415.445 104.839C415.276 103.202 414.976 101.845 414.557 100.777C413.868 98.9305 412.711 97.2437 411.084 95.7266C409.766 94.509 408.469 93.7105 407.201 93.3312C405.694 92.8821 404.576 93.1615 403.848 94.1297C402.899 95.3873 402.959 97.114 403.997 99.3297C404.466 100.318 405.624 102.124 407.411 104.789C412.94 113.163 413.679 119.361 410.385 122.845V122.865Z" fill="#413C1C"/>
<path d="M457.414 154.494C457.134 154.933 456.785 155.293 456.366 155.562C455.268 156.291 453.98 156.331 452.513 155.722C451.046 155.113 449.828 153.985 448.81 152.318C448.161 151.26 447.772 150.222 447.642 149.204C447.503 148.186 447.602 147.547 447.932 147.308C448.022 147.248 448.141 147.218 448.301 147.228C448.461 147.238 448.61 147.338 448.77 147.507C448.93 147.677 449.1 147.737 449.299 147.697C449.499 147.657 449.678 147.577 449.838 147.467C450.866 146.729 450.537 144.992 448.81 142.317C447.692 140.601 446.425 139.153 445.037 137.996C440.835 134.532 436.623 132.566 432.531 131.977C432.671 141.868 432.252 151.6 431.304 161.121C431.094 163.217 431.373 164.754 432.192 165.742C432.751 166.731 432.761 167.429 432.232 167.828C431.563 168.318 430.934 168.048 430.326 167.03C427.221 161.85 423.968 156.859 420.564 152.079C419.955 151.22 419.886 150.532 420.345 150.003C420.894 149.404 421.552 149.603 422.321 150.631C423.279 151.789 423.978 152.178 424.457 151.799C424.696 151.61 424.836 151.16 424.886 150.452C425.275 144.204 425.435 137.876 425.355 131.478C424.487 131.548 423.379 131.718 422.041 131.997C419.786 134.123 417.52 136.239 415.264 138.365C414.476 139.114 414.715 140.371 415.963 142.178C416.552 142.926 416.572 143.565 416.033 144.094C415.494 144.623 414.925 144.493 414.306 143.705C411.282 139.852 408.158 136.139 404.944 132.576C404.385 131.957 404.305 131.358 404.715 130.769C405.184 130.121 405.773 130.191 406.481 130.969C407.938 132.297 409.016 132.616 409.745 131.877C415.684 125.839 421.632 119.791 427.571 113.752C428.309 113.004 427.94 111.716 426.423 109.949C425.724 109.181 425.644 108.512 426.183 107.943C426.702 107.394 427.351 107.554 428.14 108.422C431.833 112.524 435.426 116.786 438.909 121.218C439.598 122.096 439.698 122.755 439.228 123.174C438.59 123.753 437.931 123.593 437.252 122.725C435.735 120.799 434.517 120.27 433.629 121.108C431.553 123.054 429.477 125.011 427.401 126.957C430.166 126.498 433.29 126.697 436.773 127.655C440.027 128.544 443.101 129.961 445.956 131.887C449.129 134.033 451.924 136.958 454.27 140.601C454.729 141.319 455.198 142.098 455.657 142.936C458.452 148.136 458.991 152.069 457.434 154.464L457.414 154.494Z" fill="#413C1C"/>
<path d="M96.6041 405.972C96.165 406.381 95.5761 406.731 94.8575 407C91.8632 408.148 88.5596 407.869 84.9964 406.032C81.7127 404.355 78.5088 401.551 75.5345 397.588C71.2427 391.869 69.3164 385.981 69.7256 380.411C70.1348 374.982 72.6301 370.979 76.9518 368.314C81.2236 365.669 85.8947 365.14 90.9051 366.348C96.175 367.636 100.357 370.5 103.76 375.061C105.018 376.748 106.006 378.365 106.695 379.942C106.765 380.072 106.954 380.681 107.264 381.759C107.553 382.667 107.773 383.206 107.912 383.376C108.192 383.715 108.431 383.805 108.631 383.635C108.741 383.545 108.851 383.386 108.95 383.176C109.06 382.966 109.15 382.827 109.24 382.747C109.659 382.387 110.108 382.507 110.597 383.096C111.206 383.825 111.366 384.503 111.076 385.142C109.669 388.296 108.322 391.48 107.034 394.704C107.014 394.724 107.004 394.754 107.004 394.804C106.964 394.844 106.934 394.874 106.904 394.893C106.415 395.343 105.597 394.923 104.469 393.626C103.611 392.638 103.261 391.769 103.401 391.041C103.491 390.662 103.631 390.083 103.81 389.314C104.16 387.757 104.03 386.04 103.451 384.144C102.872 382.248 101.984 380.521 100.776 378.914C98.4007 375.78 95.3465 374.203 91.4241 374.133C88.2202 374.093 85.2559 374.942 82.5511 376.798C79.7065 378.754 77.91 381.399 77.2612 384.803C76.4727 388.705 77.5606 392.738 80.5349 396.61C81.5729 397.968 82.7806 399.056 84.128 399.864C85.7549 400.832 86.9726 400.952 87.781 400.263C88.5096 399.644 88.5196 398.926 87.8409 398.087C87.7611 397.988 87.6313 397.858 87.4417 397.688C87.2521 397.518 87.1223 397.389 87.0425 397.289C86.3139 396.371 86.5035 395.472 87.5914 394.584C88.7093 393.676 90.0367 393.476 91.5738 393.945C93.1108 394.414 94.5082 395.412 95.7957 396.95C97.0832 398.487 97.8018 400.104 97.9516 401.84C98.1013 403.577 97.6521 404.944 96.5742 405.952L96.6041 405.972Z" fill="#413C1C"/>
<path d="M136.588 432.202C133.773 436.294 129.581 438.57 123.862 438.68C118.153 438.779 112.604 436.624 107.583 432.212C102.573 427.8 99.6284 422.511 98.8599 416.782C98.0914 411.043 99.7482 406.481 103.471 403.058C107.114 399.654 111.625 398.337 116.885 398.736C122.155 399.135 126.736 401.162 130.938 404.854C135.17 408.577 137.785 412.889 138.933 418.159C140.081 423.409 139.412 428.1 136.588 432.192V432.202ZM129.122 426.613C131.537 423.409 132.725 419.985 132.815 416.402C132.915 412.55 131.657 409.535 128.972 407.17C126.317 404.834 123.263 404.056 119.66 404.834C116.436 405.533 113.372 407.32 110.518 410.294C107.683 413.248 106.026 416.462 105.657 419.975C105.208 423.858 106.535 427.252 109.599 429.946C112.693 432.671 116.267 433.589 120.149 432.711C123.722 431.913 126.687 429.837 129.122 426.603V426.613Z" fill="#413C1C"/>
<path d="M172.859 443.68C171.641 446.365 169.615 448.281 166.721 449.329C163.617 450.467 160.413 450.208 157.229 448.501C154.264 446.914 151.33 445.257 148.426 443.53C146.729 446.435 145.022 449.349 143.325 452.254C142.767 453.202 143.465 454.35 145.451 455.667C146.41 456.216 146.669 456.845 146.23 457.563C145.841 458.172 145.192 458.222 144.284 457.703C139.543 454.968 134.882 452.054 130.31 448.96C129.402 448.341 129.133 447.682 129.502 446.984C129.642 446.694 129.911 446.545 130.29 446.525C130.67 446.505 131.099 446.674 131.588 447.044C133.434 448.052 134.652 448.082 135.231 447.183C139.982 439.787 144.733 432.402 149.474 425.006C150.063 424.078 149.563 423.05 147.987 421.872C147.148 421.303 146.949 420.684 147.378 420.035C147.817 419.387 148.416 419.337 149.194 419.856C155.053 423.848 161.081 427.471 167.27 430.745C169.805 432.092 171.611 433.839 172.729 436.085C173.967 438.54 174.037 441.065 172.859 443.68ZM165.533 440.267C166.202 438.849 166.331 437.362 165.962 435.795C165.493 434.019 164.425 432.681 162.728 431.743C161.71 431.184 160.702 430.605 159.694 430.026C158.017 429.058 156.76 429.258 155.931 430.685C153.965 434.058 151.989 437.422 150.023 440.796C151.849 441.883 153.686 442.941 155.532 443.969C157.868 445.267 160.053 445.337 162.02 444.209C163.507 443.381 164.665 442.063 165.533 440.257V440.267Z" fill="#413C1C"/>
<path d="M204.347 474.082C201.752 476.377 199.087 478.623 196.352 480.829C195.833 481.228 195.264 481.338 194.646 481.158C193.648 480.869 193.248 480.39 193.438 479.721C193.478 479.581 193.548 479.471 193.658 479.382C193.538 478.923 192.45 478.404 190.414 477.775C182.12 475.22 173.935 472.175 165.931 468.652C164.943 468.213 164.573 467.624 164.813 466.876C164.903 466.566 165.132 466.367 165.501 466.277C165.871 466.187 166.31 466.277 166.849 466.536C168.815 467.175 170.003 466.985 170.412 465.997C173.796 457.873 177.189 449.758 180.573 441.634C180.992 440.616 180.333 439.698 178.606 438.849C177.658 438.43 177.389 437.861 177.778 437.153C178.147 436.494 178.726 436.344 179.535 436.703C185.972 439.538 192.53 442.013 199.187 444.119C200.534 444.548 201.273 444.558 201.393 444.169C201.373 444.009 201.373 443.88 201.413 443.77C201.612 443.101 202.111 442.892 202.91 443.131C203.449 443.291 203.808 443.67 203.988 444.269C204.736 446.525 205.525 448.77 206.353 451.016C206.483 451.345 206.503 451.655 206.433 451.934C206.223 452.723 205.684 452.992 204.816 452.753C204.317 452.613 203.958 452.274 203.748 451.735C203.179 450.407 202.261 449.559 200.974 449.17C196.652 447.882 192.37 446.435 188.128 444.848C187.11 447.593 186.102 450.327 185.084 453.072C188.158 454.23 191.252 455.298 194.366 456.306C195.704 456.735 196.991 456.545 198.199 455.727C198.668 455.388 199.167 455.288 199.676 455.448C200.564 455.707 200.894 456.226 200.674 457.005C200.594 457.284 200.415 457.534 200.125 457.753C198.209 459.23 196.253 460.687 194.266 462.115C193.757 462.504 193.208 462.604 192.61 462.404C191.731 462.125 191.392 461.646 191.611 460.987C191.651 460.877 191.721 460.767 191.841 460.648C191.861 460.228 191.402 459.869 190.464 459.55C188.168 458.781 185.882 457.963 183.607 457.114C182.209 460.897 180.802 464.69 179.405 468.473C185.014 470.579 190.693 472.445 196.422 474.082C198.359 474.631 200.305 473.992 202.191 472.145C202.71 471.806 203.229 471.696 203.748 471.826C204.666 472.056 205.036 472.555 204.846 473.313C204.776 473.593 204.617 473.852 204.357 474.092L204.347 474.082Z" fill="#413C1C"/>
<path d="M249.97 454.1C250.04 454.948 249.601 455.348 248.653 455.308C246.996 455.168 246.137 455.707 246.058 456.955C245.449 467.145 244.84 477.336 244.241 487.536C242.415 487.426 240.588 487.296 238.762 487.147C231.246 478.683 224.589 469.85 218.81 460.787C217.612 467.055 216.404 473.333 215.207 479.601C214.957 480.879 215.646 481.667 217.263 481.937C218.381 482.136 218.84 482.645 218.66 483.464C218.5 484.172 217.892 484.432 216.844 484.242C213.141 483.564 209.438 482.805 205.765 481.947C204.807 481.717 204.407 481.248 204.577 480.549C204.777 479.701 205.346 479.422 206.284 479.701C208.44 480.11 209.647 479.711 209.897 478.553C211.763 469.94 213.62 461.316 215.486 452.703C215.716 451.625 215.267 450.916 214.119 450.567C213.161 450.347 212.821 449.838 213.111 449.04C213.37 448.391 213.869 448.151 214.628 448.321C216.724 448.8 218.83 449.239 220.936 449.649C221.135 449.539 225.677 458.781 239.71 475.629C240.239 469.321 240.758 463.013 241.287 456.705C241.387 455.467 240.778 454.789 239.47 454.669C238.532 454.519 238.103 454.05 238.183 453.282C238.253 452.563 238.762 452.254 239.69 452.333C242.704 452.613 245.728 452.832 248.752 452.972C249.491 453.002 249.89 453.381 249.96 454.11L249.97 454.1Z" fill="#413C1C"/>
<path d="M292.758 484.073C292.997 484.851 292.498 485.35 291.241 485.53C286.31 486.248 281.35 486.807 276.389 487.207C275.371 487.287 274.812 486.967 274.722 486.248C274.622 485.44 275.121 485.001 276.209 484.911C278.295 484.632 279.283 483.883 279.174 482.735C278.774 478.433 278.375 474.142 277.966 469.84C274.912 468.872 272.297 468.433 270.061 468.562C267.676 468.702 265.22 469.421 262.625 470.728C262.715 475.03 262.815 479.332 262.905 483.633C262.935 484.941 263.953 485.56 265.979 485.46C267.107 485.42 267.666 485.819 267.666 486.658C267.666 487.386 267.127 487.766 266.059 487.805C261.118 487.975 256.178 487.995 251.247 487.845C250.259 487.815 249.78 487.436 249.81 486.708C249.84 485.839 250.339 485.45 251.317 485.54C252.884 485.38 253.673 484.751 253.692 483.683C253.862 474.88 254.032 466.077 254.192 457.274C254.211 456.176 253.633 455.567 252.445 455.447C251.467 455.418 251.038 454.978 251.167 454.15C251.297 453.431 251.736 453.082 252.505 453.102C256.637 453.222 260.769 453.202 264.901 453.062C265.799 453.032 266.268 453.371 266.298 454.09C266.328 454.869 265.889 455.308 264.981 455.398C263.184 455.457 262.306 456.106 262.336 457.384C262.406 460.458 262.466 463.522 262.536 466.596C265.23 465.408 267.656 464.74 269.891 464.61C272.157 464.48 274.702 464.859 277.587 465.728C277.297 462.624 277.008 459.53 276.718 456.426C276.609 455.268 275.73 454.759 274.073 454.869C272.956 454.958 272.427 454.589 272.467 453.771C272.516 453.012 272.986 452.603 273.884 452.523C277.906 452.194 281.918 451.745 285.911 451.176C286.969 451.026 287.558 451.295 287.667 452.014C287.717 452.333 287.608 452.643 287.348 452.942C287.089 453.242 286.719 453.431 286.25 453.501C285.112 453.661 284.623 454.36 284.783 455.597C285.961 464.281 287.148 472.964 288.336 481.637C288.486 482.755 289.344 483.284 290.911 483.204C291.909 483.055 292.528 483.344 292.758 484.073Z" fill="#413C1C"/>
<path d="M347.135 469.94C342.613 471.856 338.042 473.613 333.431 475.22C332.113 475.679 331.325 475.479 331.045 474.661C330.826 474.002 331.195 473.513 332.163 473.174C333.71 472.455 334.349 471.726 334.09 471.018C334.04 470.878 333.95 470.748 333.82 470.608C331.305 468.053 328.84 465.458 326.434 462.823C323.52 462.674 321.134 462.823 319.248 463.362C316.942 464.021 315.046 464.909 313.549 466.057C312.731 469.65 311.842 473.233 310.864 476.827C310.305 478.962 309.127 480.759 307.341 482.186C305.804 483.474 303.987 484.322 301.931 484.721C299.556 485.181 297.62 484.941 296.152 484.043C294.685 483.144 293.867 482.057 293.667 480.799C293.428 479.312 294.126 478.004 295.703 476.847C296.322 476.387 297.061 476.078 297.919 475.928C299.007 475.729 299.666 475.769 299.915 476.038C300.015 476.168 299.995 476.377 299.855 476.667C299.715 476.956 299.666 477.186 299.696 477.366C299.795 477.705 300.045 477.964 300.434 478.154C300.823 478.344 301.283 478.384 301.811 478.284C303.329 477.984 304.287 477.176 304.676 475.878C307.191 467.345 309.247 458.781 310.864 450.227C310.904 449.978 310.894 449.768 310.854 449.599C310.675 448.93 309.956 448.71 308.708 448.92C307.75 449.17 307.221 448.87 307.111 448.032C307.031 447.303 307.361 446.844 308.109 446.644C313.07 445.327 317.98 443.81 322.841 442.103C323.7 441.804 324.248 441.983 324.498 442.662C324.758 443.401 324.478 443.94 323.66 444.279C322.831 444.618 322.532 445.107 322.761 445.766C322.841 445.986 322.971 446.215 323.161 446.455C329.289 453.601 335.816 460.508 342.743 467.145C343.561 467.934 344.59 468.203 345.807 467.944C346.935 467.464 347.664 467.624 348.003 468.423C348.272 469.061 347.983 469.56 347.145 469.92L347.135 469.94ZM322.951 458.901C320.595 456.256 318.29 453.571 316.054 450.866C315.465 454.37 314.807 457.873 314.068 461.386C315.226 460.648 316.593 460.049 318.2 459.57C319.418 459.21 320.995 458.991 322.961 458.911L322.951 458.901Z" fill="#413C1C"/>
<path d="M381.418 435.975C381.997 436.414 381.718 437.093 380.56 438.001C379.243 438.949 378.973 440.027 379.782 441.255C380.58 442.472 381.389 443.69 382.187 444.918C383.015 446.165 382.446 448.221 380.39 451.026C378.185 454.05 375.041 456.755 371.008 458.981C365.838 461.855 360.389 462.594 354.979 461.206C349.569 459.819 346.006 456.775 344.08 452.383C342.224 448.132 342.333 443.54 344.08 438.57C345.827 433.749 348.462 430.266 352.184 427.91C353.781 426.922 355.279 426.184 356.716 425.704C357.614 425.405 358.622 425.185 359.74 425.036C360.638 424.926 361.207 424.786 361.447 424.637C361.537 424.577 361.616 424.517 361.686 424.437C361.906 424.128 361.776 423.768 361.317 423.339C360.848 422.91 360.878 422.471 361.397 422.002C362.175 421.303 362.904 421.183 363.613 421.652C366.297 423.489 369.022 425.285 371.797 427.032C371.957 427.132 372.066 427.252 372.156 427.371C372.426 427.781 372.136 428.389 371.258 429.178C370.2 430.166 369.272 430.495 368.473 430.186C367.924 429.966 367.385 429.757 366.846 429.537C363.323 428.12 359.93 428.429 356.486 430.415C353.043 432.402 351.057 435.186 350.438 438.949C349.929 442.113 350.388 445.277 351.935 448.451C353.542 451.755 355.987 454.17 359.361 455.587C362.934 457.054 366.457 456.885 369.771 455.048C372.026 453.791 373.474 452.413 374.093 450.976C374.552 449.818 374.492 448.75 373.903 447.782C373.484 447.094 373.064 446.395 372.645 445.706C371.897 444.469 370.789 444.379 369.302 445.407C368.593 445.866 368.024 446.095 367.605 446.085C367.186 446.085 366.896 445.946 366.737 445.666C366.397 444.998 366.567 444.459 367.256 444.049C371.418 441.574 375.52 438.949 379.532 436.174C380.191 435.715 380.82 435.645 381.418 435.975Z" fill="#413C1C"/>
<path d="M417.05 412.959C417.609 416.482 418.098 420.035 418.517 423.618C418.577 424.287 418.357 424.866 417.878 425.345C417.09 426.114 416.451 426.243 415.982 425.734C415.882 425.625 415.822 425.505 415.812 425.365C415.353 425.245 414.315 425.974 412.658 427.511C405.951 433.749 398.944 439.508 391.698 444.778C390.8 445.427 390.101 445.457 389.582 444.858C389.363 444.618 389.323 444.319 389.433 443.95C389.552 443.58 389.862 443.231 390.371 442.902C391.958 441.494 392.427 440.346 391.798 439.478C386.628 432.382 381.448 425.285 376.278 418.199C375.629 417.311 374.491 417.43 372.844 418.518C371.986 419.137 371.357 419.087 370.948 418.388C370.579 417.73 370.758 417.141 371.487 416.612C377.316 412.38 382.965 407.789 388.375 402.818C389.473 401.81 389.882 401.142 389.612 400.852C389.463 400.792 389.353 400.722 389.273 400.632C388.804 400.123 388.894 399.565 389.532 398.956C389.972 398.547 390.491 398.407 391.099 398.537C393.445 398.976 395.82 399.365 398.216 399.724C398.575 399.774 398.855 399.904 399.054 400.104C399.623 400.682 399.563 401.311 398.885 401.99C398.495 402.379 398.006 402.539 397.417 402.469C395.96 402.329 394.723 402.738 393.694 403.717C390.231 407 386.678 410.124 383.045 413.109C384.861 415.394 386.678 417.67 388.494 419.955C391.129 417.8 393.724 415.554 396.28 413.248C397.367 412.26 397.906 410.993 397.856 409.496C397.817 408.897 398.006 408.408 398.415 408.018C399.124 407.35 399.753 407.3 400.302 407.889C400.501 408.098 400.611 408.388 400.651 408.757C400.881 411.232 401.08 413.727 401.23 416.233C401.29 416.881 401.07 417.43 400.581 417.879C399.863 418.538 399.274 418.598 398.815 418.069C398.735 417.979 398.685 417.86 398.645 417.7C398.296 417.47 397.727 417.7 396.948 418.398C395.042 420.075 393.116 421.722 391.159 423.319C393.665 426.473 396.17 429.617 398.685 432.771C403.496 428.828 408.177 424.656 412.708 420.245C414.235 418.758 414.744 416.652 414.185 414.007C414.175 413.358 414.365 412.829 414.764 412.42C415.473 411.691 416.092 411.592 416.65 412.14C416.86 412.34 416.99 412.62 417.05 412.969V412.959Z" fill="#413C1C"/>
<path d="M425.035 359.621C425.803 359.96 425.903 360.599 425.344 361.517C424.306 363.094 424.286 364.212 425.324 364.891C433.808 370.41 442.302 375.94 450.785 381.459C449.667 383.216 448.54 384.953 447.392 386.669C435.874 389.943 424.536 392.009 413.507 392.987C418.268 397.179 423.028 401.381 427.799 405.573C428.767 406.431 429.825 406.172 430.953 404.775C431.742 403.826 432.44 403.627 433.049 404.206C433.568 404.705 433.468 405.403 432.72 406.302C430.085 409.466 427.39 412.53 424.635 415.514C423.917 416.293 423.288 416.432 422.769 415.923C422.15 415.324 422.22 414.656 422.979 413.927C424.516 412.131 424.835 410.813 423.967 410.015C417.539 404.056 411.121 398.087 404.694 392.129C403.885 391.38 403.027 391.46 402.099 392.348C401.38 393.127 400.751 393.187 400.222 392.528C399.793 391.969 399.863 391.39 400.432 390.771C401.999 389.065 403.536 387.318 405.053 385.541C405.073 385.252 415.553 385.711 437.96 380.162C432.79 376.599 427.62 373.035 422.46 369.462C421.441 368.764 420.523 369.033 419.685 370.261C419.036 371.109 418.387 371.299 417.759 370.84C417.18 370.42 417.19 369.782 417.778 368.913C419.705 366.109 421.571 363.224 423.388 360.28C423.827 359.561 424.386 359.342 425.055 359.621H425.035Z" fill="#413C1C"/>
<path d="M228.113 408.038C228.113 408.847 227.704 409.256 226.895 409.256H214.739C213.98 409.256 213.611 408.877 213.611 408.128C213.611 407.429 214 407.02 214.789 406.91C216.495 406.97 217.344 406.352 217.344 405.064V394.125C217.344 392.368 216.845 391.47 215.837 391.44L214.369 391.4C213.751 391.37 213.451 390.851 213.451 389.853C213.451 388.935 213.741 388.466 214.329 388.466H216.006C217.823 388.466 219.779 387.987 221.875 387.039H224.181V405.064C224.181 406.381 225.089 406.97 226.905 406.821C227.714 406.761 228.123 407.17 228.123 408.038H228.113Z" fill="#413C1C"/>
<path d="M255.101 400.293C255.101 403.118 254.053 405.443 251.957 407.29C249.751 409.186 246.857 410.134 243.284 410.134C239.711 410.134 236.856 409.266 234.73 407.539C232.694 405.892 231.666 403.747 231.666 401.092C231.666 398.836 232.435 396.91 233.972 395.313C234.67 394.584 235.758 393.885 237.245 393.217C234.56 391.49 233.223 389.224 233.223 386.44C233.223 383.925 234.141 381.868 235.968 380.242C237.794 378.625 240.309 377.816 243.493 377.816C246.987 377.816 249.572 378.585 251.248 380.122C252.566 381.32 253.215 382.827 253.215 384.643C253.215 386.09 252.786 387.338 251.917 388.366C251.278 389.144 250.031 390.143 248.184 391.34C249.801 392.119 251.109 392.927 252.087 393.766C254.103 395.472 255.101 397.648 255.101 400.293ZM248.184 401.501C248.184 400.213 247.735 399.135 246.847 398.257C245.949 397.379 244.292 396.411 241.857 395.343C241.018 395.792 240.289 396.311 239.681 396.89C238.593 397.948 238.044 399.305 238.044 400.952C238.044 402.599 238.603 403.966 239.721 405.064C240.759 406.072 241.956 406.571 243.324 406.571C244.471 406.571 245.569 406.082 246.617 405.104C247.665 404.126 248.194 402.928 248.194 401.501H248.184ZM247.386 384.863C247.386 383.855 246.937 383.006 246.048 382.308C245.27 381.689 244.412 381.389 243.493 381.389C242.575 381.389 241.757 381.709 240.978 382.358C240.11 383.086 239.681 383.974 239.681 385.042C239.681 385.911 239.99 386.659 240.619 387.308C241.248 387.947 242.356 388.626 243.952 389.324C246.248 387.927 247.386 386.45 247.386 384.883V384.863Z" fill="#413C1C"/>
<path d="M282.14 400.293C282.14 403.118 281.092 405.443 278.996 407.29C276.79 409.186 273.896 410.134 270.323 410.134C266.75 410.134 263.895 409.266 261.769 407.539C259.733 405.892 258.705 403.747 258.705 401.092C258.705 398.836 259.474 396.91 261.011 395.313C261.709 394.584 262.797 393.885 264.284 393.217C261.6 391.49 260.262 389.224 260.262 386.44C260.262 383.925 261.18 381.868 263.007 380.242C264.833 378.625 267.348 377.816 270.532 377.816C274.026 377.816 276.611 378.585 278.288 380.122C279.605 381.32 280.254 382.827 280.254 384.643C280.254 386.09 279.825 387.338 278.956 388.366C278.317 389.144 277.07 390.143 275.223 391.34C276.84 392.119 278.148 392.927 279.126 393.766C281.142 395.472 282.14 397.648 282.14 400.293ZM275.223 401.501C275.223 400.213 274.774 399.135 273.886 398.257C272.988 397.379 271.331 396.411 268.896 395.343C268.057 395.792 267.329 396.311 266.72 396.89C265.632 397.948 265.083 399.305 265.083 400.952C265.083 402.599 265.642 403.966 266.76 405.064C267.798 406.072 268.995 406.571 270.363 406.571C271.511 406.571 272.608 406.082 273.656 405.104C274.704 404.126 275.233 402.928 275.233 401.501H275.223ZM274.425 384.863C274.425 383.855 273.976 383.006 273.087 382.308C272.309 381.689 271.451 381.389 270.532 381.389C269.614 381.389 268.796 381.709 268.017 382.358C267.149 383.086 266.72 383.974 266.72 385.042C266.72 385.911 267.029 386.659 267.658 387.308C268.287 387.947 269.395 388.626 270.992 389.324C273.287 387.927 274.425 386.45 274.425 384.883V384.863Z" fill="#413C1C"/>
<path d="M312.571 400.952C312.571 403.996 311.812 406.9 310.285 409.675C308.758 412.44 306.602 414.855 303.808 416.931C302.75 417.71 301.263 418.598 299.366 419.576C297.46 420.554 295.933 421.223 294.755 421.592C294.276 421.732 293.817 421.802 293.368 421.802C292.05 421.802 291.402 421.233 291.402 420.085C291.402 419.047 292.06 418.349 293.368 417.989C295.324 417.43 297.32 416.213 299.366 414.346C301.522 412.39 303.009 410.334 303.848 408.188C302.87 408.807 302.001 409.206 301.253 409.406C300.305 409.655 298.987 409.785 297.31 409.785C293.817 409.785 291.012 408.707 288.886 406.561C286.85 404.525 285.822 401.94 285.822 398.806C285.822 395.393 287.01 392.558 289.385 390.292C291.871 387.917 295.085 386.729 299.027 386.729C302.969 386.729 306.443 388.097 308.958 390.841C311.363 393.496 312.561 396.88 312.561 400.982L312.571 400.952ZM305.025 397.978C305.025 395.802 304.407 394.025 303.179 392.658C302.061 391.37 300.744 390.731 299.237 390.731C297.729 390.731 296.272 391.43 295.045 392.827C293.677 394.364 292.989 396.251 292.989 398.487C292.989 400.722 293.627 402.529 294.915 403.896C296.113 405.184 297.56 405.843 299.237 405.862C300.774 405.892 302.121 405.154 303.279 403.657C304.437 402.16 305.016 400.263 305.016 397.978H305.025Z" fill="#413C1C"/>
</g>
<defs>
<clipPath id="clip0_102_4485">
<rect width="522" height="522" fill="white"/>
</clipPath>
</defs>
</svg>
