<svg width="26" height="26" viewBox="0 0 26 26" fill="none" xmlns="http://www.w3.org/2000/svg">
<path d="M22.5466 4.02187C22.5371 3.87417 22.4741 3.73499 22.3694 3.63033C22.2647 3.52567 22.1256 3.46268 21.9779 3.45312C14.2997 3.00625 8.16536 5.30156 5.5552 9.60781C3.77786 12.5328 3.84895 15.9961 5.73802 19.3984L3.63567 21.5109C3.57966 21.567 3.53522 21.6335 3.5049 21.7066C3.47459 21.7798 3.45898 21.8583 3.45898 21.9375C3.45898 22.0167 3.47459 22.0952 3.5049 22.1684C3.53522 22.2415 3.57966 22.308 3.63567 22.3641C3.69169 22.4201 3.75819 22.4645 3.83138 22.4948C3.90457 22.5251 3.98301 22.5407 4.06223 22.5407C4.14145 22.5407 4.2199 22.5251 4.29309 22.4948C4.36628 22.4645 4.43278 22.4201 4.4888 22.3641L6.6013 20.2617C8.35833 21.2367 10.1357 21.7242 11.8419 21.7242C13.4475 21.725 15.0221 21.2821 16.3919 20.4445C20.6982 17.8344 22.9935 11.7 22.5466 4.02187ZM15.7622 19.3984C13.3146 20.8812 10.3997 20.8609 7.5052 19.3578L16.6763 10.1766C16.7894 10.0634 16.853 9.90999 16.853 9.75C16.853 9.59 16.7894 9.43657 16.6763 9.32343C16.5632 9.2103 16.4097 9.14675 16.2497 9.14675C16.0897 9.14675 15.9363 9.2103 15.8232 9.32343L6.64192 18.4945C5.1388 15.6 5.11848 12.6852 6.6013 10.2375C8.90677 6.4289 14.4013 4.35703 21.3583 4.6414C21.6427 11.5984 19.5708 17.093 15.7622 19.3984Z" fill="#F0E5A5"/>
</svg>
