<svg width="30" height="30" viewBox="0 0 30 30" fill="none" xmlns="http://www.w3.org/2000/svg">
<path d="M26.0156 4.64063C26.0046 4.47021 25.9319 4.30962 25.8112 4.18886C25.6904 4.06809 25.5298 3.99541 25.3594 3.98438C16.5 3.46876 9.42187 6.1172 6.41015 11.0859C4.35937 14.4609 4.4414 18.457 6.62109 22.3828L4.19531 24.8203C4.13068 24.885 4.0794 24.9617 4.04442 25.0461C4.00944 25.1306 3.99144 25.2211 3.99144 25.3125C3.99144 25.4039 4.00944 25.4944 4.04442 25.5789C4.0794 25.6633 4.13068 25.7401 4.19531 25.8047C4.25995 25.8693 4.33668 25.9206 4.42113 25.9556C4.50558 25.9906 4.59609 26.0086 4.6875 26.0086C4.77891 26.0086 4.86942 25.9906 4.95387 25.9556C5.03832 25.9206 5.11505 25.8693 5.17969 25.8047L7.61719 23.3789C9.64453 24.5039 11.6953 25.0664 13.6641 25.0664C15.5167 25.0673 17.3335 24.5563 18.9141 23.5899C23.8828 20.5781 26.5312 13.5 26.0156 4.64063V4.64063ZM18.1875 22.3828C15.3633 24.0938 12 24.0703 8.66015 22.3359L19.2422 11.7422C19.3727 11.6117 19.4461 11.4346 19.4461 11.25C19.4461 11.0654 19.3727 10.8884 19.2422 10.7578C19.1116 10.6273 18.9346 10.5539 18.75 10.5539C18.5654 10.5539 18.3883 10.6273 18.2578 10.7578L7.66406 21.3399C5.92969 18 5.90625 14.6367 7.61719 11.8125C10.2773 7.41798 16.6172 5.02735 24.6445 5.35548C24.9727 13.3828 22.582 19.7227 18.1875 22.3828V22.3828Z" fill="#413C1C"/>
</svg>
