<svg width="30" height="30" viewBox="0 0 30 30" fill="none" xmlns="http://www.w3.org/2000/svg">
<path d="M20.6133 11.6602C20.677 11.726 20.7269 11.8039 20.7603 11.8892C20.7936 11.9745 20.8097 12.0657 20.8075 12.1572C20.8053 12.2488 20.7849 12.3391 20.7476 12.4227C20.7102 12.5064 20.6566 12.5818 20.5898 12.6445L13.7227 19.207C13.589 19.3322 13.4136 19.4032 13.2305 19.4062C13.0507 19.4037 12.8788 19.3324 12.75 19.207L9.31641 15.9258C9.18277 15.7984 9.10522 15.6231 9.10082 15.4384C9.09643 15.2538 9.16555 15.0751 9.29297 14.9414C9.4204 14.8078 9.5957 14.7302 9.78031 14.7258C9.96491 14.7214 10.1437 14.7905 10.2773 14.918L13.2305 17.7305L19.6289 11.6367C19.6948 11.573 19.7726 11.5231 19.858 11.4897C19.9433 11.4564 20.0344 11.4404 20.126 11.4425C20.2176 11.4447 20.3078 11.4651 20.3915 11.5024C20.4751 11.5398 20.5505 11.5934 20.6133 11.6602ZM26.9063 14.9531C26.9063 17.3172 26.2052 19.6282 24.8918 21.5939C23.5784 23.5596 21.7115 25.0917 19.5274 25.9964C17.3432 26.9011 14.9399 27.1378 12.6212 26.6766C10.3025 26.2154 8.17267 25.0769 6.50099 23.4053C4.82932 21.7336 3.6909 19.6037 3.22968 17.2851C2.76847 14.9664 3.00518 12.563 3.90988 10.3789C4.81459 8.19471 6.34665 6.32789 8.31233 5.01446C10.278 3.70104 12.589 3 14.9531 3C18.1214 3.00619 21.1581 4.26753 23.3984 6.50783C25.6387 8.74814 26.9001 11.7849 26.9063 14.9531ZM25.5 14.9531C25.5 12.8672 24.8814 10.828 23.7225 9.0936C22.5636 7.35917 20.9164 6.00735 18.9892 5.20908C17.0621 4.41082 14.9414 4.20195 12.8955 4.60891C10.8496 5.01586 8.97037 6.02035 7.49536 7.49536C6.02036 8.97037 5.01586 10.8496 4.60891 12.8955C4.20196 14.9414 4.41082 17.062 5.20909 18.9892C6.00736 20.9164 7.35918 22.5636 9.0936 23.7225C10.828 24.8814 12.8672 25.5 14.9531 25.5C17.7494 25.4969 20.4302 24.3847 22.4075 22.4075C24.3847 20.4302 25.4969 17.7494 25.5 14.9531Z" fill="#413C1C"/>
</svg>
