<svg width="30" height="30" viewBox="0 0 30 30" fill="none" xmlns="http://www.w3.org/2000/svg">
<path d="M12.1875 22.2656C12.0955 22.2656 12.0044 22.2469 11.9198 22.2107C11.8352 22.1744 11.7588 22.1214 11.6953 22.0547L5.13281 15.4922C5.06818 15.4276 5.0169 15.3508 4.98192 15.2664C4.94694 15.1819 4.92894 15.0914 4.92894 15C4.92894 14.9086 4.94694 14.8181 4.98192 14.7336C5.0169 14.6492 5.06818 14.5725 5.13281 14.5078C5.19745 14.4432 5.27418 14.3919 5.35863 14.3569C5.44308 14.322 5.53359 14.304 5.625 14.304C5.71641 14.304 5.80692 14.322 5.89137 14.3569C5.97582 14.3919 6.05255 14.4432 6.11719 14.5078L12.1875 20.5664L24.8203 7.94533C24.9508 7.81479 25.1279 7.74146 25.3125 7.74146C25.4971 7.74146 25.6741 7.81479 25.8047 7.94533C25.9352 8.07586 26.0086 8.25291 26.0086 8.43751C26.0086 8.62212 25.9352 8.79916 25.8047 8.9297L12.6797 22.0547C12.6162 22.1214 12.5398 22.1744 12.4552 22.2107C12.3706 22.2469 12.2795 22.2656 12.1875 22.2656V22.2656Z" fill="#413C1C"/>
</svg>
