<svg width="70" height="123" viewBox="0 0 70 123" fill="none" xmlns="http://www.w3.org/2000/svg">
<path d="M66.5954 102.855C68.2513 103.044 68.6428 103.519 68.4541 105.076C68.3881 105.631 68.2466 106.186 68.0484 106.713C67.7606 107.485 67.4493 107.607 66.6426 107.414C65.6896 107.184 64.7461 106.934 63.7884 106.732C62.1703 106.384 60.5475 106.647 58.9435 106.807C54.4618 107.254 50.065 108.106 45.8569 109.757C43.9604 110.5 42.0734 111.267 40.4977 112.613C40.4175 112.683 40.2901 112.697 40.1391 112.754C37.6247 110.985 34.8555 111.413 32.1098 112.034C30.4964 112.396 28.9207 112.932 27.3309 113.403C26.3449 113.695 25.5193 114.273 24.656 114.824C20.2828 117.623 15.636 119.862 10.5127 120.935C8.34259 121.391 6.13475 121.683 3.93164 121.965C3.12493 122.069 2.27576 121.975 1.4549 121.866C0.605735 121.753 0.289661 121.278 0.0962397 120.446C-0.205686 119.171 0.280224 117.995 0.492516 116.8C0.884076 114.617 1.45962 112.471 2.49749 110.477C2.54939 110.378 2.61071 110.274 2.62958 110.166C2.91264 108.538 4.03071 107.583 5.31861 106.722C6.08758 106.21 6.94618 105.763 7.34246 104.817C7.41322 104.653 7.77648 104.558 8.01236 104.53C8.42279 104.483 8.83793 104.516 9.30026 104.516C9.47481 104.22 9.6588 103.947 9.80504 103.65C11.928 99.4634 14.5698 95.6245 17.7731 92.1902C19.7497 90.0685 21.8207 88.0361 23.8116 85.9285C24.2361 85.4815 24.5853 84.9076 24.807 84.3289C25.5665 82.3436 25.8071 80.2454 25.9534 78.1425C26.0194 77.2063 26.0807 76.2607 26.0053 75.3292C25.8732 73.692 25.1183 73.0239 23.453 72.9016C22.5897 72.8358 21.7217 72.7934 20.8631 72.6852C19.7544 72.5441 18.7732 72.0548 17.8816 71.4009C16.5842 70.4506 15.8294 69.2227 16.0228 67.5479C16.1125 66.7528 15.8058 66.1553 15.0887 65.7743C14.9567 65.7037 14.834 65.6143 14.6972 65.5484C13.9235 65.1862 13.5319 64.6264 13.7254 63.7419C13.7631 63.5631 13.7301 63.3702 13.7301 63.1162C12.2016 62.5328 12.0129 61.3285 12.3148 59.903C12.4233 59.3949 12.4705 58.8727 12.5554 58.2658C12.1308 58.0823 11.7157 57.9224 11.3241 57.7248C10.5551 57.3343 9.76258 56.9721 9.04551 56.5016C8.30013 56.0124 8.08312 55.2455 8.41335 54.4128C8.67753 53.7542 8.99833 53.1144 9.36159 52.5028C9.87581 51.6324 10.4372 50.7856 11.0033 49.9482C11.5458 49.1484 12.1214 48.3722 12.7064 47.5536C12.7205 47.5771 12.6969 47.483 12.645 47.4642C12.2204 47.3137 11.7393 47.2478 11.6874 46.6597C11.6307 46.0293 12.1025 45.8647 12.546 45.62C13.0272 45.3566 13.4659 45.0085 13.9895 44.6509C13.7348 44.3592 13.5838 44.1522 13.4046 43.9829C12.6026 43.2254 12.4139 42.3316 12.7724 41.306C12.8196 41.1649 12.8243 40.9955 12.9092 40.8779C13.697 39.777 13.2111 38.9161 12.4044 38.1069C12.244 37.947 12.1214 37.7305 11.9327 37.627C10.8618 37.0296 10.4891 35.9334 9.99374 34.9361C9.58331 34.1081 9.5786 33.2377 10.1447 32.4756C10.5268 31.9581 10.4985 31.5159 10.1447 31.0407C9.6871 30.4291 9.73428 29.7799 10.0032 29.1166C10.2013 28.6273 10.3004 28.1521 10.2532 27.597C10.2155 27.1642 10.3995 26.5902 10.6967 26.275C11.2015 25.7434 11.2628 25.2071 11.1967 24.539C11.0505 23.0712 11.3901 21.6975 12.1733 20.4414C12.6781 19.6322 13.3055 18.9312 14.1688 18.4843C14.8576 18.1315 15.4143 17.6751 15.7775 16.96C15.9332 16.6543 16.2823 16.4331 16.5748 16.212C16.8956 15.9674 17.24 15.751 17.5891 15.5393C17.8721 15.3699 18.174 15.1065 18.476 15.0971C19.1836 15.0688 19.6176 14.7301 20.0752 14.2314C21.4009 12.773 23.571 12.3967 25.3495 13.2905C25.9062 13.5681 26.4393 13.5916 26.9865 13.4316C27.9631 13.1447 28.9113 13.2717 29.8878 13.4693C30.803 13.6528 31.7466 13.7516 32.6759 13.7563C33.5675 13.7563 34.4026 13.8739 35.1857 14.2926C36.1811 14.8242 37.1718 15.3699 38.1719 15.8968C38.6578 16.1509 39.1579 16.3814 39.7759 16.6778C39.5778 15.1817 39.2098 13.8409 39.29 12.5284C39.3466 11.6439 38.7899 10.6795 39.4693 9.83268C39.5353 9.7527 39.4834 9.53159 39.4221 9.41398C39.1768 8.94823 39.4032 8.61891 39.5919 8.18139C39.8467 7.59803 39.9599 6.87353 39.8797 6.24313C39.7759 5.39631 39.9929 4.87411 40.7666 4.52127C41.2902 4.28134 41.6582 3.88145 41.913 3.33102C42.0734 2.98759 42.4508 2.74295 42.7291 2.45597C43.55 1.61386 44.5359 1.19987 45.7295 1.2328C45.9937 1.2375 46.272 0.997572 46.5362 0.851731C46.9891 0.597687 47.4137 0.244848 47.9751 0.654142C48.093 0.738824 48.3666 0.70589 48.5176 0.630618C49.4187 0.174278 50.3858 0.310711 51.2821 0.451847C52.0086 0.564756 52.8625 0.894072 53.3201 1.42098C53.7777 1.94789 54.2353 2.25839 54.8486 2.44657C55.4383 2.62534 55.9997 2.80411 56.1176 3.55213C56.1837 3.96613 56.5611 4.05081 56.9149 4.02729C58.0377 3.95202 58.6557 4.5542 59.2784 5.42924C59.9389 6.35603 60.8777 7.08524 61.6938 7.90383C61.9816 8.19551 62.293 8.46836 62.5194 8.80239C62.8496 9.28695 62.9676 9.90795 63.5997 10.1949C63.779 10.2749 63.8498 10.6372 63.93 10.8818C64.0715 11.3099 64.1611 11.7568 64.3121 12.1802C64.5244 12.7824 64.4866 13.314 64.1989 13.9115C63.8922 14.5419 63.6186 15.2476 63.5714 15.9392C63.4912 17.0824 62.8213 17.5857 61.8825 17.948C60.9343 18.3102 59.9908 18.6913 59.0473 19.0771C58.8444 19.1618 58.6698 19.2935 58.3302 19.4958C59.2973 20.1732 60.2078 20.2579 61.1607 19.9098C61.5806 19.7592 61.991 19.5287 62.3401 19.2559C63.6422 18.2444 65.0197 17.3411 66.0199 15.958C67.0719 14.4996 67.8644 14.5984 68.8551 16.1179C69.5675 17.2141 70.0628 18.3761 69.8505 19.731C69.8222 19.9145 69.8269 20.1121 69.7703 20.2861C69.4967 21.0906 69.2278 21.8998 68.907 22.6855C68.7985 22.9489 68.6004 23.2218 68.3645 23.3817C67.27 24.1439 66.4633 25.1836 65.5953 26.1668C65.2367 26.5761 64.7131 26.8537 64.2272 27.1265C63.4865 27.5452 62.7128 27.9122 61.8259 28.3638C63.2365 29.093 63.7837 30.3868 64.647 31.3888C64.8735 31.6523 64.6895 32.2686 64.4819 32.7861C64.7225 33.0637 64.9584 33.3506 65.2084 33.6188C67.0624 35.5947 67.0011 38.902 64.3734 40.5533C63.8026 40.9108 63.4676 41.3248 63.3638 42.0493C63.1233 43.7947 61.7174 44.9896 59.9908 45.0837C59.8493 45.0931 59.7077 45.1261 59.3964 45.1684C59.703 45.6153 59.9483 45.9729 60.1984 46.3257C60.6796 46.9985 61.1513 47.6759 61.6466 48.3393C62.0995 48.9414 62.0288 49.5248 61.6325 50.1129C61.4013 50.4563 61.1419 50.7856 60.9296 51.1385C60.5663 51.7453 60.5097 52.324 60.8069 53.0485C61.4249 54.5398 61.59 56.097 60.7881 57.6166C60.6465 57.8848 60.4955 58.1435 60.3918 58.4258C60.1936 58.9809 60.1653 59.5078 60.5899 60.0112C61.1843 60.7122 61.3306 61.559 61.2692 62.4482C61.2126 63.2761 60.906 63.963 60.1795 64.4429C59.2879 65.0356 58.5047 65.7648 58.132 66.7904C57.6367 68.1547 56.6932 68.9639 55.3015 69.2697C54.5137 69.4438 53.9806 69.806 53.773 70.667C53.589 71.415 52.938 71.8149 52.2115 71.9984C51.4142 72.1959 51.1359 72.6664 50.9377 73.4756C50.348 75.8796 50.6688 78.2601 50.8528 80.65C50.8528 80.6876 50.8528 80.7253 50.867 80.7629C51.5369 83.0305 52.1643 85.3122 52.8908 87.5609C53.3154 88.8782 54.1598 89.9602 55.2968 90.7694C56.8441 91.8703 57.9292 93.3334 58.8067 94.98C59.3539 96.0103 59.9908 96.9982 60.4814 98.052C61.0145 99.1953 61.8165 99.8821 63.0572 100.197C64.5668 100.583 65.7934 101.435 66.5907 102.851L66.5954 102.855Z" fill="#934E3F"/>
</svg>
