<svg width="30" height="30" viewBox="0 0 30 30" fill="none" xmlns="http://www.w3.org/2000/svg">
<path d="M26.3203 12.1641C25.0078 11.4492 23.2617 10.9453 21.3281 10.6992V9.84375C21.3281 8.42578 20.2031 7.13672 18.1641 6.22266C16.3125 5.37891 13.8516 4.92188 11.25 4.92188C8.64844 4.92188 6.1875 5.37891 4.33594 6.22266C2.29688 7.13672 1.17188 8.42578 1.17188 9.84375V14.5312C1.17188 15.9492 2.29688 17.2383 4.33594 18.1523C5.71712 18.7457 7.17807 19.1327 8.67188 19.3008V20.1562C8.67188 21.5742 9.79688 22.8633 11.8359 23.7773C13.6875 24.6211 16.1484 25.0781 18.75 25.0781C21.3516 25.0781 23.8125 24.6211 25.6641 23.7773C27.7031 22.8633 28.8281 21.5742 28.8281 20.1562V15.4688C28.8281 14.2148 27.9375 13.043 26.3203 12.1641V12.1641ZM25.6406 13.3945C26.7891 14.0273 27.4219 14.7539 27.4219 15.4688C27.4219 17.1328 23.8594 18.9844 18.75 18.9844C17.9196 18.9818 17.0901 18.9309 16.2656 18.832C16.9163 18.659 17.5514 18.4316 18.1641 18.1523C20.2031 17.2383 21.3281 15.9492 21.3281 14.5312V12.1172C23.0156 12.3516 24.5273 12.7969 25.6406 13.3945V13.3945ZM9.45703 17.9648H9.42188C9 17.9297 8.58984 17.8711 8.20312 17.8125V14.543C9.21211 14.69 10.2304 14.7645 11.25 14.7656C12.2696 14.7645 13.2879 14.69 14.2969 14.543V17.8125C13.2892 17.9721 12.2703 18.0505 11.25 18.0469C10.6513 18.0499 10.0529 18.0225 9.45703 17.9648V17.9648ZM19.9219 12.4102V14.5312C19.9219 15.6445 18.3164 16.8516 15.7031 17.5195V14.2734C16.5495 14.0907 17.3743 13.8197 18.1641 13.4648C18.7964 13.1971 19.3881 12.8421 19.9219 12.4102ZM11.25 6.32812C16.3594 6.32812 19.9219 8.17969 19.9219 9.84375C19.9219 11.5078 16.3594 13.3594 11.25 13.3594C6.14063 13.3594 2.57812 11.5078 2.57812 9.84375C2.57812 8.17969 6.14063 6.32812 11.25 6.32812ZM2.57812 14.5312V12.4102C3.1119 12.8421 3.7036 13.1971 4.33594 13.4648C5.1257 13.8197 5.95053 14.0907 6.79688 14.2734V17.5195C4.18359 16.8516 2.57812 15.6445 2.57812 14.5312ZM10.0781 20.1562V19.418C10.4648 19.4414 10.8516 19.4531 11.25 19.4531C11.6484 19.4531 12.1641 19.4414 12.6211 19.4063C13.1661 19.6135 13.7264 19.7781 14.2969 19.8984V23.1445C11.6836 22.4766 10.0781 21.2695 10.0781 20.1562V20.1562ZM15.7031 23.4375V20.168C16.7122 20.3146 17.7304 20.389 18.75 20.3906C19.7696 20.3895 20.7879 20.315 21.7969 20.168V23.4375C19.7776 23.75 17.7224 23.75 15.7031 23.4375V23.4375ZM23.2031 23.1445V19.8984C24.0495 19.7157 24.8743 19.4447 25.6641 19.0898C26.2964 18.8221 26.8881 18.4671 27.4219 18.0352V20.1562C27.4219 21.2695 25.8164 22.4766 23.2031 23.1445Z" fill="#413C1C"/>
</svg>
