<svg width="30" height="30" viewBox="0 0 30 30" fill="none" xmlns="http://www.w3.org/2000/svg">
<path d="M15 3.04688C12.6359 3.04687 10.3249 3.74791 8.3592 5.06134C6.39352 6.37477 4.86146 8.24159 3.95676 10.4257C3.05205 12.6099 2.81534 15.0133 3.27656 17.3319C3.73777 19.6506 4.87619 21.7805 6.54787 23.4521C8.21954 25.1238 10.3494 26.2622 12.6681 26.7234C14.9867 27.1847 17.3901 26.948 19.5743 26.0432C21.7584 25.1385 23.6252 23.6065 24.9387 21.6408C26.2521 19.6751 26.9531 17.3641 26.9531 15C26.9469 11.8317 25.6856 8.79501 23.4453 6.55471C21.205 4.3144 18.1683 3.05307 15 3.04688ZM15 25.5469C12.914 25.5469 10.8749 24.9283 9.14048 23.7694C7.40605 22.6105 6.05423 20.9633 5.25596 19.0361C4.4577 17.1089 4.24883 14.9883 4.65579 12.9424C5.06274 10.8965 6.06723 9.01724 7.54224 7.54223C9.01725 6.06723 10.8965 5.06273 12.9424 4.65578C14.9883 4.24883 17.1089 4.45769 19.0361 5.25596C20.9633 6.05423 22.6105 7.40605 23.7694 9.14047C24.9283 10.8749 25.5469 12.914 25.5469 15C25.5438 17.7963 24.4316 20.4771 22.4543 22.4543C20.4771 24.4316 17.7963 25.5438 15 25.5469ZM16.1719 21.0938C16.1719 21.3255 16.1032 21.5521 15.9744 21.7448C15.8456 21.9375 15.6626 22.0877 15.4485 22.1764C15.2343 22.2651 14.9987 22.2883 14.7714 22.2431C14.5441 22.1979 14.3353 22.0863 14.1714 21.9224C14.0075 21.7585 13.8959 21.5497 13.8506 21.3224C13.8054 21.095 13.8286 20.8594 13.9173 20.6453C14.006 20.4312 14.1562 20.2481 14.3489 20.1194C14.5417 19.9906 14.7682 19.9219 15 19.9219C15.3108 19.9219 15.6089 20.0453 15.8286 20.2651C16.0484 20.4849 16.1719 20.7829 16.1719 21.0938ZM18.9844 12.6562C18.983 13.5911 18.6539 14.4958 18.0544 15.2131C17.4549 15.9304 16.6229 16.4148 15.7031 16.582V16.875C15.7031 17.0615 15.6291 17.2403 15.4972 17.3722C15.3653 17.504 15.1865 17.5781 15 17.5781C14.8135 17.5781 14.6347 17.504 14.5028 17.3722C14.371 17.2403 14.2969 17.0615 14.2969 16.875V15.9375C14.2969 15.751 14.371 15.5722 14.5028 15.4403C14.6347 15.3085 14.8135 15.2344 15 15.2344C15.5099 15.2344 16.0084 15.0832 16.4323 14.7999C16.8563 14.5166 17.1867 14.1139 17.3819 13.6429C17.577 13.1718 17.6281 12.6534 17.5286 12.1533C17.4291 11.6532 17.1836 11.1938 16.823 10.8332C16.4625 10.4727 16.0031 10.2271 15.503 10.1277C15.0029 10.0282 14.4845 10.0792 14.0134 10.2744C13.5423 10.4695 13.1397 10.8 12.8564 11.2239C12.5731 11.6479 12.4219 12.1463 12.4219 12.6562C12.4219 12.8427 12.3478 13.0216 12.2159 13.1534C12.0841 13.2853 11.9052 13.3594 11.7188 13.3594C11.5323 13.3594 11.3534 13.2853 11.2216 13.1534C11.0897 13.0216 11.0156 12.8427 11.0156 12.6562C11.0156 11.5995 11.4354 10.5861 12.1826 9.83887C12.9298 9.09166 13.9433 8.67188 15 8.67188C16.0567 8.67188 17.0702 9.09166 17.8174 9.83887C18.5646 10.5861 18.9844 11.5995 18.9844 12.6562Z" fill="#413C1C"/>
</svg>
