<svg width="30" height="30" viewBox="0 0 30 30" fill="none" xmlns="http://www.w3.org/2000/svg">
<path d="M15 26.0156C14.8806 26.0137 14.7636 25.9815 14.6602 25.9219C14.5313 25.8633 11.625 24.2109 8.67188 21.5625C4.62891 17.918 2.57813 14.2969 2.57813 10.7812C2.57706 9.32669 3.04265 7.91016 3.90646 6.73987C4.77026 5.56959 5.98671 4.70728 7.377 4.2797C8.76728 3.85212 10.2581 3.88183 11.6302 4.36445C13.0024 4.84708 14.1835 5.75716 15 6.96093C15.8165 5.75716 16.9976 4.84708 18.3698 4.36445C19.7419 3.88183 21.2327 3.85212 22.623 4.2797C24.0133 4.70728 25.2297 5.56959 26.0935 6.73987C26.9574 7.91016 27.4229 9.32669 27.4219 10.7812C27.4219 14.2969 25.3711 17.918 21.3281 21.5625C18.375 24.2109 15.4688 25.8633 15.3398 25.9219C15.2364 25.9815 15.1194 26.0137 15 26.0156V26.0156ZM9.375 5.39062C7.94532 5.39062 6.57419 5.95856 5.56325 6.96949C4.55232 7.98043 3.98438 9.35156 3.98438 10.7812C3.98438 17.4961 13.1016 23.3555 15 24.4922C16.8984 23.3555 26.0156 17.4961 26.0156 10.7812C26.0184 9.53304 25.5878 8.32257 24.7975 7.35642C24.0073 6.39027 22.9062 5.72831 21.6822 5.48352C20.4582 5.23872 19.1873 5.42627 18.0862 6.01414C16.9851 6.60202 16.1221 7.55379 15.6445 8.70702C15.5941 8.83696 15.5055 8.94861 15.3905 9.02733C15.2755 9.10606 15.1394 9.14819 15 9.14819C14.8606 9.14819 14.7245 9.10606 14.6095 9.02733C14.4945 8.94861 14.4059 8.83696 14.3555 8.70702C13.9457 7.7241 13.254 6.88457 12.3676 6.29435C11.4812 5.70412 10.4399 5.38965 9.375 5.39062V5.39062Z" fill="#413C1C"/>
</svg>
