<svg width="30" height="30" viewBox="0 0 30 30" fill="none" xmlns="http://www.w3.org/2000/svg">
<path d="M27.7734 24.1992L26.1094 9.19922C26.0634 8.79626 25.8707 8.4243 25.5682 8.15418C25.2657 7.88405 24.8743 7.73463 24.4688 7.73438H20.3438C20.1718 6.43893 19.5351 5.25005 18.5521 4.38893C17.5691 3.52782 16.3068 3.0531 15 3.0531C13.6932 3.0531 12.4309 3.52782 11.4479 4.38893C10.4649 5.25005 9.82821 6.43893 9.65625 7.73438H5.53125C5.12567 7.73463 4.73435 7.88405 4.43181 8.15418C4.12927 8.4243 3.93665 8.79626 3.89063 9.19922L2.22656 24.1992C2.20376 24.4276 2.2288 24.6583 2.30009 24.8765C2.37137 25.0947 2.48733 25.2956 2.64059 25.4665C2.79384 25.6374 2.98102 25.7745 3.19019 25.869C3.39936 25.9636 3.62594 26.0135 3.85547 26.0156H26.1445C26.3741 26.0135 26.6006 25.9636 26.8098 25.869C27.019 25.7745 27.2062 25.6374 27.3594 25.4665C27.5127 25.2956 27.6286 25.0947 27.6999 24.8765C27.7712 24.6583 27.7962 24.4276 27.7734 24.1992V24.1992ZM15 4.45313C15.9348 4.4545 16.8396 4.78357 17.5569 5.38309C18.2742 5.98261 18.7586 6.81462 18.9258 7.73438H11.0742C11.2414 6.81462 11.7258 5.98261 12.4431 5.38309C13.1604 4.78357 14.0652 4.4545 15 4.45313V4.45313ZM26.3203 24.5273C26.2981 24.5522 26.2711 24.5723 26.2408 24.5864C26.2106 24.6005 26.1779 24.6083 26.1445 24.6094H3.85547C3.82214 24.6083 3.78937 24.6005 3.75916 24.5864C3.72894 24.5723 3.7019 24.5522 3.67969 24.5273C3.65925 24.5034 3.64444 24.4752 3.63633 24.4448C3.62822 24.4144 3.62702 24.3825 3.63281 24.3516L5.29688 9.35157C5.30271 9.29355 5.32995 9.2398 5.37329 9.20079C5.41663 9.16179 5.47295 9.14034 5.53125 9.14063H9.60938V12.1875C9.60938 12.374 9.68346 12.5528 9.81532 12.6847C9.94718 12.8165 10.126 12.8906 10.3125 12.8906C10.499 12.8906 10.6778 12.8165 10.8097 12.6847C10.9415 12.5528 11.0156 12.374 11.0156 12.1875V9.14063H18.9844V12.1875C18.9844 12.374 19.0585 12.5528 19.1903 12.6847C19.3222 12.8165 19.501 12.8906 19.6875 12.8906C19.874 12.8906 20.0528 12.8165 20.1847 12.6847C20.3165 12.5528 20.3906 12.374 20.3906 12.1875V9.14063H24.4688C24.5271 9.14034 24.5834 9.16179 24.6267 9.20079C24.6701 9.2398 24.6973 9.29355 24.7031 9.35157L26.3672 24.3516C26.373 24.3825 26.3718 24.4144 26.3637 24.4448C26.3556 24.4752 26.3407 24.5034 26.3203 24.5273V24.5273Z" fill="#413C1C"/>
</svg>
