<svg width="138" height="30" viewBox="0 0 138 30" fill="none" xmlns="http://www.w3.org/2000/svg">
<path d="M26.9531 15C26.9531 12.6359 26.2521 10.3249 24.9387 8.3592C23.6252 6.39352 21.7584 4.86146 19.5743 3.95676C17.3901 3.05205 14.9867 2.81534 12.6681 3.27656C10.3494 3.73777 8.21954 4.87619 6.54787 6.54787C4.87619 8.21954 3.73777 10.3494 3.27656 12.6681C2.81534 14.9867 3.05205 17.3901 3.95676 19.5743C4.86146 21.7584 6.39352 23.6252 8.3592 24.9387C10.3249 26.2521 12.6359 26.9531 15 26.9531C18.1692 26.95 21.2077 25.6897 23.4487 23.4487C25.6897 21.2077 26.95 18.1692 26.9531 15ZM15.7031 25.5234V17.5781H18.75C18.9365 17.5781 19.1153 17.5041 19.2472 17.3722C19.3791 17.2403 19.4531 17.0615 19.4531 16.875C19.4531 16.6885 19.3791 16.5097 19.2472 16.3778C19.1153 16.246 18.9365 16.1719 18.75 16.1719H15.7031V13.125C15.7062 12.5665 15.9294 12.0318 16.3244 11.6369C16.7193 11.2419 17.254 11.0187 17.8125 11.0156H19.6875C19.874 11.0156 20.0528 10.9416 20.1847 10.8097C20.3166 10.6778 20.3906 10.499 20.3906 10.3125C20.3906 10.126 20.3166 9.94718 20.1847 9.81532C20.0528 9.68346 19.874 9.60938 19.6875 9.60938H17.8125C16.8811 9.61247 15.9886 9.98386 15.33 10.6425C14.6714 11.3011 14.3 12.1936 14.2969 13.125V16.1719H11.25C11.0635 16.1719 10.8847 16.246 10.7528 16.3778C10.621 16.5097 10.5469 16.6885 10.5469 16.875C10.5469 17.0615 10.621 17.2403 10.7528 17.3722C10.8847 17.5041 11.0635 17.5781 11.25 17.5781H14.2969V25.5234C11.5667 25.341 9.01422 24.1047 7.17856 22.0755C5.3429 20.0462 4.36774 17.383 4.459 14.6483C4.55026 11.9135 5.7008 9.32123 7.66766 7.41892C9.63451 5.5166 12.2637 4.45316 15 4.45316C17.7363 4.45316 20.3655 5.5166 22.3324 7.41892C24.2992 9.32123 25.4498 11.9135 25.541 14.6483C25.6323 17.383 24.6571 20.0462 22.8214 22.0755C20.9858 24.1047 18.4333 25.341 15.7031 25.5234V25.5234Z" fill="#F3EFE0"/>
<path d="M69 9.60938C67.9338 9.60938 66.8916 9.92553 66.0051 10.5179C65.1186 11.1102 64.4277 11.9521 64.0197 12.9371C63.6117 13.9221 63.505 15.006 63.713 16.0517C63.921 17.0973 64.4344 18.0579 65.1883 18.8117C65.9421 19.5656 66.9027 20.079 67.9483 20.287C68.994 20.495 70.0779 20.3883 71.0629 19.9803C72.0479 19.5723 72.8898 18.8814 73.4821 17.9949C74.0745 17.1084 74.3906 16.0662 74.3906 15C74.3906 13.5703 73.8227 12.1992 72.8117 11.1883C71.8008 10.1773 70.4297 9.60938 69 9.60938V9.60938ZM69 18.9844C68.212 18.9844 67.4416 18.7507 66.7864 18.3129C66.1312 17.8751 65.6205 17.2528 65.3189 16.5248C65.0173 15.7967 64.9384 14.9956 65.0922 14.2227C65.2459 13.4498 65.6254 12.7398 66.1826 12.1826C66.7398 11.6254 67.4498 11.2459 68.2227 11.0922C68.9956 10.9384 69.7967 11.0173 70.5248 11.3189C71.2528 11.6205 71.8751 12.1312 72.3129 12.7864C72.7507 13.4416 72.9844 14.212 72.9844 15C72.9813 16.0558 72.5605 17.0674 71.814 17.814C71.0674 18.5605 70.0558 18.9813 69 18.9844ZM74.1562 3.51562H63.8438C62.1654 3.51562 60.5558 4.18234 59.3691 5.36909C58.1823 6.55584 57.5156 8.16543 57.5156 9.84375V20.1562C57.5156 21.8346 58.1823 23.4442 59.3691 24.6309C60.5558 25.8177 62.1654 26.4844 63.8438 26.4844H74.1562C75.8346 26.4844 77.4442 25.8177 78.6309 24.6309C79.8177 23.4442 80.4844 21.8346 80.4844 20.1562V9.84375C80.4844 8.16543 79.8177 6.55584 78.6309 5.36909C77.4442 4.18234 75.8346 3.51563 74.1562 3.51562V3.51562ZM79.0781 20.1562C79.0781 21.4616 78.5596 22.7135 77.6365 23.6365C76.7135 24.5596 75.4616 25.0781 74.1562 25.0781H63.8438C62.5384 25.0781 61.2865 24.5596 60.3635 23.6365C59.4404 22.7135 58.9219 21.4616 58.9219 20.1562V9.84375C58.9219 8.53839 59.4404 7.28649 60.3635 6.36346C61.2865 5.44043 62.5384 4.92188 63.8438 4.92188H74.1562C75.4616 4.92188 76.7135 5.44043 77.6365 6.36346C78.5596 7.28649 79.0781 8.53839 79.0781 9.84375V20.1562ZM76.2656 8.90625C76.2656 9.13802 76.1969 9.36459 76.0681 9.55731C75.9394 9.75002 75.7563 9.90022 75.5422 9.98892C75.3281 10.0776 75.0925 10.1008 74.8651 10.0556C74.6378 10.0104 74.429 9.89878 74.2651 9.73489C74.1012 9.571 73.9896 9.36219 73.9444 9.13487C73.8992 8.90755 73.9224 8.67192 74.0111 8.45779C74.0998 8.24366 74.25 8.06064 74.4427 7.93187C74.6354 7.8031 74.862 7.73438 75.0938 7.73438C75.4046 7.73438 75.7026 7.85784 75.9224 8.07761C76.1422 8.29738 76.2656 8.59545 76.2656 8.90625Z" fill="#F3EFE0"/>
<path d="M119.016 13.125V20.625C119.016 20.8115 118.942 20.9903 118.81 21.1222C118.678 21.254 118.499 21.3281 118.312 21.3281C118.126 21.3281 117.947 21.254 117.815 21.1222C117.683 20.9903 117.609 20.8115 117.609 20.625V13.125C117.609 12.9385 117.683 12.7597 117.815 12.6278C117.947 12.496 118.126 12.4219 118.312 12.4219C118.499 12.4219 118.678 12.496 118.81 12.6278C118.942 12.7597 119.016 12.9385 119.016 13.125V13.125ZM118.312 8.20312C118.081 8.20312 117.854 8.27185 117.661 8.40062C117.469 8.52939 117.319 8.71241 117.23 8.92654C117.141 9.14067 117.118 9.3763 117.163 9.60362C117.208 9.83094 117.32 10.0398 117.484 10.2036C117.648 10.3675 117.857 10.4791 118.084 10.5244C118.311 10.5696 118.547 10.5464 118.761 10.4577C118.975 10.369 119.158 10.2188 119.287 10.0261C119.416 9.83334 119.484 9.60677 119.484 9.375C119.484 9.0642 119.361 8.76613 119.141 8.54636C118.921 8.32659 118.623 8.20312 118.312 8.20312ZM134.484 5.15625V24.8438C134.484 25.2789 134.312 25.6962 134.004 26.0038C133.696 26.3115 133.279 26.4844 132.844 26.4844H113.156C112.721 26.4844 112.304 26.3115 111.996 26.0038C111.688 25.6962 111.516 25.2789 111.516 24.8438V5.15625C111.516 4.72113 111.688 4.30383 111.996 3.99615C112.304 3.68848 112.721 3.51563 113.156 3.51562H132.844C133.279 3.51563 133.696 3.68848 134.004 3.99615C134.312 4.30383 134.484 4.72113 134.484 5.15625V5.15625ZM133.078 5.15625C133.078 5.09409 133.053 5.03448 133.009 4.99052C132.966 4.94657 132.906 4.92188 132.844 4.92188H113.156C113.094 4.92188 113.034 4.94657 112.991 4.99052C112.947 5.03448 112.922 5.09409 112.922 5.15625V24.8438C112.922 24.9059 112.947 24.9655 112.991 25.0095C113.034 25.0534 113.094 25.0781 113.156 25.0781H132.844C132.906 25.0781 132.966 25.0534 133.009 25.0095C133.053 24.9655 133.078 24.9059 133.078 24.8438V5.15625ZM125.344 12.4219C124.399 12.4226 123.485 12.759 122.766 13.3711V13.125C122.766 12.9385 122.692 12.7597 122.56 12.6278C122.428 12.496 122.249 12.4219 122.062 12.4219C121.876 12.4219 121.697 12.496 121.565 12.6278C121.433 12.7597 121.359 12.9385 121.359 13.125V20.625C121.359 20.8115 121.433 20.9903 121.565 21.1222C121.697 21.254 121.876 21.3281 122.062 21.3281C122.249 21.3281 122.428 21.254 122.56 21.1222C122.692 20.9903 122.766 20.8115 122.766 20.625V16.4062C122.766 15.7225 123.037 15.0667 123.521 14.5832C124.004 14.0997 124.66 13.8281 125.344 13.8281C126.028 13.8281 126.683 14.0997 127.167 14.5832C127.65 15.0667 127.922 15.7225 127.922 16.4062V20.625C127.922 20.8115 127.996 20.9903 128.128 21.1222C128.26 21.254 128.439 21.3281 128.625 21.3281C128.811 21.3281 128.99 21.254 129.122 21.1222C129.254 20.9903 129.328 20.8115 129.328 20.625V16.4062C129.325 15.3505 128.904 14.3388 128.158 13.5923C127.411 12.8457 126.4 12.425 125.344 12.4219V12.4219Z" fill="#F3EFE0"/>
</svg>
