<svg width="243" height="23" viewBox="0 0 243 23" fill="none" xmlns="http://www.w3.org/2000/svg">
<g clip-path="url(#clip0_193_7768)">
<path d="M8.58572 22.9999C7.79316 22.9999 7.09967 22.5333 6.80246 21.7999L0.131763 5.59993C-0.264516 4.59993 0.19781 3.4666 1.18851 3.0666L8.15641 0.166602C8.61874 -0.0333984 9.14711 -0.0333984 9.64246 0.166602C10.1048 0.366602 10.5011 0.733268 10.6992 1.23327L17.3369 17.4333C17.7332 18.4333 17.2708 19.5666 16.2801 19.9666L9.31223 22.8666C9.08107 22.9333 8.81688 22.9999 8.58572 22.9999ZM8.88293 1.03327C8.75083 1.03327 8.65176 1.0666 8.55269 1.09993L1.58479 4.03327C1.35362 4.13327 1.18851 4.29993 1.08944 4.53327C0.990368 4.7666 0.990368 4.99993 1.08944 5.23327L7.72711 21.4333C7.92525 21.8999 8.4206 22.0999 8.88293 21.9333L15.8508 19.0333C16.082 18.9333 16.2471 18.7666 16.3462 18.5333C16.4453 18.2999 16.4453 18.0666 16.3462 17.8333L9.70851 1.59993C9.57641 1.2666 9.24618 1.03327 8.88293 1.03327Z" fill="#8D8A77"/>
<path opacity="0.7" d="M10.1377 2.6666L11.0954 2.2666L13.7372 8.6666L12.7796 9.0666L10.1377 2.6666Z" fill="url(#paint0_linear_193_7768)"/>
<path opacity="0.7" d="M16.8741 16.3333L15.9164 16.7333L12.9443 9.46665L13.902 9.06665L16.8741 16.3333Z" fill="url(#paint1_linear_193_7768)"/>
<path d="M14.6951 11.8998C12.7137 12.7332 11.0296 13.8665 9.93979 15.2665L7.13281 8.43318C8.42072 6.93318 10.0389 5.76651 11.8882 5.06651C13.8696 4.23318 15.884 3.83318 17.6012 4.06651L20.4082 10.8998C18.4598 10.7665 16.5114 11.0998 14.6951 11.8998Z" fill="#C6C6C6"/>
<g opacity="0.4">
<path opacity="0.9" d="M14.6953 11.8998C12.7139 12.7332 11.0297 13.8665 9.93997 15.2665L7.16602 8.43318C8.4209 6.93318 10.0721 5.76651 11.8883 5.06651C13.8697 4.23318 15.8842 3.83318 17.6014 4.06651L20.4083 10.8998C18.46 10.7665 16.5116 11.0998 14.6953 11.8998Z" fill="#87906E"/>
<path opacity="0.7" d="M14.6953 11.8998C12.7139 12.7332 11.0297 13.8665 9.93997 15.2665L7.16602 8.43318C8.4209 6.93318 10.0721 5.76651 11.8883 5.06651C13.8697 4.23318 15.8842 3.83318 17.6014 4.06651L20.4083 10.8998C18.46 10.7665 16.5116 11.0998 14.6953 11.8998Z" fill="url(#paint2_linear_193_7768)"/>
</g>
<path d="M15.6196 13.9999C13.4731 13.9999 11.4917 14.4333 9.97266 15.2666V8.36661C11.7229 7.46661 13.6713 7.03327 15.6196 7.09994C17.7661 7.09994 19.7806 7.49994 21.2666 8.36661V15.2999C19.5164 14.3666 17.568 13.9333 15.6196 13.9999ZM26.6164 13.9999L28.3666 8.43327C28.3996 8.3666 28.4657 8.29994 28.5317 8.29994H29.4234C29.4894 8.29994 29.5554 8.3666 29.5885 8.43327L30.9424 11.9333C30.9754 11.9999 31.0415 11.9999 31.0745 11.9333L32.4285 8.43327C32.4615 8.3666 32.5275 8.29994 32.5936 8.29994H33.4852C33.5513 8.29994 33.6173 8.3666 33.6503 8.43327L35.3345 13.9999C35.3675 14.0333 35.3345 14.0999 35.3345 14.1333C35.3015 14.1666 35.2685 14.1999 35.2024 14.1999H34.1457C34.0796 14.1999 34.0136 14.1666 33.9806 14.0666L32.8908 10.4666C32.8578 10.3999 32.7917 10.3999 32.7587 10.4666L31.4378 14.0666C31.4047 14.1666 31.3387 14.1999 31.2396 14.1999H30.6452C30.5461 14.1999 30.5131 14.1333 30.4471 14.0666L29.0931 10.4666C29.0601 10.3999 28.9941 10.3999 28.9941 10.4666L27.8713 14.0666C27.8382 14.1333 27.7722 14.1999 27.7061 14.1999H26.7154C26.6824 14.1999 26.6164 14.1666 26.6164 14.1333C26.6164 14.0999 26.6164 14.0333 26.6164 13.9999ZM35.6648 11.9999C35.6317 11.0666 36.1931 10.1999 37.0517 9.79994C37.9103 9.39994 38.901 9.59994 39.5945 10.2666C40.255 10.9333 40.4861 11.9333 40.1229 12.7999C39.7596 13.6666 38.9341 14.2666 37.9764 14.2666C37.3489 14.2999 36.7875 14.0666 36.3252 13.6333C35.8959 13.1999 35.6648 12.6333 35.6648 11.9999ZM39.0992 11.9999C39.0661 11.3666 38.5378 10.8999 37.9103 10.9333C37.2829 10.9666 36.8206 11.4999 36.8206 12.0999C36.8206 12.6999 37.3489 13.2333 37.9764 13.1999C38.6038 13.1999 39.1322 12.6333 39.0992 11.9999ZM42.3354 13.8333C42.2364 13.7666 42.1703 13.7999 42.1703 13.8999V13.9999C42.1703 14.0999 42.1043 14.1666 42.0052 14.1666H41.2127C41.1136 14.1666 41.0475 14.0999 41.0475 13.9999V8.46661C41.0475 8.36661 41.1136 8.29994 41.2127 8.29994H42.0713C42.1703 8.29994 42.2364 8.36661 42.2364 8.46661V10.0666C42.2364 10.1666 42.3024 10.1999 42.4345 10.1333C42.7648 9.89994 43.161 9.76661 43.5573 9.76661C44.7461 9.76661 45.6378 10.7666 45.6378 12.0666C45.6708 12.6666 45.4396 13.2333 45.0434 13.6666C44.6471 14.0999 44.0857 14.3333 43.5243 14.3666C43.062 14.2999 42.6327 14.1333 42.3354 13.8333ZM44.4489 11.9999C44.482 11.5666 44.2838 11.1666 43.9206 10.9333C43.5573 10.6999 43.095 10.6999 42.7317 10.9333C42.3685 11.1666 42.1703 11.5666 42.2034 11.9999C42.2034 12.2999 42.3024 12.5999 42.5006 12.8333C42.6987 13.0666 42.9959 13.1999 43.3261 13.1999C43.6234 13.1999 43.9206 13.0666 44.1517 12.8333C44.3168 12.6333 44.4489 12.2999 44.4489 11.9999ZM46.2982 8.69994C46.2982 8.33327 46.5954 8.03327 46.9587 8.03327C47.322 8.03327 47.6192 8.33327 47.6192 8.69994C47.6192 9.06661 47.322 9.36661 46.9587 9.36661C46.5954 9.36661 46.2982 9.06661 46.2982 8.69994ZM46.3643 14.0333V9.99994C46.3643 9.89994 46.4303 9.83327 46.5294 9.83327H47.388C47.421 9.83327 47.4871 9.83327 47.5201 9.86661C47.5531 9.89994 47.5861 9.93327 47.5861 9.99994V14.0333C47.5861 14.1333 47.5201 14.1999 47.421 14.1999H46.5624C46.4303 14.1666 46.3643 14.0999 46.3643 14.0333ZM48.5108 12.6999V8.46661C48.5108 8.36661 48.5768 8.29994 48.6759 8.29994H49.5345C49.6336 8.29994 49.6996 8.36661 49.6996 8.46661V12.7666C49.6996 13.0333 49.8317 13.2333 50.1289 13.2333C50.162 13.2333 50.228 13.2666 50.228 13.2666C50.228 13.2666 50.261 13.3333 50.261 13.3666V14.0666C50.261 14.1666 50.195 14.2333 50.0959 14.2333C48.9401 14.2333 48.5108 13.8666 48.5108 12.6999ZM50.5582 12.0333C50.5582 11.2333 50.9875 10.4999 51.681 10.0999C52.3745 9.69994 53.2331 9.69994 53.9266 10.0999C54.6201 10.4999 55.0494 11.2666 55.0494 12.0666C55.0494 12.2333 55.0164 12.3666 54.8513 12.3666H51.9122C51.8461 12.3666 51.8131 12.3999 51.8131 12.4666C51.8792 12.9999 52.3415 13.3666 52.8699 13.3333C53.1671 13.3333 53.4973 13.1999 53.6955 12.9666C53.7615 12.8666 53.8606 12.8333 53.9596 12.8333H54.7522C54.8843 12.8333 54.9503 12.9333 54.8843 13.0666C54.422 14.0333 53.3652 14.5333 52.3415 14.2999C51.2848 13.9999 50.5582 13.0666 50.5582 12.0333ZM53.6955 11.6333C53.7615 11.6333 53.7945 11.5999 53.7615 11.5333C53.6624 11.0666 53.2661 10.6999 52.7708 10.7333C52.3085 10.7333 51.8792 11.0666 51.7801 11.5333C51.7471 11.5999 51.7801 11.6666 51.8461 11.6666H53.6955V11.6333ZM55.7429 14.0333V8.46661C55.7429 8.36661 55.8089 8.29994 55.908 8.29994H58.6159C59.8378 8.29994 60.6964 9.03327 60.6964 10.2666C60.6964 11.4999 59.7387 12.2333 58.5499 12.2333H57.1299C57.0968 12.2333 57.0308 12.2333 56.9978 12.2666C56.9648 12.2999 56.9648 12.3333 56.9648 12.3999V14.0333C56.9648 14.1333 56.8987 14.1999 56.7996 14.1999H55.908C55.8089 14.1666 55.7429 14.0999 55.7429 14.0333ZM58.5499 11.1999C59.0452 11.1999 59.4745 10.7666 59.4415 10.2333C59.4415 9.99994 59.3424 9.76661 59.1773 9.56661C59.0122 9.39994 58.781 9.29994 58.5168 9.29994H57.0638C56.9648 9.29994 56.9317 9.36661 56.9317 9.46661V11.0333C56.9317 11.1333 56.9648 11.1999 57.0638 11.1999H58.5499ZM61.0927 11.9999C61.0596 11.3999 61.2908 10.8333 61.6871 10.3999C62.0834 9.96661 62.6448 9.73327 63.2392 9.69994C63.6685 9.69994 64.0648 9.86661 64.395 10.1333C64.461 10.1999 64.5601 10.1999 64.5601 10.0999V9.99994C64.5601 9.89994 64.6261 9.83327 64.7252 9.83327H65.5178C65.6168 9.83327 65.6829 9.89994 65.6829 9.99994V12.8666C65.6829 13.0999 65.7489 13.1666 65.9141 13.1999C65.9801 13.1999 66.0461 13.2666 66.0461 13.3333V14.0999C66.0461 14.1666 65.9801 14.2333 65.9141 14.2333C65.3527 14.2333 65.0224 14.0666 64.8243 13.7333C64.7582 13.6333 64.7252 13.6333 64.6261 13.6999C64.2629 14.0666 63.7675 14.2999 63.2392 14.2666C62.6448 14.2333 62.0834 13.9999 61.6871 13.5666C61.2578 13.1666 61.0596 12.5999 61.0927 11.9999ZM64.5271 11.9999C64.5601 11.5666 64.362 11.1666 63.9987 10.9333C63.6354 10.6999 63.1731 10.6999 62.8099 10.9333C62.4466 11.1666 62.2485 11.5666 62.2815 11.9999C62.2485 12.4333 62.4466 12.8333 62.8099 13.0666C63.1731 13.2999 63.6354 13.2999 63.9987 13.0666C64.362 12.8333 64.5601 12.4333 64.5271 11.9999ZM66.4094 15.6999V14.9999C66.4094 14.8999 66.4755 14.8333 66.5745 14.8333C67.1359 14.8666 67.6313 14.5333 67.7964 13.9999C67.8294 13.8999 67.8294 13.7666 67.7634 13.6666L66.1782 10.0666C66.1452 10.0333 66.1452 9.96661 66.1782 9.89994C66.2113 9.86661 66.2443 9.83327 66.3103 9.83327H67.1689C67.268 9.83327 67.301 9.89994 67.3341 9.99994L68.3247 12.2999C68.3908 12.4666 68.4899 12.4666 68.5889 12.2999L69.5466 9.99994C69.5796 9.89994 69.6127 9.86661 69.7117 9.86661H70.5373C70.6034 9.86661 70.6364 9.89994 70.6694 9.93327C70.7024 9.96661 70.7024 10.0333 70.6694 10.0666L69.0513 13.9333C68.4568 15.3333 67.8294 15.8666 66.5745 15.8666C66.5085 15.8666 66.4094 15.7999 66.4094 15.6999Z" fill="#8D8A77"/>
</g>
<g clip-path="url(#clip1_193_7768)">
<path d="M109.867 22.7109H104.845L107.986 3.34937H113.008L109.867 22.7109Z" fill="#8D8A77"/>
<path d="M128.073 3.8231C126.635 3.27142 125.107 2.99234 123.568 2.99991C118.608 2.99991 115.115 5.63596 115.094 9.40254C115.054 12.1831 117.595 13.728 119.496 14.6545C121.44 15.6021 122.1 16.2204 122.1 17.0647C122.08 18.3617 120.53 18.9598 119.084 18.9598C117.453 19.0054 115.836 18.652 114.371 17.9299L113.71 17.6208L113.007 21.9663C114.794 22.6571 116.694 23.0066 118.608 22.9972C123.878 22.9972 127.309 20.4014 127.349 16.3851C127.369 14.1807 126.028 12.4923 123.133 11.112C121.378 10.2257 120.302 9.63212 120.302 8.72569C120.323 7.90249 121.209 7.05735 123.195 7.05735C124.482 7.01959 125.76 7.27275 126.937 7.79822L127.39 8.00402L128.073 3.8231Z" fill="#8D8A77"/>
<path d="M134.749 15.852C135.163 14.7398 136.754 10.4354 136.754 10.4354C136.733 10.4766 137.167 9.30305 137.415 8.58229L137.766 10.2506C137.766 10.2506 138.716 14.8852 138.923 15.8529L134.749 15.852ZM140.948 3.34951H137.063C136.511 3.28144 135.951 3.40284 135.475 3.69417C134.999 3.9855 134.634 4.42983 134.439 4.95566L126.979 22.7092H132.248L133.302 19.8052H139.751C139.895 20.4848 140.35 22.7092 140.35 22.7092H145.001L140.948 3.34951Z" fill="#8D8A77"/>
<path d="M100.648 3.34937L95.7329 16.5525L95.1885 13.8753C93.9565 10.3944 91.4825 7.50096 88.249 5.7595L92.7544 22.6899H98.0654L105.959 3.34937H100.648Z" fill="#8D8A77"/>
<path d="M91.1652 3.34936H83.0826L83 3.74175C89.3035 5.34881 93.4777 9.22149 95.1933 13.8762L93.4333 4.97746C93.3225 4.47098 93.0292 4.02399 92.6101 3.72318C92.1911 3.42236 91.6761 3.28915 91.1652 3.34936V3.34936Z" fill="#8D8A77"/>
</g>
<g clip-path="url(#clip2_193_7768)">
<path d="M182.201 0.999833H167.801C164.957 0.978221 162.222 2.12499 160.196 4.18788C158.171 6.25077 157.021 9.06081 157 11.9998C157.021 14.9385 158.17 17.7483 160.196 19.8111C162.221 21.8739 164.955 23.0209 167.799 22.9998H182.199C183.608 23.0112 185.004 22.7356 186.309 22.1888C187.614 21.642 188.802 20.8348 189.805 19.8132C190.808 18.7916 191.607 17.5758 192.155 16.2351C192.703 14.8945 192.99 13.4553 193 11.9998C192.99 10.5446 192.703 9.10553 192.155 7.765C191.607 6.42446 190.809 5.20868 189.806 4.18714C188.803 3.1656 187.615 2.35832 186.31 1.81143C185.006 1.26454 183.609 0.988751 182.201 0.999833V0.999833Z" fill="#343016"/>
<path d="M184.712 11.3329L189.498 17.1321C190.553 15.5868 191.105 13.7352 191.075 11.8445C191.044 9.95382 190.434 8.12194 189.331 6.61339L184.712 11.3329ZM171.153 6.1311C174.727 6.1311 177.425 7.05509 177.699 10.1286L181.464 6.1311H188.955C188.115 5.13262 187.078 4.33235 185.913 3.78454C184.748 3.23673 183.483 2.95419 182.203 2.95607H167.802C166.522 2.95388 165.256 3.23706 164.091 3.7863C162.926 4.33555 161.889 5.13795 161.051 6.13883C163.432 6.1311 168.972 6.1311 171.153 6.1311ZM165.253 10.0049L163.973 13.5811H169.125C169.398 13.6209 169.675 13.6035 169.941 13.5298C170.207 13.4562 170.457 13.3278 170.674 13.1524C170.891 12.977 171.071 12.7582 171.204 12.509C171.338 12.2598 171.421 11.9854 171.449 11.7021C171.785 10.4756 170.939 10.002 169.895 10.002L165.253 10.0049ZM181.493 17.6279L177.512 12.5043C176.773 15.9974 174.364 17.6269 169.853 17.6269H160.856C161.694 18.6972 162.754 19.5601 163.956 20.1524C165.159 20.7448 166.474 21.0516 167.806 21.0503H182.207C183.539 21.0533 184.855 20.7473 186.058 20.1548C187.261 19.5623 188.32 18.6985 189.157 17.6269L181.493 17.6279Z" fill="#8D8A77"/>
</g>
<g clip-path="url(#clip3_193_7768)">
<path d="M243 11.4993C243.001 14.5486 241.803 17.4733 239.671 19.6301C238.615 20.698 237.362 21.5453 235.982 22.1234C234.603 22.7016 233.124 22.9994 231.63 22.9998C228.614 23.0006 225.721 21.79 223.588 19.6344C221.455 17.4788 220.256 14.5547 220.255 11.5054V11.4993C220.254 8.44997 221.452 5.52522 223.584 3.36846C225.716 1.2117 228.608 -0.000412961 231.624 -0.0012203C234.641 -0.00202764 237.534 1.20853 239.667 3.36416C241.8 5.51978 242.999 8.44388 243 11.4932V11.4993Z" fill="#8D8A77"/>
<path d="M216.298 0.00220308C214.453 0.0139398 212.639 0.479156 211.012 1.35773C209.385 2.2363 207.994 3.50185 206.958 5.04524C205.922 6.58863 205.274 8.36352 205.068 10.2168C204.862 12.0701 205.106 13.9463 205.777 15.6833C206.448 17.4204 207.527 18.9664 208.921 20.1878C210.315 21.4093 211.982 22.2695 213.778 22.6945C215.575 23.1194 217.446 23.0962 219.231 22.6269C221.017 22.1577 222.662 21.2563 224.026 20.0007V20.0007C224.44 19.6195 224.826 19.2081 225.181 18.7699H222.851C222.543 18.3943 222.26 17.9987 222.003 17.5858H226.018C226.263 17.1895 226.484 16.7784 226.68 16.355H221.336C221.154 15.962 220.995 15.5588 220.86 15.1475H227.157C227.806 13.1777 227.917 11.0675 227.48 9.03904H220.533C220.619 8.63088 220.727 8.22779 220.857 7.83156H227.157C227.017 7.41208 226.853 7.00112 226.666 6.60074H221.336C221.528 6.18491 221.746 5.78164 221.988 5.39326H226.003C225.736 4.9638 225.441 4.55263 225.12 4.16244H222.885C223.236 3.74619 223.617 3.35777 224.026 3.00061C221.935 1.06904 219.204 -0.000679722 216.371 0.00220308H216.298Z" fill="#8D8A77"/>
<path d="M241.858 17.5105C241.922 17.5109 241.984 17.5273 242.039 17.5582C242.097 17.5895 242.145 17.6375 242.176 17.6962C242.209 17.7527 242.226 17.8167 242.226 17.8819C242.226 17.947 242.209 18.0111 242.176 18.0676C242.145 18.1259 242.098 18.1738 242.04 18.2056C241.984 18.2374 241.921 18.2541 241.857 18.2541C241.793 18.2541 241.73 18.2374 241.675 18.2056C241.617 18.1735 241.57 18.1256 241.538 18.0676C241.506 18.011 241.489 17.947 241.489 17.8819C241.489 17.8167 241.506 17.7527 241.538 17.6962C241.57 17.6378 241.618 17.5898 241.676 17.5582C241.731 17.5272 241.794 17.5108 241.857 17.5105M241.857 17.5724C241.805 17.5729 241.753 17.5869 241.707 17.613C241.658 17.6394 241.619 17.6796 241.592 17.7287C241.565 17.7756 241.55 17.8293 241.55 17.8839C241.55 17.9379 241.564 17.991 241.59 18.0381C241.619 18.0863 241.66 18.1253 241.71 18.1508C241.756 18.1768 241.808 18.1905 241.86 18.1905C241.913 18.1905 241.965 18.1768 242.011 18.1508C242.059 18.124 242.098 18.0843 242.124 18.0361C242.151 17.989 242.164 17.9359 242.164 17.8819C242.164 17.8274 242.15 17.7738 242.123 17.7266C242.098 17.6782 242.059 17.6383 242.011 17.612C241.965 17.5856 241.913 17.5716 241.86 17.5714M241.699 18.0868V17.6871H241.835C241.869 17.6853 241.903 17.6891 241.936 17.6982C241.956 17.7053 241.974 17.7188 241.986 17.7368C241.998 17.754 242.004 17.7746 242.004 17.7956C242.004 17.8098 242.002 17.8239 241.996 17.837C241.991 17.8501 241.983 17.8619 241.973 17.8717C241.951 17.8941 241.921 17.9072 241.89 17.9083C241.903 17.9133 241.915 17.9205 241.925 17.9296C241.947 17.9536 241.966 17.9802 241.983 18.0087L242.031 18.0868H241.954L241.919 18.0239C241.902 17.989 241.879 17.9574 241.851 17.9306C241.836 17.9207 241.818 17.9161 241.8 17.9174H241.763V18.0879H241.699M241.762 17.8626H241.839C241.864 17.8645 241.889 17.8589 241.911 17.8464C241.917 17.841 241.922 17.8342 241.926 17.8264C241.929 17.8187 241.931 17.8102 241.931 17.8017C241.931 17.7904 241.927 17.7794 241.921 17.7703C241.914 17.7606 241.904 17.7532 241.893 17.749C241.873 17.7431 241.851 17.7407 241.829 17.7418H241.757V17.8626" fill="#8D8A77"/>
<path d="M220.146 14.8023L220.298 13.7612C220.215 13.7612 220.097 13.7978 219.986 13.7978C219.564 13.7978 219.512 13.5705 219.545 13.4041L219.961 11.3108H220.601L220.733 10.1297H220.131L220.255 9.41431H218.988C218.961 9.4417 218.273 13.4396 218.273 13.9266C218.255 14.0619 218.266 14.1997 218.307 14.3299C218.348 14.46 218.417 14.5793 218.51 14.6788C218.602 14.7783 218.716 14.8555 218.842 14.9048C218.968 14.9541 219.103 14.9742 219.238 14.9637C219.547 14.9548 219.853 14.9004 220.146 14.8023Z" fill="#BBBBBB"/>
<path d="M220.533 12.8143C220.499 13.1015 220.529 13.3928 220.622 13.6666C220.714 13.9403 220.867 14.1893 221.068 14.3951C221.269 14.6009 221.514 14.7582 221.783 14.8552C222.053 14.9522 222.34 14.9864 222.625 14.9553C223.085 14.9732 223.545 14.9026 223.979 14.7473L224.193 13.5662C223.758 13.7404 223.298 13.8431 222.832 13.8706C221.527 13.8706 221.76 12.8904 221.76 12.8904L224.258 12.8986C224.334 12.5303 224.387 12.1575 224.416 11.7824C224.434 11.543 224.4 11.3026 224.318 11.0775C224.236 10.8523 224.107 10.6477 223.939 10.4773C223.772 10.307 223.571 10.1749 223.348 10.09C223.126 10.0052 222.889 9.96947 222.652 9.98537C221.432 9.98943 220.533 11.3156 220.533 12.8143ZM222.657 11.0894C223.34 11.0894 223.214 11.8656 223.214 11.9285H221.866C221.866 11.8443 221.994 11.0853 222.653 11.0853L222.657 11.0894Z" fill="#BBBBBB"/>
<path d="M230.321 14.8022L230.538 13.4679C230.224 13.6298 229.884 13.733 229.534 13.7723C229.361 13.7748 229.19 13.7396 229.032 13.6691C228.875 13.5986 228.734 13.4945 228.619 13.3638C228.505 13.2332 228.42 13.0791 228.37 12.9121C228.32 12.7452 228.306 12.5693 228.329 12.3964C228.329 10.9515 229.068 10.156 229.891 10.156C230.287 10.1673 230.671 10.2884 231.003 10.506L231.204 9.20927C230.845 8.95771 230.426 8.80935 229.991 8.78006C228.098 8.77295 227.015 10.1042 227.015 12.4076C227.015 13.9296 227.818 14.9727 229.262 14.9727C229.619 14.9503 229.974 14.8932 230.321 14.8022V14.8022Z" fill="#BBBBBB"/>
<path d="M213.486 10.0077C212.986 10.0082 212.489 10.0996 212.02 10.2777L211.844 11.3319C212.268 11.1821 212.715 11.1089 213.164 11.1158C213.615 11.1158 213.945 11.1675 213.945 11.5379C213.952 11.6411 213.938 11.7445 213.905 11.8423C213.905 11.8423 213.55 11.8119 213.384 11.8119C212.202 11.8119 211.237 12.2634 211.237 13.6261C211.215 13.7931 211.228 13.963 211.277 14.1241C211.326 14.2853 211.409 14.4337 211.52 14.5592C211.631 14.6847 211.768 14.7842 211.921 14.8509C212.074 14.9175 212.24 14.9497 212.406 14.9452C212.637 14.9548 212.866 14.9105 213.076 14.8156C213.287 14.7207 213.472 14.5779 213.619 14.3983L213.609 14.8509H214.674L215.15 11.4801C215.156 11.2665 215.116 11.0541 215.031 10.8582C214.947 10.6623 214.821 10.4877 214.662 10.3469C214.503 10.2061 214.315 10.1027 214.112 10.0441C213.909 9.98544 213.695 9.97304 213.486 10.0077V10.0077ZM213.671 12.7474C213.694 12.9504 213.619 13.9265 212.889 13.9265C212.827 13.9311 212.765 13.9224 212.706 13.901C212.648 13.8796 212.595 13.846 212.55 13.8023C212.505 13.7586 212.47 13.7059 212.447 13.6476C212.424 13.5892 212.413 13.5266 212.416 13.4638C212.416 13.1289 212.595 12.7261 213.482 12.7261C213.689 12.7251 213.636 12.7403 213.671 12.7454V12.7474Z" fill="#BBBBBB"/>
<path d="M216.282 14.9249C216.555 14.9249 218.114 14.9949 218.114 13.3683C218.114 11.8463 216.67 12.1507 216.67 11.5419C216.67 11.2375 216.905 11.1421 217.336 11.1421C217.506 11.1421 218.163 11.1969 218.163 11.1969L218.315 10.1163C217.947 10.0468 217.573 10.0145 217.198 10.0199C216.303 10.0199 215.392 10.3811 215.392 11.618C215.392 13.0193 216.908 12.8793 216.908 13.4688C216.908 13.8625 216.485 13.895 216.158 13.895C215.793 13.8832 215.432 13.8204 215.083 13.7083L214.922 14.7778C215.363 14.9084 215.823 14.9582 216.282 14.9249V14.9249Z" fill="#BBBBBB"/>
<path d="M240.305 9.02759L240.087 10.6765C239.948 10.4923 239.772 10.3402 239.57 10.2305C239.368 10.1207 239.146 10.0559 238.917 10.0402C237.574 10.0402 236.883 11.3928 236.883 12.9463C236.883 13.9499 237.377 14.9321 238.388 14.9321C238.601 14.9323 238.811 14.8872 239.005 14.7998C239.2 14.7124 239.373 14.5846 239.515 14.4247L239.462 14.861H240.641L241.566 9.03976L240.305 9.02759ZM239.785 12.233C239.785 12.8794 239.468 13.7439 238.813 13.7439C238.377 13.7439 238.173 13.3735 238.173 12.7931C238.173 11.8444 238.594 11.2183 239.126 11.2183C239.565 11.2173 239.788 11.5197 239.788 12.233H239.785Z" fill="#BBBBBB"/>
<path d="M206.93 14.8632L207.667 10.4685L207.775 14.8632H208.609L210.166 10.4685L209.476 14.8632H210.716L211.67 9.03378L209.701 9.01855L208.53 12.5872L208.498 9.0358H206.691L205.725 14.8632H206.93Z" fill="#BBBBBB"/>
<path d="M225.585 14.8712C225.937 12.8418 226.063 11.2447 227.091 11.5765C227.229 10.9496 227.451 10.3447 227.751 9.77849C227.751 9.77849 227.7 9.70239 227.383 9.70239C226.841 9.70239 226.116 10.8186 226.116 10.8186L226.225 10.1306H225.097L224.347 14.8712H225.59H225.585Z" fill="#BBBBBB"/>
<path d="M232.857 10.0077C232.355 10.008 231.858 10.0995 231.389 10.2776L231.214 11.3318C231.638 11.182 232.084 11.1088 232.533 11.1157C232.984 11.1157 233.314 11.1675 233.314 11.5378C233.321 11.641 233.307 11.7444 233.274 11.8422C233.274 11.8422 232.919 11.8118 232.753 11.8118C231.571 11.8118 230.606 12.2633 230.606 13.6261C230.584 13.793 230.597 13.9629 230.646 14.1241C230.695 14.2852 230.778 14.4336 230.889 14.5591C231 14.6846 231.137 14.7842 231.29 14.8508C231.443 14.9175 231.609 14.9497 231.776 14.9452C232.006 14.9548 232.235 14.9104 232.445 14.8155C232.656 14.7206 232.841 14.5778 232.988 14.3982L232.978 14.8508H234.045L234.521 11.48C234.527 11.2663 234.487 11.0538 234.402 10.8578C234.318 10.6618 234.192 10.4872 234.033 10.3464C233.874 10.2056 233.686 10.1022 233.482 10.0436C233.279 9.98508 233.065 9.97279 232.857 10.0077V10.0077ZM233.041 12.7473C233.064 12.9503 232.988 13.9264 232.259 13.9264C232.197 13.931 232.135 13.9224 232.077 13.901C232.018 13.8796 231.965 13.8459 231.92 13.8022C231.875 13.7586 231.84 13.7058 231.817 13.6475C231.794 13.5892 231.783 13.5265 231.786 13.4637C231.786 13.1289 231.965 12.726 232.853 12.726C233.058 12.725 233.006 12.7402 233.04 12.7453L233.041 12.7473Z" fill="#BBBBBB"/>
<path d="M235.746 14.8712C235.94 13.3806 236.298 11.2873 237.252 11.5765C237.4 10.7921 237.257 10.7941 236.94 10.7941C236.719 10.7878 236.498 10.7946 236.277 10.8144L236.386 10.1265H235.258L234.503 14.8712H235.746V14.8712Z" fill="#BBBBBB"/>
<path d="M220.462 14.4267L220.613 13.3816C220.531 13.3816 220.412 13.4171 220.301 13.4171C219.879 13.4171 219.833 13.1908 219.859 13.0234L220.2 10.9007H220.84L220.995 9.75003H220.392L220.516 9.03467H219.304C219.277 9.06206 218.59 13.0599 218.59 13.547C218.571 13.6823 218.583 13.8201 218.624 13.9502C218.664 14.0804 218.734 14.1996 218.826 14.2991C218.919 14.3986 219.032 14.4759 219.158 14.5252C219.284 14.5745 219.42 14.5946 219.554 14.584C219.863 14.5763 220.168 14.5233 220.462 14.4267V14.4267Z" fill="#343016"/>
<path d="M220.845 12.4432C220.81 12.7308 220.841 13.0226 220.934 13.2968C221.026 13.5709 221.179 13.8202 221.381 14.0262C221.583 14.2321 221.828 14.3892 222.098 14.4859C222.368 14.5825 222.657 14.6161 222.941 14.5842C223.377 14.6088 223.813 14.5396 224.22 14.3812L224.434 13.2001C224.026 13.3773 223.591 13.4803 223.148 13.5045C221.843 13.5045 222.075 12.5243 222.075 12.5243H224.536C224.613 12.1561 224.666 11.7833 224.695 11.4082C224.717 11.1715 224.687 10.9329 224.609 10.7088C224.53 10.4848 224.405 10.2806 224.241 10.1105C224.076 9.94032 223.878 9.80828 223.658 9.72348C223.438 9.63867 223.203 9.60311 222.969 9.61928C221.746 9.61826 220.845 10.9465 220.845 12.4432ZM222.969 10.7182C223.652 10.7182 223.526 11.4944 223.526 11.5573H222.182C222.182 11.4731 222.308 10.7141 222.969 10.7141V10.7182Z" fill="#343016"/>
<path d="M230.635 14.4267L230.852 13.0924C230.539 13.2544 230.198 13.3575 229.848 13.3968C229.676 13.3993 229.505 13.3641 229.347 13.2935C229.189 13.223 229.048 13.1189 228.934 12.9883C228.82 12.8576 228.734 12.7035 228.684 12.5366C228.634 12.3696 228.621 12.1937 228.644 12.0208C228.644 10.5759 229.383 9.78041 230.206 9.78041C230.601 9.79174 230.986 9.91285 231.318 10.1305L231.519 8.8337C231.083 8.65858 230.622 8.55578 230.155 8.5293C228.756 8.5293 227.396 9.75504 227.396 12.0574C227.396 13.5794 228.131 14.5941 229.575 14.5941C229.933 14.5728 230.288 14.5168 230.635 14.4267V14.4267Z" fill="#343016"/>
<path d="M213.802 9.63633C213.301 9.63681 212.804 9.72823 212.335 9.90624L212.16 10.9605C212.583 10.8104 213.03 10.7369 213.479 10.7434C213.929 10.7434 214.26 10.7951 214.26 11.1655C214.266 11.2686 214.253 11.3721 214.219 11.4699C214.219 11.4699 213.864 11.4394 213.699 11.4394C212.653 11.4394 211.553 11.891 211.553 13.2537C211.53 13.4207 211.544 13.5906 211.592 13.7517C211.641 13.9128 211.724 14.0613 211.835 14.1868C211.947 14.3123 212.084 14.4118 212.237 14.4785C212.39 14.5451 212.555 14.5773 212.722 14.5728C212.957 14.579 213.191 14.5317 213.406 14.4344C213.621 14.3371 213.812 14.1923 213.964 14.0107L213.924 14.4784H214.99L215.466 11.1076C215.472 10.8941 215.432 10.6817 215.347 10.4858C215.263 10.2899 215.137 10.1154 214.978 9.97471C214.818 9.83404 214.631 9.73074 214.427 9.67224C214.224 9.61373 214.01 9.60147 213.802 9.63633V9.63633ZM214.061 12.3811C214.084 12.584 213.933 13.552 213.204 13.552C213.142 13.5566 213.079 13.548 213.021 13.5266C212.962 13.5052 212.909 13.4715 212.864 13.4279C212.82 13.3842 212.785 13.3314 212.761 13.2731C212.738 13.2148 212.728 13.1521 212.73 13.0893C212.73 12.7545 212.91 12.3516 213.797 12.3516C213.886 12.3459 213.975 12.3559 214.061 12.3811V12.3811Z" fill="#343016"/>
<path d="M216.597 14.5535C216.87 14.5535 218.429 14.6236 218.429 12.997C218.429 11.475 216.986 11.7794 216.986 11.1706C216.986 10.8662 217.221 10.7708 217.651 10.7708C217.822 10.7708 218.478 10.8256 218.478 10.8256L218.631 9.74492C218.262 9.67542 217.888 9.64313 217.514 9.64853C216.618 9.64853 215.707 10.0098 215.707 11.2467C215.707 12.648 217.224 12.5079 217.224 13.0975C217.224 13.4912 216.8 13.5236 216.474 13.5236C216.109 13.5119 215.747 13.4491 215.399 13.3369L215.237 14.4074C215.678 14.5379 216.139 14.5874 216.597 14.5535V14.5535Z" fill="#343016"/>
<path d="M240.667 8.66626L240.406 10.305C240.267 10.1205 240.091 9.96821 239.89 9.85845C239.688 9.74868 239.465 9.684 239.237 9.66877C238.128 9.66877 237.202 11.0214 237.202 12.5748C237.202 13.5784 237.695 14.5606 238.708 14.5606C238.92 14.5607 239.13 14.5156 239.325 14.4282C239.519 14.3408 239.693 14.2131 239.835 14.0533L239.782 14.4896H240.959L241.884 8.66829L240.667 8.66626ZM240.105 11.8595C240.105 12.5059 239.789 13.3694 239.131 13.3694C238.696 13.3694 238.491 13 238.491 12.4196C238.491 11.4709 238.912 10.8448 239.444 10.8448C239.881 10.8448 240.105 11.1492 240.105 11.8595Z" fill="#343016"/>
<path d="M207.245 14.4918L207.987 10.0961L208.087 14.4918H208.921L210.478 10.0971L209.794 14.4918H211.032L211.987 8.66235H210.07L208.876 12.2391L208.814 8.66235H207.047L206.08 14.4918H207.245Z" fill="#343016"/>
<path d="M225.902 14.4979C226.254 12.4685 226.319 10.8257 227.16 11.1271C227.235 10.6324 227.386 10.1529 227.61 9.70653C227.533 9.69388 227.454 9.68844 227.376 9.69029C226.834 9.69029 226.432 10.4391 226.432 10.4391L226.54 9.75118H225.414L224.658 14.4979H225.902Z" fill="#343016"/>
<path d="M233.43 9.63641C232.929 9.63689 232.432 9.72831 231.963 9.90632L231.788 10.9606C232.212 10.8107 232.659 10.7375 233.108 10.7445C233.558 10.7445 233.888 10.7962 233.888 11.1666C233.895 11.2697 233.881 11.3732 233.848 11.471C233.848 11.471 233.493 11.4405 233.327 11.4405C232.281 11.4405 231.181 11.8921 231.181 13.2548C231.158 13.4218 231.172 13.5917 231.22 13.7528C231.269 13.9139 231.352 14.0624 231.463 14.1879C231.575 14.3134 231.711 14.4129 231.865 14.4795C232.018 14.5462 232.183 14.5784 232.35 14.5739C232.585 14.58 232.819 14.5326 233.034 14.4354C233.249 14.3381 233.439 14.1933 233.591 14.0118L233.551 14.4795H234.617L235.093 11.1087C235.099 10.8952 235.059 10.6828 234.975 10.4869C234.89 10.2909 234.764 10.1163 234.605 9.97556C234.446 9.8348 234.258 9.73139 234.055 9.67275C233.852 9.61411 233.638 9.6017 233.43 9.63641V9.63641ZM233.69 12.3812C233.713 12.5841 233.562 13.5521 232.833 13.5521C232.771 13.5569 232.708 13.5483 232.65 13.527C232.591 13.5057 232.538 13.472 232.493 13.4283C232.448 13.3846 232.413 13.3318 232.39 13.2734C232.367 13.215 232.356 13.1523 232.359 13.0894C232.359 12.7546 232.539 12.3517 233.426 12.3517C233.515 12.3461 233.604 12.3561 233.69 12.3812Z" fill="#343016"/>
<path d="M236.068 14.4979C236.42 12.4685 236.485 10.8257 237.326 11.1271C237.401 10.6324 237.553 10.1529 237.777 9.70653C237.7 9.69388 237.621 9.68844 237.543 9.69029C237.001 9.69029 236.599 10.4391 236.599 10.4391L236.707 9.75118H235.58L234.824 14.4979H236.068Z" fill="#343016"/>
<path d="M241.853 13.7673C241.917 13.7677 241.979 13.7845 242.034 13.816C242.092 13.8469 242.14 13.8946 242.172 13.953C242.204 14.0094 242.22 14.0732 242.22 14.1382C242.22 14.2032 242.204 14.267 242.172 14.3234C242.14 14.3816 242.093 14.4295 242.036 14.4614C241.98 14.4934 241.917 14.5102 241.853 14.5102C241.789 14.5102 241.726 14.4934 241.67 14.4614C241.613 14.4294 241.566 14.3815 241.534 14.3234C241.502 14.267 241.485 14.2032 241.485 14.1382C241.485 14.0732 241.502 14.0094 241.534 13.953C241.566 13.8948 241.614 13.8472 241.672 13.816C241.727 13.7845 241.79 13.7678 241.853 13.7673M241.853 13.8282C241.801 13.8286 241.749 13.8426 241.703 13.8688C241.654 13.8949 241.615 13.9347 241.588 13.9835C241.563 14.0299 241.549 14.0824 241.549 14.1357C241.549 14.189 241.563 14.2414 241.588 14.2879C241.615 14.3362 241.655 14.3759 241.703 14.4025C241.749 14.4285 241.801 14.4421 241.853 14.4421C241.906 14.4421 241.958 14.4285 242.004 14.4025C242.052 14.3758 242.091 14.3361 242.117 14.2879C242.143 14.2414 242.157 14.189 242.157 14.1357C242.157 14.0824 242.143 14.0299 242.117 13.9835C242.091 13.9346 242.052 13.8947 242.003 13.8688C241.957 13.8425 241.905 13.8285 241.852 13.8282M241.692 14.3437V13.9439H241.828C241.862 13.9422 241.896 13.946 241.929 13.9551C241.949 13.9621 241.967 13.9756 241.979 13.9936C241.991 14.0107 241.998 14.0313 241.998 14.0525C241.998 14.0666 241.996 14.0807 241.99 14.0938C241.985 14.107 241.977 14.1188 241.967 14.1286C241.945 14.1509 241.916 14.164 241.886 14.1651C241.898 14.1702 241.91 14.1774 241.92 14.1864C241.942 14.2107 241.961 14.2372 241.978 14.2655L242.026 14.3437H241.948L241.913 14.2808C241.896 14.2458 241.873 14.2142 241.845 14.1874C241.83 14.1771 241.812 14.1721 241.794 14.1732H241.757V14.3437H241.693M241.757 14.1184H241.834C241.861 14.1213 241.887 14.1156 241.91 14.1022C241.916 14.0969 241.922 14.0901 241.925 14.0823C241.929 14.0745 241.93 14.0661 241.93 14.0575C241.93 14.0462 241.926 14.0352 241.92 14.0261C241.913 14.0164 241.904 14.009 241.893 14.0048C241.872 13.9989 241.85 13.9965 241.828 13.9977H241.756V14.1184" fill="#343016"/>
</g>
<defs>
<linearGradient id="paint0_linear_193_7768" x1="12.6143" y1="7.34573" x2="12.1725" y2="2.28575" gradientUnits="userSpaceOnUse">
<stop stop-color="#504678"/>
<stop offset="0.302" stop-color="#504678" stop-opacity="0.616"/>
<stop offset="0.608" stop-color="#504678" stop-opacity="0.283"/>
<stop offset="0.852" stop-color="#504678" stop-opacity="0.076"/>
<stop offset="1" stop-color="#504678" stop-opacity="0"/>
</linearGradient>
<linearGradient id="paint1_linear_193_7768" x1="14.1311" y1="10.9928" x2="14.4055" y2="16.662" gradientUnits="userSpaceOnUse">
<stop stop-color="#504678"/>
<stop offset="0.302" stop-color="#504678" stop-opacity="0.616"/>
<stop offset="0.608" stop-color="#504678" stop-opacity="0.283"/>
<stop offset="0.852" stop-color="#504678" stop-opacity="0.076"/>
<stop offset="1" stop-color="#504678" stop-opacity="0"/>
</linearGradient>
<linearGradient id="paint2_linear_193_7768" x1="13.4829" y1="7.9501" x2="13.2456" y2="6.06709" gradientUnits="userSpaceOnUse">
<stop stop-color="#95989A"/>
<stop offset="0.643" stop-color="#95989A" stop-opacity="0.33"/>
<stop offset="1" stop-color="#95989A" stop-opacity="0"/>
</linearGradient>
<clipPath id="clip0_193_7768">
<rect width="71" height="23" fill="white"/>
</clipPath>
<clipPath id="clip1_193_7768">
<rect width="62" height="20" fill="white" transform="translate(83 3)"/>
</clipPath>
<clipPath id="clip2_193_7768">
<rect width="36" height="22" fill="white" transform="translate(157 1)"/>
</clipPath>
<clipPath id="clip3_193_7768">
<rect width="38" height="23" fill="white" transform="translate(205)"/>
</clipPath>
</defs>
</svg>
