<svg width="30" height="30" viewBox="0 0 30 30" fill="none" xmlns="http://www.w3.org/2000/svg">
<path d="M24.5742 15.457L26.0039 7.62891C26.0212 7.52787 26.0165 7.4243 25.9902 7.32522C25.9639 7.22615 25.9166 7.13388 25.8516 7.05469C25.7873 6.97349 25.7053 6.90805 25.6119 6.86337C25.5185 6.81868 25.4161 6.79594 25.3125 6.79688H6.21094L5.60156 3.45703C5.53536 3.07937 5.33806 2.73717 5.04439 2.49066C4.75072 2.24415 4.37951 2.10913 3.99609 2.10938H1.875C1.68852 2.10938 1.50968 2.18345 1.37782 2.31532C1.24595 2.44718 1.17188 2.62602 1.17188 2.8125C1.17188 2.99898 1.24595 3.17782 1.37782 3.30968C1.50968 3.44155 1.68852 3.51563 1.875 3.51563H3.99609C4.04891 3.5172 4.09964 3.53658 4.14006 3.57062C4.18048 3.60466 4.20821 3.65135 4.21875 3.70313L7.46484 21.5391C7.06343 21.8621 6.75049 22.2816 6.55528 22.7584C6.36007 23.2353 6.28897 23.7538 6.34862 24.2656C6.40828 24.7774 6.59674 25.2656 6.89639 25.6848C7.19604 26.1039 7.59708 26.4402 8.06203 26.6623C8.52697 26.8843 9.04063 26.9848 9.55497 26.9544C10.0693 26.9239 10.5675 26.7636 11.003 26.4883C11.4386 26.213 11.7972 25.8317 12.0453 25.3801C12.2934 24.9286 12.423 24.4215 12.4219 23.9062C12.4242 23.3244 12.2573 22.7543 11.9414 22.2656H18.9961C18.6802 22.7543 18.5133 23.3244 18.5156 23.9062C18.5156 24.5089 18.6943 25.0979 19.0291 25.599C19.3639 26.1001 19.8398 26.4906 20.3965 26.7212C20.9533 26.9518 21.5659 27.0121 22.1569 26.8946C22.748 26.777 23.2909 26.4868 23.717 26.0607C24.1431 25.6346 24.4333 25.0917 24.5508 24.5007C24.6684 23.9096 24.6081 23.297 24.3774 22.7403C24.1468 22.1835 23.7563 21.7077 23.2553 21.3729C22.7542 21.0381 22.1651 20.8594 21.5625 20.8594H8.76563L8.16797 17.5781H22.043C22.6464 17.5767 23.2303 17.3637 23.6928 16.9761C24.1553 16.5885 24.4672 16.0509 24.5742 15.457V15.457ZM11.0156 23.9062C11.0156 24.2307 10.9194 24.5479 10.7391 24.8177C10.5589 25.0875 10.3026 25.2978 10.0028 25.422C9.70305 25.5462 9.37318 25.5787 9.05493 25.5154C8.73668 25.452 8.44435 25.2958 8.2149 25.0663C7.98546 24.8369 7.8292 24.5446 7.7659 24.2263C7.7026 23.9081 7.73509 23.5782 7.85926 23.2784C7.98344 22.9786 8.19372 22.7224 8.46352 22.5421C8.73332 22.3618 9.05052 22.2656 9.375 22.2656C9.81012 22.2656 10.2274 22.4385 10.5351 22.7462C10.8428 23.0538 11.0156 23.4711 11.0156 23.9062V23.9062ZM23.2031 23.9062C23.2031 24.2307 23.1069 24.5479 22.9266 24.8177C22.7464 25.0875 22.4901 25.2978 22.1903 25.422C21.8906 25.5462 21.5607 25.5787 21.2424 25.5154C20.9242 25.452 20.6318 25.2958 20.4024 25.0663C20.173 24.8369 20.0167 24.5446 19.9534 24.2263C19.8901 23.9081 19.9226 23.5782 20.0468 23.2784C20.1709 22.9786 20.3812 22.7224 20.651 22.5421C20.9208 22.3618 21.238 22.2656 21.5625 22.2656C21.9976 22.2656 22.4149 22.4385 22.7226 22.7462C23.0303 23.0538 23.2031 23.4711 23.2031 23.9062V23.9062ZM6.46875 8.20313H24.4688L23.1914 15.2109C23.1422 15.4799 23.0004 15.7233 22.7907 15.8988C22.581 16.0743 22.3164 16.1709 22.043 16.1719H7.92187L6.46875 8.20313Z" fill="#413C1C"/>
</svg>
