<svg width="24" height="23" viewBox="0 0 24 23" fill="none" xmlns="http://www.w3.org/2000/svg">
<path d="M12.2334 6.09375C11.1603 6.09375 10.1114 6.4099 9.21913 7.00223C8.3269 7.59456 7.63149 8.43646 7.22084 9.42147C6.81019 10.4065 6.70274 11.4904 6.91209 12.536C7.12144 13.5817 7.63817 14.5422 8.39696 15.2961C9.15574 16.05 10.1225 16.5634 11.1749 16.7714C12.2274 16.9794 13.3183 16.8727 14.3097 16.4647C15.3011 16.0567 16.1485 15.3657 16.7446 14.4792C17.3408 13.5928 17.659 12.5505 17.659 11.4844C17.659 10.0547 17.0874 8.68357 16.0699 7.67263C15.0524 6.66169 13.6724 6.09375 12.2334 6.09375V6.09375ZM12.2334 15.4688C11.4403 15.4688 10.6649 15.2351 10.0055 14.7973C9.34599 14.3595 8.83199 13.7372 8.52847 13.0091C8.22495 12.2811 8.14553 11.48 8.30026 10.7071C8.455 9.93417 8.83694 9.22422 9.39778 8.667C9.95861 8.10977 10.6732 7.7303 11.4511 7.57656C12.229 7.42282 13.0353 7.50172 13.7681 7.80329C14.5008 8.10486 15.1272 8.61555 15.5678 9.27077C16.0085 9.926 16.2436 10.6963 16.2436 11.4844C16.2405 12.5401 15.817 13.5518 15.0656 14.2983C14.3143 15.0449 13.296 15.4657 12.2334 15.4688ZM17.4231 0H7.04373C5.35452 0 3.7345 0.666711 2.54005 1.85346C1.3456 3.04022 0.674561 4.6498 0.674561 6.32812V16.6406C0.674561 18.3189 1.3456 19.9285 2.54005 21.1153C3.7345 22.302 5.35452 22.9688 7.04373 22.9688H17.4231C19.1123 22.9687 20.7324 22.302 21.9268 21.1153C23.1213 19.9285 23.7923 18.3189 23.7923 16.6406V6.32812C23.7923 4.6498 23.1213 3.04022 21.9268 1.85346C20.7324 0.666711 19.1123 0 17.4231 0V0ZM22.3769 16.6406C22.3769 17.946 21.855 19.1979 20.926 20.1209C19.997 21.0439 18.737 21.5625 17.4231 21.5625H7.04373C5.7299 21.5625 4.46988 21.0439 3.54087 20.1209C2.61185 19.1979 2.08993 17.946 2.08993 16.6406V6.32812C2.08993 5.02276 2.61185 3.77086 3.54087 2.84783C4.46988 1.9248 5.7299 1.40625 7.04373 1.40625H17.4231C18.737 1.40625 19.997 1.9248 20.926 2.84783C21.855 3.77086 22.3769 5.02276 22.3769 6.32812V16.6406ZM19.5462 5.39062C19.5462 5.6224 19.477 5.84897 19.3474 6.04168C19.2178 6.2344 19.0336 6.3846 18.8181 6.4733C18.6026 6.56199 18.3654 6.5852 18.1366 6.53998C17.9078 6.49477 17.6976 6.38316 17.5327 6.21927C17.3677 6.05538 17.2554 5.84657 17.2099 5.61925C17.1644 5.39193 17.1877 5.1563 17.277 4.94217C17.3663 4.72804 17.5175 4.54501 17.7114 4.41625C17.9054 4.28748 18.1334 4.21875 18.3667 4.21875C18.6795 4.21875 18.9795 4.34222 19.2007 4.56198C19.4219 4.78175 19.5462 5.07982 19.5462 5.39062Z" fill="#413C1C"/>
</svg>
