<svg width="27" height="27" viewBox="0 0 27 27" fill="none" xmlns="http://www.w3.org/2000/svg">
<rect width="27" height="27" rx="13.5" fill="#676349"/>
<path d="M23.4141 13.5C23.4141 13.6678 23.3474 13.8288 23.2287 13.9475C23.11 14.0661 22.9491 14.1328 22.7812 14.1328H14.1328V22.7812C14.1328 22.9491 14.0661 23.11 13.9475 23.2287C13.8288 23.3474 13.6678 23.4141 13.5 23.4141C13.3322 23.4141 13.1712 23.3474 13.0525 23.2287C12.9339 23.11 12.8672 22.9491 12.8672 22.7812V14.1328H4.21875C4.05092 14.1328 3.88996 14.0661 3.77128 13.9475C3.65261 13.8288 3.58594 13.6678 3.58594 13.5C3.58594 13.3322 3.65261 13.1712 3.77128 13.0525C3.88996 12.9339 4.05092 12.8672 4.21875 12.8672H12.8672V4.21875C12.8672 4.05092 12.9339 3.88996 13.0525 3.77128C13.1712 3.65261 13.3322 3.58594 13.5 3.58594C13.6678 3.58594 13.8288 3.65261 13.9475 3.77128C14.0661 3.88996 14.1328 4.05092 14.1328 4.21875V12.8672H22.7812C22.9491 12.8672 23.11 12.9339 23.2287 13.0525C23.3474 13.1712 23.4141 13.3322 23.4141 13.5Z" fill="#ECDE8E"/>
</svg>
