<svg width="26" height="26" viewBox="0 0 26 26" fill="none" xmlns="http://www.w3.org/2000/svg">
<path d="M22.75 5.07812H3.25C2.8729 5.07812 2.51124 5.22793 2.24458 5.49458C1.97793 5.76124 1.82813 6.1229 1.82812 6.5V19.4898C1.82812 19.8669 1.97793 20.2286 2.24458 20.4953C2.51124 20.7619 2.8729 20.9117 3.25 20.9117H22.75C23.1271 20.9117 23.4888 20.7619 23.7554 20.4953C24.0221 20.2286 24.1719 19.8669 24.1719 19.4898V6.5C24.1719 6.1229 24.0221 5.76124 23.7554 5.49458C23.4888 5.22793 23.1271 5.07812 22.75 5.07812ZM3.25 6.29688H22.75C22.8039 6.29688 22.8555 6.31828 22.8936 6.35637C22.9317 6.39446 22.9531 6.44613 22.9531 6.5V9.23203H3.04688V6.5C3.04688 6.44613 3.06828 6.39446 3.10637 6.35637C3.14446 6.31828 3.19613 6.29688 3.25 6.29688ZM22.75 19.7031H3.25C3.19613 19.7031 3.14446 19.6817 3.10637 19.6436C3.06828 19.6055 3.04688 19.5539 3.04688 19.5V10.4508H22.9531V19.5C22.9531 19.5539 22.9317 19.6055 22.8936 19.6436C22.8555 19.6817 22.8039 19.7031 22.75 19.7031ZM20.9219 17.0625C20.9219 17.2241 20.8577 17.3791 20.7434 17.4934C20.6291 17.6077 20.4741 17.6719 20.3125 17.6719H17.0625C16.9009 17.6719 16.7459 17.6077 16.6316 17.4934C16.5173 17.3791 16.4531 17.2241 16.4531 17.0625C16.4531 16.9009 16.5173 16.7459 16.6316 16.6316C16.7459 16.5173 16.9009 16.4531 17.0625 16.4531H20.3125C20.4741 16.4531 20.6291 16.5173 20.7434 16.6316C20.8577 16.7459 20.9219 16.9009 20.9219 17.0625ZM14.4219 17.0625C14.4219 17.2241 14.3577 17.3791 14.2434 17.4934C14.1291 17.6077 13.9741 17.6719 13.8125 17.6719H12.1875C12.0259 17.6719 11.8709 17.6077 11.7566 17.4934C11.6423 17.3791 11.5781 17.2241 11.5781 17.0625C11.5781 16.9009 11.6423 16.7459 11.7566 16.6316C11.8709 16.5173 12.0259 16.4531 12.1875 16.4531H13.8125C13.9741 16.4531 14.1291 16.5173 14.2434 16.6316C14.3577 16.7459 14.4219 16.9009 14.4219 17.0625Z" fill="#F0E5A5"/>
</svg>
