<svg width="26" height="19" viewBox="0 0 26 19" fill="none" xmlns="http://www.w3.org/2000/svg">
<path d="M24.1406 0H1.64062C1.2055 0 0.788205 0.172851 0.480528 0.480528C0.172851 0.788205 0 1.2055 0 1.64063V16.6289C0 17.064 0.172851 17.4813 0.480528 17.789C0.788205 18.0967 1.2055 18.2695 1.64062 18.2695H24.1406C24.5757 18.2695 24.993 18.0967 25.3007 17.789C25.6084 17.4813 25.7812 17.064 25.7812 16.6289V1.64063C25.7813 1.2055 25.6084 0.788205 25.3007 0.480528C24.993 0.172851 24.5757 0 24.1406 0V0ZM1.64062 1.40625H24.1406C24.2028 1.40625 24.2624 1.43094 24.3064 1.4749C24.3503 1.51885 24.375 1.57846 24.375 1.64063V4.79297H1.40625V1.64063C1.40625 1.57846 1.43094 1.51885 1.4749 1.4749C1.51885 1.43094 1.57846 1.40625 1.64062 1.40625V1.40625ZM24.1406 16.875H1.64062C1.57846 16.875 1.51885 16.8503 1.4749 16.8064C1.43094 16.7624 1.40625 16.7028 1.40625 16.6406V6.19922H24.375V16.6406C24.375 16.7028 24.3503 16.7624 24.3064 16.8064C24.2624 16.8503 24.2028 16.875 24.1406 16.875ZM22.0312 13.8281C22.0312 14.0146 21.9572 14.1934 21.8253 14.3253C21.6934 14.4572 21.5146 14.5313 21.3281 14.5313H17.5781C17.3916 14.5313 17.2128 14.4572 17.0809 14.3253C16.9491 14.1934 16.875 14.0146 16.875 13.8281C16.875 13.6416 16.9491 13.4628 17.0809 13.3309C17.2128 13.1991 17.3916 13.125 17.5781 13.125H21.3281C21.5146 13.125 21.6934 13.1991 21.8253 13.3309C21.9572 13.4628 22.0312 13.6416 22.0312 13.8281V13.8281ZM14.5312 13.8281C14.5312 14.0146 14.4572 14.1934 14.3253 14.3253C14.1934 14.4572 14.0146 14.5313 13.8281 14.5313H11.9531C11.7666 14.5313 11.5878 14.4572 11.4559 14.3253C11.3241 14.1934 11.25 14.0146 11.25 13.8281C11.25 13.6416 11.3241 13.4628 11.4559 13.3309C11.5878 13.1991 11.7666 13.125 11.9531 13.125H13.8281C14.0146 13.125 14.1934 13.1991 14.3253 13.3309C14.4572 13.4628 14.5312 13.6416 14.5312 13.8281Z" fill="#413C1C"/>
</svg>
