<svg width="26" height="26" viewBox="0 0 26 26" fill="none" xmlns="http://www.w3.org/2000/svg">
<path d="M21.125 8.32812H17.2656V5.28125C17.2656 4.14994 16.8162 3.06496 16.0163 2.265C15.2163 1.46504 14.1313 1.01563 13 1.01562C11.8687 1.01563 10.7837 1.46504 9.98375 2.265C9.18379 3.06496 8.73438 4.14994 8.73438 5.28125V8.32812H4.875C4.4979 8.32812 4.13624 8.47793 3.86958 8.74458C3.60293 9.01124 3.45312 9.3729 3.45312 9.75V21.125C3.45312 21.5021 3.60293 21.8638 3.86958 22.1304C4.13624 22.3971 4.4979 22.5469 4.875 22.5469H21.125C21.5021 22.5469 21.8638 22.3971 22.1304 22.1304C22.3971 21.8638 22.5469 21.5021 22.5469 21.125V9.75C22.5469 9.3729 22.3971 9.01124 22.1304 8.74458C21.8638 8.47793 21.5021 8.32812 21.125 8.32812ZM9.95312 5.28125C9.95312 4.47317 10.2741 3.69818 10.8455 3.12678C11.4169 2.55538 12.1919 2.23438 13 2.23438C13.8081 2.23438 14.5831 2.55538 15.1545 3.12678C15.7259 3.69818 16.0469 4.47317 16.0469 5.28125V8.32812H9.95312V5.28125ZM21.3281 21.125C21.3281 21.1789 21.3067 21.2305 21.2686 21.2686C21.2305 21.3067 21.1789 21.3281 21.125 21.3281H4.875C4.82113 21.3281 4.76946 21.3067 4.73137 21.2686C4.69328 21.2305 4.67188 21.1789 4.67188 21.125V9.75C4.67188 9.69613 4.69328 9.64446 4.73137 9.60637C4.76946 9.56828 4.82113 9.54688 4.875 9.54688H21.125C21.1789 9.54688 21.2305 9.56828 21.2686 9.60637C21.3067 9.64446 21.3281 9.69613 21.3281 9.75V21.125Z" fill="#F0E5A5"/>
</svg>
