<svg width="30" height="30" viewBox="0 0 30 30" fill="none" xmlns="http://www.w3.org/2000/svg">
<path d="M24.375 9.60938H19.9219V6.09375C19.9219 4.78839 19.4033 3.53649 18.4803 2.61346C17.5573 1.69043 16.3054 1.17188 15 1.17188C13.6946 1.17188 12.4427 1.69043 11.5197 2.61346C10.5967 3.53649 10.0781 4.78839 10.0781 6.09375V9.60938H5.625C5.18988 9.60938 4.77258 9.78223 4.4649 10.0899C4.15723 10.3976 3.98438 10.8149 3.98438 11.25V24.375C3.98438 24.8101 4.15723 25.2274 4.4649 25.5351C4.77258 25.8428 5.18988 26.0156 5.625 26.0156H24.375C24.8101 26.0156 25.2274 25.8428 25.5351 25.5351C25.8428 25.2274 26.0156 24.8101 26.0156 24.375V11.25C26.0156 10.8149 25.8428 10.3976 25.5351 10.0899C25.2274 9.78223 24.8101 9.60938 24.375 9.60938ZM11.4844 6.09375C11.4844 5.16135 11.8548 4.26714 12.5141 3.60783C13.1734 2.94852 14.0676 2.57813 15 2.57812C15.9324 2.57813 16.8266 2.94852 17.4859 3.60783C18.1452 4.26714 18.5156 5.16135 18.5156 6.09375V9.60938H11.4844V6.09375ZM24.6094 24.375C24.6094 24.4372 24.5847 24.4968 24.5407 24.5407C24.4968 24.5847 24.4372 24.6094 24.375 24.6094H5.625C5.56284 24.6094 5.50323 24.5847 5.45927 24.5407C5.41532 24.4968 5.39062 24.4372 5.39062 24.375V11.25C5.39062 11.1878 5.41532 11.1282 5.45927 11.0843C5.50323 11.0403 5.56284 11.0156 5.625 11.0156H24.375C24.4372 11.0156 24.4968 11.0403 24.5407 11.0843C24.5847 11.1282 24.6094 11.1878 24.6094 11.25V24.375ZM16.1719 17.8125C16.1719 18.0443 16.1031 18.2708 15.9744 18.4636C15.8456 18.6563 15.6626 18.8065 15.4485 18.8952C15.2343 18.9839 14.9987 19.0071 14.7714 18.9619C14.5441 18.9166 14.3352 18.805 14.1714 18.6411C14.0075 18.4773 13.8959 18.2684 13.8506 18.0411C13.8054 17.8138 13.8286 17.5782 13.9173 17.364C14.006 17.1499 14.1562 16.9669 14.3489 16.8381C14.5417 16.7094 14.7682 16.6406 15 16.6406C15.3108 16.6406 15.6089 16.7641 15.8286 16.9839C16.0484 17.2036 16.1719 17.5017 16.1719 17.8125Z" fill="#413C1C"/>
</svg>
