<svg width="30" height="30" viewBox="0 0 30 30" fill="none" xmlns="http://www.w3.org/2000/svg">
<path d="M11.0156 13.125V20.625C11.0156 20.8115 10.9415 20.9903 10.8097 21.1222C10.6778 21.254 10.499 21.3281 10.3125 21.3281C10.126 21.3281 9.94718 21.254 9.81532 21.1222C9.68345 20.9903 9.60938 20.8115 9.60938 20.625V13.125C9.60938 12.9385 9.68345 12.7597 9.81532 12.6278C9.94718 12.496 10.126 12.4219 10.3125 12.4219C10.499 12.4219 10.6778 12.496 10.8097 12.6278C10.9415 12.7597 11.0156 12.9385 11.0156 13.125V13.125ZM10.3125 8.20312C10.0807 8.20312 9.85416 8.27185 9.66144 8.40062C9.46873 8.52939 9.31853 8.71241 9.22983 8.92654C9.14113 9.14067 9.11793 9.3763 9.16314 9.60362C9.20836 9.83094 9.31997 10.0398 9.48386 10.2036C9.64775 10.3675 9.85656 10.4791 10.0839 10.5244C10.3112 10.5696 10.5468 10.5464 10.761 10.4577C10.9751 10.369 11.1581 10.2188 11.2869 10.0261C11.4156 9.83334 11.4844 9.60677 11.4844 9.375C11.4844 9.0642 11.3609 8.76613 11.1411 8.54636C10.9214 8.32659 10.6233 8.20312 10.3125 8.20312ZM26.4844 5.15625V24.8438C26.4844 25.2789 26.3115 25.6962 26.0038 26.0038C25.6962 26.3115 25.2789 26.4844 24.8438 26.4844H5.15625C4.72113 26.4844 4.30383 26.3115 3.99615 26.0038C3.68848 25.6962 3.51563 25.2789 3.51562 24.8438V5.15625C3.51563 4.72113 3.68848 4.30383 3.99615 3.99615C4.30383 3.68848 4.72113 3.51563 5.15625 3.51562H24.8438C25.2789 3.51563 25.6962 3.68848 26.0038 3.99615C26.3115 4.30383 26.4844 4.72113 26.4844 5.15625V5.15625ZM25.0781 5.15625C25.0781 5.09409 25.0534 5.03448 25.0095 4.99052C24.9655 4.94657 24.9059 4.92188 24.8438 4.92188H5.15625C5.09409 4.92188 5.03448 4.94657 4.99052 4.99052C4.94657 5.03448 4.92188 5.09409 4.92188 5.15625V24.8438C4.92188 24.9059 4.94657 24.9655 4.99052 25.0095C5.03448 25.0534 5.09409 25.0781 5.15625 25.0781H24.8438C24.9059 25.0781 24.9655 25.0534 25.0095 25.0095C25.0534 24.9655 25.0781 24.9059 25.0781 24.8438V5.15625ZM17.3438 12.4219C16.399 12.4226 15.4853 12.759 14.7656 13.3711V13.125C14.7656 12.9385 14.6915 12.7597 14.5597 12.6278C14.4278 12.496 14.249 12.4219 14.0625 12.4219C13.876 12.4219 13.6972 12.496 13.5653 12.6278C13.4335 12.7597 13.3594 12.9385 13.3594 13.125V20.625C13.3594 20.8115 13.4335 20.9903 13.5653 21.1222C13.6972 21.254 13.876 21.3281 14.0625 21.3281C14.249 21.3281 14.4278 21.254 14.5597 21.1222C14.6915 20.9903 14.7656 20.8115 14.7656 20.625V16.4062C14.7656 15.7225 15.0372 15.0667 15.5207 14.5832C16.0042 14.0997 16.66 13.8281 17.3438 13.8281C18.0275 13.8281 18.6833 14.0997 19.1668 14.5832C19.6503 15.0667 19.9219 15.7225 19.9219 16.4062V20.625C19.9219 20.8115 19.996 20.9903 20.1278 21.1222C20.2597 21.254 20.4385 21.3281 20.625 21.3281C20.8115 21.3281 20.9903 21.254 21.1222 21.1222C21.254 20.9903 21.3281 20.8115 21.3281 20.625V16.4062C21.325 15.3505 20.9043 14.3388 20.1577 13.5923C19.4112 12.8457 18.3995 12.425 17.3438 12.4219V12.4219Z" fill="#413C1C"/>
</svg>
