<svg width="247" height="247" viewBox="0 0 247 247" fill="none" xmlns="http://www.w3.org/2000/svg">
<g clip-path="url(#clip0_80_1540)">
<ellipse cx="123" cy="123.5" rx="123" ry="122.5" fill="#934E3F"/>
<path d="M-0.127267 123.252C-0.17916 55.5213 54.9034 0.0754987 123.318 0.113239C191.808 0.155698 247.315 56.0073 246.584 124.691C245.867 191.959 190.912 246.777 122.733 246.522C54.677 246.268 -0.240489 190.978 -0.127267 123.252ZM243.47 123.332C243.56 57.4744 190.091 3.25516 123.29 3.21741C56.7197 3.17967 3.50056 56.9319 2.95804 122.289C2.40608 188.798 56.2149 243.395 123.153 243.428C189.897 243.461 243.541 189.317 243.47 123.332Z" fill="#E9D775"/>
<path d="M7.94914 123.36C7.69911 60.1351 59.4369 7.93972 123.634 8.15201C187.411 8.35959 238.998 60.5126 238.54 124.181C238.092 187.166 186.472 238.88 122.473 238.484C59.0029 238.087 7.75572 186.302 7.95386 123.36H7.94914ZM9.77013 123.252C9.67106 185.453 60.1021 236.403 122.789 236.63C185.854 236.856 236.507 185.864 236.691 123.662C236.875 61.1919 186.241 10.0155 123.256 10.0013C60.305 9.98244 9.72768 61.0456 9.77013 123.257V123.252Z" fill="#E9D775"/>
<path d="M208.796 123.261C208.815 170.579 170.22 208.933 122.94 208.782C75.7928 208.631 37.3822 170.168 37.6511 122.813C37.92 75.7928 76.4391 37.5332 123.841 37.8634C170.678 38.1889 208.749 76.3023 208.791 123.261H208.796ZM123.19 206.314C169.012 206.314 206.362 169.074 206.324 123.323C206.286 77.4676 169.083 40.4298 123.426 40.3354C77.5006 40.2411 40.1419 77.4817 40.1136 123.256C40.0901 169.003 77.4062 206.314 123.19 206.31V206.314Z" fill="#E9D775"/>
<path d="M25.0127 120.28C26.862 120.341 28.6499 120.398 30.4379 120.454C30.4662 120.53 30.4945 120.61 30.5228 120.685C29.0651 121.704 27.6121 122.728 26.1071 123.78C26.6591 125.535 27.1969 127.243 27.73 128.946C27.664 128.993 27.5979 129.045 27.5319 129.092C26.1119 128.134 24.6919 127.177 23.1964 126.167C21.7387 127.092 20.2856 128.012 18.8279 128.936C18.7666 128.903 18.7052 128.87 18.6392 128.837C19.1581 127.191 19.6818 125.54 20.2385 123.771C18.776 122.686 17.3041 121.596 15.6011 120.336C17.6721 120.082 19.5214 120.124 21.4603 120.03C22.0123 118.36 22.5548 116.699 23.102 115.038C23.1634 115.038 23.2294 115.048 23.2907 115.048C23.8569 116.784 24.4277 118.515 25.0079 120.28H25.0127Z" fill="#E9D775"/>
<path d="M226.034 120.393H231.431C231.459 120.478 231.492 120.563 231.521 120.648C230.129 121.742 228.586 122.648 227.086 123.785C227.629 125.521 228.176 127.257 228.718 128.998C228.662 129.036 228.605 129.073 228.548 129.116C227.091 128.139 225.633 127.163 224.161 126.181C222.68 127.115 221.25 128.007 219.826 128.903C219.76 128.861 219.698 128.823 219.632 128.781C220.142 127.149 220.651 125.516 221.198 123.766C219.722 122.672 218.25 121.577 216.604 120.355C218.613 120.044 220.472 120.157 222.425 120.006C222.968 118.374 223.519 116.713 224.067 115.057C224.128 115.053 224.189 115.048 224.251 115.038C224.822 116.77 225.397 118.501 226.025 120.393H226.034Z" fill="#E9D775"/>
<path d="M153.902 160.719C155.558 160.908 155.949 161.384 155.761 162.946C155.695 163.502 155.553 164.059 155.355 164.587C155.067 165.361 154.756 165.484 153.949 165.29C152.996 165.059 152.053 164.809 151.095 164.606C149.477 164.257 147.854 164.521 146.25 164.682C141.768 165.13 137.372 165.984 133.164 167.64C131.267 168.385 129.38 169.154 127.804 170.503C127.724 170.574 127.597 170.588 127.446 170.645C124.931 168.871 122.162 169.3 119.416 169.923C117.803 170.286 116.227 170.824 114.638 171.296C113.652 171.588 112.826 172.168 111.963 172.72C107.589 175.527 102.943 177.773 97.8193 178.849C95.6492 179.306 93.4414 179.599 91.2383 179.882C90.4316 179.986 89.5824 179.891 88.7615 179.783C87.9124 179.669 87.5963 179.193 87.4029 178.358C87.101 177.079 87.5869 175.9 87.7992 174.702C88.1907 172.513 88.7663 170.362 89.8041 168.361C89.856 168.262 89.9174 168.159 89.9362 168.05C90.2193 166.418 91.3373 165.46 92.6252 164.597C93.3942 164.083 94.2528 163.634 94.6491 162.686C94.7199 162.521 95.0831 162.427 95.319 162.398C95.7294 162.351 96.1446 162.384 96.6069 162.384C96.7814 162.087 96.9654 161.813 97.1117 161.516C99.2346 157.317 101.876 153.468 105.08 150.024C107.056 147.896 109.127 145.858 111.118 143.745C111.543 143.297 111.892 142.721 112.114 142.141C112.873 140.15 113.114 138.046 113.26 135.937C113.326 134.999 113.387 134.05 113.312 133.116C113.18 131.475 112.425 130.805 110.76 130.682C109.896 130.616 109.028 130.573 108.17 130.465C107.061 130.323 106.08 129.833 105.188 129.177C103.891 128.224 103.136 126.993 103.329 125.313C103.419 124.516 103.112 123.917 102.395 123.535C102.263 123.464 102.141 123.374 102.004 123.308C101.23 122.945 100.839 122.384 101.032 121.497C101.07 121.318 101.037 121.124 101.037 120.869C99.5082 120.284 99.3195 119.077 99.6214 117.647C99.7299 117.138 99.7771 116.614 99.862 116.006C99.4375 115.822 99.0223 115.661 98.6307 115.463C97.8618 115.071 97.0692 114.708 96.3522 114.236C95.6068 113.746 95.3898 112.977 95.72 112.142C95.9842 111.481 96.305 110.84 96.6682 110.227C97.1824 109.354 97.7438 108.505 98.3099 107.665C98.8525 106.863 99.428 106.084 100.013 105.264C100.027 105.287 100.004 105.193 99.9517 105.174C99.5271 105.023 99.0459 104.957 98.994 104.367C98.9374 103.735 99.4091 103.57 99.8526 103.325C100.334 103.06 100.773 102.711 101.296 102.353C101.041 102.06 100.89 101.853 100.711 101.683C99.9092 100.923 99.7205 100.027 100.079 98.9986C100.126 98.8571 100.131 98.6873 100.216 98.5693C101.004 97.4654 100.518 96.6021 99.7111 95.7907C99.5507 95.6303 99.428 95.4133 99.2393 95.3095C98.1684 94.7103 97.7957 93.6111 97.3004 92.611C96.89 91.7807 96.8852 90.908 97.4514 90.1437C97.8335 89.6248 97.8052 89.1813 97.4514 88.7049C96.9937 88.0916 97.0409 87.4405 97.3098 86.7754C97.508 86.2847 97.607 85.8083 97.5599 85.2516C97.5221 84.8176 97.7061 84.242 98.0033 83.9259C98.5081 83.3928 98.5694 82.855 98.5034 82.1851C98.3571 80.7133 98.6968 79.3357 99.4799 78.0761C99.9847 77.2647 100.612 76.5618 101.475 76.1136C102.164 75.7598 102.721 75.3022 103.084 74.5851C103.24 74.2785 103.589 74.0567 103.881 73.835C104.202 73.5897 104.547 73.3727 104.896 73.1604C105.179 72.9906 105.481 72.7264 105.783 72.7169C106.49 72.6886 106.924 72.349 107.382 71.8489C108.708 70.3864 110.878 70.009 112.656 70.9054C113.213 71.1837 113.746 71.2073 114.293 71.0469C115.27 70.7591 116.218 70.8865 117.194 71.0846C118.11 71.2686 119.053 71.3677 119.983 71.3724C120.874 71.3724 121.709 71.4904 122.492 71.9102C123.488 72.4433 124.478 72.9906 125.479 73.5189C125.964 73.7737 126.465 74.0048 127.083 74.302C126.884 72.8019 126.516 71.4573 126.597 70.1411C126.653 69.2542 126.097 68.2871 126.776 67.438C126.842 67.3578 126.79 67.136 126.729 67.0181C126.483 66.551 126.71 66.2208 126.899 65.7821C127.153 65.1971 127.267 64.4706 127.186 63.8384C127.083 62.9893 127.3 62.4656 128.073 62.1118C128.597 61.8712 128.965 61.4702 129.22 60.9182C129.38 60.5739 129.757 60.3285 130.036 60.0408C130.857 59.1963 131.843 58.7812 133.036 58.8142C133.3 58.8189 133.579 58.5783 133.843 58.4321C134.296 58.1773 134.72 57.8235 135.282 58.2339C135.4 58.3189 135.673 58.2858 135.824 58.2103C136.725 57.7527 137.692 57.8896 138.589 58.0311C139.315 58.1443 140.169 58.4745 140.627 59.0029C141.084 59.5313 141.542 59.8426 142.155 60.0313C142.745 60.2106 143.306 60.3899 143.424 61.14C143.49 61.5551 143.868 61.64 144.222 61.6164C145.344 61.541 145.962 62.1448 146.585 63.0223C147.246 63.9517 148.184 64.6829 149 65.5037C149.288 65.7962 149.6 66.0698 149.826 66.4048C150.156 66.8907 150.274 67.5134 150.906 67.8012C151.086 67.8814 151.156 68.2447 151.237 68.49C151.378 68.9193 151.468 69.3675 151.619 69.792C151.831 70.3959 151.793 70.929 151.506 71.5281C151.199 72.1603 150.925 72.8679 150.878 73.5614C150.798 74.7078 150.128 75.2125 149.189 75.5758C148.241 75.9391 147.297 76.3212 146.354 76.708C146.151 76.7929 145.976 76.925 145.637 77.1279C146.604 77.8072 147.514 77.8921 148.467 77.543C148.887 77.3921 149.298 77.1609 149.647 76.8873C150.949 75.873 152.326 74.9672 153.327 73.5803C154.379 72.1178 155.171 72.2169 156.162 73.7407C156.874 74.8399 157.369 76.0051 157.157 77.3638C157.129 77.5478 157.134 77.7459 157.077 77.9204C156.803 78.7271 156.534 79.5386 156.214 80.3264C156.105 80.5906 155.907 80.8642 155.671 81.0246C154.577 81.7889 153.77 82.8315 152.902 83.8174C152.543 84.2279 152.02 84.5062 151.534 84.7798C150.793 85.1997 150.019 85.5677 149.133 86.0205C150.543 86.7518 151.09 88.0491 151.954 89.054C152.18 89.3181 151.996 89.9361 151.789 90.4551C152.029 90.7334 152.265 91.0212 152.515 91.2901C154.369 93.2715 154.308 96.5879 151.68 98.2438C151.109 98.6024 150.774 99.0175 150.67 99.744C150.43 101.494 149.024 102.693 147.297 102.787C147.156 102.796 147.014 102.829 146.703 102.872C147.01 103.32 147.255 103.678 147.505 104.032C147.986 104.707 148.458 105.386 148.953 106.051C149.406 106.655 149.335 107.24 148.939 107.83C148.708 108.174 148.449 108.505 148.236 108.858C147.873 109.467 147.816 110.047 148.114 110.774C148.732 112.269 148.897 113.831 148.095 115.355C147.953 115.623 147.802 115.883 147.698 116.166C147.5 116.723 147.472 117.251 147.897 117.756C148.491 118.459 148.637 119.308 148.576 120.199C148.519 121.03 148.213 121.719 147.486 122.2C146.594 122.794 145.811 123.525 145.439 124.554C144.943 125.922 144 126.733 142.608 127.04C141.82 127.215 141.287 127.578 141.08 128.441C140.896 129.191 140.245 129.592 139.518 129.776C138.721 129.974 138.442 130.446 138.244 131.258C137.655 133.668 137.975 136.055 138.159 138.452C138.159 138.49 138.159 138.527 138.174 138.565C138.843 140.839 139.471 143.127 140.197 145.382C140.622 146.703 141.466 147.788 142.603 148.599C144.151 149.703 145.236 151.17 146.113 152.822C146.661 153.855 147.297 154.845 147.788 155.902C148.321 157.049 149.123 157.737 150.364 158.053C151.873 158.44 153.1 159.294 153.897 160.714L153.902 160.719Z" fill="#E9D775"/>
<path d="M45.8078 59.2105C47.4165 60.8051 48.1336 62.9233 48.0911 65.5179C48.0487 68.122 47.2561 70.4573 45.6899 72.6934C44.5152 74.3729 43.1377 75.6466 41.5101 76.5382C41.5667 76.8402 41.6233 77.1421 41.6846 77.444C41.7601 77.8403 41.6941 78.213 41.4818 78.5574C41.3638 78.7555 41.2034 78.9206 41.0006 79.0574C40.6609 79.298 40.3543 79.3216 40.0759 79.1329C39.9344 79.0386 39.8495 78.8923 39.8118 78.6942C39.7268 78.2507 39.6466 77.8025 39.5712 77.3544C37.4011 77.9912 35.415 77.7931 33.6317 76.5996C31.773 75.3352 30.7021 73.3444 30.5464 70.5705C30.386 67.806 31.2257 65.0226 33.042 62.4279C34.3205 60.5975 35.8631 59.2341 37.6039 58.3614C37.5992 58.0689 37.5945 57.7764 37.5898 57.4886C37.5898 57.0687 37.7219 56.6866 37.9908 56.3517C38.2219 56.0639 38.4955 55.8705 38.8116 55.7714C39.1277 55.6723 39.3777 55.7101 39.557 55.8846C39.6797 56.0026 39.741 56.1677 39.741 56.3752C39.741 56.781 39.741 57.1867 39.741 57.5924C42.2224 57.0499 44.2321 57.6443 45.8125 59.2058L45.8078 59.2105ZM37.6983 60.8805C36.2547 61.1447 35.0376 61.9609 34.0893 63.3195C32.9712 64.9188 32.6646 66.636 33.1788 68.3862C33.6317 69.9666 34.6271 71.2923 36.1367 72.382C37.0142 73.0189 37.953 73.4671 38.9579 73.7501C38.3257 69.5562 37.9011 65.2585 37.6983 60.8805V60.8805ZM42.982 62.6355C42.0526 61.7863 41.01 61.2202 39.8542 60.9655C40.0476 65.3717 40.4628 69.6977 41.0949 73.92C42.581 73.7832 43.7462 73.085 44.6379 71.8065C45.6333 70.3865 45.9258 68.8155 45.5295 66.9993C45.1709 65.334 44.3359 63.8715 42.9773 62.6308L42.982 62.6355Z" fill="#E9D775"/>
<path d="M60.0265 49.1667C60.9653 50.4641 61.055 52.1011 60.3851 54.0919C59.7859 55.8846 58.8283 57.4083 57.479 58.7387C56.177 60.0219 54.8183 60.9324 53.3559 61.4749C51.5962 62.1118 50.1809 61.9514 49.1242 60.8805C48.6336 60.3851 48.393 59.7341 48.4118 58.9274C48.4307 58.1207 48.7609 57.3659 49.3931 56.6818C49.9167 56.1157 50.5112 55.7761 51.1575 55.6628C51.8038 55.5543 52.3133 55.7147 52.686 56.1346C52.8511 56.3186 52.969 56.5592 53.0492 56.8517C53.1389 57.2102 53.0917 57.4838 52.903 57.6772C52.8699 57.715 52.8275 57.7574 52.7803 57.8046C52.7331 57.8518 52.7001 57.8895 52.6765 57.9131C52.3935 58.2103 52.3746 58.4887 52.6152 58.7529C52.9171 59.0831 53.4408 59.0548 54.1814 58.6868C54.8277 58.3613 55.4458 57.899 56.0449 57.3093C56.7384 56.6252 57.2526 55.8468 57.5923 54.9646C57.9885 53.9409 57.9602 53.1201 57.4743 52.5068C56.828 51.6859 55.6439 51.5774 53.9267 52.285C52.3699 52.9691 50.8084 53.705 49.2468 54.4882C47.3834 55.1533 45.8974 54.9646 44.7887 53.8088C43.949 52.9361 43.7697 51.6576 44.3075 49.9829C44.784 48.4968 45.6709 47.091 46.9635 45.8267C47.5674 45.2322 48.2043 44.7511 48.8694 44.3831C48.9072 44.3689 49.1478 44.251 49.5912 44.034C49.9592 43.8736 50.1715 43.7698 50.2281 43.7179C50.3508 43.6047 50.3791 43.5056 50.313 43.4254C50.28 43.383 50.2045 43.3405 50.0866 43.2933C49.9686 43.2509 49.8884 43.199 49.846 43.1471C49.6667 42.9159 49.7422 42.6517 50.0724 42.3498C50.3791 42.0762 50.681 42.0101 50.9782 42.1517C52.1151 42.6659 53.2379 43.199 54.3513 43.7462C54.3607 43.7556 54.3796 43.7651 54.4079 43.7745C54.422 43.7981 54.4362 43.8122 54.4456 43.8217C54.54 43.9491 54.4645 44.1991 54.2192 44.5718C53.9739 44.9445 53.7521 45.2228 53.5493 45.3974C53.4125 45.5153 53.0634 45.5625 52.4973 45.5389C51.7802 45.5295 51.1716 45.6002 50.681 45.7465C49.8413 45.9871 49.0345 46.473 48.2797 47.2136C47.6712 47.8081 47.2419 48.4261 47.0013 49.0488C46.7135 49.7894 46.7701 50.3744 47.1475 50.799C47.6429 51.351 48.4071 51.4076 49.4355 51.0066C49.8979 50.8226 50.7565 50.3367 52.0208 49.5819C55.9836 47.2702 58.6679 47.2986 60.0077 49.1526L60.0265 49.1667Z" fill="#E9D775"/>
<path d="M70.7025 30.9993C70.8535 31.0701 70.962 31.1691 71.028 31.3012C71.1884 31.6267 71.0894 31.8909 70.7261 32.0985C70.4997 32.2306 70.2544 32.2447 69.9902 32.1504C69.3439 31.9192 68.7306 31.9805 68.1598 32.3249C66.9379 33.0656 65.7302 33.8298 64.5319 34.6224C66.5511 38.1276 68.5702 41.628 70.5893 45.1332C70.8535 45.5861 71.4007 45.5766 72.2357 45.1143C72.5801 44.8926 72.8443 44.9351 73.0236 45.2323C73.217 45.5531 73.1321 45.8314 72.7641 46.0626C70.9856 47.1995 69.2354 48.4072 67.5182 49.6809C67.1879 49.9263 66.9143 49.9074 66.6926 49.6243C66.5982 49.5111 66.5699 49.3743 66.6077 49.2139C66.6454 49.0535 66.7586 48.912 66.9426 48.7893C67.5559 48.2185 67.7352 47.7326 67.471 47.3127C65.3245 43.8877 63.178 40.4628 61.0362 37.0378C59.937 37.8304 58.8425 38.6512 57.7669 39.491C57.2291 39.9108 56.9177 40.4911 56.8375 41.2223C56.8045 41.5195 56.6866 41.7554 56.479 41.9252C56.1488 42.1989 55.8751 42.1894 55.6676 41.8969C55.5827 41.779 55.5402 41.628 55.5496 41.4535C55.5827 40.2599 55.6346 39.0664 55.7053 37.8634C55.7383 37.3963 55.9601 37.0944 56.3611 36.967C56.729 36.8538 56.9272 36.9529 56.9555 37.2642C57.0593 37.4199 57.4131 37.2642 58.0264 36.7972C60.555 34.8913 63.1402 33.1081 65.7821 31.4522C66.4378 31.0417 66.7162 30.7634 66.6124 30.6077C66.3623 30.4473 66.3576 30.2115 66.6029 29.9048C66.8718 29.5699 67.2162 29.4802 67.6219 29.6406C68.6598 30.0794 69.6835 30.5322 70.6978 30.9993H70.7025Z" fill="#E9D775"/>
<path d="M90.5824 33.5656C90.2238 35.1083 89.8983 36.6557 89.6058 38.1983C89.5445 38.4814 89.403 38.6701 89.1765 38.755C88.8133 38.8965 88.5774 38.8163 88.4736 38.5097C88.45 38.4436 88.4453 38.3823 88.4547 38.321C88.3085 38.1747 87.8556 38.2549 87.0961 38.5663C84.0296 39.8448 81.0151 41.2931 78.0666 42.9159C77.7034 43.114 77.4297 43.0622 77.241 42.7508C77.1608 42.6234 77.1514 42.4866 77.2033 42.3309C77.2599 42.1752 77.392 42.0479 77.5996 41.9488C78.2648 41.477 78.4959 41.0194 78.2883 40.5665C76.5523 36.8538 74.8209 33.1411 73.0848 29.4283C72.8678 28.966 72.3159 28.9424 71.4337 29.3811C70.9714 29.6359 70.6742 29.5887 70.5373 29.2349C70.4147 28.9047 70.5562 28.6216 70.9619 28.3999C74.1888 26.6166 77.4863 25.0174 80.8311 23.5974C81.5105 23.3096 81.8218 23.0832 81.7558 22.9039C81.6992 22.852 81.6614 22.8048 81.6425 22.7529C81.5293 22.4463 81.6803 22.2104 82.0907 22.0453C82.3691 21.9321 82.6332 21.9604 82.8738 22.1255C83.8315 22.7293 84.775 23.3426 85.7044 23.9701C85.8412 24.0644 85.9356 24.1729 85.978 24.3003C86.096 24.6636 85.9497 24.9183 85.5346 25.074C85.294 25.1636 85.0628 25.14 84.8316 24.9938C84.2467 24.6541 83.6381 24.6117 83.0154 24.8664C80.9208 25.7156 78.8497 26.6402 76.7976 27.6309C77.3307 28.8858 77.8638 30.1407 78.3968 31.4003C79.7697 30.7351 81.1566 30.1029 82.5483 29.5038C83.1475 29.2491 83.5532 28.7914 83.7749 28.131C83.8551 27.8621 84.0155 27.6828 84.2467 27.5885C84.6524 27.4233 84.9166 27.5224 85.0439 27.8809C85.0864 28.0083 85.0864 28.1546 85.0392 28.3197C84.7231 29.4283 84.4212 30.537 84.1382 31.6503C84.0721 31.9428 83.9117 32.1409 83.6617 32.2494C83.289 32.4098 83.0437 32.3391 82.9304 32.0371C82.9116 31.9853 82.9021 31.9239 82.9116 31.8484C82.7984 31.6928 82.5389 31.7022 82.1332 31.8815C81.1425 32.3202 80.1612 32.7778 79.18 33.2543C79.9159 34.9904 80.6519 36.7217 81.3878 38.4578C83.5532 37.4105 85.7516 36.4481 87.9688 35.5753C88.7189 35.2828 89.186 34.5422 89.3888 33.3392C89.4832 33.075 89.6341 32.9005 89.8417 32.825C90.2097 32.6929 90.4503 32.8014 90.5588 33.1505C90.6013 33.2779 90.6013 33.4241 90.5682 33.5798L90.5824 33.5656Z" fill="#E9D775"/>
<path d="M109.099 31.9051C109.132 32.2872 108.934 32.5042 108.509 32.5703C106.382 32.8958 104.259 33.2968 102.155 33.7733C101.716 33.8723 101.447 33.7497 101.343 33.3959C101.239 33.042 101.438 32.8014 101.933 32.6741C102.527 32.4854 102.796 32.2495 102.74 31.9523C102.711 31.806 102.575 31.6456 102.324 31.4805C100.555 30.287 98.725 29.1453 96.8332 28.0555C96.5549 28.131 96.2812 28.2065 96.0029 28.282C96.385 29.8341 96.7672 31.3814 97.1493 32.9335C97.2719 33.4336 97.7814 33.6129 98.6731 33.4902C99.0646 33.3864 99.3005 33.5185 99.3807 33.8723C99.4609 34.2309 99.3052 34.4573 98.9137 34.5611C96.9511 35.08 95.0028 35.665 93.0686 36.316C92.6817 36.4481 92.4223 36.3443 92.2902 36C92.2336 35.8632 92.243 35.7216 92.3185 35.5801C92.394 35.4386 92.5449 35.3395 92.7619 35.2782C93.4837 34.9338 93.7809 34.5281 93.6441 34.0422C92.5166 30.07 91.3844 26.1025 90.2569 22.1302C90.1154 21.6349 89.5776 21.5122 88.6482 21.7811C88.1576 21.9463 87.8651 21.8472 87.7707 21.4792C87.6858 21.1348 87.8651 20.8848 88.3085 20.7338C91.6816 19.5922 95.0924 18.6251 98.5363 17.8325C99.9374 17.5117 101.211 17.6532 102.32 18.2429C103.509 18.8893 104.202 19.9035 104.433 21.2575C104.655 22.5595 104.41 23.772 103.735 24.8995C103.051 26.0694 102.084 26.7912 100.815 27.0932C102.787 28.3056 104.693 29.584 106.533 30.9097C107.259 31.4333 107.858 31.6173 108.349 31.4428C108.811 31.3862 109.061 31.5371 109.09 31.8909L109.099 31.9051ZM100.711 21.8189C100.555 21.1018 100.183 20.5215 99.5788 20.0828C98.8759 19.5733 98.0503 19.4271 97.121 19.6582C96.5643 19.795 96.0123 19.9366 95.4604 20.0828C94.5357 20.3281 94.1678 20.8376 94.3518 21.5877C94.7905 23.371 95.2339 25.1495 95.6727 26.9328C96.5596 26.6827 97.4465 26.4516 98.3381 26.2251C99.4609 25.9421 100.202 25.3146 100.57 24.3145C100.867 23.5502 100.919 22.7199 100.711 21.8189Z" fill="#E9D775"/>
<path d="M125.139 28.1263C124.313 29.4472 123.516 30.7776 122.752 32.1174C122.601 32.3627 122.412 32.4853 122.176 32.4853C121.983 32.4853 121.832 32.4146 121.709 32.273C121.591 32.1315 121.568 31.9758 121.638 31.8107C121.667 31.7824 121.681 31.7541 121.681 31.7305C121.681 31.5937 121.219 31.5277 120.299 31.5465C117.043 31.6173 113.793 31.8626 110.562 32.2825C110.132 32.3391 109.896 32.1787 109.849 31.8013C109.807 31.4475 110 31.2493 110.439 31.2069C111.203 31.0134 111.562 30.6691 111.51 30.169C111.085 26.0458 110.656 21.9226 110.231 17.7995C110.179 17.2853 109.675 17.0588 108.722 17.139C108.212 17.2051 107.953 17.0494 107.939 16.6673C107.929 16.3087 108.146 16.1011 108.594 16.0445C110.92 15.7426 113.255 15.5162 115.59 15.3652C116.091 15.3322 116.336 15.4926 116.341 15.8322C116.341 16.2285 116.109 16.4408 115.647 16.4691C114.666 16.5871 114.199 16.9362 114.237 17.4928C114.51 21.4415 114.779 25.3854 115.053 29.334C117.393 29.15 119.732 29.0604 122.077 29.0509C122.87 29.0509 123.54 28.5226 124.11 27.4705C124.365 27.1592 124.644 27.0743 124.95 27.2016C125.162 27.3007 125.266 27.4753 125.262 27.7206C125.262 27.8574 125.214 27.9942 125.134 28.1263H125.139Z" fill="#E9D775"/>
<path d="M146.151 34.6743C144.372 34.1931 142.58 33.7685 140.782 33.4005C140.268 33.2967 140.046 33.0467 140.117 32.641C140.174 32.3202 140.396 32.1975 140.778 32.273C141.429 32.3202 141.787 32.1787 141.853 31.8296C141.867 31.7635 141.863 31.688 141.853 31.5984C141.556 29.9708 141.235 28.3385 140.886 26.711C139.834 25.9939 138.876 25.5646 138.046 25.4184C137.022 25.2391 136.117 25.2721 135.338 25.5127C134.433 26.9374 133.56 28.3763 132.711 29.8246C132.211 30.6879 131.559 31.3153 130.748 31.7211C130.045 32.0938 129.309 32.2542 128.526 32.1975C127.625 32.1362 126.946 31.8343 126.474 31.2823C126.002 30.7304 125.771 30.1548 125.79 29.5557C125.813 28.8481 126.181 28.3008 126.908 27.9234C127.191 27.7724 127.512 27.7064 127.866 27.73C128.314 27.7583 128.569 27.8479 128.639 28.0036C128.668 28.0744 128.639 28.1687 128.554 28.2867C128.469 28.4046 128.427 28.5037 128.422 28.5839C128.427 28.749 128.498 28.8952 128.625 29.0273C128.753 29.1594 128.927 29.2302 129.139 29.249C129.748 29.2915 130.196 29.0509 130.503 28.5178C132.475 24.9938 134.621 21.5263 136.933 18.1391C136.999 18.04 137.032 17.9457 137.046 17.8655C137.089 17.54 136.796 17.3041 136.178 17.1673C135.687 17.1012 135.489 16.8795 135.584 16.4927C135.673 16.1624 135.914 16.0162 136.305 16.0728C138.914 16.4172 141.514 16.8607 144.094 17.4032C144.552 17.4975 144.75 17.7145 144.684 18.0495C144.613 18.4127 144.358 18.5543 143.92 18.4835C143.481 18.4127 143.231 18.5401 143.174 18.8609C143.155 18.9694 143.16 19.0921 143.184 19.2383C144.137 23.6351 144.906 28.0366 145.495 32.4334C145.566 32.9571 145.816 33.3298 146.241 33.5562C146.694 33.6789 146.873 33.9383 146.774 34.3346C146.698 34.6507 146.491 34.7639 146.16 34.6743H146.151ZM140.358 24.3097C139.976 22.6869 139.565 21.0687 139.127 19.4506C138.164 20.8093 137.225 22.1821 136.32 23.5691C136.919 23.4606 137.593 23.4653 138.329 23.5832C138.891 23.6729 139.57 23.9134 140.358 24.3097V24.3097Z" fill="#E9D775"/>
<path d="M169.413 26.7299C169.305 27.112 169.031 27.1922 168.588 26.9752C167.828 26.5742 167.333 26.6497 167.111 27.1828C165.281 31.5796 163.455 35.9763 161.625 40.3779C160.983 40.0759 160.342 39.7787 159.695 39.491C158.138 34.8064 156.218 30.1454 153.944 25.5505C153.114 28.4282 152.279 31.3012 151.449 34.1789C151.279 34.7686 151.501 35.1508 152.109 35.3442C152.529 35.4857 152.671 35.7452 152.543 36.1179C152.43 36.4387 152.18 36.5283 151.798 36.4009C150.435 35.9386 149.066 35.5093 147.689 35.113C147.33 35.0092 147.189 34.7922 147.269 34.462C147.368 34.0657 147.595 33.9336 147.953 34.061C148.779 34.2591 149.265 34.094 149.406 33.5562C150.472 29.5604 151.543 25.5646 152.609 21.5735C152.741 21.0735 152.529 20.7149 151.958 20.5074C151.477 20.3658 151.312 20.1158 151.458 19.7478C151.59 19.4459 151.845 19.3516 152.232 19.4601C153.298 19.7714 154.364 20.1064 155.426 20.4508C155.35 20.446 158.143 25.0221 161.667 34.4762C162.743 31.7258 163.823 28.9707 164.899 26.2204C165.111 25.6778 164.908 25.2674 164.285 24.9985C163.847 24.7768 163.691 24.4985 163.818 24.1588C163.936 23.8427 164.224 23.7814 164.677 23.9748C166.135 24.6117 167.588 25.2769 169.027 25.9845C169.376 26.1543 169.508 26.4091 169.418 26.744L169.413 26.7299Z" fill="#E9D775"/>
<path d="M183.024 44.1047C181.788 45.9493 180.014 46.9494 177.764 47.2419C175.509 47.5344 173.428 47.0391 171.395 45.7559C168.994 44.2416 166.545 42.8451 164.05 41.5714C163.696 41.3921 163.564 41.1374 163.658 40.8071C163.71 40.6515 163.809 40.5477 163.96 40.4958C164.111 40.4439 164.285 40.4769 164.488 40.5949C165.243 40.8732 165.724 40.7977 165.932 40.3448C167.649 36.6226 169.366 32.9005 171.083 29.1783C171.3 28.716 170.98 28.23 170.121 27.7441C169.635 27.4988 169.494 27.2111 169.701 26.8761C169.885 26.593 170.173 26.5459 170.569 26.7487C173.499 28.2395 176.377 29.8765 179.198 31.6597C181.538 33.1411 183.109 35.1838 183.84 37.6511C184.576 40.1231 184.26 42.279 183.028 44.1142L183.024 44.1047ZM179.802 41.6988C180.745 40.175 181.155 38.5852 180.981 36.9246C180.792 35.1555 179.957 33.7732 178.509 32.8391C177.787 32.3815 177.065 31.9381 176.334 31.5041C175.957 31.2776 175.589 31.1691 175.24 31.1738C174.891 31.1785 174.659 31.2965 174.546 31.5276C172.805 34.9762 171.06 38.4248 169.319 41.8733C169.064 42.3781 169.295 42.8357 170.008 43.2603C170.659 43.6471 171.31 44.0481 171.956 44.4538C173.258 45.2747 174.65 45.3832 176.193 44.7888C177.65 44.2321 178.863 43.2226 179.802 41.7082V41.6988Z" fill="#E9D775"/>
<path d="M193.973 58.0736C192.888 59.2341 191.374 59.503 189.44 59.0124C187.699 58.5689 186.17 57.7245 184.788 56.4554C183.453 55.2288 182.472 53.9032 181.821 52.4266C181.056 50.6481 181.061 49.1432 181.92 47.8836C182.321 47.2986 182.882 46.9589 183.618 46.874C184.354 46.7891 185.071 47.0344 185.765 47.6147C186.34 48.0958 186.713 48.6808 186.887 49.3507C187.062 50.0253 186.968 50.582 186.623 51.0302C186.472 51.2283 186.265 51.3887 186.005 51.5067C185.689 51.6482 185.43 51.6293 185.231 51.4548C185.194 51.4217 185.151 51.384 185.099 51.3416C185.047 51.2991 185.01 51.2661 184.986 51.2425C184.684 50.983 184.425 50.9972 184.212 51.2849C183.944 51.6482 184.024 52.2002 184.448 52.9361C184.821 53.5777 185.312 54.1768 185.925 54.7429C186.637 55.394 187.416 55.8516 188.274 56.111C189.27 56.413 190.025 56.2856 190.534 55.6959C191.218 54.908 191.161 53.6249 190.303 51.8746C189.482 50.2942 188.628 48.728 187.741 47.1759C186.93 45.2889 186.949 43.6943 187.883 42.3734C188.59 41.3733 189.732 41.0147 191.317 41.3686C192.728 41.6799 194.11 42.4442 195.431 43.666C196.049 44.2369 196.568 44.8596 196.988 45.5248C197.007 45.5625 197.143 45.8031 197.398 46.256C197.592 46.6334 197.714 46.8504 197.771 46.9023C197.889 47.0202 197.983 47.0391 198.054 46.9589C198.087 46.9212 198.12 46.8315 198.144 46.6994C198.172 46.5673 198.205 46.4777 198.247 46.4258C198.436 46.2041 198.695 46.256 199.016 46.5768C199.309 46.874 199.408 47.1901 199.313 47.5297C198.979 48.8082 198.629 50.082 198.266 51.3463C198.257 51.3557 198.252 51.3793 198.247 51.4123C198.228 51.4312 198.214 51.4453 198.21 51.4548C198.101 51.5727 197.86 51.5161 197.483 51.2944C197.106 51.0726 196.818 50.8651 196.629 50.6669C196.502 50.5348 196.417 50.1669 196.365 49.5536C196.285 48.7799 196.143 48.1383 195.945 47.6335C195.62 46.7608 195.072 45.9635 194.303 45.2464C193.681 44.6709 193.067 44.2935 192.468 44.1142C191.756 43.9019 191.228 44.034 190.883 44.4916C190.435 45.086 190.463 45.9022 190.954 46.9495C191.176 47.4165 191.723 48.2704 192.567 49.53C195.181 53.4881 195.53 56.4177 193.973 58.0641V58.0736Z" fill="#E9D775"/>
<path d="M216.202 73.0236C216.07 73.2312 215.905 73.401 215.707 73.5284C215.188 73.8728 214.58 73.8916 213.886 73.6039C213.193 73.3161 212.617 72.783 212.136 71.9952C211.829 71.4951 211.645 71.0045 211.584 70.5233C211.518 70.0421 211.565 69.7401 211.721 69.6269C211.763 69.5986 211.82 69.5845 211.895 69.5892C211.971 69.5939 212.042 69.6411 212.117 69.7213C212.193 69.8015 212.273 69.8298 212.367 69.8109C212.461 69.792 212.546 69.7543 212.622 69.7024C213.108 69.3533 212.952 68.5324 212.136 67.2681C211.608 66.4567 211.008 65.7726 210.353 65.2254C208.367 63.5884 206.376 62.659 204.442 62.3807C204.508 67.0558 204.309 71.6555 203.861 76.1561C203.762 77.1468 203.894 77.8733 204.281 78.3403C204.545 78.8073 204.55 79.1376 204.3 79.3263C203.984 79.5574 203.687 79.4301 203.399 78.9489C201.932 76.5005 200.394 74.1417 198.785 71.8819C198.497 71.4762 198.464 71.1507 198.681 70.9007C198.941 70.6176 199.252 70.712 199.615 71.1979C200.068 71.7451 200.399 71.9291 200.625 71.7498C200.738 71.6602 200.804 71.4479 200.828 71.113C201.012 68.1598 201.087 65.1688 201.05 62.1448C200.639 62.1778 200.116 62.258 199.483 62.3901C198.417 63.395 197.346 64.3951 196.28 65.4C195.907 65.7538 196.021 66.3482 196.61 67.2021C196.889 67.5559 196.898 67.8578 196.643 68.1079C196.389 68.3579 196.12 68.2966 195.827 67.9239C194.398 66.1029 192.921 64.3479 191.402 62.6638C191.138 62.3713 191.1 62.0882 191.294 61.8099C191.515 61.5032 191.794 61.5363 192.129 61.9042C192.817 62.5317 193.327 62.6826 193.671 62.3335C196.478 59.4794 199.29 56.6205 202.097 53.7664C202.446 53.4126 202.271 52.804 201.554 51.969C201.224 51.6057 201.186 51.2896 201.441 51.0207C201.686 50.7613 201.993 50.8368 202.366 51.2472C204.111 53.1861 205.81 55.2005 207.456 57.2951C207.782 57.7103 207.829 58.0216 207.607 58.2198C207.305 58.4934 206.994 58.4179 206.673 58.0075C205.956 57.097 205.38 56.847 204.96 57.2432C203.979 58.1632 202.998 59.0878 202.017 60.0078C203.323 59.7907 204.8 59.8851 206.447 60.338C207.984 60.7579 209.437 61.4277 210.787 62.3382C212.287 63.3525 213.608 64.7348 214.716 66.4567C214.933 66.7964 215.155 67.1643 215.372 67.5606C216.693 70.0185 216.948 71.8772 216.212 73.0094L216.202 73.0236Z" fill="#E9D775"/>
<path d="M45.6615 191.888C45.4539 192.081 45.1756 192.247 44.8359 192.374C43.4207 192.916 41.8591 192.784 40.175 191.916C38.6229 191.124 37.1085 189.798 35.7027 187.925C33.6741 185.222 32.7636 182.439 32.957 179.806C33.1505 177.24 34.3299 175.348 36.3726 174.089C38.3917 172.838 40.5995 172.588 42.9678 173.159C45.4587 173.768 47.4353 175.122 49.044 177.278C49.6384 178.075 50.1055 178.839 50.431 179.585C50.464 179.646 50.5537 179.934 50.6999 180.443C50.8367 180.872 50.9405 181.127 51.0066 181.207C51.1386 181.368 51.2519 181.41 51.3462 181.33C51.3981 181.288 51.45 181.212 51.4972 181.113C51.5491 181.014 51.5915 180.948 51.634 180.91C51.8321 180.74 52.0444 180.797 52.2756 181.075C52.5634 181.42 52.6388 181.74 52.502 182.042C51.8368 183.533 51.2 185.038 50.5914 186.562C50.582 186.571 50.5773 186.585 50.5773 186.609C50.5584 186.628 50.5442 186.642 50.5301 186.651C50.2989 186.864 49.9121 186.666 49.379 186.052C48.9733 185.585 48.8082 185.175 48.8742 184.831C48.9167 184.651 48.9827 184.378 49.0676 184.014C49.2327 183.278 49.1714 182.467 48.8978 181.571C48.6242 180.674 48.2043 179.858 47.6335 179.099C46.5107 177.617 45.0671 176.872 43.2131 176.839C41.6987 176.82 40.2976 177.221 39.0192 178.098C37.6746 179.023 36.8255 180.273 36.5188 181.882C36.1461 183.727 36.6604 185.632 38.0662 187.463C38.5568 188.105 39.1277 188.619 39.7645 189.001C40.5335 189.458 41.109 189.515 41.4912 189.19C41.8356 188.897 41.8403 188.557 41.5195 188.161C41.4817 188.114 41.4204 188.053 41.3308 187.972C41.2411 187.892 41.1798 187.831 41.1421 187.784C40.7977 187.35 40.8873 186.925 41.4015 186.505C41.9299 186.076 42.5573 185.982 43.2839 186.203C44.0104 186.425 44.6708 186.897 45.2794 187.623C45.888 188.35 46.2276 189.114 46.2984 189.935C46.3692 190.756 46.1569 191.402 45.6474 191.879L45.6615 191.888Z" fill="#E9D775"/>
<path d="M64.5601 204.286C63.2298 206.22 61.2484 207.296 58.5452 207.348C55.8467 207.395 53.2238 206.376 50.8508 204.291C48.4826 202.205 47.0909 199.705 46.7276 196.997C46.3644 194.285 47.1475 192.129 48.9072 190.51C50.6291 188.902 52.7614 188.279 55.2476 188.468C57.7385 188.656 59.9039 189.614 61.89 191.36C63.8902 193.119 65.1262 195.157 65.6688 197.648C66.2113 200.13 65.8952 202.347 64.5601 204.281V204.286ZM61.0314 201.644C62.173 200.13 62.7344 198.512 62.7769 196.818C62.8241 194.997 62.2296 193.572 60.9606 192.454C59.7057 191.35 58.2621 190.982 56.5591 191.35C55.0353 191.68 53.587 192.525 52.2378 193.931C50.898 195.327 50.1149 196.846 49.9403 198.507C49.728 200.342 50.3555 201.946 51.8038 203.22C53.2662 204.508 54.9551 204.942 56.7903 204.526C58.4792 204.149 59.8803 203.168 61.0314 201.639V201.644Z" fill="#E9D775"/>
<path d="M81.7039 209.711C81.1284 210.98 80.1707 211.886 78.8026 212.381C77.3354 212.919 75.8211 212.796 74.3162 211.99C72.915 211.24 71.5281 210.456 70.1552 209.64C69.3533 211.013 68.5466 212.391 67.7446 213.763C67.4804 214.212 67.8106 214.754 68.7494 215.377C69.2023 215.636 69.3249 215.934 69.1174 216.273C68.9334 216.561 68.6267 216.585 68.1974 216.339C65.9566 215.047 63.7535 213.669 61.5928 212.207C61.1635 211.914 61.0361 211.603 61.2107 211.273C61.2767 211.136 61.4041 211.065 61.5834 211.056C61.7626 211.046 61.9655 211.126 62.1967 211.301C63.0694 211.777 63.645 211.792 63.9186 211.367C66.1642 207.871 68.4097 204.38 70.6506 200.884C70.9289 200.446 70.6931 199.96 69.9477 199.403C69.5514 199.134 69.457 198.842 69.6599 198.535C69.8675 198.228 70.1505 198.205 70.5185 198.45C73.2877 200.337 76.1371 202.05 79.0621 203.597C80.2603 204.234 81.1142 205.06 81.6426 206.121C82.2276 207.281 82.2606 208.475 81.7039 209.711V209.711ZM78.2412 208.098C78.5573 207.428 78.6186 206.725 78.4441 205.984C78.2223 205.144 77.7175 204.512 76.9156 204.069C76.4344 203.805 75.9579 203.531 75.4814 203.257C74.6889 202.8 74.0944 202.894 73.7029 203.569C72.7735 205.163 71.8394 206.753 70.9101 208.348C71.7734 208.862 72.6414 209.362 73.5142 209.848C74.6181 210.461 75.6512 210.494 76.5806 209.961C77.2835 209.57 77.8308 208.947 78.2412 208.093V208.098Z" fill="#E9D775"/>
<path d="M96.5879 224.081C95.3613 225.166 94.1017 226.227 92.8091 227.27C92.5638 227.459 92.2949 227.511 92.0024 227.426C91.5307 227.289 91.3419 227.062 91.4316 226.746C91.4505 226.68 91.4835 226.628 91.5354 226.586C91.4788 226.369 90.9645 226.124 90.0022 225.826C86.0818 224.619 82.2134 223.18 78.4299 221.514C77.9629 221.307 77.7883 221.029 77.9015 220.675C77.944 220.528 78.0525 220.434 78.2271 220.392C78.4016 220.349 78.6092 220.392 78.8639 220.514C79.7933 220.816 80.3547 220.727 80.5481 220.26C82.1474 216.419 83.7513 212.584 85.3506 208.744C85.5487 208.263 85.2374 207.829 84.4212 207.428C83.9731 207.23 83.8457 206.961 84.0297 206.626C84.2042 206.314 84.4779 206.244 84.86 206.413C87.9028 207.753 91.0023 208.923 94.1489 209.919C94.7858 210.121 95.1349 210.126 95.1915 209.942C95.1821 209.867 95.1821 209.805 95.2009 209.754C95.2953 209.437 95.5312 209.338 95.9086 209.452C96.1633 209.527 96.3332 209.706 96.4181 209.989C96.7719 211.056 97.1446 212.117 97.5361 213.178C97.5975 213.334 97.6069 213.48 97.5739 213.612C97.4748 213.985 97.2201 214.113 96.8096 213.999C96.5738 213.933 96.4039 213.773 96.3049 213.518C96.036 212.891 95.6019 212.49 94.9934 212.306C92.9506 211.697 90.9268 211.013 88.9218 210.263C88.4406 211.56 87.9642 212.853 87.483 214.15C88.936 214.698 90.3984 215.202 91.8703 215.679C92.5025 215.882 93.111 215.792 93.6819 215.405C93.9036 215.245 94.1395 215.198 94.3801 215.273C94.7999 215.396 94.9556 215.641 94.8518 216.009C94.8141 216.141 94.7292 216.259 94.5924 216.363C93.6866 217.061 92.7619 217.75 91.8231 218.424C91.5825 218.608 91.3231 218.656 91.04 218.561C90.6249 218.429 90.4645 218.203 90.5683 217.891C90.5871 217.839 90.6202 217.788 90.6768 217.731C90.6862 217.533 90.4692 217.363 90.0257 217.212C88.9407 216.849 87.8604 216.462 86.7848 216.061C86.1243 217.849 85.4591 219.642 84.7987 221.43C87.4499 222.425 90.1342 223.307 92.8421 224.081C93.7574 224.34 94.6773 224.038 95.5689 223.166C95.8142 223.005 96.0595 222.953 96.3049 223.015C96.7389 223.123 96.9134 223.359 96.8238 223.718C96.7908 223.85 96.7153 223.972 96.5926 224.086L96.5879 224.081Z" fill="#E9D775"/>
<path d="M118.152 214.636C118.185 215.037 117.977 215.226 117.529 215.207C116.746 215.141 116.34 215.396 116.303 215.985C116.015 220.802 115.727 225.619 115.444 230.44C114.581 230.388 113.717 230.327 112.854 230.256C109.302 226.256 106.155 222.081 103.424 217.797C102.858 220.76 102.287 223.727 101.721 226.69C101.603 227.294 101.928 227.666 102.692 227.794C103.221 227.888 103.438 228.129 103.353 228.515C103.277 228.85 102.99 228.973 102.494 228.883C100.744 228.563 98.9939 228.204 97.2578 227.798C96.8049 227.69 96.6162 227.468 96.6964 227.138C96.7908 226.737 97.0597 226.605 97.5031 226.737C98.5221 226.93 99.093 226.742 99.2109 226.194C100.093 222.123 100.971 218.047 101.853 213.976C101.961 213.466 101.749 213.131 101.206 212.966C100.754 212.862 100.593 212.622 100.73 212.244C100.853 211.938 101.088 211.825 101.447 211.905C102.438 212.131 103.433 212.339 104.429 212.532C104.523 212.48 106.669 216.849 113.302 224.812C113.552 221.831 113.798 218.849 114.048 215.868C114.095 215.283 113.807 214.962 113.189 214.905C112.746 214.834 112.543 214.613 112.581 214.249C112.614 213.91 112.854 213.763 113.293 213.801C114.718 213.933 116.147 214.037 117.576 214.103C117.926 214.117 118.114 214.297 118.147 214.641L118.152 214.636Z" fill="#E9D775"/>
<path d="M138.376 228.803C138.49 229.171 138.254 229.407 137.659 229.492C135.329 229.832 132.984 230.096 130.64 230.284C130.158 230.322 129.894 230.171 129.852 229.832C129.804 229.449 130.04 229.242 130.555 229.199C131.541 229.067 132.008 228.714 131.956 228.171C131.767 226.138 131.578 224.109 131.385 222.076C129.941 221.618 128.705 221.411 127.649 221.472C126.521 221.538 125.361 221.878 124.134 222.496C124.176 224.529 124.224 226.562 124.266 228.596C124.28 229.214 124.761 229.506 125.719 229.459C126.252 229.44 126.516 229.629 126.516 230.025C126.516 230.369 126.262 230.549 125.757 230.568C123.422 230.648 121.086 230.657 118.756 230.586C118.289 230.572 118.062 230.393 118.077 230.049C118.091 229.638 118.327 229.454 118.789 229.497C119.53 229.421 119.902 229.124 119.912 228.619C119.992 224.458 120.072 220.297 120.148 216.136C120.157 215.617 119.883 215.33 119.322 215.273C118.86 215.259 118.657 215.051 118.718 214.66C118.779 214.32 118.987 214.155 119.35 214.164C121.303 214.221 123.256 214.212 125.21 214.146C125.634 214.131 125.856 214.292 125.87 214.632C125.884 214.999 125.677 215.207 125.247 215.25C124.398 215.278 123.983 215.584 123.997 216.188C124.03 217.641 124.058 219.09 124.091 220.543C125.365 219.981 126.512 219.665 127.568 219.604C128.639 219.543 129.842 219.722 131.206 220.132C131.069 218.665 130.932 217.203 130.795 215.735C130.743 215.188 130.328 214.948 129.545 214.999C129.017 215.042 128.767 214.867 128.785 214.481C128.809 214.122 129.031 213.929 129.455 213.891C131.357 213.735 133.253 213.523 135.14 213.254C135.64 213.183 135.918 213.311 135.97 213.65C135.994 213.801 135.942 213.947 135.819 214.089C135.697 214.231 135.522 214.32 135.3 214.353C134.763 214.429 134.532 214.759 134.607 215.344C135.164 219.448 135.725 223.552 136.286 227.652C136.357 228.18 136.763 228.43 137.504 228.393C137.975 228.322 138.268 228.459 138.376 228.803V228.803Z" fill="#E9D775"/>
<path d="M164.078 222.123C161.941 223.029 159.78 223.859 157.601 224.619C156.978 224.836 156.605 224.741 156.473 224.354C156.369 224.043 156.544 223.812 157.001 223.652C157.733 223.312 158.035 222.967 157.912 222.633C157.888 222.566 157.846 222.505 157.785 222.439C156.596 221.231 155.43 220.005 154.294 218.759C152.916 218.689 151.788 218.759 150.897 219.014C149.807 219.326 148.911 219.745 148.203 220.288C147.816 221.986 147.396 223.68 146.934 225.378C146.67 226.388 146.113 227.237 145.269 227.912C144.542 228.52 143.684 228.921 142.712 229.11C141.589 229.327 140.674 229.214 139.98 228.789C139.287 228.364 138.9 227.85 138.806 227.256C138.692 226.553 139.023 225.935 139.768 225.388C140.061 225.171 140.41 225.024 140.815 224.954C141.33 224.859 141.641 224.878 141.759 225.005C141.806 225.067 141.797 225.166 141.731 225.303C141.665 225.439 141.641 225.548 141.655 225.633C141.702 225.793 141.82 225.916 142.004 226.006C142.188 226.095 142.405 226.114 142.655 226.067C143.372 225.925 143.825 225.543 144.009 224.93C145.198 220.896 146.17 216.849 146.934 212.806C146.953 212.688 146.948 212.589 146.929 212.509C146.844 212.193 146.505 212.089 145.915 212.188C145.462 212.306 145.212 212.164 145.16 211.768C145.123 211.424 145.278 211.207 145.632 211.112C147.977 210.489 150.298 209.772 152.595 208.966C153.001 208.824 153.26 208.909 153.378 209.23C153.501 209.579 153.369 209.834 152.982 209.994C152.59 210.155 152.449 210.386 152.557 210.697C152.595 210.801 152.657 210.909 152.746 211.023C155.643 214.4 158.728 217.665 162.002 220.802C162.389 221.175 162.875 221.302 163.45 221.18C163.983 220.953 164.328 221.029 164.488 221.406C164.616 221.708 164.479 221.944 164.083 222.114L164.078 222.123ZM152.647 216.905C151.534 215.655 150.444 214.386 149.387 213.108C149.109 214.764 148.798 216.419 148.448 218.08C148.996 217.731 149.642 217.448 150.402 217.221C150.977 217.052 151.722 216.948 152.652 216.91L152.647 216.905Z" fill="#E9D775"/>
<path d="M180.283 206.069C180.556 206.277 180.424 206.597 179.877 207.027C179.254 207.475 179.127 207.984 179.509 208.565C179.886 209.14 180.269 209.716 180.646 210.296C181.037 210.886 180.769 211.858 179.797 213.183C178.754 214.613 177.268 215.891 175.362 216.943C172.919 218.302 170.343 218.651 167.786 217.995C165.229 217.339 163.545 215.901 162.634 213.825C161.757 211.815 161.809 209.645 162.634 207.296C163.46 205.017 164.705 203.371 166.465 202.257C167.22 201.79 167.927 201.441 168.607 201.215C169.031 201.073 169.508 200.969 170.036 200.899C170.461 200.847 170.73 200.781 170.843 200.71C170.885 200.682 170.923 200.653 170.956 200.616C171.06 200.469 170.998 200.299 170.781 200.097C170.56 199.894 170.574 199.686 170.819 199.464C171.187 199.134 171.532 199.078 171.866 199.299C173.136 200.167 174.423 201.017 175.735 201.842C175.81 201.889 175.862 201.946 175.905 202.003C176.032 202.196 175.895 202.484 175.48 202.856C174.98 203.323 174.541 203.479 174.164 203.333C173.904 203.229 173.65 203.13 173.395 203.026C171.73 202.356 170.126 202.503 168.498 203.441C166.871 204.38 165.932 205.696 165.639 207.475C165.399 208.97 165.616 210.466 166.347 211.966C167.106 213.528 168.262 214.669 169.857 215.339C171.546 216.033 173.211 215.952 174.777 215.084C175.843 214.49 176.527 213.839 176.82 213.16C177.037 212.612 177.009 212.108 176.73 211.65C176.532 211.324 176.334 210.994 176.136 210.669C175.782 210.084 175.258 210.041 174.556 210.527C174.221 210.744 173.952 210.853 173.754 210.848C173.555 210.848 173.419 210.782 173.343 210.65C173.183 210.334 173.263 210.079 173.588 209.886C175.556 208.716 177.495 207.475 179.391 206.163C179.702 205.946 180 205.913 180.283 206.069V206.069Z" fill="#E9D775"/>
<path d="M197.124 195.19C197.389 196.856 197.62 198.535 197.818 200.229C197.846 200.545 197.742 200.818 197.516 201.045C197.143 201.408 196.841 201.469 196.62 201.229C196.573 201.177 196.544 201.12 196.539 201.054C196.322 200.998 195.832 201.342 195.049 202.069C191.879 205.017 188.567 207.739 185.142 210.23C184.717 210.537 184.387 210.551 184.142 210.268C184.038 210.155 184.019 210.013 184.071 209.838C184.128 209.664 184.274 209.499 184.514 209.343C185.264 208.678 185.486 208.135 185.189 207.725C182.745 204.371 180.297 201.017 177.853 197.667C177.546 197.247 177.009 197.304 176.23 197.818C175.825 198.111 175.527 198.087 175.334 197.757C175.159 197.445 175.244 197.167 175.589 196.917C178.344 194.917 181.014 192.747 183.571 190.397C184.09 189.921 184.283 189.605 184.156 189.468C184.085 189.44 184.033 189.407 183.995 189.364C183.774 189.124 183.816 188.859 184.118 188.572C184.326 188.378 184.571 188.312 184.859 188.373C185.967 188.581 187.09 188.765 188.222 188.935C188.392 188.958 188.524 189.02 188.619 189.114C188.888 189.388 188.859 189.685 188.538 190.006C188.354 190.19 188.123 190.265 187.845 190.232C187.156 190.166 186.571 190.36 186.085 190.822C184.448 192.374 182.769 193.851 181.052 195.261C181.91 196.341 182.769 197.417 183.627 198.497C184.873 197.478 186.099 196.417 187.307 195.327C187.821 194.86 188.076 194.261 188.053 193.553C188.034 193.27 188.123 193.039 188.317 192.855C188.652 192.539 188.949 192.515 189.208 192.794C189.303 192.893 189.355 193.03 189.373 193.204C189.482 194.374 189.576 195.554 189.647 196.738C189.675 197.044 189.572 197.304 189.34 197.516C189.001 197.827 188.722 197.856 188.505 197.606C188.468 197.563 188.444 197.507 188.425 197.431C188.26 197.323 187.991 197.431 187.623 197.761C186.722 198.554 185.812 199.332 184.887 200.087C186.071 201.578 187.255 203.064 188.444 204.555C190.718 202.691 192.931 200.719 195.072 198.634C195.794 197.931 196.035 196.936 195.771 195.686C195.766 195.379 195.855 195.129 196.044 194.936C196.379 194.591 196.672 194.544 196.936 194.803C197.035 194.898 197.096 195.03 197.124 195.195V195.19Z" fill="#E9D775"/>
<path d="M200.899 169.98C201.262 170.14 201.309 170.442 201.045 170.876C200.554 171.621 200.545 172.15 201.035 172.47C205.045 175.079 209.06 177.693 213.07 180.302C212.542 181.132 212.008 181.953 211.466 182.764C206.022 184.312 200.663 185.288 195.45 185.75C197.7 187.732 199.95 189.718 202.205 191.699C202.663 192.105 203.163 191.982 203.696 191.322C204.069 190.874 204.399 190.779 204.687 191.053C204.932 191.289 204.885 191.619 204.531 192.044C203.286 193.539 202.012 194.987 200.71 196.398C200.37 196.766 200.073 196.832 199.828 196.591C199.535 196.308 199.568 195.992 199.927 195.648C200.653 194.799 200.804 194.176 200.394 193.799C197.356 190.982 194.322 188.161 191.284 185.345C190.902 184.991 190.496 185.029 190.058 185.449C189.718 185.816 189.421 185.845 189.171 185.533C188.968 185.269 189.001 184.996 189.27 184.703C190.01 183.896 190.737 183.071 191.454 182.231C191.463 182.094 196.417 182.311 207.008 179.688C204.564 178.004 202.12 176.32 199.681 174.631C199.2 174.301 198.766 174.428 198.37 175.008C198.063 175.409 197.757 175.499 197.459 175.282C197.186 175.084 197.191 174.782 197.469 174.372C198.379 173.046 199.262 171.683 200.12 170.291C200.328 169.951 200.592 169.847 200.908 169.98H200.899Z" fill="#E9D775"/>
<path d="M107.821 192.865C107.821 193.247 107.627 193.44 107.245 193.44H101.499C101.14 193.44 100.966 193.261 100.966 192.907C100.966 192.577 101.15 192.383 101.523 192.331C102.329 192.36 102.73 192.067 102.73 191.459V186.288C102.73 185.458 102.494 185.033 102.018 185.019L101.324 185C101.032 184.986 100.89 184.741 100.89 184.269C100.89 183.835 101.027 183.613 101.306 183.613H102.098C102.957 183.613 103.881 183.387 104.872 182.939H105.962V191.459C105.962 192.081 106.391 192.36 107.25 192.289C107.632 192.261 107.825 192.454 107.825 192.865H107.821Z" fill="#E9D775"/>
<path d="M120.577 189.204C120.577 190.539 120.082 191.638 119.091 192.511C118.048 193.407 116.68 193.855 114.991 193.855C113.302 193.855 111.953 193.445 110.948 192.629C109.986 191.85 109.5 190.836 109.5 189.581C109.5 188.515 109.863 187.604 110.59 186.85C110.92 186.505 111.434 186.175 112.137 185.859C110.868 185.043 110.236 183.972 110.236 182.656C110.236 181.467 110.67 180.495 111.533 179.726C112.397 178.962 113.585 178.58 115.09 178.58C116.742 178.58 117.963 178.943 118.756 179.669C119.379 180.236 119.685 180.948 119.685 181.807C119.685 182.491 119.482 183.08 119.072 183.566C118.77 183.934 118.18 184.406 117.308 184.972C118.072 185.34 118.69 185.722 119.152 186.118C120.105 186.925 120.577 187.954 120.577 189.204ZM117.308 189.775C117.308 189.166 117.095 188.656 116.675 188.241C116.251 187.826 115.468 187.369 114.317 186.864C113.92 187.076 113.576 187.321 113.288 187.595C112.774 188.095 112.515 188.737 112.515 189.515C112.515 190.293 112.779 190.94 113.307 191.459C113.798 191.935 114.364 192.171 115.01 192.171C115.553 192.171 116.072 191.94 116.567 191.478C117.062 191.015 117.312 190.449 117.312 189.775H117.308ZM116.93 181.91C116.93 181.434 116.718 181.033 116.298 180.703C115.93 180.41 115.524 180.269 115.09 180.269C114.656 180.269 114.269 180.42 113.902 180.726C113.491 181.071 113.288 181.49 113.288 181.995C113.288 182.406 113.434 182.759 113.732 183.066C114.029 183.368 114.553 183.689 115.307 184.019C116.392 183.359 116.93 182.66 116.93 181.92V181.91Z" fill="#E9D775"/>
<path d="M133.357 189.204C133.357 190.539 132.862 191.638 131.871 192.511C130.828 193.407 129.46 193.855 127.771 193.855C126.082 193.855 124.733 193.445 123.728 192.629C122.766 191.85 122.28 190.836 122.28 189.581C122.28 188.515 122.643 187.604 123.37 186.85C123.7 186.505 124.214 186.175 124.917 185.859C123.648 185.043 123.016 183.972 123.016 182.656C123.016 181.467 123.45 180.495 124.313 179.726C125.177 178.962 126.365 178.58 127.87 178.58C129.522 178.58 130.743 178.943 131.536 179.669C132.159 180.236 132.465 180.948 132.465 181.807C132.465 182.491 132.262 183.08 131.852 183.566C131.55 183.934 130.96 184.406 130.088 184.972C130.852 185.34 131.47 185.722 131.932 186.118C132.885 186.925 133.357 187.954 133.357 189.204V189.204ZM130.088 189.775C130.088 189.166 129.875 188.656 129.455 188.241C129.031 187.826 128.248 187.369 127.097 186.864C126.7 187.076 126.356 187.321 126.068 187.595C125.554 188.095 125.295 188.737 125.295 189.515C125.295 190.293 125.559 190.94 126.087 191.459C126.578 191.935 127.144 192.171 127.79 192.171C128.333 192.171 128.852 191.94 129.347 191.478C129.842 191.015 130.092 190.449 130.092 189.775H130.088ZM129.71 181.91C129.71 181.434 129.498 181.033 129.078 180.703C128.71 180.41 128.304 180.269 127.87 180.269C127.436 180.269 127.05 180.42 126.682 180.726C126.271 181.071 126.068 181.49 126.068 181.995C126.068 182.406 126.215 182.759 126.512 183.066C126.809 183.368 127.333 183.689 128.087 184.019C129.172 183.359 129.71 182.66 129.71 181.92V181.91Z" fill="#E9D775"/>
<path d="M147.741 189.515C147.741 190.954 147.382 192.327 146.66 193.638C145.939 194.945 144.92 196.087 143.599 197.068C143.099 197.436 142.396 197.856 141.499 198.318C140.598 198.78 139.877 199.096 139.32 199.271C139.093 199.337 138.876 199.37 138.664 199.37C138.041 199.37 137.735 199.101 137.735 198.559C137.735 198.068 138.046 197.738 138.664 197.568C139.589 197.304 140.532 196.728 141.499 195.846C142.518 194.921 143.221 193.95 143.618 192.935C143.155 193.228 142.745 193.416 142.391 193.511C141.943 193.629 141.32 193.69 140.528 193.69C138.876 193.69 137.551 193.181 136.546 192.166C135.584 191.204 135.098 189.982 135.098 188.501C135.098 186.887 135.659 185.548 136.782 184.477C137.957 183.354 139.476 182.792 141.339 182.792C143.202 182.792 144.844 183.439 146.033 184.736C147.17 185.991 147.736 187.59 147.736 189.529L147.741 189.515ZM144.174 188.109C144.174 187.081 143.882 186.241 143.302 185.595C142.773 184.986 142.15 184.684 141.438 184.684C140.726 184.684 140.037 185.014 139.457 185.675C138.81 186.401 138.485 187.293 138.485 188.35C138.485 189.407 138.787 190.26 139.395 190.907C139.961 191.515 140.646 191.827 141.438 191.836C142.165 191.85 142.801 191.501 143.349 190.794C143.896 190.086 144.17 189.19 144.17 188.109H144.174Z" fill="#E9D775"/>
</g>
<defs>
<clipPath id="clip0_80_1540">
<rect width="246.73" height="246.73" fill="white"/>
</clipPath>
</defs>
</svg>
