<svg width="30" height="30" viewBox="0 0 30 30" fill="none" xmlns="http://www.w3.org/2000/svg">
<path d="M15.0117 7.73438C14.131 7.73438 13.27 7.99555 12.5377 8.48486C11.8054 8.97418 11.2346 9.66966 10.8976 10.4834C10.5605 11.2971 10.4723 12.1924 10.6442 13.0563C10.816 13.9201 11.2401 14.7136 11.8629 15.3363C12.4857 15.9591 13.2791 16.3832 14.143 16.5551C15.0068 16.7269 15.9022 16.6387 16.7159 16.3017C17.5296 15.9646 18.225 15.3938 18.7144 14.6615C19.2037 13.9292 19.4648 13.0682 19.4648 12.1875C19.4648 11.0065 18.9957 9.87379 18.1606 9.03867C17.3254 8.20354 16.1928 7.73438 15.0117 7.73438V7.73438ZM15.0117 15.2344C14.4091 15.2344 13.82 15.0557 13.319 14.7209C12.8179 14.3861 12.4274 13.9102 12.1968 13.3535C11.9662 12.7967 11.9058 12.1841 12.0234 11.5931C12.141 11.002 12.4311 10.4591 12.8573 10.033C13.2834 9.60692 13.8263 9.31673 14.4173 9.19917C15.0083 9.08161 15.621 9.14194 16.1777 9.37255C16.7345 9.60317 17.2103 9.99369 17.5451 10.4947C17.8799 10.9958 18.0586 11.5849 18.0586 12.1875C18.0555 12.9946 17.7335 13.7678 17.1628 14.3386C16.592 14.9093 15.8189 15.2313 15.0117 15.2344ZM15.0117 2.10938C12.3398 2.11248 9.77818 3.17527 7.88883 5.06462C5.99949 6.95396 4.9367 9.51557 4.93359 12.1875C4.93359 15.8086 6.62109 19.6523 9.79688 23.3086C11.229 24.9701 12.8448 26.464 14.6133 27.7617C14.7299 27.8442 14.8689 27.8891 15.0117 27.8906C15.1579 27.8873 15.3001 27.8426 15.4219 27.7617C17.1823 26.4585 18.7936 24.9651 20.2266 23.3086C23.4141 19.6523 25.0898 15.8086 25.0898 12.1875C25.0867 9.51557 24.0239 6.95396 22.1346 5.06462C20.2453 3.17527 17.6837 2.11248 15.0117 2.10938V2.10938ZM15.0117 26.3086C13.2539 24.9492 6.33984 19.1719 6.33984 12.1875C6.33984 9.88758 7.25349 7.68185 8.87978 6.05556C10.5061 4.42927 12.7118 3.51563 15.0117 3.51562C17.3116 3.51563 19.5174 4.42927 21.1437 6.05556C22.77 7.68185 23.6836 9.88758 23.6836 12.1875C23.6836 19.1719 16.7695 24.9492 15.0117 26.3086Z" fill="#413C1C"/>
</svg>
