<svg width="30" height="30" viewBox="0 0 30 30" fill="none" xmlns="http://www.w3.org/2000/svg">
<path d="M26.25 5.85938H3.75C3.56352 5.85938 3.38468 5.93345 3.25282 6.06532C3.12095 6.19718 3.04688 6.37602 3.04688 6.5625V22.5C3.04688 22.9351 3.21973 23.3524 3.5274 23.6601C3.83508 23.9678 4.25238 24.1406 4.6875 24.1406H25.3125C25.7476 24.1406 26.1649 23.9678 26.4726 23.6601C26.7803 23.3524 26.9531 22.9351 26.9531 22.5V6.5625C26.9531 6.37602 26.879 6.19718 26.7472 6.06532C26.6153 5.93345 26.4365 5.85938 26.25 5.85938V5.85938ZM24.4453 7.26562L15 15.9258L5.55469 7.26562H24.4453ZM25.3125 22.7344H4.6875C4.62534 22.7344 4.56573 22.7097 4.52177 22.6657C4.47782 22.6218 4.45312 22.5622 4.45312 22.5V8.15625L14.5195 17.3906C14.6511 17.51 14.8224 17.5762 15 17.5762C15.1776 17.5762 15.3489 17.51 15.4805 17.3906L25.5469 8.15625V22.5C25.5469 22.5622 25.5222 22.6218 25.4782 22.6657C25.4343 22.7097 25.3747 22.7344 25.3125 22.7344Z" fill="#413C1C"/>
</svg>
