<svg width="30" height="30" viewBox="0 0 30 30" fill="none" xmlns="http://www.w3.org/2000/svg">
<path d="M26.0156 15C26.0156 15.1865 25.9415 15.3653 25.8097 15.4972C25.6778 15.629 25.499 15.7031 25.3125 15.7031H4.6875C4.50102 15.7031 4.32218 15.629 4.19032 15.4972C4.05845 15.3653 3.98438 15.1865 3.98438 15C3.98438 14.8135 4.05845 14.6347 4.19032 14.5028C4.32218 14.371 4.50102 14.2969 4.6875 14.2969H25.3125C25.499 14.2969 25.6778 14.371 25.8097 14.5028C25.9415 14.6347 26.0156 14.8135 26.0156 15ZM4.6875 8.20312H25.3125C25.499 8.20312 25.6778 8.12905 25.8097 7.99718C25.9415 7.86532 26.0156 7.68648 26.0156 7.5C26.0156 7.31352 25.9415 7.13468 25.8097 7.00282C25.6778 6.87095 25.499 6.79688 25.3125 6.79688H4.6875C4.50102 6.79688 4.32218 6.87095 4.19032 7.00282C4.05845 7.13468 3.98438 7.31352 3.98438 7.5C3.98438 7.68648 4.05845 7.86532 4.19032 7.99718C4.32218 8.12905 4.50102 8.20312 4.6875 8.20312ZM25.3125 21.7969H4.6875C4.50102 21.7969 4.32218 21.871 4.19032 22.0028C4.05845 22.1347 3.98438 22.3135 3.98438 22.5C3.98438 22.6865 4.05845 22.8653 4.19032 22.9972C4.32218 23.129 4.50102 23.2031 4.6875 23.2031H25.3125C25.499 23.2031 25.6778 23.129 25.8097 22.9972C25.9415 22.8653 26.0156 22.6865 26.0156 22.5C26.0156 22.3135 25.9415 22.1347 25.8097 22.0028C25.6778 21.871 25.499 21.7969 25.3125 21.7969Z" fill="#413C1C"/>
</svg>
