<svg width="64" height="64" viewBox="0 0 64 64" fill="none" xmlns="http://www.w3.org/2000/svg">
<path d="M54.1601 31.9731C54.165 44.2469 44.1539 54.1957 31.8899 54.1565C19.6601 54.1173 9.69667 44.1404 9.76642 31.8568C9.83618 19.6601 19.8278 9.73584 32.1236 9.8215C44.2726 9.90594 54.1479 19.7923 54.1589 31.9731H54.1601ZM31.9547 53.5165C43.8406 53.5165 53.5287 43.8565 53.5189 31.989C53.5091 20.0945 43.859 10.4872 32.0159 10.4627C20.1031 10.4383 10.4125 20.0982 10.4052 31.9719C10.3991 43.8382 20.0786 53.5165 31.9547 53.5153V53.5165Z" fill="#303F07"/>
<path d="M39.9211 41.6893C40.3506 41.7383 40.4522 41.8619 40.4032 42.2669C40.3861 42.4113 40.3494 42.5557 40.298 42.6928C40.2233 42.8935 40.1426 42.9253 39.9333 42.8751C39.6861 42.8152 39.4414 42.7503 39.193 42.6977C38.7732 42.6071 38.3523 42.6757 37.9362 42.7173C36.7737 42.8335 35.6332 43.055 34.5416 43.4845C34.0497 43.6779 33.5602 43.8773 33.1515 44.2273C33.1307 44.2457 33.0977 44.2493 33.0585 44.264C32.4063 43.8039 31.688 43.9153 30.9758 44.0768C30.5572 44.171 30.1485 44.3105 29.7361 44.4329C29.4804 44.5088 29.2662 44.6593 29.0423 44.8025C27.9079 45.5306 26.7026 46.1131 25.3736 46.3921C24.8107 46.5108 24.238 46.5866 23.6665 46.6601C23.4573 46.687 23.237 46.6625 23.0241 46.6344C22.8038 46.605 22.7218 46.4814 22.6717 46.2648C22.5933 45.9332 22.7194 45.6272 22.7745 45.3164C22.876 44.7486 23.0253 44.1906 23.2945 43.6718C23.308 43.6461 23.3239 43.6191 23.3288 43.591C23.4022 43.1676 23.6922 42.9192 24.0263 42.6952C24.2258 42.5618 24.4485 42.4456 24.5513 42.1996C24.5696 42.1568 24.6639 42.1323 24.725 42.125C24.8315 42.1127 24.9392 42.1213 25.0591 42.1213C25.1044 42.0442 25.1521 41.9732 25.1901 41.8962C25.7407 40.8071 26.426 39.8085 27.2569 38.9152C27.7696 38.3633 28.3068 37.8347 28.8232 37.2864C28.9334 37.1702 29.0239 37.0209 29.0815 36.8704C29.2785 36.354 29.3409 35.8082 29.3788 35.2612C29.3959 35.0177 29.4119 34.7717 29.3923 34.5294C29.358 34.1036 29.1622 33.9298 28.7302 33.898C28.5063 33.8809 28.2811 33.8698 28.0584 33.8417C27.7709 33.805 27.5163 33.6777 27.285 33.5076C26.9485 33.2604 26.7527 32.941 26.8029 32.5054C26.8262 32.2986 26.7466 32.1432 26.5606 32.0441C26.5263 32.0257 26.4945 32.0025 26.459 31.9853C26.2584 31.8911 26.1568 31.7455 26.207 31.5154C26.2167 31.4689 26.2082 31.4188 26.2082 31.3527C25.8117 31.2009 25.7628 30.8877 25.8411 30.5169C25.8692 30.3847 25.8815 30.2489 25.9035 30.091C25.7933 30.0433 25.6857 30.0017 25.5841 29.9503C25.3846 29.8487 25.179 29.7545 24.993 29.6321C24.7997 29.5049 24.7434 29.3054 24.8291 29.0888C24.8976 28.9175 24.9808 28.7511 25.075 28.592C25.2084 28.3656 25.354 28.1453 25.5009 27.9275C25.6416 27.7195 25.7909 27.5176 25.9426 27.3046C25.9463 27.3108 25.9402 27.2863 25.9267 27.2814C25.8166 27.2422 25.6918 27.2251 25.6783 27.0721C25.6636 26.9082 25.786 26.8653 25.901 26.8017C26.0258 26.7332 26.1397 26.6426 26.2755 26.5496C26.2094 26.4737 26.1702 26.4199 26.1237 26.3758C25.9157 26.1788 25.8668 25.9463 25.9598 25.6796C25.972 25.6428 25.9732 25.5988 25.9953 25.5682C26.1996 25.2819 26.0736 25.0579 25.8643 24.8474C25.8227 24.8058 25.7909 24.7495 25.7419 24.7226C25.4642 24.5672 25.3675 24.2821 25.239 24.0227C25.1325 23.8073 25.1313 23.5809 25.2782 23.3827C25.3773 23.248 25.3699 23.133 25.2782 23.0094C25.1595 22.8503 25.1717 22.6815 25.2415 22.5089C25.2928 22.3817 25.3185 22.2581 25.3063 22.1137C25.2965 22.0011 25.3442 21.8518 25.4213 21.7698C25.5523 21.6315 25.5682 21.492 25.551 21.3183C25.5131 20.9365 25.6012 20.5791 25.8044 20.2524C25.9353 20.0419 26.098 19.8596 26.322 19.7433C26.5006 19.6516 26.645 19.5329 26.7393 19.3469C26.7797 19.2673 26.8702 19.2098 26.9461 19.1523C27.0293 19.0887 27.1186 19.0324 27.2092 18.9773C27.2826 18.9332 27.3609 18.8647 27.4392 18.8623C27.6228 18.8549 27.7354 18.7668 27.8541 18.6371C28.1979 18.2578 28.7608 18.1599 29.2222 18.3924C29.3666 18.4646 29.5049 18.4707 29.6468 18.4291C29.9001 18.3544 30.1461 18.3875 30.3994 18.4389C30.6368 18.4866 30.8815 18.5123 31.1226 18.5135C31.3539 18.5135 31.5705 18.5441 31.7736 18.653C32.0318 18.7913 32.2888 18.9332 32.5482 19.0703C32.6743 19.1364 32.804 19.1963 32.9643 19.2734C32.9129 18.8843 32.8174 18.5355 32.8382 18.1941C32.8529 17.9641 32.7085 17.7132 32.8847 17.4929C32.9019 17.4721 32.8884 17.4146 32.8725 17.384C32.8089 17.2629 32.8676 17.1772 32.9166 17.0634C32.9826 16.9117 33.012 16.7232 32.9912 16.5593C32.9643 16.339 33.0206 16.2032 33.2213 16.1114C33.3571 16.049 33.4525 15.9449 33.5186 15.8018C33.5602 15.7124 33.6581 15.6488 33.7303 15.5742C33.9432 15.3551 34.199 15.2474 34.5086 15.256C34.5771 15.2572 34.6493 15.1948 34.7179 15.1569C34.8353 15.0908 34.9455 14.999 35.0911 15.1055C35.1217 15.1275 35.1927 15.1189 35.2318 15.0994C35.4655 14.9807 35.7164 15.0162 35.9489 15.0529C36.1374 15.0822 36.3589 15.1679 36.4775 15.3049C36.5962 15.442 36.7149 15.5228 36.874 15.5717C37.027 15.6182 37.1726 15.6647 37.2032 15.8593C37.2203 15.967 37.3182 15.989 37.41 15.9829C37.7013 15.9633 37.8616 16.1199 38.0231 16.3475C38.1944 16.5886 38.4379 16.7783 38.6496 16.9912C38.7243 17.0671 38.805 17.1381 38.8638 17.2249C38.9494 17.351 38.98 17.5125 39.144 17.5872C39.1905 17.608 39.2089 17.7022 39.2297 17.7658C39.2664 17.8772 39.2896 17.9934 39.3288 18.1036C39.3839 18.2602 39.3741 18.3985 39.2994 18.5539C39.2199 18.7179 39.1489 18.9014 39.1367 19.0813C39.1159 19.3787 38.9421 19.5096 38.6986 19.6038C38.4526 19.6981 38.2079 19.7972 37.9631 19.8975C37.9105 19.9196 37.8652 19.9538 37.7771 20.0064C38.028 20.1827 38.2642 20.2047 38.5114 20.1141C38.6203 20.075 38.7267 20.015 38.8173 19.944C39.155 19.6809 39.5124 19.446 39.7718 19.0862C40.0447 18.7069 40.2502 18.7326 40.5072 19.1278C40.692 19.4129 40.8205 19.7152 40.7654 20.0676C40.7581 20.1154 40.7593 20.1667 40.7446 20.212C40.6736 20.4213 40.6039 20.6318 40.5207 20.8361C40.4925 20.9046 40.4411 20.9756 40.38 21.0172C40.0961 21.2155 39.8868 21.4859 39.6616 21.7417C39.5686 21.8481 39.4328 21.9203 39.3068 21.9913C39.1146 22.1002 38.914 22.1957 38.6839 22.3131C39.0498 22.5028 39.1917 22.8393 39.4157 23.1C39.4744 23.1685 39.4267 23.3288 39.3728 23.4634C39.4353 23.5356 39.4964 23.6103 39.5613 23.68C40.0422 24.194 40.0263 25.0542 39.3447 25.4838C39.1966 25.5768 39.1097 25.6845 39.0828 25.8729C39.0204 26.3269 38.6558 26.6377 38.2079 26.6622C38.1712 26.6646 38.1345 26.6732 38.0537 26.6842C38.1332 26.8005 38.1969 26.8935 38.2617 26.9853C38.3865 27.1602 38.5089 27.3365 38.6374 27.509C38.7549 27.6656 38.7365 27.8174 38.6337 27.9703C38.5738 28.0597 38.5065 28.1453 38.4514 28.2371C38.3572 28.395 38.3425 28.5455 38.4196 28.7339C38.5799 29.1219 38.6227 29.5269 38.4147 29.9222C38.378 29.9919 38.3388 30.0592 38.3119 30.1326C38.2605 30.277 38.2532 30.4141 38.3633 30.545C38.5175 30.7274 38.5554 30.9476 38.5395 31.1789C38.5248 31.3943 38.4453 31.5729 38.2568 31.6978C38.0255 31.8519 37.8224 32.0416 37.7257 32.3084C37.5972 32.6633 37.3525 32.8737 36.9915 32.9533C36.7872 32.9986 36.6489 33.0928 36.595 33.3167C36.5473 33.5113 36.3784 33.6153 36.19 33.663C35.9832 33.7144 35.911 33.8368 35.8596 34.0473C35.7066 34.6726 35.7898 35.2918 35.8375 35.9134C35.8375 35.9232 35.8376 35.933 35.8412 35.9428C36.015 36.5326 36.1777 37.1261 36.3662 37.7111C36.4763 38.0537 36.6954 38.3352 36.9903 38.5456C37.3917 38.832 37.6731 39.2126 37.9007 39.6409C38.0427 39.9088 38.2079 40.1658 38.3351 40.4399C38.4734 40.7373 38.6815 40.916 39.0033 40.9979C39.3949 41.0983 39.713 41.3198 39.9198 41.6881L39.9211 41.6893Z" fill="#303F07"/>
</svg>
