<svg width="26" height="26" viewBox="0 0 26 26" fill="none" xmlns="http://www.w3.org/2000/svg">
<path d="M22.8109 10.5422C21.6734 9.92266 20.1602 9.48594 18.4844 9.27266V8.53125C18.4844 7.30234 17.5094 6.18516 15.7422 5.39297C14.1375 4.66172 12.0047 4.26562 9.75 4.26562C7.49531 4.26562 5.3625 4.66172 3.75781 5.39297C1.99063 6.18516 1.01562 7.30234 1.01562 8.53125V12.5938C1.01562 13.8227 1.99063 14.9398 3.75781 15.732C4.95483 16.2463 6.22099 16.5816 7.51562 16.7273V17.4688C7.51562 18.6977 8.49062 19.8148 10.2578 20.607C11.8625 21.3383 13.9953 21.7344 16.25 21.7344C18.5047 21.7344 20.6375 21.3383 22.2422 20.607C24.0094 19.8148 24.9844 18.6977 24.9844 17.4688V13.4062C24.9844 12.3195 24.2125 11.3039 22.8109 10.5422ZM22.2219 11.6086C23.2172 12.157 23.7656 12.7867 23.7656 13.4062C23.7656 14.8484 20.6781 16.4531 16.25 16.4531C15.5303 16.4509 14.8114 16.4068 14.0969 16.3211C14.6608 16.1711 15.2112 15.9741 15.7422 15.732C17.5094 14.9398 18.4844 13.8227 18.4844 12.5938V10.5016C19.9469 10.7047 21.257 11.0906 22.2219 11.6086ZM8.19609 15.5695H8.16563C7.8 15.5391 7.44453 15.4883 7.10938 15.4375V12.6039C7.98383 12.7314 8.86631 12.7959 9.75 12.7969C10.6337 12.7959 11.5162 12.7314 12.3906 12.6039V15.4375C11.5173 15.5758 10.6342 15.6438 9.75 15.6406C9.23116 15.6432 8.71253 15.6195 8.19609 15.5695ZM17.2656 10.7555V12.5938C17.2656 13.5586 15.8742 14.6047 13.6094 15.1836V12.3703C14.3429 12.212 15.0577 11.9771 15.7422 11.6695C16.2902 11.4375 16.803 11.1298 17.2656 10.7555ZM9.75 5.48438C14.1781 5.48438 17.2656 7.08906 17.2656 8.53125C17.2656 9.97344 14.1781 11.5781 9.75 11.5781C5.32188 11.5781 2.23438 9.97344 2.23438 8.53125C2.23438 7.08906 5.32188 5.48438 9.75 5.48438ZM2.23438 12.5938V10.7555C2.69698 11.1298 3.20978 11.4375 3.75781 11.6695C4.44228 11.9771 5.15713 12.212 5.89062 12.3703V15.1836C3.62578 14.6047 2.23438 13.5586 2.23438 12.5938ZM8.73438 17.4688V16.8289C9.06953 16.8492 9.40469 16.8594 9.75 16.8594C10.0953 16.8594 10.5422 16.8492 10.9383 16.8188C11.4106 16.9984 11.8962 17.141 12.3906 17.2453V20.0586C10.1258 19.4797 8.73438 18.4336 8.73438 17.4688ZM13.6094 20.3125V17.4789C14.4839 17.606 15.3663 17.6705 16.25 17.6719C17.1337 17.6709 18.0162 17.6064 18.8906 17.4789V20.3125C17.1406 20.5833 15.3594 20.5833 13.6094 20.3125ZM20.1094 20.0586V17.2453C20.8429 17.087 21.5577 16.8521 22.2422 16.5445C22.7902 16.3125 23.303 16.0048 23.7656 15.6305V17.4688C23.7656 18.4336 22.3742 19.4797 20.1094 20.0586Z" fill="#F0E5A5"/>
</svg>
