<svg width="24" height="25" viewBox="0 0 24 25" fill="none" xmlns="http://www.w3.org/2000/svg">
<path d="M8.99996 20.5625C8.88987 20.5609 8.78264 20.5271 8.69159 20.4652C8.60054 20.4033 8.52965 20.316 8.48773 20.2142C8.44581 20.1124 8.43469 20.0005 8.45575 19.8924C8.47681 19.7843 8.52913 19.6848 8.60621 19.6062L15.7031 12.5L8.60621 5.39371C8.50178 5.28928 8.44312 5.14765 8.44312 4.99996C8.44312 4.85228 8.50178 4.71064 8.60621 4.60621C8.71064 4.50178 8.85228 4.44312 8.99996 4.44312C9.14765 4.44312 9.28928 4.50178 9.39371 4.60621L16.8937 12.1062C16.947 12.157 16.9895 12.2181 17.0185 12.2858C17.0475 12.3535 17.0625 12.4263 17.0625 12.5C17.0625 12.5736 17.0475 12.6465 17.0185 12.7142C16.9895 12.7818 16.947 12.8429 16.8937 12.8937L9.39371 20.3937C9.34293 20.447 9.28184 20.4895 9.21416 20.5185C9.14647 20.5475 9.0736 20.5625 8.99996 20.5625Z" fill="#F3EFE0"/>
</svg>
