<svg width="30" height="30" viewBox="0 0 30 30" fill="none" xmlns="http://www.w3.org/2000/svg">
<path d="M15 21.3281C14.908 21.3281 14.8169 21.3094 14.7323 21.2732C14.6477 21.2369 14.5713 21.1839 14.5078 21.1172L5.13281 11.7422C5.06818 11.6776 5.0169 11.6008 4.98192 11.5164C4.94694 11.4319 4.92894 11.3414 4.92894 11.25C4.92894 11.1586 4.94694 11.0681 4.98192 10.9836C5.0169 10.8992 5.06818 10.8225 5.13281 10.7578C5.19745 10.6932 5.27418 10.6419 5.35863 10.6069C5.44308 10.572 5.53359 10.554 5.625 10.554C5.71641 10.554 5.80692 10.572 5.89137 10.6069C5.97582 10.6419 6.05255 10.6932 6.11719 10.7578L15 19.6289L23.8828 10.7578C24.0133 10.6273 24.1904 10.554 24.375 10.554C24.5596 10.554 24.7366 10.6273 24.8672 10.7578C24.9977 10.8884 25.0711 11.0654 25.0711 11.25C25.0711 11.4346 24.9977 11.6117 24.8672 11.7422L15.4922 21.1172C15.4287 21.1839 15.3523 21.2369 15.2677 21.2732C15.1831 21.3094 15.092 21.3281 15 21.3281Z" fill="#413C1C"/>
</svg>
