<svg width="30" height="30" viewBox="0 0 30 30" fill="none" xmlns="http://www.w3.org/2000/svg">
<path d="M15 3.04688C12.6359 3.04687 10.3249 3.74791 8.3592 5.06134C6.39352 6.37477 4.86146 8.24159 3.95676 10.4257C3.05205 12.6099 2.81534 15.0133 3.27656 17.3319C3.73777 19.6506 4.87619 21.7805 6.54787 23.4521C8.21954 25.1238 10.3494 26.2622 12.6681 26.7234C14.9867 27.1847 17.3901 26.948 19.5743 26.0432C21.7584 25.1385 23.6252 23.6065 24.9387 21.6408C26.2521 19.6751 26.9531 17.3641 26.9531 15C26.9469 11.8317 25.6856 8.79501 23.4453 6.55471C21.205 4.3144 18.1683 3.05307 15 3.04688ZM15 25.5469C12.914 25.5469 10.8749 24.9283 9.14048 23.7694C7.40605 22.6105 6.05423 20.9633 5.25596 19.0361C4.4577 17.1089 4.24883 14.9883 4.65579 12.9424C5.06274 10.8965 6.06723 9.01724 7.54224 7.54223C9.01725 6.06723 10.8965 5.06273 12.9424 4.65578C14.9883 4.24883 17.1089 4.45769 19.0361 5.25596C20.9633 6.05423 22.6105 7.40605 23.7694 9.14047C24.9283 10.8749 25.5469 12.914 25.5469 15C25.5438 17.7963 24.4316 20.4771 22.4543 22.4543C20.4771 24.4316 17.7963 25.5438 15 25.5469ZM18.75 14.4727C18.8232 14.5396 18.8816 14.6211 18.9216 14.7119C18.9616 14.8027 18.9822 14.9008 18.9822 15C18.9822 15.0992 18.9616 15.1973 18.9216 15.2881C18.8816 15.3789 18.8232 15.4604 18.75 15.5273L14.0625 19.7461C13.9331 19.8602 13.7663 19.9228 13.5938 19.9219C13.4945 19.9209 13.3965 19.8996 13.3058 19.8593C13.2151 19.819 13.1336 19.7605 13.0664 19.6875C13.0046 19.6184 12.957 19.5377 12.9264 19.4502C12.8959 19.3626 12.883 19.2698 12.8884 19.1773C12.8938 19.0847 12.9176 18.9941 12.9582 18.9107C12.9988 18.8273 13.0555 18.7528 13.125 18.6914L17.2266 15L13.125 11.3086C12.9851 11.1843 12.9004 11.0095 12.8894 10.8227C12.8784 10.6359 12.9421 10.4524 13.0664 10.3125C13.1907 10.1726 13.3655 10.0879 13.5523 10.0769C13.7391 10.0659 13.9226 10.1296 14.0625 10.2539L18.75 14.4727Z" fill="#413C1C"/>
</svg>
