<svg width="30" height="30" viewBox="0 0 30 30" fill="none" xmlns="http://www.w3.org/2000/svg">
<path d="M24.375 19.4531C24.283 19.4531 24.1919 19.4344 24.1073 19.3982C24.0227 19.3619 23.9463 19.3088 23.8828 19.2422L15 10.3711L6.11719 19.2422C5.98665 19.3727 5.8096 19.4461 5.625 19.4461C5.44039 19.4461 5.26335 19.3727 5.13281 19.2422C5.00227 19.1117 4.92894 18.9346 4.92894 18.75C4.92894 18.5654 5.00227 18.3883 5.13281 18.2578L14.5078 8.88281C14.5713 8.81616 14.6477 8.76309 14.7323 8.72683C14.8169 8.69057 14.908 8.67188 15 8.67188C15.092 8.67188 15.1831 8.69057 15.2677 8.72683C15.3523 8.76309 15.4287 8.81616 15.4922 8.88281L24.8672 18.2578C24.9635 18.3561 25.0289 18.4805 25.0553 18.6156C25.0816 18.7507 25.0677 18.8905 25.0153 19.0178C24.9629 19.1451 24.8743 19.2541 24.7605 19.3315C24.6466 19.4089 24.5126 19.4512 24.375 19.4531V19.4531Z" fill="#413C1C"/>
</svg>
