<svg width="30" height="30" viewBox="0 0 30 30" fill="none" xmlns="http://www.w3.org/2000/svg">
<path d="M15 3.04688C12.6359 3.04687 10.3249 3.74791 8.3592 5.06134C6.39352 6.37477 4.86146 8.24159 3.95676 10.4257C3.05205 12.6099 2.81534 15.0133 3.27656 17.3319C3.73777 19.6506 4.87619 21.7805 6.54787 23.4521C8.21954 25.1238 10.3494 26.2622 12.6681 26.7234C14.9867 27.1847 17.3901 26.948 19.5743 26.0432C21.7584 25.1385 23.6252 23.6065 24.9387 21.6408C26.2521 19.6751 26.9531 17.3641 26.9531 15C26.9469 11.8317 25.6856 8.79501 23.4453 6.55471C21.205 4.3144 18.1683 3.05307 15 3.04688ZM15 25.5469C12.914 25.5469 10.8749 24.9283 9.14048 23.7694C7.40605 22.6105 6.05423 20.9633 5.25596 19.0361C4.4577 17.1089 4.24883 14.9883 4.65579 12.9424C5.06274 10.8965 6.06723 9.01724 7.54224 7.54223C9.01725 6.06723 10.8965 5.06273 12.9424 4.65578C14.9883 4.24883 17.1089 4.45769 19.0361 5.25596C20.9633 6.05423 22.6105 7.40605 23.7694 9.14047C24.9283 10.8749 25.5469 12.914 25.5469 15C25.5438 17.7963 24.4316 20.4771 22.4543 22.4543C20.4771 24.4316 17.7963 25.5438 15 25.5469ZM17.3438 11.3086L13.2422 15L17.3438 18.6914C17.4133 18.7528 17.47 18.8273 17.5106 18.9107C17.5512 18.9941 17.5749 19.0847 17.5804 19.1773C17.5858 19.2698 17.5729 19.3626 17.5423 19.4502C17.5118 19.5377 17.4642 19.6184 17.4023 19.6875C17.3351 19.7605 17.2536 19.819 17.1629 19.8593C17.0722 19.8996 16.9743 19.9209 16.875 19.9219C16.7025 19.9228 16.5356 19.8602 16.4063 19.7461L11.7188 15.5273C11.6456 15.4604 11.5871 15.3789 11.5471 15.2881C11.5072 15.1973 11.4865 15.0992 11.4865 15C11.4865 14.9008 11.5072 14.8027 11.5471 14.7119C11.5871 14.6211 11.6456 14.5396 11.7188 14.4727L16.4063 10.2539C16.5461 10.1296 16.7296 10.0659 16.9164 10.0769C17.1032 10.0879 17.278 10.1726 17.4023 10.3125C17.5267 10.4524 17.5903 10.6359 17.5793 10.8227C17.5684 11.0095 17.4836 11.1843 17.3438 11.3086Z" fill="#413C1C"/>
</svg>
