<svg width="30" height="30" viewBox="0 0 30 30" fill="none" xmlns="http://www.w3.org/2000/svg">
<path d="M11.25 25.0781C11.1124 25.0762 10.9784 25.0339 10.8645 24.9565C10.7507 24.8792 10.6621 24.7701 10.6097 24.6428C10.5573 24.5155 10.5434 24.3757 10.5697 24.2406C10.5961 24.1055 10.6615 23.9811 10.7578 23.8828L19.6289 15L10.7578 6.1172C10.6273 5.98666 10.5539 5.80962 10.5539 5.62501C10.5539 5.44041 10.6273 5.26336 10.7578 5.13283C10.8883 5.00229 11.0654 4.92896 11.25 4.92896C11.4346 4.92896 11.6117 5.00229 11.7422 5.13283L21.1172 14.5078C21.1838 14.5713 21.2369 14.6477 21.2732 14.7323C21.3094 14.8169 21.3281 14.908 21.3281 15C21.3281 15.0921 21.3094 15.1831 21.2732 15.2678C21.2369 15.3524 21.1838 15.4287 21.1172 15.4922L11.7422 24.8672C11.6787 24.9339 11.6023 24.9869 11.5177 25.0232C11.4331 25.0594 11.342 25.0781 11.25 25.0781V25.0781Z" fill="#413C1C"/>
</svg>
