<svg width="30" height="30" viewBox="0 0 30 30" fill="none" xmlns="http://www.w3.org/2000/svg">
<path d="M18.75 25.0781C18.658 25.0781 18.5669 25.0594 18.4823 25.0232C18.3977 24.9869 18.3213 24.9339 18.2578 24.8672L8.88281 15.4922C8.81616 15.4287 8.76309 15.3524 8.72683 15.2678C8.69057 15.1831 8.67188 15.0921 8.67188 15C8.67188 14.908 8.69057 14.8169 8.72683 14.7323C8.76309 14.6477 8.81616 14.5713 8.88281 14.5078L18.2578 5.13283C18.3883 5.00229 18.5654 4.92896 18.75 4.92896C18.9346 4.92896 19.1117 5.00229 19.2422 5.13283C19.3727 5.26336 19.4461 5.44041 19.4461 5.62501C19.4461 5.80962 19.3727 5.98666 19.2422 6.1172L10.3711 15L19.2422 23.8828C19.3385 23.9811 19.4039 24.1055 19.4303 24.2406C19.4566 24.3757 19.4427 24.5155 19.3903 24.6428C19.3379 24.7701 19.2493 24.8792 19.1355 24.9565C19.0216 25.0339 18.8876 25.0762 18.75 25.0781V25.0781Z" fill="#413C1C"/>
</svg>
