<svg width="30" height="30" viewBox="0 0 30 30" fill="none" xmlns="http://www.w3.org/2000/svg">
<path d="M26.9766 24.9609C25.1627 21.8321 22.1979 19.536 18.7148 18.5625C20.3584 17.7277 21.6729 16.3635 22.4463 14.6901C23.2197 13.0167 23.4069 11.1316 22.9777 9.33881C22.5485 7.546 21.5279 5.95002 20.0805 4.80828C18.6332 3.66654 16.8435 3.04559 15 3.04559C13.1565 3.04559 11.3668 3.66654 9.91944 4.80828C8.4721 5.95002 7.45152 7.546 7.02231 9.33881C6.5931 11.1316 6.78028 13.0167 7.55366 14.6901C8.32704 16.3635 9.64154 17.7277 11.2852 18.5625C7.80207 19.536 4.83732 21.8321 3.02343 24.9609C2.97562 25.0405 2.94432 25.1289 2.93142 25.2209C2.91852 25.3128 2.92427 25.4064 2.94833 25.4961C2.97239 25.5858 3.01427 25.6697 3.07147 25.7429C3.12866 25.816 3.20001 25.8769 3.28124 25.9219C3.36126 25.9681 3.44959 25.9981 3.5412 26.0101C3.63282 26.0222 3.7259 26.0161 3.81515 25.9921C3.9044 25.9682 3.98805 25.9269 4.06132 25.8706C4.13459 25.8143 4.19605 25.7441 4.24218 25.664C5.33241 23.7756 6.90053 22.2074 8.78892 21.1171C10.6773 20.0268 12.8194 19.4528 15 19.4528C17.1805 19.4528 19.3227 20.0268 21.2111 21.1171C23.0995 22.2074 24.6676 23.7756 25.7578 25.664C25.8196 25.771 25.9084 25.8598 26.0154 25.9215C26.1223 25.9832 26.2437 26.0157 26.3672 26.0156C26.4903 26.0137 26.611 25.9815 26.7187 25.9219C26.8 25.8769 26.8713 25.816 26.9285 25.7429C26.9857 25.6697 27.0276 25.5858 27.0517 25.4961C27.0757 25.4064 27.0815 25.3128 27.0686 25.2209C27.0557 25.1289 27.0244 25.0405 26.9766 24.9609V24.9609ZM8.20312 11.25C8.20312 9.90569 8.60175 8.59158 9.3486 7.47384C10.0954 6.3561 11.157 5.48493 12.3989 4.97049C13.6409 4.45605 15.0075 4.32145 16.326 4.58371C17.6445 4.84597 18.8556 5.49331 19.8061 6.44387C20.7567 7.39443 21.404 8.60552 21.6663 9.92398C21.9285 11.2424 21.7939 12.6091 21.2795 13.851C20.765 15.093 19.8939 16.1545 18.7761 16.9014C17.6584 17.6482 16.3443 18.0469 15 18.0469C13.1974 18.0469 11.4685 17.3308 10.1939 16.0561C8.91922 14.7814 8.20312 13.0526 8.20312 11.25Z" fill="#413C1C"/>
</svg>
