<svg width="30" height="30" viewBox="0 0 30 30" fill="none" xmlns="http://www.w3.org/2000/svg">
<path d="M26.7422 25.7578L21.5273 20.5312C23.333 18.4672 24.2658 15.7821 24.1287 13.0431C23.9916 10.3042 22.7953 7.72567 20.7926 5.85222C18.7898 3.97876 16.1374 2.95701 13.3954 3.00272C10.6533 3.04844 8.0364 4.15805 6.09723 6.09723C4.15805 8.0364 3.04844 10.6533 3.00272 13.3954C2.95701 16.1374 3.97876 18.7898 5.85222 20.7926C7.72567 22.7953 10.3042 23.9916 13.0431 24.1287C15.7821 24.2658 18.4672 23.333 20.5312 21.5273L25.7578 26.7422C25.8883 26.8727 26.0654 26.9461 26.25 26.9461C26.4346 26.9461 26.6116 26.8727 26.7422 26.7422C26.8727 26.6116 26.9461 26.4346 26.9461 26.25C26.9461 26.0654 26.8727 25.8883 26.7422 25.7578V25.7578ZM4.45312 13.5937C4.45312 11.7859 4.98921 10.0187 5.99359 8.51549C6.99798 7.01232 8.42555 5.84074 10.0958 5.14891C11.766 4.45708 13.6039 4.27606 15.377 4.62876C17.1501 4.98145 18.7788 5.85201 20.0571 7.13035C21.3355 8.40869 22.206 10.0374 22.5587 11.8105C22.9114 13.5836 22.7304 15.4215 22.0386 17.0917C21.3468 18.7619 20.1752 20.1895 18.672 21.1939C17.1688 22.1983 15.4016 22.7344 13.5937 22.7344C11.1705 22.7313 8.8473 21.7672 7.13377 20.0537C5.42025 18.3402 4.45622 16.017 4.45312 13.5937V13.5937Z" fill="#413C1C"/>
</svg>
