<svg width="128" height="40" viewBox="0 0 128 40" fill="none" xmlns="http://www.w3.org/2000/svg">
<path d="M9.70837 36.6667L12.4167 24.9583L3.33337 17.0833L15.3334 16.0417L20 5L24.6667 16.0417L36.6667 17.0833L27.5834 24.9583L30.2917 36.6667L20 30.4583L9.70837 36.6667Z" fill="#ECDE8E"/>
<path d="M53.7084 36.6667L56.4167 24.9583L47.3334 17.0833L59.3334 16.0417L64 5L68.6667 16.0417L80.6667 17.0833L71.5834 24.9583L74.2917 36.6667L64 30.4583L53.7084 36.6667Z" fill="#ECDE8E"/>
<path d="M97.7084 36.6667L100.417 24.9583L91.3334 17.0833L103.333 16.0417L108 5L112.667 16.0417L124.667 17.0833L115.583 24.9583L118.292 36.6667L108 30.4583L97.7084 36.6667Z" fill="#ECDE8E"/>
</svg>
