<svg width="34" height="34" viewBox="0 0 34 34" fill="none" xmlns="http://www.w3.org/2000/svg">
<path d="M21.2 18.4V7.2C21.2 6.08609 20.7575 5.0178 19.9698 4.23015C19.1822 3.4425 18.1139 3 17 3C15.8861 3 14.8178 3.4425 14.0302 4.23015C13.2425 5.0178 12.8 6.08609 12.8 7.2V18.4C11.6247 19.2815 10.7565 20.5105 10.3184 21.9128C9.88034 23.3152 9.89462 24.8198 10.3592 26.2136C10.8238 27.6074 11.7152 28.8197 12.907 29.6787C14.0989 30.5377 15.5308 31 17 31C18.4692 31 19.9011 30.5377 21.093 29.6787C22.2848 28.8197 23.1762 27.6074 23.6408 26.2136C24.1054 24.8198 24.1197 23.3152 23.6816 21.9128C23.2435 20.5105 22.3753 19.2815 21.2 18.4ZM17 5.8C17.3713 5.8 17.7274 5.9475 17.99 6.21005C18.2525 6.4726 18.4 6.8287 18.4 7.2V11.4H15.6V7.2C15.6 6.8287 15.7475 6.4726 16.0101 6.21005C16.2726 5.9475 16.6287 5.8 17 5.8Z" fill="#413C1C"/>
</svg>
