<svg width="30" height="30" viewBox="0 0 30 30" fill="none" xmlns="http://www.w3.org/2000/svg">
<circle cx="15" cy="15" r="11" fill="#F3EFE0"/>
<path d="M15 3.04688C12.6359 3.04687 10.3249 3.74791 8.3592 5.06134C6.39352 6.37477 4.86146 8.24159 3.95676 10.4257C3.05205 12.6099 2.81534 15.0133 3.27656 17.3319C3.73777 19.6506 4.87619 21.7805 6.54787 23.4521C8.21954 25.1238 10.3494 26.2622 12.6681 26.7234C14.9867 27.1847 17.3901 26.948 19.5743 26.0432C21.7584 25.1385 23.6252 23.6065 24.9387 21.6408C26.2521 19.6751 26.9531 17.3641 26.9531 15C26.9469 11.8317 25.6856 8.79501 23.4453 6.55471C21.205 4.3144 18.1683 3.05307 15 3.04688V3.04688ZM15 25.5469C12.914 25.5469 10.8749 24.9283 9.14048 23.7694C7.40605 22.6105 6.05423 20.9633 5.25596 19.0361C4.4577 17.1089 4.24883 14.9883 4.65579 12.9424C5.06274 10.8965 6.06723 9.01724 7.54224 7.54223C9.01725 6.06723 10.8965 5.06273 12.9424 4.65578C14.9883 4.24883 17.1089 4.45769 19.0361 5.25596C20.9633 6.05423 22.6105 7.40605 23.7694 9.14047C24.9283 10.8749 25.5469 12.914 25.5469 15C25.5438 17.7963 24.4316 20.4771 22.4543 22.4543C20.4771 24.4316 17.7963 25.5438 15 25.5469ZM19.4766 13.793C19.6061 13.9264 19.6786 14.105 19.6786 14.291C19.6786 14.477 19.6061 14.6557 19.4766 14.7891C19.4103 14.8545 19.3315 14.9059 19.2449 14.9401C19.1584 14.9743 19.0657 14.9907 18.9727 14.9883C18.8815 14.9898 18.7909 14.9729 18.7063 14.9387C18.6217 14.9045 18.5449 14.8536 18.4805 14.7891L15.7031 12.0117V19.6875C15.7031 19.874 15.6291 20.0528 15.4972 20.1847C15.3653 20.3165 15.1865 20.3906 15 20.3906C14.8135 20.3906 14.6347 20.3165 14.5028 20.1847C14.371 20.0528 14.2969 19.874 14.2969 19.6875V12.0117L11.5195 14.7891C11.3874 14.9212 11.2083 14.9954 11.0215 14.9954C10.8347 14.9954 10.6555 14.9212 10.5234 14.7891C10.3914 14.657 10.3171 14.4778 10.3171 14.291C10.3171 14.1042 10.3914 13.9251 10.5234 13.793L14.5078 9.82031C14.5713 9.75366 14.6477 9.70059 14.7323 9.66433C14.8169 9.62807 14.908 9.60938 15 9.60938C15.0921 9.60938 15.1831 9.62807 15.2677 9.66433C15.3524 9.70059 15.4287 9.75366 15.4922 9.82031L19.4766 13.793Z" fill="#413C1C"/>
</svg>
