<svg width="30" height="30" viewBox="0 0 30 30" fill="none" xmlns="http://www.w3.org/2000/svg">
<path d="M28.8398 14.0625V13.957C28.8434 13.9367 28.8393 13.9158 28.8281 13.8984V13.875C28.8164 13.8516 28.8164 13.8281 28.8047 13.8164H28.793L27.1523 9.70313C27.0319 9.39774 26.822 9.13587 26.5501 8.95185C26.2783 8.76783 25.9572 8.67024 25.6289 8.67188H21.3398V7.5C21.3398 7.31352 21.2658 7.13468 21.1339 7.00282C21.002 6.87095 20.8232 6.79688 20.6367 6.79688H2.82422C2.3891 6.79688 1.9718 6.96973 1.66412 7.2774C1.35644 7.58508 1.18359 8.00238 1.18359 8.4375V21.5625C1.18359 21.9976 1.35644 22.4149 1.66412 22.7226C1.9718 23.0303 2.3891 23.2031 2.82422 23.2031H4.53516C4.69653 23.9979 5.1277 24.7124 5.7556 25.2256C6.3835 25.7388 7.16952 26.0191 7.98047 26.0191C8.79142 26.0191 9.57744 25.7388 10.2053 25.2256C10.8332 24.7124 11.2644 23.9979 11.4258 23.2031H18.5977C18.759 23.9979 19.1902 24.7124 19.8181 25.2256C20.446 25.7388 21.232 26.0191 22.043 26.0191C22.8539 26.0191 23.6399 25.7388 24.2678 25.2256C24.8957 24.7124 25.3269 23.9979 25.4883 23.2031H27.1992C27.6343 23.2031 28.0516 23.0303 28.3593 22.7226C28.667 22.4149 28.8398 21.9976 28.8398 21.5625V14.0625V14.0625ZM25.6289 10.0781C25.6765 10.0805 25.7224 10.096 25.7618 10.1228C25.8011 10.1497 25.8321 10.187 25.8516 10.2305L27.0937 13.3594H21.3398V10.0781H25.6289ZM2.82422 8.20312H19.9336V16.1719H2.58984V8.4375C2.58984 8.37534 2.61454 8.31573 2.65849 8.27177C2.70244 8.22782 2.76206 8.20312 2.82422 8.20312V8.20312ZM2.58984 21.5625V17.5781H19.9336V19.6875C19.2476 20.2057 18.7729 20.9552 18.5977 21.7969H11.4258C11.2644 21.0021 10.8332 20.2876 10.2053 19.7744C9.57744 19.2612 8.79142 18.9809 7.98047 18.9809C7.16952 18.9809 6.3835 19.2612 5.7556 19.7744C5.1277 20.2876 4.69653 21.0021 4.53516 21.7969H2.82422C2.76206 21.7969 2.70244 21.7722 2.65849 21.7282C2.61454 21.6843 2.58984 21.6247 2.58984 21.5625ZM7.98047 24.6094C7.56327 24.6094 7.15545 24.4857 6.80856 24.2539C6.46168 24.0221 6.19131 23.6927 6.03166 23.3072C5.87201 22.9218 5.83023 22.4977 5.91162 22.0885C5.99302 21.6793 6.19391 21.3034 6.48892 21.0084C6.78392 20.7134 7.15977 20.5125 7.56895 20.4312C7.97813 20.3498 8.40225 20.3915 8.78769 20.5512C9.17313 20.7108 9.50257 20.9812 9.73435 21.3281C9.96613 21.675 10.0898 22.0828 10.0898 22.5C10.0868 23.0585 9.86354 23.5932 9.46862 23.9882C9.0737 24.3831 8.53896 24.6063 7.98047 24.6094V24.6094ZM22.043 24.6094C21.6258 24.6094 21.2179 24.4857 20.8711 24.2539C20.5242 24.0221 20.2538 23.6927 20.0942 23.3072C19.9345 22.9218 19.8927 22.4977 19.9741 22.0885C20.0555 21.6793 20.2564 21.3034 20.5514 21.0084C20.8464 20.7134 21.2223 20.5125 21.6314 20.4312C22.0406 20.3498 22.4648 20.3915 22.8502 20.5512C23.2356 20.7108 23.5651 20.9812 23.7968 21.3281C24.0286 21.675 24.1523 22.0828 24.1523 22.5C24.1493 23.0585 23.926 23.5932 23.5311 23.9882C23.1362 24.3831 22.6015 24.6063 22.043 24.6094V24.6094ZM27.4336 21.5625C27.4336 21.6247 27.4089 21.6843 27.3649 21.7282C27.321 21.7722 27.2614 21.7969 27.1992 21.7969H25.4883C25.3262 21.0028 24.8947 20.2891 24.2669 19.7766C23.6391 19.2641 22.8534 18.9842 22.043 18.9844C21.8068 18.9845 21.5713 19.0081 21.3398 19.0547V14.7656H27.4336V21.5625Z" fill="#413C1C"/>
</svg>
