<svg width="26" height="26" viewBox="0 0 26 26" fill="none" xmlns="http://www.w3.org/2000/svg">
<path d="M24.9941 12.1875V12.0961C24.9973 12.0785 24.9936 12.0604 24.984 12.0453V12.025C24.9738 12.0047 24.9738 11.9844 24.9637 11.9742H24.9535L23.5316 8.40938C23.4273 8.14471 23.2453 7.91775 23.0097 7.75827C22.7741 7.59878 22.4958 7.51421 22.2113 7.51562H18.4941V6.5C18.4941 6.33838 18.4299 6.18339 18.3157 6.06911C18.2014 5.95483 18.0464 5.89063 17.8848 5.89062H2.44727C2.07016 5.89062 1.7085 6.04043 1.44185 6.30708C1.17519 6.57374 1.02539 6.9354 1.02539 7.3125V18.6875C1.02539 19.0646 1.17519 19.4263 1.44185 19.6929C1.7085 19.9596 2.07016 20.1094 2.44727 20.1094H3.93008C4.06994 20.7981 4.44362 21.4174 4.9878 21.8622C5.53197 22.307 6.21319 22.5499 6.91602 22.5499C7.61884 22.5499 8.30006 22.307 8.84424 21.8622C9.38841 21.4174 9.76209 20.7981 9.90195 20.1094H16.1176C16.2574 20.7981 16.6311 21.4174 17.1753 21.8622C17.7195 22.307 18.4007 22.5499 19.1035 22.5499C19.8063 22.5499 20.4876 22.307 21.0317 21.8622C21.5759 21.4174 21.9496 20.7981 22.0895 20.1094H23.5723C23.9494 20.1094 24.311 19.9596 24.5777 19.6929C24.8443 19.4263 24.9941 19.0646 24.9941 18.6875V12.1875ZM22.2113 8.73437C22.2525 8.73641 22.2924 8.74983 22.3265 8.77313C22.3605 8.79644 22.3875 8.82872 22.4043 8.86641L23.4809 11.5781H18.4941V8.73437H22.2113ZM2.44727 7.10937H17.2754V14.0156H2.24414V7.3125C2.24414 7.25863 2.26554 7.20696 2.30363 7.16887C2.34173 7.13078 2.39339 7.10937 2.44727 7.10937ZM2.24414 18.6875V15.2344H17.2754V17.0625C16.6809 17.5116 16.2695 18.1612 16.1176 18.8906H9.90195C9.76209 18.2019 9.38841 17.5826 8.84424 17.1378C8.30006 16.693 7.61884 16.4501 6.91602 16.4501C6.21319 16.4501 5.53197 16.693 4.9878 17.1378C4.44362 17.5826 4.06994 18.2019 3.93008 18.8906H2.44727C2.39339 18.8906 2.34173 18.8692 2.30363 18.8311C2.26554 18.793 2.24414 18.7414 2.24414 18.6875ZM6.91602 21.3281C6.55445 21.3281 6.201 21.2209 5.90036 21.02C5.59973 20.8192 5.36542 20.5336 5.22705 20.1996C5.08868 19.8655 5.05248 19.498 5.12302 19.1433C5.19356 18.7887 5.36767 18.463 5.62334 18.2073C5.879 17.9517 6.20474 17.7775 6.55937 17.707C6.91399 17.6365 7.28156 17.6727 7.61561 17.811C7.94966 17.9494 8.23517 18.1837 8.43605 18.4843C8.63692 18.785 8.74414 19.1384 8.74414 19.5C8.74147 19.984 8.54801 20.4475 8.20575 20.7897C7.86348 21.132 7.40004 21.3255 6.91602 21.3281ZM19.1035 21.3281C18.7419 21.3281 18.3885 21.2209 18.0879 21.02C17.7872 20.8192 17.5529 20.5336 17.4145 20.1996C17.2762 19.8655 17.24 19.498 17.3105 19.1433C17.3811 18.7887 17.5552 18.463 17.8108 18.2073C18.0665 17.9517 18.3922 17.7775 18.7469 17.707C19.1015 17.6365 19.4691 17.6727 19.8031 17.811C20.1372 17.9494 20.4227 18.1837 20.6235 18.4843C20.8244 18.785 20.9316 19.1384 20.9316 19.5C20.929 19.984 20.7355 20.4475 20.3932 20.7897C20.051 21.132 19.5875 21.3255 19.1035 21.3281ZM23.7754 18.6875C23.7754 18.7414 23.754 18.793 23.7159 18.8311C23.6778 18.8692 23.6261 18.8906 23.5723 18.8906H22.0895C21.949 18.2024 21.575 17.5839 21.0309 17.1397C20.4868 16.6955 19.8059 16.453 19.1035 16.4531C18.8989 16.4533 18.6948 16.4737 18.4941 16.5141V12.7969H23.7754V18.6875Z" fill="#F0E5A5"/>
</svg>
