<svg width="311" height="64" viewBox="0 0 311 64" fill="none" xmlns="http://www.w3.org/2000/svg">
<path d="M15.5334 58.6667L19.8667 39.9333L5.33337 27.3333L24.5334 25.6667L32 8L39.4667 25.6667L58.6667 27.3333L44.1334 39.9333L48.4667 58.6667L32 48.7333L15.5334 58.6667Z" fill="#ECDE8E"/>
<path d="M78.2 58.6667L82.5333 39.9333L68 27.3333L87.2 25.6667L94.6667 8L102.133 25.6667L121.333 27.3333L106.8 39.9333L111.133 58.6667L94.6667 48.7333L78.2 58.6667Z" fill="#ECDE8E"/>
<path d="M141.2 58.6667L145.533 39.9333L131 27.3333L150.2 25.6667L157.667 8L165.133 25.6667L184.333 27.3333L169.8 39.9333L174.133 58.6667L157.667 48.7333L141.2 58.6667Z" fill="#ECDE8E"/>
<path d="M204.2 58.6667L208.533 39.9333L194 27.3333L213.2 25.6667L220.667 8L228.133 25.6667L247.333 27.3333L232.8 39.9333L237.133 58.6667L220.667 48.7333L204.2 58.6667Z" fill="#ECDE8E"/>
<path d="M267.2 58.6667L271.533 39.9333L257 27.3333L276.2 25.6667L283.667 8L291.133 25.6667L310.333 27.3333L295.8 39.9333L300.133 58.6667L283.667 48.7333L267.2 58.6667Z" fill="#ECDE8E"/>
</svg>
