<svg width="34" height="34" viewBox="0 0 34 34" fill="none" xmlns="http://www.w3.org/2000/svg">
<path d="M16.9859 2.83334C9.16587 2.83334 2.83337 9.18001 2.83337 17C2.83337 24.82 9.16587 31.1667 16.9859 31.1667C24.82 31.1667 31.1667 24.82 31.1667 17C31.1667 9.18001 24.82 2.83334 16.9859 2.83334ZM17 28.3333C10.7384 28.3333 5.66671 23.2617 5.66671 17C5.66671 10.7383 10.7384 5.66668 17 5.66668C23.2617 5.66668 28.3334 10.7383 28.3334 17C28.3334 23.2617 23.2617 28.3333 17 28.3333Z" fill="#413C1C"/>
<path d="M17.7084 9.91666H15.5834V18.4167L23.0209 22.8792L24.0834 21.1367L17.7084 17.3542V9.91666Z" fill="#413C1C"/>
</svg>
