<svg width="30" height="30" viewBox="0 0 30 30" fill="none" xmlns="http://www.w3.org/2000/svg">
<path d="M23.9297 22.9453C23.9943 23.01 24.0456 23.0867 24.0806 23.1711C24.1156 23.2556 24.1336 23.3461 24.1336 23.4375C24.1336 23.5289 24.1156 23.6194 24.0806 23.7039C24.0456 23.7883 23.9943 23.8651 23.9297 23.9297C23.8651 23.9943 23.7883 24.0456 23.7039 24.0806C23.6194 24.1156 23.5289 24.1336 23.4375 24.1336C23.3461 24.1336 23.2556 24.1156 23.1711 24.0806C23.0867 24.0456 23.0099 23.9943 22.9453 23.9297L15 15.9961L7.05469 23.9297C6.92415 24.0602 6.7471 24.1336 6.5625 24.1336C6.37789 24.1336 6.20085 24.0602 6.07031 23.9297C5.93977 23.7992 5.86644 23.6221 5.86644 23.4375C5.86644 23.2529 5.93977 23.0759 6.07031 22.9453L14.0039 15L6.07031 7.0547C5.93977 6.92416 5.86644 6.74712 5.86644 6.56251C5.86644 6.37791 5.93977 6.20086 6.07031 6.07033C6.20085 5.93979 6.37789 5.86646 6.5625 5.86646C6.7471 5.86646 6.92415 5.93979 7.05469 6.07033L15 14.0039L22.9453 6.07033C23.0758 5.93979 23.2529 5.86646 23.4375 5.86646C23.6221 5.86646 23.7991 5.93979 23.9297 6.07033C24.0602 6.20086 24.1336 6.37791 24.1336 6.56251C24.1336 6.74712 24.0602 6.92416 23.9297 7.0547L15.9961 15L23.9297 22.9453Z" fill="#413C1C"/>
</svg>
