<svg width="889" height="844" viewBox="0 0 889 844" fill="none" xmlns="http://www.w3.org/2000/svg">
<g clip-path="url(#clip0_194_7848)">
<rect width="889" height="844" fill="#F3EFE0"/>
<path d="M71.8704 700.484C100.385 690.63 119.623 658.49 125.194 628C129.894 643.709 136.832 658.614 145.881 672.323C154.806 685.868 167.107 693.949 183.446 699.948C189.202 721.904 180.008 746.972 161.391 760.043C142.754 773.113 115.958 773.34 97.1136 760.558C78.2692 747.776 68.6607 722.873 71.8912 700.484H71.8704Z" fill="#934E3F" fill-opacity="0.05"/>
<path d="M212.685 700.484C241.2 690.63 260.438 658.49 266.009 628C270.709 643.709 277.647 658.614 286.696 672.323C295.621 685.868 307.922 693.949 324.26 699.948C330.017 721.904 320.823 746.972 302.206 760.043C283.569 773.113 256.773 773.34 237.929 760.558C219.084 747.776 209.476 722.873 212.706 700.484H212.685Z" fill="#934E3F" fill-opacity="0.05"/>
<path d="M353.5 700.484C382.015 690.63 401.253 658.49 406.824 628C411.524 643.709 418.462 658.614 427.511 672.323C436.436 685.868 448.737 693.949 465.075 699.948C470.832 721.904 461.638 746.972 443.021 760.043C424.384 773.113 397.588 773.34 378.743 760.558C359.899 747.776 350.291 722.873 353.521 700.484H353.5Z" fill="#934E3F" fill-opacity="0.05"/>
<path d="M494.315 700.484C522.83 690.63 542.068 658.49 547.638 628C552.339 643.709 559.276 658.614 568.326 672.323C577.251 685.868 589.552 693.949 605.89 699.948C611.647 721.904 602.453 746.972 583.836 760.043C565.199 773.113 538.403 773.34 519.558 760.558C500.714 747.776 491.105 722.873 494.336 700.484H494.315Z" fill="#934E3F" fill-opacity="0.05"/>
<path d="M635.13 700.484C663.645 690.63 682.883 658.49 688.453 628C693.154 643.709 700.091 658.614 709.141 672.323C718.066 685.868 730.366 693.949 746.705 699.948C752.462 721.904 743.268 746.972 724.651 760.043C706.014 773.113 679.217 773.34 660.373 760.558C641.529 747.776 631.92 722.873 635.151 700.484H635.13Z" fill="#934E3F" fill-opacity="0.05"/>
<path d="M7.75935 792.484C36.2744 782.63 55.5122 750.49 61.0826 720C65.7834 735.709 72.7206 750.614 81.77 764.323C90.6952 777.868 102.996 785.949 119.334 791.948C125.091 813.904 115.897 838.972 97.2804 852.043C78.6431 865.113 51.8468 865.34 33.0025 852.558C14.1581 839.776 4.54962 814.873 7.78008 792.484H7.75935Z" fill="#934E3F" fill-opacity="0.05"/>
<path d="M148.574 792.484C177.089 782.63 196.327 750.49 201.898 720C206.598 735.709 213.536 750.614 222.585 764.323C231.51 777.868 243.811 785.949 260.149 791.948C265.906 813.904 256.712 838.972 238.095 852.043C219.458 865.113 192.662 865.34 173.817 852.558C154.973 839.776 145.365 814.873 148.595 792.484H148.574Z" fill="#934E3F" fill-opacity="0.05"/>
<path d="M289.389 792.484C317.904 782.63 337.142 750.49 342.713 720C347.413 735.709 354.351 750.614 363.4 764.323C372.325 777.868 384.626 785.949 400.964 791.948C406.721 813.904 397.527 838.972 378.91 852.043C360.273 865.113 333.477 865.34 314.632 852.558C295.788 839.776 286.18 814.873 289.41 792.484H289.389Z" fill="#934E3F" fill-opacity="0.05"/>
<path d="M430.204 792.484C458.719 782.63 477.957 750.49 483.527 720C488.228 735.709 495.165 750.614 504.215 764.323C513.14 777.868 525.44 785.949 541.779 791.948C547.536 813.904 538.342 838.972 519.725 852.043C501.088 865.113 474.291 865.34 455.447 852.558C436.603 839.776 426.994 814.873 430.225 792.484H430.204Z" fill="#934E3F" fill-opacity="0.05"/>
<path d="M571.019 792.484C599.534 782.63 618.772 750.49 624.342 720C629.043 735.709 635.98 750.614 645.03 764.323C653.955 777.868 666.255 785.949 682.594 791.948C688.351 813.904 679.156 838.972 660.54 852.043C641.903 865.113 615.106 865.34 596.262 852.558C577.418 839.776 567.809 814.873 571.04 792.484H571.019Z" fill="#934E3F" fill-opacity="0.05"/>
<path d="M711.98 792.484C740.495 782.63 759.733 750.49 765.303 720C770.004 735.709 776.941 750.614 785.991 764.323C794.916 777.868 807.216 785.949 823.555 791.948C829.312 813.904 820.118 838.972 801.501 852.043C782.864 865.113 756.067 865.34 737.223 852.558C718.379 839.776 708.77 814.873 712.001 792.484H711.98Z" fill="#934E3F" fill-opacity="0.05"/>
<path d="M852.795 792.484C881.31 782.63 900.548 750.49 906.118 720C910.819 735.709 917.756 750.614 926.805 764.323C935.731 777.868 948.031 785.949 964.37 791.948C970.127 813.904 960.932 838.972 942.316 852.043C923.679 865.113 896.882 865.34 878.038 852.558C859.194 839.776 849.585 814.873 852.815 792.484H852.795Z" fill="#934E3F" fill-opacity="0.05"/>
<path d="M786.108 701.484C814.623 691.63 833.861 659.49 839.432 629C844.132 644.709 851.07 659.614 860.119 673.323C869.044 686.868 881.345 694.949 897.684 700.948C903.44 722.904 894.246 747.972 875.629 761.043C856.992 774.113 830.196 774.34 811.352 761.558C792.507 748.776 782.899 723.873 786.129 701.484H786.108Z" fill="#934E3F" fill-opacity="0.05"/>
<path d="M711.98 614.484C740.495 604.63 759.733 572.49 765.303 542C770.004 557.709 776.941 572.614 785.991 586.323C794.916 599.868 807.216 607.949 823.555 613.948C829.312 635.904 820.118 660.972 801.501 674.043C782.864 687.113 756.067 687.34 737.223 674.558C718.379 661.776 708.77 636.873 712.001 614.484H711.98Z" fill="#934E3F" fill-opacity="0.05"/>
<path d="M852.795 614.484C881.31 604.63 900.548 572.49 906.118 542C910.819 557.709 917.756 572.614 926.805 586.323C935.731 599.868 948.031 607.949 964.37 613.948C970.127 635.904 960.932 660.972 942.316 674.043C923.679 687.113 896.882 687.34 878.038 674.558C859.194 661.776 849.585 636.873 852.815 614.484H852.795Z" fill="#934E3F" fill-opacity="0.05"/>
<path d="M70.8687 337.484C99.3837 327.63 118.622 295.49 124.192 265C128.893 280.709 135.83 295.614 144.879 309.323C153.805 322.868 166.105 330.949 182.444 336.948C188.201 358.904 179.006 383.972 160.39 397.043C141.752 410.113 114.956 410.34 96.1119 397.558C77.2675 384.776 67.659 359.873 70.8895 337.484H70.8687Z" fill="#934E3F" fill-opacity="0.05"/>
<path d="M211.684 337.484C240.199 327.63 259.436 295.49 265.007 265C269.708 280.709 276.645 295.614 285.694 309.323C294.62 322.868 306.92 330.949 323.259 336.948C329.016 358.904 319.821 383.972 301.205 397.043C282.567 410.113 255.771 410.34 236.927 397.558C218.082 384.776 208.474 359.873 211.704 337.484H211.684Z" fill="#934E3F" fill-opacity="0.05"/>
<path d="M352.499 337.484C381.014 327.63 400.251 295.49 405.822 265C410.523 280.709 417.46 295.614 426.509 309.323C435.434 322.868 447.735 330.949 464.074 336.948C469.831 358.904 460.636 383.972 442.02 397.043C423.382 410.113 396.586 410.34 377.742 397.558C358.897 384.776 349.289 359.873 352.519 337.484H352.499Z" fill="#934E3F" fill-opacity="0.05"/>
<path d="M493.313 337.484C521.828 327.63 541.066 295.49 546.637 265C551.337 280.709 558.275 295.614 567.324 309.323C576.249 322.868 588.55 330.949 604.888 336.948C610.645 358.904 601.451 383.972 582.834 397.043C564.197 410.113 537.401 410.34 518.556 397.558C499.712 384.776 490.104 359.873 493.334 337.484H493.313Z" fill="#934E3F" fill-opacity="0.05"/>
<path d="M634.128 337.484C662.643 327.63 681.881 295.49 687.452 265C692.152 280.709 699.09 295.614 708.139 309.323C717.064 322.868 729.365 330.949 745.703 336.948C751.46 358.904 742.266 383.972 723.649 397.043C705.012 410.113 678.216 410.34 659.371 397.558C640.527 384.776 630.919 359.873 634.149 337.484H634.128Z" fill="#934E3F" fill-opacity="0.05"/>
<path d="M-3.25969 250.484C25.2553 240.63 44.4931 208.49 50.0636 178C54.7643 193.709 61.7016 208.614 70.751 222.323C79.6762 235.868 91.9768 243.949 108.315 249.948C114.072 271.904 104.878 296.972 86.2613 310.043C67.6241 323.113 40.8278 323.34 21.9835 310.558C3.1391 297.776 -6.46943 272.873 -3.23897 250.484H-3.25969Z" fill="#934E3F" fill-opacity="0.05"/>
<path d="M137.555 250.484C166.07 240.63 185.308 208.49 190.879 178C195.579 193.709 202.517 208.614 211.566 222.323C220.491 235.868 232.792 243.949 249.13 249.948C254.887 271.904 245.693 296.972 227.076 310.043C208.439 323.113 181.643 323.34 162.798 310.558C143.954 297.776 134.346 272.873 137.576 250.484H137.555Z" fill="#934E3F" fill-opacity="0.05"/>
<path d="M278.37 250.484C306.885 240.63 326.123 208.49 331.693 178C336.394 193.709 343.331 208.614 352.381 222.323C361.306 235.868 373.606 243.949 389.945 249.948C395.702 271.904 386.508 296.972 367.891 310.043C349.254 323.113 322.457 323.34 303.613 310.558C284.769 297.776 275.16 272.873 278.391 250.484H278.37Z" fill="#934E3F" fill-opacity="0.05"/>
<path d="M419.185 250.484C447.7 240.63 466.938 208.49 472.508 178C477.209 193.709 484.146 208.614 493.196 222.323C502.121 235.868 514.421 243.949 530.76 249.948C536.517 271.904 527.322 296.972 508.706 310.043C490.069 323.113 463.272 323.34 444.428 310.558C425.584 297.776 415.975 272.873 419.206 250.484H419.185Z" fill="#934E3F" fill-opacity="0.05"/>
<path d="M560 250.484C588.515 240.63 607.753 208.49 613.323 178C618.024 193.709 624.961 208.614 634.01 222.323C642.936 235.868 655.236 243.949 671.575 249.948C677.332 271.904 668.137 296.972 649.521 310.043C630.883 323.113 604.087 323.34 585.243 310.558C566.399 297.776 556.79 272.873 560.02 250.484H560Z" fill="#934E3F" fill-opacity="0.05"/>
<path d="M70.8687 159.484C99.3837 149.63 118.622 117.49 124.192 87C128.893 102.709 135.83 117.614 144.879 131.323C153.805 144.868 166.105 152.949 182.444 158.948C188.201 180.904 179.006 205.972 160.39 219.043C141.752 232.113 114.956 232.34 96.1119 219.558C77.2675 206.776 67.659 181.873 70.8895 159.484H70.8687Z" fill="#934E3F" fill-opacity="0.05"/>
<path d="M211.684 159.484C240.199 149.63 259.436 117.49 265.007 87C269.708 102.709 276.645 117.614 285.694 131.323C294.62 144.868 306.92 152.949 323.259 158.948C329.016 180.904 319.821 205.972 301.205 219.043C282.567 232.113 255.771 232.34 236.927 219.558C218.082 206.776 208.474 181.873 211.704 159.484H211.684Z" fill="#934E3F" fill-opacity="0.05"/>
<path d="M352.499 159.484C381.014 149.63 400.251 117.49 405.822 87C410.523 102.709 417.46 117.614 426.509 131.323C435.434 144.868 447.735 152.949 464.074 158.948C469.831 180.904 460.636 205.972 442.02 219.043C423.382 232.113 396.586 232.34 377.742 219.558C358.897 206.776 349.289 181.873 352.519 159.484H352.499Z" fill="#934E3F" fill-opacity="0.05"/>
<path d="M493.313 159.484C521.828 149.63 541.066 117.49 546.637 87C551.337 102.709 558.275 117.614 567.324 131.323C576.249 144.868 588.55 152.949 604.888 158.948C610.645 180.904 601.451 205.972 582.834 219.043C564.197 232.113 537.401 232.34 518.556 219.558C499.712 206.776 490.104 181.873 493.334 159.484H493.313Z" fill="#934E3F" fill-opacity="0.05"/>
<path d="M634.128 159.484C662.643 149.63 681.881 117.49 687.452 87C692.152 102.709 699.09 117.614 708.139 131.323C717.064 144.868 729.365 152.949 745.703 158.948C751.46 180.904 742.266 205.972 723.649 219.043C705.012 232.113 678.216 232.34 659.371 219.558C640.527 206.776 630.919 181.873 634.149 159.484H634.128Z" fill="#934E3F" fill-opacity="0.05"/>
<path d="M-3.25969 75.4843C25.2553 65.6301 44.4931 33.4904 50.0636 3C54.7643 18.7091 61.7016 33.6141 70.751 47.3235C79.6762 60.8679 91.9768 68.9492 108.315 74.9483C114.072 96.9039 104.878 121.972 86.2613 135.043C67.6241 148.113 40.8278 148.34 21.9835 135.558C3.1391 122.776 -6.46943 97.8728 -3.23897 75.4843H-3.25969Z" fill="#934E3F" fill-opacity="0.05"/>
<path d="M-82.3969 159.484C-53.8819 149.63 -34.6441 117.49 -29.0736 87C-24.3729 102.709 -17.4356 117.614 -8.3862 131.323C0.53898 144.868 12.8395 152.949 29.1782 158.948C34.9351 180.904 25.7407 205.972 7.12413 219.043C-11.5131 232.113 -38.3094 232.34 -57.1538 219.558C-75.9981 206.776 -85.6066 181.873 -82.3762 159.484H-82.3969Z" fill="#934E3F" fill-opacity="0.05"/>
<path d="M-77.3881 337.484C-48.8731 327.63 -29.6353 295.49 -24.0648 265C-19.3641 280.709 -12.4268 295.614 -3.37741 309.323C5.54777 322.868 17.8483 330.949 34.187 336.948C39.9438 358.904 30.7495 383.972 12.1329 397.043C-6.50435 410.113 -33.3006 410.34 -52.145 397.558C-70.9893 384.776 -80.5978 359.873 -77.3674 337.484H-77.3881Z" fill="#934E3F" fill-opacity="0.05"/>
<path d="M-69.3742 705.484C-40.8592 695.63 -21.6214 663.49 -16.0509 633C-11.3502 648.709 -4.41292 663.614 4.6365 677.323C13.5617 690.868 25.8622 698.949 42.2009 704.948C47.9578 726.904 38.7634 751.972 20.1468 765.043C1.50957 778.113 -25.2867 778.34 -44.131 765.558C-62.9754 752.776 -72.5839 727.873 -69.3535 705.484H-69.3742Z" fill="#934E3F" fill-opacity="0.05"/>
<path d="M-77.3881 521.484C-48.8731 511.63 -29.6353 479.49 -24.0648 449C-19.3641 464.709 -12.4268 479.614 -3.37741 493.323C5.54777 506.868 17.8483 514.949 34.187 520.948C39.9438 542.904 30.7495 567.972 12.1329 581.043C-6.50435 594.113 -33.3006 594.34 -52.145 581.558C-70.9893 568.776 -80.5978 543.873 -77.3674 521.484H-77.3881Z" fill="#934E3F" fill-opacity="0.05"/>
<path d="M-86.4037 -18.5157C-57.8887 -28.3699 -38.6509 -60.5096 -33.0804 -91C-28.3797 -75.2909 -21.4425 -60.3859 -12.393 -46.6765C-3.46786 -33.1321 8.83271 -25.0508 25.1714 -19.0517C30.9282 2.90389 21.7339 27.9724 3.11729 41.0427C-15.52 54.113 -42.3162 54.3397 -61.1606 41.5581C-80.0049 28.7764 -89.6135 3.87282 -86.383 -18.5157H-86.4037Z" fill="#934E3F" fill-opacity="0.05"/>
<path d="M64.8585 -18.5157C93.3735 -28.3699 112.611 -60.5096 118.182 -91C122.882 -75.2909 129.82 -60.3859 138.869 -46.6765C147.794 -33.1321 160.095 -25.0508 176.434 -19.0517C182.19 2.90389 172.996 27.9724 154.379 41.0427C135.742 54.113 108.946 54.3397 90.1016 41.5581C71.2573 28.7764 61.6487 3.87282 64.8792 -18.5157H64.8585Z" fill="#934E3F" fill-opacity="0.05"/>
<path d="M346.346 -18.5157C374.861 -28.3699 394.099 -60.5096 399.67 -91C404.37 -75.2909 411.308 -60.3859 420.357 -46.6765C429.282 -33.1321 441.583 -25.0508 457.921 -19.0517C463.678 2.90389 454.484 27.9724 435.867 41.0427C417.23 54.113 390.434 54.3397 371.589 41.5581C352.745 28.7764 343.137 3.87282 346.367 -18.5157H346.346Z" fill="#934E3F" fill-opacity="0.05"/>
<path d="M484.586 -18.5157C513.101 -28.3699 532.339 -60.5096 537.909 -91C542.61 -75.2909 549.547 -60.3859 558.597 -46.6765C567.522 -33.1321 579.822 -25.0508 596.161 -19.0517C601.918 2.90389 592.723 27.9724 574.107 41.0427C555.47 54.113 528.673 54.3397 509.829 41.5581C490.985 28.7764 481.376 3.87282 484.607 -18.5157H484.586Z" fill="#934E3F" fill-opacity="0.05"/>
<path d="M634.846 -18.5157C663.361 -28.3699 682.599 -60.5096 688.17 -91C692.87 -75.2909 699.808 -60.3859 708.857 -46.6765C717.782 -33.1321 730.083 -25.0508 746.421 -19.0517C752.178 2.90389 742.984 27.9724 724.367 41.0427C705.73 54.113 678.934 54.3397 660.089 41.5581C641.245 28.7764 631.637 3.87282 634.867 -18.5157H634.846Z" fill="#934E3F" fill-opacity="0.05"/>
<path d="M786.108 -18.5157C814.623 -28.3699 833.861 -60.5096 839.432 -91C844.132 -75.2909 851.07 -60.3859 860.119 -46.6765C869.044 -33.1321 881.345 -25.0508 897.684 -19.0517C903.44 2.90389 894.246 27.9724 875.629 41.0427C856.992 54.113 830.196 54.3397 811.352 41.5581C792.507 28.7764 782.899 3.87282 786.129 -18.5157H786.108Z" fill="#934E3F" fill-opacity="0.05"/>
<path d="M208.107 -18.5157C236.622 -28.3699 255.86 -60.5096 261.43 -91C266.131 -75.2909 273.068 -60.3859 282.117 -46.6765C291.043 -33.1321 303.343 -25.0508 319.682 -19.0517C325.439 2.90389 316.244 27.9724 297.628 41.0427C278.991 54.113 252.194 54.3397 233.35 41.5581C214.506 28.7764 204.897 3.87282 208.127 -18.5157H208.107Z" fill="#934E3F" fill-opacity="0.05"/>
<path d="M137.555 72.4843C166.07 62.6301 185.308 30.4904 190.879 0C195.579 15.7091 202.517 30.6141 211.566 44.3235C220.491 57.8679 232.792 65.9492 249.13 71.9483C254.887 93.9039 245.693 118.972 227.076 132.043C208.439 145.113 181.643 145.34 162.798 132.558C143.954 119.776 134.346 94.8728 137.576 72.4843H137.555Z" fill="#934E3F" fill-opacity="0.05"/>
<path d="M278.37 72.4843C306.885 62.6301 326.123 30.4904 331.693 0C336.394 15.7091 343.331 30.6141 352.381 44.3235C361.306 57.8679 373.606 65.9492 389.945 71.9483C395.702 93.9039 386.508 118.972 367.891 132.043C349.254 145.113 322.457 145.34 303.613 132.558C284.769 119.776 275.16 94.8728 278.391 72.4843H278.37Z" fill="#934E3F" fill-opacity="0.05"/>
<path d="M419.185 72.4843C447.7 62.6301 466.938 30.4904 472.508 0C477.209 15.7091 484.146 30.6141 493.196 44.3235C502.121 57.8679 514.421 65.9492 530.76 71.9483C536.517 93.9039 527.322 118.972 508.706 132.043C490.069 145.113 463.272 145.34 444.428 132.558C425.584 119.776 415.975 94.8728 419.206 72.4843H419.185Z" fill="#934E3F" fill-opacity="0.05"/>
<path d="M560 72.4843C588.515 62.6301 607.753 30.4904 613.323 0C618.024 15.7091 624.961 30.6141 634.01 44.3235C642.936 57.8679 655.236 65.9492 671.575 71.9483C677.332 93.9039 668.137 118.972 649.521 132.043C630.883 145.113 604.087 145.34 585.243 132.558C566.399 119.776 556.79 94.8728 560.02 72.4843H560Z" fill="#934E3F" fill-opacity="0.05"/>
<path d="M712.982 250.484C741.497 240.63 760.735 208.49 766.305 178C771.006 193.709 777.943 208.614 786.992 222.323C795.918 235.868 808.218 243.949 824.557 249.948C830.314 271.904 821.119 296.972 802.503 310.043C783.866 323.113 757.069 323.34 738.225 310.558C719.381 297.776 709.772 272.873 713.002 250.484H712.982Z" fill="#934E3F" fill-opacity="0.05"/>
<path d="M853.796 250.484C882.311 240.63 901.549 208.49 907.12 178C911.82 193.709 918.758 208.614 927.807 222.323C936.732 235.868 949.033 243.949 965.372 249.948C971.128 271.904 961.934 296.972 943.317 310.043C924.68 323.113 897.884 323.34 879.04 310.558C860.195 297.776 850.587 272.873 853.817 250.484H853.796Z" fill="#934E3F" fill-opacity="0.05"/>
<path d="M787.11 159.484C815.625 149.63 834.863 117.49 840.433 87C845.134 102.709 852.071 117.614 861.121 131.323C870.046 144.868 882.347 152.949 898.685 158.948C904.442 180.904 895.248 205.972 876.631 219.043C857.994 232.113 831.198 232.34 812.353 219.558C793.509 206.776 783.9 181.873 787.131 159.484H787.11Z" fill="#934E3F" fill-opacity="0.05"/>
<path d="M712.982 72.4843C741.497 62.6301 760.735 30.4904 766.305 0C771.006 15.7091 777.943 30.6141 786.992 44.3235C795.918 57.8679 808.218 65.9492 824.557 71.9483C830.314 93.9039 821.119 118.972 802.503 132.043C783.866 145.113 757.069 145.34 738.225 132.558C719.381 119.776 709.772 94.8728 713.002 72.4843H712.982Z" fill="#934E3F" fill-opacity="0.05"/>
<path d="M853.796 72.4843C882.311 62.6301 901.549 30.4904 907.12 0C911.82 15.7091 918.758 30.6141 927.807 44.3235C936.732 57.8679 949.033 65.9492 965.372 71.9483C971.128 93.9039 961.934 118.972 943.317 132.043C924.68 145.113 897.884 145.34 879.04 132.558C860.195 119.776 850.587 94.8728 853.817 72.4843H853.796Z" fill="#934E3F" fill-opacity="0.05"/>
<path d="M787.11 533.484C815.625 523.63 834.863 491.49 840.433 461C845.134 476.709 852.071 491.614 861.121 505.323C870.046 518.868 882.347 526.949 898.685 532.948C904.442 554.904 895.248 579.972 876.631 593.043C857.994 606.113 831.198 606.34 812.353 593.558C793.509 580.776 783.9 555.873 787.131 533.484H787.11Z" fill="#934E3F" fill-opacity="0.05"/>
<path d="M861.239 442.484C889.754 432.63 908.991 400.49 914.562 370C919.263 385.709 926.2 400.614 935.249 414.323C944.174 427.868 956.475 435.949 972.814 441.948C978.571 463.904 969.376 488.972 950.76 502.043C932.122 515.113 905.326 515.34 886.482 502.558C867.637 489.776 858.029 464.873 861.259 442.484H861.239Z" fill="#934E3F" fill-opacity="0.05"/>
<path d="M787.11 355.484C815.625 345.63 834.863 313.49 840.433 283C845.134 298.709 852.071 313.614 861.121 327.323C870.046 340.868 882.347 348.949 898.685 354.948C904.442 376.904 895.248 401.972 876.631 415.043C857.994 428.113 831.198 428.34 812.353 415.558C793.509 402.776 783.9 377.873 787.131 355.484H787.11Z" fill="#934E3F" fill-opacity="0.05"/>
<path d="M712.982 442.484C741.497 432.63 760.735 400.49 766.305 370C771.006 385.709 777.943 400.614 786.992 414.323C795.918 427.868 808.218 435.949 824.557 441.948C830.314 463.904 821.119 488.972 802.503 502.043C783.866 515.113 757.069 515.34 738.225 502.558C719.381 489.776 709.772 464.873 713.002 442.484H712.982Z" fill="#934E3F" fill-opacity="0.05"/>
<path d="M-3.25969 606.484C25.2553 596.63 44.4931 564.49 50.0636 534C54.7643 549.709 61.7016 564.614 70.751 578.323C79.6762 591.868 91.9768 599.949 108.315 605.948C114.072 627.904 104.878 652.972 86.2613 666.043C67.6241 679.113 40.8278 679.34 21.9835 666.558C3.1391 653.776 -6.46943 628.873 -3.23897 606.484H-3.25969Z" fill="#934E3F" fill-opacity="0.05"/>
<path d="M137.555 606.484C166.07 596.63 185.308 564.49 190.879 534C195.579 549.709 202.517 564.614 211.566 578.323C220.491 591.868 232.792 599.949 249.13 605.948C254.887 627.904 245.693 652.972 227.076 666.043C208.439 679.113 181.643 679.34 162.798 666.558C143.954 653.776 134.346 628.873 137.576 606.484H137.555Z" fill="#934E3F" fill-opacity="0.05"/>
<path d="M278.37 606.484C306.885 596.63 326.123 564.49 331.693 534C336.394 549.709 343.331 564.614 352.381 578.323C361.306 591.868 373.606 599.949 389.945 605.948C395.702 627.904 386.508 652.972 367.891 666.043C349.254 679.113 322.457 679.34 303.613 666.558C284.769 653.776 275.16 628.873 278.391 606.484H278.37Z" fill="#934E3F" fill-opacity="0.05"/>
<path d="M419.185 606.484C447.7 596.63 466.938 564.49 472.508 534C477.209 549.709 484.146 564.614 493.196 578.323C502.121 591.868 514.421 599.949 530.76 605.948C536.517 627.904 527.322 652.972 508.706 666.043C490.069 679.113 463.272 679.34 444.428 666.558C425.584 653.776 415.975 628.873 419.206 606.484H419.185Z" fill="#934E3F" fill-opacity="0.05"/>
<path d="M560 606.484C588.515 596.63 607.753 564.49 613.323 534C618.024 549.709 624.961 564.614 634.01 578.323C642.936 591.868 655.236 599.949 671.575 605.948C677.332 627.904 668.137 652.972 649.521 666.043C630.883 679.113 604.087 679.34 585.243 666.558C566.399 653.776 556.79 628.873 560.02 606.484H560Z" fill="#934E3F" fill-opacity="0.05"/>
<path d="M70.8687 515.484C99.3837 505.63 118.622 473.49 124.192 443C128.893 458.709 135.83 473.614 144.879 487.323C153.805 500.868 166.105 508.949 182.444 514.948C188.201 536.904 179.006 561.972 160.39 575.043C141.752 588.113 114.956 588.34 96.1119 575.558C77.2675 562.776 67.659 537.873 70.8895 515.484H70.8687Z" fill="#934E3F" fill-opacity="0.05"/>
<path d="M211.684 515.484C240.199 505.63 259.436 473.49 265.007 443C269.708 458.709 276.645 473.614 285.694 487.323C294.62 500.868 306.92 508.949 323.259 514.948C329.016 536.904 319.821 561.972 301.205 575.043C282.567 588.113 255.771 588.34 236.927 575.558C218.082 562.776 208.474 537.873 211.704 515.484H211.684Z" fill="#934E3F" fill-opacity="0.05"/>
<path d="M352.499 515.484C381.014 505.63 400.251 473.49 405.822 443C410.523 458.709 417.46 473.614 426.509 487.323C435.434 500.868 447.735 508.949 464.074 514.948C469.831 536.904 460.636 561.972 442.02 575.043C423.382 588.113 396.586 588.34 377.742 575.558C358.897 562.776 349.289 537.873 352.519 515.484H352.499Z" fill="#934E3F" fill-opacity="0.05"/>
<path d="M493.313 515.484C521.828 505.63 541.066 473.49 546.637 443C551.337 458.709 558.275 473.614 567.324 487.323C576.249 500.868 588.55 508.949 604.888 514.948C610.645 536.904 601.451 561.972 582.834 575.043C564.197 588.113 537.401 588.34 518.556 575.558C499.712 562.776 490.104 537.873 493.334 515.484H493.313Z" fill="#934E3F" fill-opacity="0.05"/>
<path d="M634.128 515.484C662.643 505.63 681.881 473.49 687.452 443C692.152 458.709 699.09 473.614 708.139 487.323C717.064 500.868 729.365 508.949 745.703 514.948C751.46 536.904 742.266 561.972 723.649 575.043C705.012 588.113 678.216 588.34 659.371 575.558C640.527 562.776 630.919 537.873 634.149 515.484H634.128Z" fill="#934E3F" fill-opacity="0.05"/>
<path d="M-3.25969 428.484C25.2553 418.63 44.4931 386.49 50.0636 356C54.7643 371.709 61.7016 386.614 70.751 400.323C79.6762 413.868 91.9768 421.949 108.315 427.948C114.072 449.904 104.878 474.972 86.2613 488.043C67.6241 501.113 40.8278 501.34 21.9835 488.558C3.1391 475.776 -6.46943 450.873 -3.23897 428.484H-3.25969Z" fill="#934E3F" fill-opacity="0.05"/>
<path d="M137.555 428.484C166.07 418.63 185.308 386.49 190.879 356C195.579 371.709 202.517 386.614 211.566 400.323C220.491 413.868 232.792 421.949 249.13 427.948C254.887 449.904 245.693 474.972 227.076 488.043C208.439 501.113 181.643 501.34 162.798 488.558C143.954 475.776 134.346 450.873 137.576 428.484H137.555Z" fill="#934E3F" fill-opacity="0.05"/>
<path d="M278.37 428.484C306.885 418.63 326.123 386.49 331.693 356C336.394 371.709 343.331 386.614 352.381 400.323C361.306 413.868 373.606 421.949 389.945 427.948C395.702 449.904 386.508 474.972 367.891 488.043C349.254 501.113 322.457 501.34 303.613 488.558C284.769 475.776 275.16 450.873 278.391 428.484H278.37Z" fill="#934E3F" fill-opacity="0.05"/>
<path d="M419.185 428.484C447.7 418.63 466.938 386.49 472.508 356C477.209 371.709 484.146 386.614 493.196 400.323C502.121 413.868 514.421 421.949 530.76 427.948C536.517 449.904 527.322 474.972 508.706 488.043C490.069 501.113 463.272 501.34 444.428 488.558C425.584 475.776 415.975 450.873 419.206 428.484H419.185Z" fill="#934E3F" fill-opacity="0.05"/>
<path d="M560 428.484C588.515 418.63 607.753 386.49 613.323 356C618.024 371.709 624.961 386.614 634.01 400.323C642.936 413.868 655.236 421.949 671.575 427.948C677.332 449.904 668.137 474.972 649.521 488.043C630.883 501.113 604.087 501.34 585.243 488.558C566.399 475.776 556.79 450.873 560.02 428.484H560Z" fill="#934E3F" fill-opacity="0.05"/>
</g>
<defs>
<clipPath id="clip0_194_7848">
<rect width="889" height="844" fill="white"/>
</clipPath>
</defs>
</svg>
