<svg width="1728" height="483" viewBox="0 0 1728 483" fill="none" xmlns="http://www.w3.org/2000/svg">
<g opacity="0.4" clip-path="url(#clip0_186_6599)">
<rect x="-2" width="1731" height="1621" fill="#CBD2B8"/>
<path d="M164.371 0L306.72 272.277H22.0215L164.371 0Z" fill="#BAC3A1"/>
<path d="M442.537 0L584.886 272.277H300.188L442.537 0Z" fill="#BAC3A1"/>
<path d="M729.131 0L871.481 272.277H586.782L729.131 0Z" fill="#BAC3A1"/>
<path d="M998.869 0L1141.22 272.277H856.52L998.869 0Z" fill="#BAC3A1"/>
<path d="M1285.46 0L1427.81 272.277H1143.11L1285.46 0Z" fill="#BAC3A1"/>
<path d="M1563.63 0L1705.98 272.277H1421.28L1563.63 0Z" fill="#BAC3A1"/>
<path d="M1563.63 540.333L1421.28 268.056L1705.98 268.056L1563.63 540.333Z" fill="#BAC3A1"/>
<path d="M1285.46 540.333L1143.11 268.056L1427.81 268.056L1285.46 540.333Z" fill="#BAC3A1"/>
<path d="M998.869 540.333L856.519 268.056L1141.22 268.056L998.869 540.333Z" fill="#BAC3A1"/>
<path d="M729.131 540.333L586.782 268.056L871.48 268.056L729.131 540.333Z" fill="#BAC3A1"/>
<path d="M442.536 540.333L300.187 268.056L584.886 268.056L442.536 540.333Z" fill="#BAC3A1"/>
<path d="M164.37 540.333L22.0212 268.056L306.72 268.056L164.37 540.333Z" fill="#BAC3A1"/>
</g>
<defs>
<clipPath id="clip0_186_6599">
<rect width="1728" height="483" fill="white"/>
</clipPath>
</defs>
</svg>
