<svg width="1728" height="1262" viewBox="0 0 1728 1262" fill="none" xmlns="http://www.w3.org/2000/svg">
<g clip-path="url(#clip0_186_6375)">
<rect x="-2" width="1731" height="1621" fill="#CBD2B8"/>
<g opacity="0.5">
<path d="M164.371 0L306.72 272.277H22.0215L164.371 0Z" fill="#BAC3A1"/>
<path d="M442.537 0L584.886 272.277H300.187L442.537 0Z" fill="#BAC3A1"/>
<path d="M729.132 0L871.481 272.277H586.782L729.132 0Z" fill="#BAC3A1"/>
<path d="M998.868 0L1141.22 272.277H856.519L998.868 0Z" fill="#BAC3A1"/>
<path d="M1285.46 0L1427.81 272.277H1143.11L1285.46 0Z" fill="#BAC3A1"/>
<path d="M1563.63 0L1705.98 272.277H1421.28L1563.63 0Z" fill="#BAC3A1"/>
<path d="M164.371 540.333L306.72 812.61H22.0215L164.371 540.333Z" fill="#BAC3A1"/>
<path d="M442.537 540.333L584.886 812.61H300.187L442.537 540.333Z" fill="#BAC3A1"/>
<path d="M729.132 540.333L871.481 812.61H586.782L729.132 540.333Z" fill="#BAC3A1"/>
<path d="M998.868 540.333L1141.22 812.61H856.519L998.868 540.333Z" fill="#BAC3A1"/>
<path d="M1285.46 540.333L1427.81 812.61H1143.11L1285.46 540.333Z" fill="#BAC3A1"/>
<path d="M1563.63 540.333L1705.98 812.61H1421.28L1563.63 540.333Z" fill="#BAC3A1"/>
<path d="M164.371 1080.67L306.72 1352.94H22.0215L164.371 1080.67Z" fill="#BAC3A1"/>
<path d="M442.537 1080.67L584.886 1352.94H300.187L442.537 1080.67Z" fill="#BAC3A1"/>
<path d="M729.132 1080.67L871.481 1352.94H586.782L729.132 1080.67Z" fill="#BAC3A1"/>
<path d="M998.868 1080.67L1141.22 1352.94H856.519L998.868 1080.67Z" fill="#BAC3A1"/>
<path d="M1285.46 1080.67L1427.81 1352.94H1143.11L1285.46 1080.67Z" fill="#BAC3A1"/>
<path d="M1563.63 1080.67L1705.98 1352.94H1421.28L1563.63 1080.67Z" fill="#BAC3A1"/>
<path d="M1563.63 540.333L1421.28 268.056L1705.98 268.056L1563.63 540.333Z" fill="#BAC3A1"/>
<path d="M1285.46 540.333L1143.11 268.056L1427.81 268.056L1285.46 540.333Z" fill="#BAC3A1"/>
<path d="M998.868 540.333L856.519 268.056L1141.22 268.056L998.868 540.333Z" fill="#BAC3A1"/>
<path d="M729.132 540.333L586.782 268.056L871.481 268.056L729.132 540.333Z" fill="#BAC3A1"/>
<path d="M442.536 540.333L300.187 268.056L584.886 268.056L442.536 540.333Z" fill="#BAC3A1"/>
<path d="M164.371 540.333L22.0215 268.056L306.72 268.056L164.371 540.333Z" fill="#BAC3A1"/>
<path d="M1563.63 1080.67L1421.28 808.389L1705.98 808.389L1563.63 1080.67Z" fill="#BAC3A1"/>
<path d="M1285.46 1080.67L1143.11 808.389L1427.81 808.389L1285.46 1080.67Z" fill="#BAC3A1"/>
<path d="M998.868 1080.67L856.519 808.389L1141.22 808.389L998.868 1080.67Z" fill="#BAC3A1"/>
<path d="M729.132 1080.67L586.782 808.389L871.481 808.389L729.132 1080.67Z" fill="#BAC3A1"/>
<path d="M442.536 1080.67L300.187 808.389L584.886 808.389L442.536 1080.67Z" fill="#BAC3A1"/>
<path d="M164.371 1080.67L22.0215 808.389L306.72 808.389L164.371 1080.67Z" fill="#BAC3A1"/>
</g>
</g>
<defs>
<clipPath id="clip0_186_6375">
<rect width="1728" height="1262" fill="white"/>
</clipPath>
</defs>
</svg>
