<svg width="1727" height="803" viewBox="0 0 1727 803" fill="none" xmlns="http://www.w3.org/2000/svg">
<g opacity="0.05">
<path d="M164.276 401.333L306.542 603.568H22.0088L164.276 401.333Z" fill="#A9B489"/>
<path d="M442.28 401.333L584.546 603.568H300.013L442.28 401.333Z" fill="#A9B489"/>
<path d="M728.709 401.333L870.976 603.568H586.442L728.709 401.333Z" fill="#A9B489"/>
<path d="M998.291 401.333L1140.56 603.568H856.024L998.291 401.333Z" fill="#A9B489"/>
<path d="M1284.72 401.333L1426.99 603.568H1142.45L1284.72 401.333Z" fill="#A9B489"/>
<path d="M1562.72 401.333L1704.99 603.568H1420.46L1562.72 401.333Z" fill="#A9B489"/>
<path d="M1562.72 401.333L1420.46 199.099L1704.99 199.099L1562.72 401.333Z" fill="#303F07"/>
<path d="M1284.72 401.333L1142.45 199.099L1426.99 199.099L1284.72 401.333Z" fill="#303F07"/>
<path d="M998.291 401.333L856.024 199.099L1140.56 199.099L998.291 401.333Z" fill="#303F07"/>
<path d="M728.709 401.333L586.442 199.099L870.976 199.099L728.709 401.333Z" fill="#303F07"/>
<path d="M442.281 401.333L300.014 199.099L584.548 199.099L442.281 401.333Z" fill="#303F07"/>
<path d="M164.275 401.333L22.0083 199.099L306.542 199.099L164.275 401.333Z" fill="#303F07"/>
<path d="M1562.72 802.667L1420.46 600.432L1704.99 600.432L1562.72 802.667Z" fill="#303F07"/>
<path d="M1284.72 802.667L1142.45 600.432L1426.99 600.432L1284.72 802.667Z" fill="#303F07"/>
<path d="M998.291 802.667L856.024 600.432L1140.56 600.432L998.291 802.667Z" fill="#303F07"/>
<path d="M728.709 802.667L586.442 600.432L870.976 600.432L728.709 802.667Z" fill="#303F07"/>
<path d="M442.281 802.667L300.014 600.432L584.548 600.432L442.281 802.667Z" fill="#303F07"/>
<path d="M164.275 802.667L22.0083 600.432L306.542 600.432L164.275 802.667Z" fill="#303F07"/>
<path d="M728.709 0L870.976 202.234H586.442L728.709 0Z" fill="#A9B489"/>
<path d="M164.276 0L306.542 202.234H22.0088L164.276 0Z" fill="#A9B489"/>
<path d="M442.28 0L584.546 202.234H300.013L442.28 0Z" fill="#A9B489"/>
<path d="M998.291 0L1140.56 202.234H856.024L998.291 0Z" fill="#A9B489"/>
<path d="M1284.72 0L1426.99 202.234H1142.45L1284.72 0Z" fill="#A9B489"/>
<path d="M1562.72 0L1704.99 202.234H1420.46L1562.72 0Z" fill="#A9B489"/>
</g>
</svg>
