<svg width="1728" height="483" viewBox="0 0 1728 483" fill="none" xmlns="http://www.w3.org/2000/svg">
<g opacity="0.2" clip-path="url(#clip0_186_6784)">
<rect width="1728" height="483" fill="#D4B8B2"/>
<rect width="19.32" height="483" fill="#934E3F"/>
<rect x="38.6396" width="19.32" height="483" fill="#934E3F"/>
<rect x="77.2803" width="19.32" height="483" fill="#934E3F"/>
<rect x="115.92" width="19.32" height="483" fill="#934E3F"/>
<rect x="154.56" width="19.32" height="483" fill="#934E3F"/>
<rect x="193.2" width="19.32" height="483" fill="#934E3F"/>
<rect x="231.84" width="19.32" height="483" fill="#934E3F"/>
<rect x="270.48" width="19.32" height="483" fill="#934E3F"/>
<rect x="309.12" width="19.32" height="483" fill="#934E3F"/>
<rect x="347.76" width="19.32" height="483" fill="#934E3F"/>
<path d="M386.4 0H405.72V483H386.4V0Z" fill="#934E3F"/>
<path d="M425.04 0H444.36V483H425.04V0Z" fill="#934E3F"/>
<path d="M463.68 0H483V483H463.68V0Z" fill="#934E3F"/>
<rect x="501" width="19.32" height="483" fill="#934E3F"/>
<rect x="539.64" width="19.32" height="483" fill="#934E3F"/>
<rect x="578.28" width="19.32" height="483" fill="#934E3F"/>
<rect x="616.92" width="19.32" height="483" fill="#934E3F"/>
<rect x="655.56" width="19.32" height="483" fill="#934E3F"/>
<rect x="694.2" width="19.32" height="483" fill="#934E3F"/>
<rect x="732.84" width="19.32" height="483" fill="#934E3F"/>
<rect x="771.48" width="19.32" height="483" fill="#934E3F"/>
<rect x="810.12" width="19.32" height="483" fill="#934E3F"/>
<rect x="848.76" width="19.32" height="483" fill="#934E3F"/>
<path d="M887.4 0H906.72V483H887.4V0Z" fill="#934E3F"/>
<path d="M926.04 0H945.36V483H926.04V0Z" fill="#934E3F"/>
<path d="M964.68 0H984V483H964.68V0Z" fill="#934E3F"/>
<rect x="1002" width="19.32" height="483" fill="#934E3F"/>
<rect x="1040.64" width="19.32" height="483" fill="#934E3F"/>
<rect x="1079.28" width="19.32" height="483" fill="#934E3F"/>
<rect x="1117.92" width="19.32" height="483" fill="#934E3F"/>
<rect x="1156.56" width="19.32" height="483" fill="#934E3F"/>
<rect x="1195.2" width="19.32" height="483" fill="#934E3F"/>
<rect x="1233.84" width="19.32" height="483" fill="#934E3F"/>
<rect x="1272.48" width="19.32" height="483" fill="#934E3F"/>
<rect x="1311.12" width="19.32" height="483" fill="#934E3F"/>
<rect x="1349.76" width="19.32" height="483" fill="#934E3F"/>
<path d="M1388.4 0H1407.72V483H1388.4V0Z" fill="#934E3F"/>
<path d="M1427.04 0H1446.36V483H1427.04V0Z" fill="#934E3F"/>
<path d="M1465.68 0H1485V483H1465.68V0Z" fill="#934E3F"/>
<rect x="1503" width="19.32" height="483" fill="#934E3F"/>
<rect x="1541.64" width="19.32" height="483" fill="#934E3F"/>
<rect x="1580.28" width="19.32" height="483" fill="#934E3F"/>
<rect x="1618.92" width="19.32" height="483" fill="#934E3F"/>
<rect x="1657.56" width="19.32" height="483" fill="#934E3F"/>
<rect x="1696.2" width="19.32" height="483" fill="#934E3F"/>
</g>
<defs>
<clipPath id="clip0_186_6784">
<rect width="1728" height="483" fill="white"/>
</clipPath>
</defs>
</svg>
