<svg width="1728" height="483" viewBox="0 0 1728 483" fill="none" xmlns="http://www.w3.org/2000/svg">
<g opacity="0.1" clip-path="url(#clip0_186_6472)">
<rect width="1728" height="483" fill="#D4B8B2"/>
<path d="M21.5952 249.484C50.0608 239.63 69.2653 207.49 74.8261 177C79.5187 192.709 86.4439 207.614 95.4777 221.323C104.387 234.868 116.667 242.949 132.977 248.948C138.724 270.904 129.545 295.972 110.961 309.043C92.3561 322.113 65.6063 322.34 46.7946 309.558C27.9829 296.776 18.3911 271.873 21.6159 249.484H21.5952Z" fill="#934E3F"/>
<path d="M162.166 249.484C190.632 239.63 209.836 207.49 215.397 177C220.089 192.709 227.015 207.614 236.048 221.323C244.958 234.868 257.237 242.949 273.548 248.948C279.295 270.904 270.116 295.972 251.532 309.043C232.927 322.113 206.177 322.34 187.365 309.558C168.554 296.776 158.962 271.873 162.187 249.484H162.166Z" fill="#934E3F"/>
<path d="M302.737 249.484C331.202 239.63 350.407 207.49 355.968 177C360.66 192.709 367.586 207.614 376.619 221.323C385.529 234.868 397.808 242.949 414.119 248.948C419.865 270.904 410.687 295.972 392.103 309.043C373.498 322.113 346.748 322.34 327.936 309.558C309.125 296.776 299.533 271.873 302.758 249.484H302.737Z" fill="#934E3F"/>
<path d="M443.308 249.484C471.773 239.63 490.978 207.49 496.539 177C501.231 192.709 508.156 207.614 517.19 221.323C526.1 234.868 538.379 242.949 554.689 248.948C560.436 270.904 551.258 295.972 532.674 309.043C514.069 322.113 487.319 322.34 468.507 309.558C449.695 296.776 440.103 271.873 443.328 249.484H443.308Z" fill="#934E3F"/>
<path d="M583.878 249.484C612.344 239.63 631.548 207.49 637.109 177C641.802 192.709 648.727 207.614 657.761 221.323C666.671 234.868 678.95 242.949 695.26 248.948C701.007 270.904 691.829 295.972 673.244 309.043C654.639 322.113 627.89 322.34 609.078 309.558C590.266 296.776 580.674 271.873 583.899 249.484H583.878Z" fill="#934E3F"/>
<path d="M-52.4048 162.484C-23.9392 152.63 -4.73471 120.49 0.826107 90C5.51869 105.709 12.4439 120.614 21.4777 134.323C30.3874 147.868 42.6666 155.949 58.977 161.948C64.7238 183.904 55.5454 208.972 36.9611 222.043C18.3561 235.113 -8.39368 235.34 -27.2054 222.558C-46.0171 209.776 -55.6089 184.873 -52.3841 162.484H-52.4048Z" fill="#934E3F"/>
<path d="M88.166 162.484C116.632 152.63 135.836 120.49 141.397 90C146.089 105.709 153.015 120.614 162.048 134.323C170.958 147.868 183.237 155.949 199.548 161.948C205.295 183.904 196.116 208.972 177.532 222.043C158.927 235.113 132.177 235.34 113.365 222.558C94.5537 209.776 84.9619 184.873 88.1867 162.484H88.166Z" fill="#934E3F"/>
<path d="M228.737 162.484C257.202 152.63 276.407 120.49 281.968 90C286.66 105.709 293.586 120.614 302.619 134.323C311.529 147.868 323.808 155.949 340.119 161.948C345.865 183.904 336.687 208.972 318.103 222.043C299.498 235.113 272.748 235.34 253.936 222.558C235.125 209.776 225.533 184.873 228.758 162.484H228.737Z" fill="#934E3F"/>
<path d="M369.308 162.484C397.773 152.63 416.978 120.49 422.539 90C427.231 105.709 434.156 120.614 443.19 134.323C452.1 147.868 464.379 155.949 480.689 161.948C486.436 183.904 477.258 208.972 458.674 222.043C440.069 235.113 413.319 235.34 394.507 222.558C375.695 209.776 366.103 184.873 369.328 162.484H369.308Z" fill="#934E3F"/>
<path d="M509.878 162.484C538.344 152.63 557.548 120.49 563.109 90C567.802 105.709 574.727 120.614 583.761 134.323C592.671 147.868 604.95 155.949 621.26 161.948C627.007 183.904 617.829 208.972 599.244 222.043C580.639 235.113 553.89 235.34 535.078 222.558C516.266 209.776 506.674 184.873 509.899 162.484H509.878Z" fill="#934E3F"/>
<path d="M21.5952 71.4843C50.0608 61.6301 69.2653 29.4904 74.8261 -1C79.5187 14.7091 86.4439 29.6141 95.4777 43.3235C104.387 56.8679 116.667 64.9492 132.977 70.9483C138.724 92.9039 129.545 117.972 110.961 131.043C92.3561 144.113 65.6063 144.34 46.7946 131.558C27.9829 118.776 18.3911 93.8728 21.6159 71.4843H21.5952Z" fill="#934E3F"/>
<path d="M162.166 71.4843C190.632 61.6301 209.836 29.4904 215.397 -1C220.089 14.7091 227.015 29.6141 236.048 43.3235C244.958 56.8679 257.237 64.9492 273.548 70.9483C279.295 92.9039 270.116 117.972 251.532 131.043C232.927 144.113 206.177 144.34 187.365 131.558C168.554 118.776 158.962 93.8728 162.187 71.4843H162.166Z" fill="#934E3F"/>
<path d="M302.737 71.4843C331.202 61.6301 350.407 29.4904 355.968 -1C360.66 14.7091 367.586 29.6141 376.619 43.3235C385.529 56.8679 397.808 64.9492 414.119 70.9483C419.865 92.9039 410.687 117.972 392.103 131.043C373.498 144.113 346.748 144.34 327.936 131.558C309.125 118.776 299.533 93.8728 302.758 71.4843H302.737Z" fill="#934E3F"/>
<path d="M443.308 71.4843C471.773 61.6301 490.978 29.4904 496.539 -1C501.231 14.7091 508.156 29.6141 517.19 43.3235C526.1 56.8679 538.379 64.9492 554.689 70.9483C560.436 92.9039 551.258 117.972 532.674 131.043C514.069 144.113 487.319 144.34 468.507 131.558C449.695 118.776 440.103 93.8728 443.328 71.4843H443.308Z" fill="#934E3F"/>
<path d="M583.878 71.4843C612.344 61.6301 631.548 29.4904 637.109 -1C641.802 14.7091 648.727 29.6141 657.761 43.3235C666.671 56.8679 678.95 64.9492 695.26 70.9483C701.007 92.9039 691.829 117.972 673.244 131.043C654.639 144.113 627.89 144.34 609.078 131.558C590.266 118.776 580.674 93.8728 583.899 71.4843H583.878Z" fill="#934E3F"/>
<path d="M-52.4048 -15.5157C-23.9392 -25.3699 -4.73471 -57.5096 0.826107 -88C5.51869 -72.2909 12.4439 -57.3859 21.4777 -43.6765C30.3874 -30.1321 42.6666 -22.0508 58.977 -16.0517C64.7238 5.90389 55.5454 30.9724 36.9611 44.0427C18.3561 57.113 -8.39368 57.3397 -27.2054 44.5581C-46.0171 31.7764 -55.6089 6.87282 -52.3841 -15.5157H-52.4048Z" fill="#934E3F"/>
<path d="M88.166 -15.5157C116.632 -25.3699 135.836 -57.5096 141.397 -88C146.089 -72.2909 153.015 -57.3859 162.048 -43.6765C170.958 -30.1321 183.237 -22.0508 199.548 -16.0517C205.295 5.90389 196.116 30.9724 177.532 44.0427C158.927 57.113 132.177 57.3397 113.365 44.5581C94.5537 31.7764 84.9619 6.87282 88.1867 -15.5157H88.166Z" fill="#934E3F"/>
<path d="M228.737 -15.5157C257.202 -25.3699 276.407 -57.5096 281.968 -88C286.66 -72.2909 293.586 -57.3859 302.619 -43.6765C311.529 -30.1321 323.808 -22.0508 340.119 -16.0517C345.865 5.90389 336.687 30.9724 318.103 44.0427C299.498 57.113 272.748 57.3397 253.936 44.5581C235.125 31.7764 225.533 6.87282 228.758 -15.5157H228.737Z" fill="#934E3F"/>
<path d="M369.308 -15.5157C397.773 -25.3699 416.978 -57.5096 422.539 -88C427.231 -72.2909 434.156 -57.3859 443.19 -43.6765C452.1 -30.1321 464.379 -22.0508 480.689 -16.0517C486.436 5.90389 477.258 30.9724 458.674 44.0427C440.069 57.113 413.319 57.3397 394.507 44.5581C375.695 31.7764 366.103 6.87282 369.328 -15.5157H369.308Z" fill="#934E3F"/>
<path d="M509.878 -15.5157C538.344 -25.3699 557.548 -57.5096 563.109 -88C567.802 -72.2909 574.727 -57.3859 583.761 -43.6765C592.671 -30.1321 604.95 -22.0508 621.26 -16.0517C627.007 5.90389 617.829 30.9724 599.244 44.0427C580.639 57.113 553.89 57.3397 535.078 44.5581C516.266 31.7764 506.674 6.87282 509.899 -15.5157H509.878Z" fill="#934E3F"/>
<path d="M-52.4048 518.484C-23.9392 508.63 -4.73471 476.49 0.826107 446C5.51869 461.709 12.4439 476.614 21.4777 490.323C30.3874 503.868 42.6666 511.949 58.977 517.948C64.7238 539.904 55.5454 564.972 36.9611 578.043C18.3561 591.113 -8.39368 591.34 -27.2054 578.558C-46.0171 565.776 -55.6089 540.873 -52.3841 518.484H-52.4048Z" fill="#934E3F"/>
<path d="M88.166 518.484C116.632 508.63 135.836 476.49 141.397 446C146.089 461.709 153.015 476.614 162.048 490.323C170.958 503.868 183.237 511.949 199.548 517.948C205.295 539.904 196.116 564.972 177.532 578.043C158.927 591.113 132.177 591.34 113.365 578.558C94.5537 565.776 84.9619 540.873 88.1867 518.484H88.166Z" fill="#934E3F"/>
<path d="M228.737 518.484C257.202 508.63 276.407 476.49 281.968 446C286.66 461.709 293.586 476.614 302.619 490.323C311.529 503.868 323.808 511.949 340.119 517.948C345.865 539.904 336.687 564.972 318.103 578.043C299.498 591.113 272.748 591.34 253.936 578.558C235.125 565.776 225.533 540.873 228.758 518.484H228.737Z" fill="#934E3F"/>
<path d="M369.308 518.484C397.773 508.63 416.978 476.49 422.539 446C427.231 461.709 434.156 476.614 443.19 490.323C452.1 503.868 464.379 511.949 480.689 517.948C486.436 539.904 477.258 564.972 458.674 578.043C440.069 591.113 413.319 591.34 394.507 578.558C375.695 565.776 366.103 540.873 369.328 518.484H369.308Z" fill="#934E3F"/>
<path d="M509.878 518.484C538.344 508.63 557.548 476.49 563.109 446C567.802 461.709 574.727 476.614 583.761 490.323C592.671 503.868 604.95 511.949 621.26 517.948C627.007 539.904 617.829 564.972 599.244 578.043C580.639 591.113 553.89 591.34 535.078 578.558C516.266 565.776 506.674 540.873 509.899 518.484H509.878Z" fill="#934E3F"/>
<path d="M21.5952 427.484C50.0608 417.63 69.2653 385.49 74.8261 355C79.5187 370.709 86.4439 385.614 95.4777 399.323C104.387 412.868 116.667 420.949 132.977 426.948C138.724 448.904 129.545 473.972 110.961 487.043C92.3561 500.113 65.6063 500.34 46.7946 487.558C27.9829 474.776 18.3911 449.873 21.6159 427.484H21.5952Z" fill="#934E3F"/>
<path d="M162.166 427.484C190.632 417.63 209.836 385.49 215.397 355C220.089 370.709 227.015 385.614 236.048 399.323C244.958 412.868 257.237 420.949 273.548 426.948C279.295 448.904 270.116 473.972 251.532 487.043C232.927 500.113 206.177 500.34 187.365 487.558C168.554 474.776 158.962 449.873 162.187 427.484H162.166Z" fill="#934E3F"/>
<path d="M302.737 427.484C331.202 417.63 350.407 385.49 355.968 355C360.66 370.709 367.586 385.614 376.619 399.323C385.529 412.868 397.808 420.949 414.119 426.948C419.865 448.904 410.687 473.972 392.103 487.043C373.498 500.113 346.748 500.34 327.936 487.558C309.125 474.776 299.533 449.873 302.758 427.484H302.737Z" fill="#934E3F"/>
<path d="M443.308 427.484C471.773 417.63 490.978 385.49 496.539 355C501.231 370.709 508.156 385.614 517.19 399.323C526.1 412.868 538.379 420.949 554.689 426.948C560.436 448.904 551.258 473.972 532.674 487.043C514.069 500.113 487.319 500.34 468.507 487.558C449.695 474.776 440.103 449.873 443.328 427.484H443.308Z" fill="#934E3F"/>
<path d="M583.878 427.484C612.344 417.63 631.548 385.49 637.109 355C641.802 370.709 648.727 385.614 657.761 399.323C666.671 412.868 678.95 420.949 695.26 426.948C701.007 448.904 691.829 473.972 673.244 487.043C654.639 500.113 627.89 500.34 609.078 487.558C590.266 474.776 580.674 449.873 583.899 427.484H583.878Z" fill="#934E3F"/>
<path d="M-52.4048 340.484C-23.9392 330.63 -4.73471 298.49 0.826107 268C5.51869 283.709 12.4439 298.614 21.4777 312.323C30.3874 325.868 42.6666 333.949 58.977 339.948C64.7238 361.904 55.5454 386.972 36.9611 400.043C18.3561 413.113 -8.39368 413.34 -27.2054 400.558C-46.0171 387.776 -55.6089 362.873 -52.3841 340.484H-52.4048Z" fill="#934E3F"/>
<path d="M88.166 340.484C116.632 330.63 135.836 298.49 141.397 268C146.089 283.709 153.015 298.614 162.048 312.323C170.958 325.868 183.237 333.949 199.548 339.948C205.295 361.904 196.116 386.972 177.532 400.043C158.927 413.113 132.177 413.34 113.365 400.558C94.5537 387.776 84.9619 362.873 88.1867 340.484H88.166Z" fill="#934E3F"/>
<path d="M228.737 340.484C257.202 330.63 276.407 298.49 281.968 268C286.66 283.709 293.586 298.614 302.619 312.323C311.529 325.868 323.808 333.949 340.119 339.948C345.865 361.904 336.687 386.972 318.103 400.043C299.498 413.113 272.748 413.34 253.936 400.558C235.125 387.776 225.533 362.873 228.758 340.484H228.737Z" fill="#934E3F"/>
<path d="M369.308 340.484C397.773 330.63 416.978 298.49 422.539 268C427.231 283.709 434.156 298.614 443.19 312.323C452.1 325.868 464.379 333.949 480.689 339.948C486.436 361.904 477.258 386.972 458.674 400.043C440.069 413.113 413.319 413.34 394.507 400.558C375.695 387.776 366.103 362.873 369.328 340.484H369.308Z" fill="#934E3F"/>
<path d="M509.878 340.484C538.344 330.63 557.548 298.49 563.109 268C567.802 283.709 574.727 298.614 583.761 312.323C592.671 325.868 604.95 333.949 621.26 339.948C627.007 361.904 617.829 386.972 599.244 400.043C580.639 413.113 553.89 413.34 535.078 400.558C516.266 387.776 506.674 362.873 509.899 340.484H509.878Z" fill="#934E3F"/>
<path d="M656.595 518.484C685.061 508.63 704.265 476.49 709.826 446C714.519 461.709 721.444 476.614 730.478 490.323C739.387 503.868 751.667 511.949 767.977 517.948C773.724 539.904 764.545 564.972 745.961 578.043C727.356 591.113 700.606 591.34 681.795 578.558C662.983 565.776 653.391 540.873 656.616 518.484H656.595Z" fill="#934E3F"/>
<path d="M797.166 518.484C825.632 508.63 844.836 476.49 850.397 446C855.089 461.709 862.015 476.614 871.048 490.323C879.958 503.868 892.237 511.949 908.548 517.948C914.295 539.904 905.116 564.972 886.532 578.043C867.927 591.113 841.177 591.34 822.365 578.558C803.554 565.776 793.962 540.873 797.187 518.484H797.166Z" fill="#934E3F"/>
<path d="M937.737 518.484C966.202 508.63 985.407 476.49 990.968 446C995.66 461.709 1002.59 476.614 1011.62 490.323C1020.53 503.868 1032.81 511.949 1049.12 517.948C1054.87 539.904 1045.69 564.972 1027.1 578.043C1008.5 591.113 981.748 591.34 962.936 578.558C944.125 565.776 934.533 540.873 937.758 518.484H937.737Z" fill="#934E3F"/>
<path d="M1078.31 518.484C1106.77 508.63 1125.98 476.49 1131.54 446C1136.23 461.709 1143.16 476.614 1152.19 490.323C1161.1 503.868 1173.38 511.949 1189.69 517.948C1195.44 539.904 1186.26 564.972 1167.67 578.043C1149.07 591.113 1122.32 591.34 1103.51 578.558C1084.7 565.776 1075.1 540.873 1078.33 518.484H1078.31Z" fill="#934E3F"/>
<path d="M1218.88 518.484C1247.34 508.63 1266.55 476.49 1272.11 446C1276.8 461.709 1283.73 476.614 1292.76 490.323C1301.67 503.868 1313.95 511.949 1330.26 517.948C1336.01 539.904 1326.83 564.972 1308.24 578.043C1289.64 591.113 1262.89 591.34 1244.08 578.558C1225.27 565.776 1215.67 540.873 1218.9 518.484H1218.88Z" fill="#934E3F"/>
<path d="M730.595 427.484C759.061 417.63 778.265 385.49 783.826 355C788.519 370.709 795.444 385.614 804.478 399.323C813.387 412.868 825.667 420.949 841.977 426.948C847.724 448.904 838.545 473.972 819.961 487.043C801.356 500.113 774.606 500.34 755.795 487.558C736.983 474.776 727.391 449.873 730.616 427.484H730.595Z" fill="#934E3F"/>
<path d="M871.166 427.484C899.632 417.63 918.836 385.49 924.397 355C929.089 370.709 936.015 385.614 945.048 399.323C953.958 412.868 966.237 420.949 982.548 426.948C988.295 448.904 979.116 473.972 960.532 487.043C941.927 500.113 915.177 500.34 896.365 487.558C877.554 474.776 867.962 449.873 871.187 427.484H871.166Z" fill="#934E3F"/>
<path d="M1011.74 427.484C1040.2 417.63 1059.41 385.49 1064.97 355C1069.66 370.709 1076.59 385.614 1085.62 399.323C1094.53 412.868 1106.81 420.949 1123.12 426.948C1128.87 448.904 1119.69 473.972 1101.1 487.043C1082.5 500.113 1055.75 500.34 1036.94 487.558C1018.12 474.776 1008.53 449.873 1011.76 427.484H1011.74Z" fill="#934E3F"/>
<path d="M1152.31 427.484C1180.77 417.63 1199.98 385.49 1205.54 355C1210.23 370.709 1217.16 385.614 1226.19 399.323C1235.1 412.868 1247.38 420.949 1263.69 426.948C1269.44 448.904 1260.26 473.972 1241.67 487.043C1223.07 500.113 1196.32 500.34 1177.51 487.558C1158.7 474.776 1149.1 449.873 1152.33 427.484H1152.31Z" fill="#934E3F"/>
<path d="M1292.88 427.484C1321.34 417.63 1340.55 385.49 1346.11 355C1350.8 370.709 1357.73 385.614 1366.76 399.323C1375.67 412.868 1387.95 420.949 1404.26 426.948C1410.01 448.904 1400.83 473.972 1382.24 487.043C1363.64 500.113 1336.89 500.34 1318.08 487.558C1299.27 474.776 1289.67 449.873 1292.9 427.484H1292.88Z" fill="#934E3F"/>
<path d="M656.595 340.484C685.061 330.63 704.265 298.49 709.826 268C714.519 283.709 721.444 298.614 730.478 312.323C739.387 325.868 751.667 333.949 767.977 339.948C773.724 361.904 764.545 386.972 745.961 400.043C727.356 413.113 700.606 413.34 681.795 400.558C662.983 387.776 653.391 362.873 656.616 340.484H656.595Z" fill="#934E3F"/>
<path d="M797.166 340.484C825.632 330.63 844.836 298.49 850.397 268C855.089 283.709 862.015 298.614 871.048 312.323C879.958 325.868 892.237 333.949 908.548 339.948C914.295 361.904 905.116 386.972 886.532 400.043C867.927 413.113 841.177 413.34 822.365 400.558C803.554 387.776 793.962 362.873 797.187 340.484H797.166Z" fill="#934E3F"/>
<path d="M937.737 340.484C966.202 330.63 985.407 298.49 990.968 268C995.66 283.709 1002.59 298.614 1011.62 312.323C1020.53 325.868 1032.81 333.949 1049.12 339.948C1054.87 361.904 1045.69 386.972 1027.1 400.043C1008.5 413.113 981.748 413.34 962.936 400.558C944.125 387.776 934.533 362.873 937.758 340.484H937.737Z" fill="#934E3F"/>
<path d="M1078.31 340.484C1106.77 330.63 1125.98 298.49 1131.54 268C1136.23 283.709 1143.16 298.614 1152.19 312.323C1161.1 325.868 1173.38 333.949 1189.69 339.948C1195.44 361.904 1186.26 386.972 1167.67 400.043C1149.07 413.113 1122.32 413.34 1103.51 400.558C1084.7 387.776 1075.1 362.873 1078.33 340.484H1078.31Z" fill="#934E3F"/>
<path d="M1218.88 340.484C1247.34 330.63 1266.55 298.49 1272.11 268C1276.8 283.709 1283.73 298.614 1292.76 312.323C1301.67 325.868 1313.95 333.949 1330.26 339.948C1336.01 361.904 1326.83 386.972 1308.24 400.043C1289.64 413.113 1262.89 413.34 1244.08 400.558C1225.27 387.776 1215.67 362.873 1218.9 340.484H1218.88Z" fill="#934E3F"/>
<path d="M1365.6 518.484C1394.06 508.63 1413.27 476.49 1418.83 446C1423.52 461.709 1430.44 476.614 1439.48 490.323C1448.39 503.868 1460.67 511.949 1476.98 517.948C1482.72 539.904 1473.55 564.972 1454.96 578.043C1436.36 591.113 1409.61 591.34 1390.79 578.558C1371.98 565.776 1362.39 540.873 1365.62 518.484H1365.6Z" fill="#934E3F"/>
<path d="M1506.17 518.484C1534.63 508.63 1553.84 476.49 1559.4 446C1564.09 461.709 1571.01 476.614 1580.05 490.323C1588.96 503.868 1601.24 511.949 1617.55 517.948C1623.29 539.904 1614.12 564.972 1595.53 578.043C1576.93 591.113 1550.18 591.34 1531.36 578.558C1512.55 565.776 1502.96 540.873 1506.19 518.484H1506.17Z" fill="#934E3F"/>
<path d="M1646.74 518.484C1675.2 508.63 1694.41 476.49 1699.97 446C1704.66 461.709 1711.59 476.614 1720.62 490.323C1729.53 503.868 1741.81 511.949 1758.12 517.948C1763.87 539.904 1754.69 564.972 1736.1 578.043C1717.5 591.113 1690.75 591.34 1671.94 578.558C1653.12 565.776 1643.53 540.873 1646.76 518.484H1646.74Z" fill="#934E3F"/>
<path d="M1439.6 427.484C1468.06 417.63 1487.27 385.49 1492.83 355C1497.52 370.709 1504.44 385.614 1513.48 399.323C1522.39 412.868 1534.67 420.949 1550.98 426.948C1556.72 448.904 1547.55 473.972 1528.96 487.043C1510.36 500.113 1483.61 500.34 1464.79 487.558C1445.98 474.776 1436.39 449.873 1439.62 427.484H1439.6Z" fill="#934E3F"/>
<path d="M1580.17 427.484C1608.63 417.63 1627.84 385.49 1633.4 355C1638.09 370.709 1645.01 385.614 1654.05 399.323C1662.96 412.868 1675.24 420.949 1691.55 426.948C1697.29 448.904 1688.12 473.972 1669.53 487.043C1650.93 500.113 1624.18 500.34 1605.36 487.558C1586.55 474.776 1576.96 449.873 1580.19 427.484H1580.17Z" fill="#934E3F"/>
<path d="M1720.74 427.484C1749.2 417.63 1768.41 385.49 1773.97 355C1778.66 370.709 1785.59 385.614 1794.62 399.323C1803.53 412.868 1815.81 420.949 1832.12 426.948C1837.87 448.904 1828.69 473.972 1810.1 487.043C1791.5 500.113 1764.75 500.34 1745.94 487.558C1727.12 474.776 1717.53 449.873 1720.76 427.484H1720.74Z" fill="#934E3F"/>
<path d="M1365.6 340.484C1394.06 330.63 1413.27 298.49 1418.83 268C1423.52 283.709 1430.44 298.614 1439.48 312.323C1448.39 325.868 1460.67 333.949 1476.98 339.948C1482.72 361.904 1473.55 386.972 1454.96 400.043C1436.36 413.113 1409.61 413.34 1390.79 400.558C1371.98 387.776 1362.39 362.873 1365.62 340.484H1365.6Z" fill="#934E3F"/>
<path d="M1506.17 340.484C1534.63 330.63 1553.84 298.49 1559.4 268C1564.09 283.709 1571.01 298.614 1580.05 312.323C1588.96 325.868 1601.24 333.949 1617.55 339.948C1623.29 361.904 1614.12 386.972 1595.53 400.043C1576.93 413.113 1550.18 413.34 1531.36 400.558C1512.55 387.776 1502.96 362.873 1506.19 340.484H1506.17Z" fill="#934E3F"/>
<path d="M1646.74 340.484C1675.2 330.63 1694.41 298.49 1699.97 268C1704.66 283.709 1711.59 298.614 1720.62 312.323C1729.53 325.868 1741.81 333.949 1758.12 339.948C1763.87 361.904 1754.69 386.972 1736.1 400.043C1717.5 413.113 1690.75 413.34 1671.94 400.558C1653.12 387.776 1643.53 362.873 1646.76 340.484H1646.74Z" fill="#934E3F"/>
<path d="M730.595 249.484C759.061 239.63 778.265 207.49 783.826 177C788.519 192.709 795.444 207.614 804.478 221.323C813.387 234.868 825.667 242.949 841.977 248.948C847.724 270.904 838.545 295.972 819.961 309.043C801.356 322.113 774.606 322.34 755.795 309.558C736.983 296.776 727.391 271.873 730.616 249.484H730.595Z" fill="#934E3F"/>
<path d="M871.166 249.484C899.632 239.63 918.836 207.49 924.397 177C929.089 192.709 936.015 207.614 945.048 221.323C953.958 234.868 966.237 242.949 982.548 248.948C988.295 270.904 979.116 295.972 960.532 309.043C941.927 322.113 915.177 322.34 896.365 309.558C877.554 296.776 867.962 271.873 871.187 249.484H871.166Z" fill="#934E3F"/>
<path d="M1011.74 249.484C1040.2 239.63 1059.41 207.49 1064.97 177C1069.66 192.709 1076.59 207.614 1085.62 221.323C1094.53 234.868 1106.81 242.949 1123.12 248.948C1128.87 270.904 1119.69 295.972 1101.1 309.043C1082.5 322.113 1055.75 322.34 1036.94 309.558C1018.12 296.776 1008.53 271.873 1011.76 249.484H1011.74Z" fill="#934E3F"/>
<path d="M1152.31 249.484C1180.77 239.63 1199.98 207.49 1205.54 177C1210.23 192.709 1217.16 207.614 1226.19 221.323C1235.1 234.868 1247.38 242.949 1263.69 248.948C1269.44 270.904 1260.26 295.972 1241.67 309.043C1223.07 322.113 1196.32 322.34 1177.51 309.558C1158.7 296.776 1149.1 271.873 1152.33 249.484H1152.31Z" fill="#934E3F"/>
<path d="M1292.88 249.484C1321.34 239.63 1340.55 207.49 1346.11 177C1350.8 192.709 1357.73 207.614 1366.76 221.323C1375.67 234.868 1387.95 242.949 1404.26 248.948C1410.01 270.904 1400.83 295.972 1382.24 309.043C1363.64 322.113 1336.89 322.34 1318.08 309.558C1299.27 296.776 1289.67 271.873 1292.9 249.484H1292.88Z" fill="#934E3F"/>
<path d="M656.595 162.484C685.061 152.63 704.265 120.49 709.826 90C714.519 105.709 721.444 120.614 730.478 134.323C739.387 147.868 751.667 155.949 767.977 161.948C773.724 183.904 764.545 208.972 745.961 222.043C727.356 235.113 700.606 235.34 681.795 222.558C662.983 209.776 653.391 184.873 656.616 162.484H656.595Z" fill="#934E3F"/>
<path d="M797.166 162.484C825.632 152.63 844.836 120.49 850.397 90C855.089 105.709 862.015 120.614 871.048 134.323C879.958 147.868 892.237 155.949 908.548 161.948C914.295 183.904 905.116 208.972 886.532 222.043C867.927 235.113 841.177 235.34 822.365 222.558C803.554 209.776 793.962 184.873 797.187 162.484H797.166Z" fill="#934E3F"/>
<path d="M937.737 162.484C966.202 152.63 985.407 120.49 990.968 90C995.66 105.709 1002.59 120.614 1011.62 134.323C1020.53 147.868 1032.81 155.949 1049.12 161.948C1054.87 183.904 1045.69 208.972 1027.1 222.043C1008.5 235.113 981.748 235.34 962.936 222.558C944.125 209.776 934.533 184.873 937.758 162.484H937.737Z" fill="#934E3F"/>
<path d="M1078.31 162.484C1106.77 152.63 1125.98 120.49 1131.54 90C1136.23 105.709 1143.16 120.614 1152.19 134.323C1161.1 147.868 1173.38 155.949 1189.69 161.948C1195.44 183.904 1186.26 208.972 1167.67 222.043C1149.07 235.113 1122.32 235.34 1103.51 222.558C1084.7 209.776 1075.1 184.873 1078.33 162.484H1078.31Z" fill="#934E3F"/>
<path d="M1218.88 162.484C1247.34 152.63 1266.55 120.49 1272.11 90C1276.8 105.709 1283.73 120.614 1292.76 134.323C1301.67 147.868 1313.95 155.949 1330.26 161.948C1336.01 183.904 1326.83 208.972 1308.24 222.043C1289.64 235.113 1262.89 235.34 1244.08 222.558C1225.27 209.776 1215.67 184.873 1218.9 162.484H1218.88Z" fill="#934E3F"/>
<path d="M730.595 71.4843C759.061 61.6301 778.265 29.4904 783.826 -1C788.519 14.7091 795.444 29.6141 804.478 43.3235C813.387 56.8679 825.667 64.9492 841.977 70.9483C847.724 92.9039 838.545 117.972 819.961 131.043C801.356 144.113 774.606 144.34 755.795 131.558C736.983 118.776 727.391 93.8728 730.616 71.4843H730.595Z" fill="#934E3F"/>
<path d="M871.166 71.4843C899.632 61.6301 918.836 29.4904 924.397 -1C929.089 14.7091 936.015 29.6141 945.048 43.3235C953.958 56.8679 966.237 64.9492 982.548 70.9483C988.295 92.9039 979.116 117.972 960.532 131.043C941.927 144.113 915.177 144.34 896.365 131.558C877.554 118.776 867.962 93.8728 871.187 71.4843H871.166Z" fill="#934E3F"/>
<path d="M1011.74 71.4843C1040.2 61.6301 1059.41 29.4904 1064.97 -1C1069.66 14.7091 1076.59 29.6141 1085.62 43.3235C1094.53 56.8679 1106.81 64.9492 1123.12 70.9483C1128.87 92.9039 1119.69 117.972 1101.1 131.043C1082.5 144.113 1055.75 144.34 1036.94 131.558C1018.12 118.776 1008.53 93.8728 1011.76 71.4843H1011.74Z" fill="#934E3F"/>
<path d="M1152.31 71.4843C1180.77 61.6301 1199.98 29.4904 1205.54 -1C1210.23 14.7091 1217.16 29.6141 1226.19 43.3235C1235.1 56.8679 1247.38 64.9492 1263.69 70.9483C1269.44 92.9039 1260.26 117.972 1241.67 131.043C1223.07 144.113 1196.32 144.34 1177.51 131.558C1158.7 118.776 1149.1 93.8728 1152.33 71.4843H1152.31Z" fill="#934E3F"/>
<path d="M1292.88 71.4843C1321.34 61.6301 1340.55 29.4904 1346.11 -1C1350.8 14.7091 1357.73 29.6141 1366.76 43.3235C1375.67 56.8679 1387.95 64.9492 1404.26 70.9483C1410.01 92.9039 1400.83 117.972 1382.24 131.043C1363.64 144.113 1336.89 144.34 1318.08 131.558C1299.27 118.776 1289.67 93.8728 1292.9 71.4843H1292.88Z" fill="#934E3F"/>
<path d="M656.595 -15.5157C685.061 -25.3699 704.265 -57.5096 709.826 -88C714.519 -72.2909 721.444 -57.3859 730.478 -43.6765C739.387 -30.1321 751.667 -22.0508 767.977 -16.0517C773.724 5.90389 764.545 30.9724 745.961 44.0427C727.356 57.113 700.606 57.3397 681.795 44.5581C662.983 31.7764 653.391 6.87282 656.616 -15.5157H656.595Z" fill="#934E3F"/>
<path d="M797.166 -15.5157C825.632 -25.3699 844.836 -57.5096 850.397 -88C855.089 -72.2909 862.015 -57.3859 871.048 -43.6765C879.958 -30.1321 892.237 -22.0508 908.548 -16.0517C914.295 5.90389 905.116 30.9724 886.532 44.0427C867.927 57.113 841.177 57.3397 822.365 44.5581C803.554 31.7764 793.962 6.87282 797.187 -15.5157H797.166Z" fill="#934E3F"/>
<path d="M937.737 -15.5157C966.202 -25.3699 985.407 -57.5096 990.968 -88C995.66 -72.2909 1002.59 -57.3859 1011.62 -43.6765C1020.53 -30.1321 1032.81 -22.0508 1049.12 -16.0517C1054.87 5.90389 1045.69 30.9724 1027.1 44.0427C1008.5 57.113 981.748 57.3397 962.936 44.5581C944.125 31.7764 934.533 6.87282 937.758 -15.5157H937.737Z" fill="#934E3F"/>
<path d="M1078.31 -15.5157C1106.77 -25.3699 1125.98 -57.5096 1131.54 -88C1136.23 -72.2909 1143.16 -57.3859 1152.19 -43.6765C1161.1 -30.1321 1173.38 -22.0508 1189.69 -16.0517C1195.44 5.90389 1186.26 30.9724 1167.67 44.0427C1149.07 57.113 1122.32 57.3397 1103.51 44.5581C1084.7 31.7764 1075.1 6.87282 1078.33 -15.5157H1078.31Z" fill="#934E3F"/>
<path d="M1218.88 -15.5157C1247.34 -25.3699 1266.55 -57.5096 1272.11 -88C1276.8 -72.2909 1283.73 -57.3859 1292.76 -43.6765C1301.67 -30.1321 1313.95 -22.0508 1330.26 -16.0517C1336.01 5.90389 1326.83 30.9724 1308.24 44.0427C1289.64 57.113 1262.89 57.3397 1244.08 44.5581C1225.27 31.7764 1215.67 6.87282 1218.9 -15.5157H1218.88Z" fill="#934E3F"/>
<path d="M1439.6 249.484C1468.06 239.63 1487.27 207.49 1492.83 177C1497.52 192.709 1504.44 207.614 1513.48 221.323C1522.39 234.868 1534.67 242.949 1550.98 248.948C1556.72 270.904 1547.55 295.972 1528.96 309.043C1510.36 322.113 1483.61 322.34 1464.79 309.558C1445.98 296.776 1436.39 271.873 1439.62 249.484H1439.6Z" fill="#934E3F"/>
<path d="M1580.17 249.484C1608.63 239.63 1627.84 207.49 1633.4 177C1638.09 192.709 1645.01 207.614 1654.05 221.323C1662.96 234.868 1675.24 242.949 1691.55 248.948C1697.29 270.904 1688.12 295.972 1669.53 309.043C1650.93 322.113 1624.18 322.34 1605.36 309.558C1586.55 296.776 1576.96 271.873 1580.19 249.484H1580.17Z" fill="#934E3F"/>
<path d="M1720.74 249.484C1749.2 239.63 1768.41 207.49 1773.97 177C1778.66 192.709 1785.59 207.614 1794.62 221.323C1803.53 234.868 1815.81 242.949 1832.12 248.948C1837.87 270.904 1828.69 295.972 1810.1 309.043C1791.5 322.113 1764.75 322.34 1745.94 309.558C1727.12 296.776 1717.53 271.873 1720.76 249.484H1720.74Z" fill="#934E3F"/>
<path d="M1365.6 162.484C1394.06 152.63 1413.27 120.49 1418.83 90C1423.52 105.709 1430.44 120.614 1439.48 134.323C1448.39 147.868 1460.67 155.949 1476.98 161.948C1482.72 183.904 1473.55 208.972 1454.96 222.043C1436.36 235.113 1409.61 235.34 1390.79 222.558C1371.98 209.776 1362.39 184.873 1365.62 162.484H1365.6Z" fill="#934E3F"/>
<path d="M1506.17 162.484C1534.63 152.63 1553.84 120.49 1559.4 90C1564.09 105.709 1571.01 120.614 1580.05 134.323C1588.96 147.868 1601.24 155.949 1617.55 161.948C1623.29 183.904 1614.12 208.972 1595.53 222.043C1576.93 235.113 1550.18 235.34 1531.36 222.558C1512.55 209.776 1502.96 184.873 1506.19 162.484H1506.17Z" fill="#934E3F"/>
<path d="M1646.74 162.484C1675.2 152.63 1694.41 120.49 1699.97 90C1704.66 105.709 1711.59 120.614 1720.62 134.323C1729.53 147.868 1741.81 155.949 1758.12 161.948C1763.87 183.904 1754.69 208.972 1736.1 222.043C1717.5 235.113 1690.75 235.34 1671.94 222.558C1653.12 209.776 1643.53 184.873 1646.76 162.484H1646.74Z" fill="#934E3F"/>
<path d="M1439.6 71.4843C1468.06 61.6301 1487.27 29.4904 1492.83 -1C1497.52 14.7091 1504.44 29.6141 1513.48 43.3235C1522.39 56.8679 1534.67 64.9492 1550.98 70.9483C1556.72 92.9039 1547.55 117.972 1528.96 131.043C1510.36 144.113 1483.61 144.34 1464.79 131.558C1445.98 118.776 1436.39 93.8728 1439.62 71.4843H1439.6Z" fill="#934E3F"/>
<path d="M1580.17 71.4843C1608.63 61.6301 1627.84 29.4904 1633.4 -1C1638.09 14.7091 1645.01 29.6141 1654.05 43.3235C1662.96 56.8679 1675.24 64.9492 1691.55 70.9483C1697.29 92.9039 1688.12 117.972 1669.53 131.043C1650.93 144.113 1624.18 144.34 1605.36 131.558C1586.55 118.776 1576.96 93.8728 1580.19 71.4843H1580.17Z" fill="#934E3F"/>
<path d="M1720.74 71.4843C1749.2 61.6301 1768.41 29.4904 1773.97 -1C1778.66 14.7091 1785.59 29.6141 1794.62 43.3235C1803.53 56.8679 1815.81 64.9492 1832.12 70.9483C1837.87 92.9039 1828.69 117.972 1810.1 131.043C1791.5 144.113 1764.75 144.34 1745.94 131.558C1727.12 118.776 1717.53 93.8728 1720.76 71.4843H1720.74Z" fill="#934E3F"/>
<path d="M1365.6 -15.5157C1394.06 -25.3699 1413.27 -57.5096 1418.83 -88C1423.52 -72.2909 1430.44 -57.3859 1439.48 -43.6765C1448.39 -30.1321 1460.67 -22.0508 1476.98 -16.0517C1482.72 5.90389 1473.55 30.9724 1454.96 44.0427C1436.36 57.113 1409.61 57.3397 1390.79 44.5581C1371.98 31.7764 1362.39 6.87282 1365.62 -15.5157H1365.6Z" fill="#934E3F"/>
<path d="M1506.17 -15.5157C1534.63 -25.3699 1553.84 -57.5096 1559.4 -88C1564.09 -72.2909 1571.01 -57.3859 1580.05 -43.6765C1588.96 -30.1321 1601.24 -22.0508 1617.55 -16.0517C1623.29 5.90389 1614.12 30.9724 1595.53 44.0427C1576.93 57.113 1550.18 57.3397 1531.36 44.5581C1512.55 31.7764 1502.96 6.87282 1506.19 -15.5157H1506.17Z" fill="#934E3F"/>
<path d="M1646.74 -15.5157C1675.2 -25.3699 1694.41 -57.5096 1699.97 -88C1704.66 -72.2909 1711.59 -57.3859 1720.62 -43.6765C1729.53 -30.1321 1741.81 -22.0508 1758.12 -16.0517C1763.87 5.90389 1754.69 30.9724 1736.1 44.0427C1717.5 57.113 1690.75 57.3397 1671.94 44.5581C1653.12 31.7764 1643.53 6.87282 1646.76 -15.5157H1646.74Z" fill="#934E3F"/>
</g>
<defs>
<clipPath id="clip0_186_6472">
<rect width="1728" height="483" fill="white"/>
</clipPath>
</defs>
</svg>
