<svg width="1728" height="483" viewBox="0 0 1728 483" fill="none" xmlns="http://www.w3.org/2000/svg">
<g opacity="0.3" clip-path="url(#clip0_186_6644)">
<rect width="1728" height="483" fill="#F7F2D2"/>
<g clip-path="url(#clip1_186_6644)">
<path d="M824.552 403.736C812.295 412.763 805.568 427.411 801.268 442.004C796.969 456.569 794.56 471.785 788.511 485.699C782.433 499.642 771.755 512.651 757.073 516.651C742.364 520.651 724.048 512.227 721.46 497.263C718.534 480.322 723.287 462.228 734.135 448.853C716.715 453.585 702.761 469.076 699.899 486.832C697.066 504.588 705.495 523.678 720.563 533.568C735.631 543.458 756.549 543.64 771.77 533.994C788.771 523.248 805.771 512.473 821.981 501.162C822.537 468.301 823.093 435.468 824.523 403.764L824.552 403.736Z" fill="#ECDE8E" stroke="#ECDE8E" stroke-width="0.2" stroke-miterlimit="10"/>
<path d="M702.213 487.85C644.151 527.001 572.748 546.071 502.828 541.061C502.356 527.368 501.884 513.704 501.413 500.011C520.835 499.288 540.285 498.566 559.707 497.844C557.163 502.783 550.019 506.618 551.54 512.604C553.061 518.59 559.635 522.857 565.734 521.788C645.912 507.663 716.351 447.798 743.017 371.108C757.213 330.293 787.439 295.276 821.979 267.883C823.212 283.355 824.417 298.827 828.189 316.022C789.905 371.842 766.827 444.271 702.213 487.85V487.85Z" fill="#ECDE8E" stroke="#ECDE8E" stroke-width="0.2" stroke-miterlimit="10"/>
<path d="M511.773 499.452C540.088 497.437 567 481.135 581.835 457.034C596.67 432.933 599.088 401.625 588.066 375.532C582.766 362.966 568.77 354.629 555.162 355.948C541.555 357.267 529.41 368.101 526.608 381.424C524.966 389.187 513.165 391.015 507.466 385.478C501.767 379.941 501.688 370.597 504.684 363.258C507.681 355.92 513.161 349.91 517.795 343.447C522.428 336.985 526.385 329.421 525.599 321.516C495.196 321.215 465.339 305.727 447.683 281.07C456.155 274.497 464.6 267.924 474.371 260.307C489.548 278.864 515.117 288.366 538.776 284.258C521.104 285.01 506.635 263.686 513.928 247.598C521.221 231.511 546.826 228.251 557.94 241.978C565.387 251.158 577.353 256.501 589.153 255.915C600.982 255.329 613.207 251.045 619.848 240.632C624.274 249.048 627.686 255.797 632.141 264.213C620.79 269.118 617.083 284.276 620.887 296.023C624.691 307.77 633.917 316.838 642.832 325.397C606.413 331.304 567.755 304.517 558.178 269.9C548.208 277.94 543.091 291.572 545.37 304.165C547.649 316.758 557.183 327.746 569.348 331.818C583.996 336.711 596.325 348.209 602.16 362.469C612.634 360.048 624.319 363.725 631.512 371.691C638.706 379.656 641.155 391.6 637.649 401.761C621.643 448.136 588.14 488.29 545.273 512.374" fill="#ECDE8E"/>
<path d="M511.773 499.452C540.088 497.437 567 481.135 581.835 457.034C596.67 432.933 599.088 401.625 588.066 375.532C582.766 362.966 568.77 354.629 555.162 355.948C541.555 357.267 529.41 368.101 526.608 381.424C524.966 389.187 513.165 391.015 507.466 385.478C501.767 379.941 501.688 370.597 504.684 363.258C507.681 355.92 513.161 349.91 517.795 343.447C522.428 336.985 526.385 329.421 525.599 321.516C495.196 321.215 465.339 305.727 447.683 281.07C456.155 274.497 464.6 267.924 474.371 260.307C489.548 278.864 515.117 288.366 538.776 284.258C521.104 285.01 506.635 263.686 513.928 247.598C521.221 231.511 546.826 228.251 557.94 241.978C565.387 251.158 577.353 256.501 589.153 255.915C600.982 255.329 613.207 251.045 619.848 240.632C624.274 249.048 627.686 255.797 632.141 264.213C620.79 269.118 617.083 284.276 620.887 296.023C624.691 307.77 633.917 316.838 642.832 325.397C606.413 331.304 567.755 304.517 558.178 269.9C548.208 277.94 543.091 291.572 545.37 304.165C547.649 316.758 557.183 327.746 569.348 331.818C583.996 336.711 596.325 348.209 602.16 362.469C612.634 360.048 624.319 363.725 631.512 371.691C638.706 379.656 641.155 391.6 637.649 401.761C621.643 448.136 588.14 488.29 545.273 512.374" stroke="#ECDE8E" stroke-width="0.2" stroke-miterlimit="10"/>
<path d="M737.19 392.363C741.719 371.954 746.248 351.32 745.978 330.428C745.68 309.536 740.131 288.02 726.506 272.118C712.881 256.215 690.275 247.139 670.173 253.141C651.933 258.578 633.722 264.016 615.483 269.482C613.177 254.49 618.24 238.57 628.776 227.623C639.312 216.675 655.067 210.953 670.168 212.628C711.07 217.085 746.524 220.183 787.425 224.64C781.279 257.865 795.714 288.646 797.163 319.956" fill="#ECDE8E"/>
<path d="M737.19 392.363C741.719 371.954 746.248 351.32 745.978 330.428C745.68 309.536 740.131 288.02 726.506 272.118C712.881 256.215 690.275 247.139 670.173 253.141C651.933 258.578 633.722 264.016 615.483 269.482C613.177 254.49 618.24 238.57 628.776 227.623C639.312 216.675 655.067 210.953 670.168 212.628C711.07 217.085 746.524 220.183 787.425 224.64C781.279 257.865 795.714 288.646 797.163 319.956" stroke="#ECDE8E" stroke-width="0.2" stroke-miterlimit="10"/>
<path d="M787.029 225.684C800.459 190.036 813.889 154.359 827.319 118.71C793.008 140.654 766.763 174.855 754.488 213.582C737.859 170.151 695.307 140.313 650.091 128.852C604.903 117.391 557.166 121.936 511.316 130.435C479.104 136.429 450.635 159.534 438.224 189.791C425.814 220.02 425.679 256.326 446.272 279.601C455.424 270.798 465.248 269.082 474.372 260.279C456.825 240.421 460.63 203.751 476.084 181.655C491.539 159.558 518.025 147.039 544.76 143.046C571.467 139.025 598.735 142.599 625.38 147.047C650.022 151.183 675.481 156.45 695.515 171.34C715.548 186.23 728.574 213.368 719.64 236.654" fill="#ECDE8E"/>
<path d="M787.029 225.684C800.459 190.036 813.889 154.359 827.319 118.71C793.008 140.654 766.763 174.855 754.488 213.582C737.859 170.151 695.307 140.313 650.091 128.852C604.903 117.391 557.166 121.936 511.316 130.435C479.104 136.429 450.635 159.534 438.224 189.791C425.814 220.02 425.679 256.326 446.272 279.601C455.424 270.798 465.248 269.082 474.372 260.279C456.825 240.421 460.63 203.751 476.084 181.655C491.539 159.558 518.025 147.039 544.76 143.046C571.467 139.025 598.735 142.599 625.38 147.047C650.022 151.183 675.481 156.45 695.515 171.34C715.548 186.23 728.574 213.368 719.64 236.654" stroke="#ECDE8E" stroke-width="0.2" stroke-miterlimit="10"/>
<path d="M828.649 398.713C816.392 407.74 805.568 427.411 801.269 442.005C796.969 456.57 794.561 471.785 788.512 485.7C782.434 499.643 771.756 512.651 757.074 516.651C742.364 520.651 724.049 512.227 721.461 497.263C718.535 480.322 723.288 462.228 734.136 448.853C716.716 453.586 702.762 469.076 699.9 486.832C697.066 504.589 705.495 523.678 720.564 533.568C735.632 543.458 756.55 543.64 771.771 533.994C788.771 523.248 811.84 513.804 828.05 502.493C829.538 469.858 828.601 430.898 828.62 398.742L828.649 398.713Z" fill="#ECDE8E" stroke="#ECDE8E" stroke-width="0.2" stroke-miterlimit="10"/>
<path d="M702.214 487.85C644.151 527.001 572.749 546.071 502.828 541.061C502.357 527.368 501.885 513.703 501.413 500.011C520.835 499.288 540.285 498.566 559.707 497.844C557.164 502.783 550.02 506.618 551.54 512.604C553.061 518.59 559.636 522.857 565.734 521.788C645.913 507.663 716.352 447.798 743.018 371.108C757.213 330.293 794.162 288.589 828.73 261.196C829.736 279.604 827.914 304.532 830.811 322.574C792.527 378.393 766.856 444.271 702.214 487.85V487.85Z" fill="#ECDE8E" stroke="#ECDE8E" stroke-width="0.2" stroke-miterlimit="10"/>
<path d="M511.773 499.452C540.088 497.437 567 481.135 581.835 457.034C596.67 432.933 599.088 401.625 588.066 375.532C582.766 362.966 568.77 354.629 555.162 355.948C541.555 357.267 529.41 368.101 526.608 381.424C524.966 389.187 513.165 391.015 507.466 385.478C501.767 379.941 501.688 370.597 504.684 363.258C507.681 355.92 513.161 349.91 517.795 343.447C522.428 336.985 526.385 329.421 525.599 321.516C495.196 321.215 465.339 305.727 447.683 281.07C456.155 274.497 464.6 267.924 474.371 260.307C489.548 278.864 515.117 288.366 538.776 284.258C521.104 285.01 506.635 263.686 513.928 247.598C521.221 231.511 546.826 228.251 557.94 241.978C565.387 251.158 577.353 256.501 589.153 255.915C600.982 255.329 613.207 251.045 619.848 240.632C624.274 249.048 627.686 255.797 632.141 264.213C620.79 269.118 617.083 284.276 620.887 296.023C624.691 307.77 633.917 316.838 642.832 325.397C606.413 331.304 567.755 304.517 558.178 269.9C548.208 277.94 543.091 291.572 545.37 304.165C547.649 316.758 557.183 327.746 569.348 331.818C583.996 336.711 596.325 348.209 602.16 362.469C612.634 360.048 624.319 363.725 631.512 371.691C638.706 379.656 641.155 391.6 637.649 401.761C621.643 448.136 588.14 488.29 545.273 512.374" fill="#ECDE8E"/>
<path d="M511.773 499.452C540.088 497.437 567 481.135 581.835 457.034C596.67 432.933 599.088 401.625 588.066 375.532C582.766 362.966 568.77 354.629 555.162 355.948C541.555 357.267 529.41 368.101 526.608 381.424C524.966 389.187 513.165 391.015 507.466 385.478C501.767 379.941 501.688 370.597 504.684 363.258C507.681 355.92 513.161 349.91 517.795 343.447C522.428 336.985 526.385 329.421 525.599 321.516C495.196 321.215 465.339 305.727 447.683 281.07C456.155 274.497 464.6 267.924 474.371 260.307C489.548 278.864 515.117 288.366 538.776 284.258C521.104 285.01 506.635 263.686 513.928 247.598C521.221 231.511 546.826 228.251 557.94 241.978C565.387 251.158 577.353 256.501 589.153 255.915C600.982 255.329 613.207 251.045 619.848 240.632C624.274 249.048 627.686 255.797 632.141 264.213C620.79 269.118 617.083 284.276 620.887 296.023C624.691 307.77 633.917 316.838 642.832 325.397C606.413 331.304 567.755 304.517 558.178 269.9C548.208 277.94 543.091 291.572 545.37 304.165C547.649 316.758 557.183 327.746 569.348 331.818C583.996 336.711 596.325 348.209 602.16 362.469C612.634 360.048 624.319 363.725 631.512 371.691C638.706 379.656 641.155 391.6 637.649 401.761C621.643 448.136 588.14 488.29 545.273 512.374" stroke="#ECDE8E" stroke-width="0.2" stroke-miterlimit="10"/>
<path d="M737.19 392.363C741.719 371.954 746.248 351.32 745.978 330.428C745.68 309.536 740.131 288.02 726.506 272.118C712.881 256.215 690.275 247.139 670.173 253.141C651.933 258.578 633.722 264.016 615.483 269.482C613.177 254.49 618.24 238.57 628.776 227.623C639.312 216.675 655.067 210.953 670.168 212.628C711.07 217.085 746.524 220.183 787.425 224.64C781.279 257.865 795.714 288.646 797.163 319.956" fill="#ECDE8E"/>
<path d="M737.19 392.363C741.719 371.954 746.248 351.32 745.978 330.428C745.68 309.536 740.131 288.02 726.506 272.118C712.881 256.215 690.275 247.139 670.173 253.141C651.933 258.578 633.722 264.016 615.483 269.482C613.177 254.49 618.24 238.57 628.776 227.623C639.312 216.675 655.067 210.953 670.168 212.628C711.07 217.085 746.524 220.183 787.425 224.64C781.279 257.865 795.714 288.646 797.163 319.956" stroke="#ECDE8E" stroke-width="0.2" stroke-miterlimit="10"/>
<path d="M787.029 225.684C800.459 190.035 813.888 155.685 827.318 120.009C793.208 137.012 766.763 174.827 754.488 213.581C737.859 170.151 695.307 140.313 650.091 128.852C604.903 117.391 557.165 121.936 511.316 130.435C479.103 136.429 450.635 159.534 438.224 189.791C425.813 220.02 425.679 256.325 446.272 279.601C455.424 270.798 465.248 269.082 474.372 260.279C456.825 240.421 460.63 203.751 476.084 181.654C491.539 159.558 518.025 147.039 544.76 143.046C571.467 139.025 598.734 142.599 625.38 147.047C650.021 151.183 675.481 156.45 695.515 171.34C715.548 186.23 728.574 213.368 719.64 236.654" fill="#ECDE8E"/>
<path d="M787.029 225.684C800.459 190.035 813.888 155.685 827.318 120.009C793.208 137.012 766.763 174.827 754.488 213.581C737.859 170.151 695.307 140.313 650.091 128.852C604.903 117.391 557.165 121.936 511.316 130.435C479.103 136.429 450.635 159.534 438.224 189.791C425.813 220.02 425.679 256.325 446.272 279.601C455.424 270.798 465.248 269.082 474.372 260.279C456.825 240.421 460.63 203.751 476.084 181.654C491.539 159.558 518.025 147.039 544.76 143.046C571.467 139.025 598.734 142.599 625.38 147.047C650.021 151.183 675.481 156.45 695.515 171.34C715.548 186.23 728.574 213.368 719.64 236.654" stroke="#ECDE8E" stroke-width="0.2" stroke-miterlimit="10"/>
<path d="M196.134 -2.95077C242.413 -69.8888 329.662 -105.606 409.598 -90.9909C418.686 -89.3198 427.152 -84.6565 432.54 -77.2001C447.743 -56.1584 428.335 -32.653 408.208 -33.4555C404.285 -33.6272 400.303 -31.9922 398.015 -28.8033C392.562 -21.184 400.376 -12.3146 407.858 -13.4676C428.015 -16.6175 448.144 -19.7957 468.302 -22.9456C477.152 -47.3043 464.975 -77.4066 441.693 -88.7697C451.859 -95.1722 461.317 -96.3805 469.904 -106.68C470.724 -107.668 470.16 -109.192 468.918 -109.447C414.838 -120.97 351.916 -122.588 296.067 -102.351C239.286 -81.7762 188.112 -42.113 147.011 3.85197" fill="#ECDE8E"/>
<path d="M196.134 -2.95077C242.413 -69.8888 329.662 -105.606 409.598 -90.9909C418.686 -89.3198 427.152 -84.6565 432.54 -77.2001C447.743 -56.1584 428.335 -32.653 408.208 -33.4555C404.285 -33.6272 400.303 -31.9922 398.015 -28.8033C392.562 -21.184 400.376 -12.3146 407.858 -13.4676C428.015 -16.6175 448.144 -19.7957 468.302 -22.9456C477.152 -47.3043 464.975 -77.4066 441.693 -88.7697C451.859 -95.1722 461.317 -96.3805 469.904 -106.68C470.724 -107.668 470.16 -109.192 468.918 -109.447C414.838 -120.97 351.916 -122.588 296.067 -102.351C239.286 -81.7762 188.112 -42.113 147.011 3.85197" stroke="#ECDE8E" stroke-width="0.2" stroke-miterlimit="10"/>
<path d="M693.156 -133.564C728.606 -124.001 751.447 -81.9499 740.191 -47.0057C728.935 -12.0616 682.908 10.6939 650.423 0.00292045C642.737 12.4485 640.026 13.1527 632.341 25.6265C668.35 43.7164 732.887 34.1279 785.741 18.632C789.149 -14.6512 790.991 -27.6931 791.018 -72.3839" fill="#ECDE8E"/>
<path d="M693.156 -133.564C728.606 -124.001 751.447 -81.9499 740.191 -47.0057C728.935 -12.0616 682.908 10.6939 650.423 0.00292045C642.737 12.4485 640.026 13.1527 632.341 25.6265C668.35 43.7164 732.887 34.1279 785.741 18.632C789.149 -14.6512 790.991 -27.6931 791.018 -72.3839" stroke="#ECDE8E" stroke-width="0.2" stroke-miterlimit="10"/>
<path d="M744.24 261.146C742.747 256.289 741.226 251.404 739.732 246.548Z" fill="#ECDE8E"/>
<path d="M744.24 261.146C742.747 256.289 741.226 251.404 739.732 246.548" stroke="#ECDE8E" stroke-width="0.2" stroke-miterlimit="10"/>
<path d="M789.15 -15.9216C782.495 19.8722 786.261 93.9546 828.32 98.4685C828.146 106.006 825.916 105.44 829.664 116.114C795.061 106.043 760.05 72.0029 753.831 37.9799C717.509 70.6788 676.729 99.9307 630.029 114.329C583.33 128.728 529.809 126.663 488.752 100.157C447.694 73.6513 423.139 20.0245 443.574 -22.7908C459.493 -20.0993 472.817 -18.8491 488.849 -16.0728C470.493 -3.80298 463.533 21.7708 468.489 43.2864C473.444 64.8019 493.394 78.7885 514.505 85.2662C555.232 97.7407 585.207 105.607 626.347 88.2691C660.88 73.7222 699.308 59.8834 714.262 25.5061" fill="#ECDE8E"/>
<path d="M789.15 -15.9216C782.495 19.8722 786.261 93.9546 828.32 98.4685C828.146 106.006 825.916 105.44 829.664 116.114C795.061 106.043 760.05 72.0029 753.831 37.9799C717.509 70.6788 676.729 99.9307 630.029 114.329C583.33 128.728 529.809 126.663 488.752 100.157C447.694 73.6513 423.139 20.0245 443.574 -22.7908C459.493 -20.0993 472.817 -18.8491 488.849 -16.0728C470.493 -3.80298 463.533 21.7708 468.489 43.2864C473.444 64.8019 493.394 78.7885 514.505 85.2662C555.232 97.7407 585.207 105.607 626.347 88.2691C660.88 73.7222 699.308 59.8834 714.262 25.5061" stroke="#ECDE8E" stroke-width="0.2" stroke-miterlimit="10"/>
<path d="M671.592 4.13727C656.124 0.740217 636.846 -1.92509 628.583 -15.6224C620.32 -29.3197 623.098 -48.6286 634.876 -59.4343C616.13 -56.707 599.805 -41.6128 595.616 -23.1518C580.316 -23.3303 565.044 -23.5088 549.744 -23.6591C550.201 -32.7777 550.658 -41.8963 553.289 -50.9006C546.233 -53.6998 539.149 -56.4989 532.094 -59.2981C505.637 -48.7552 480.223 -35.6427 460.224 -13.8315C485.432 -13.9858 510.533 -22.6662 530.415 -38.1535C522.814 -25.7643 514.902 -12.1049 516.757 2.29438C518.611 16.6937 535.88 29.2954 547.882 21.1153C562.624 11.0736 577.393 1.00372 592.135 -9.03797C604.097 2.20541 617.386 14.4377 632.341 25.6264C636.884 27.5771 638.433 33.4502 671.592 4.1655L671.592 4.13727Z" fill="#ECDE8E" stroke="#ECDE8E" stroke-width="0.2" stroke-miterlimit="10"/>
<path d="M832.904 410.347C845.15 419.389 851.888 434.045 856.17 448.643C860.452 463.214 862.843 478.432 868.904 492.354C874.965 506.304 885.627 519.325 900.332 523.343C915.037 527.36 933.391 518.958 935.997 503.997C938.943 487.06 934.211 468.96 923.38 455.572C940.794 460.325 954.758 475.833 957.57 493.592C960.383 511.352 951.931 530.432 936.822 540.304C921.714 550.176 900.824 550.333 885.586 540.668C868.571 529.902 851.583 519.107 835.387 507.776C834.87 474.914 834.353 442.081 832.932 410.376L832.904 410.347Z" fill="#ECDE8E" stroke="#ECDE8E" stroke-width="0.2" stroke-miterlimit="10"/>
<path d="M955.254 494.579C1013.3 533.799 1084.71 552.955 1154.66 548.028C1155.15 534.336 1155.64 520.672 1156.12 506.98C1136.68 506.234 1117.23 505.489 1097.8 504.743C1100.34 509.685 1107.48 513.529 1105.95 519.513C1104.43 525.526 1097.85 529.756 1091.75 528.68C1011.53 514.46 941.164 454.51 914.561 377.788C900.415 336.957 870.231 301.903 835.695 274.47C834.443 289.94 833.22 305.41 829.427 322.601C867.673 378.466 890.664 450.923 955.283 494.579L955.254 494.579Z" fill="#ECDE8E" stroke="#ECDE8E" stroke-width="0.2" stroke-miterlimit="10"/>
<path d="M1145.74 506.409C1117.42 504.36 1090.5 488.025 1075.67 463.907C1060.84 439.788 1058.48 408.478 1069.54 382.398C1074.85 369.838 1088.86 361.518 1102.49 362.853C1116.1 364.188 1128.23 375.036 1131.02 388.363C1132.65 396.128 1144.45 397.97 1150.15 392.44C1155.86 386.91 1155.95 377.566 1152.96 370.224C1149.97 362.882 1144.5 356.865 1139.87 350.397C1135.25 343.929 1131.3 336.361 1132.1 328.456C1162.5 328.192 1192.4 312.739 1210.12 288.103C1201.65 281.52 1193.22 274.937 1183.45 267.309C1168.25 285.848 1142.67 295.319 1118.99 291.183C1136.69 291.955 1151.19 270.649 1143.91 254.553C1136.64 238.456 1111.01 235.166 1099.88 248.88C1092.42 258.051 1080.45 263.38 1068.62 262.78C1056.79 262.18 1044.54 257.881 1037.94 247.46C1033.51 255.87 1030.09 262.615 1025.62 271.026C1036.97 275.945 1040.68 291.108 1036.87 302.85C1033.05 314.592 1023.81 323.649 1014.89 332.198C1051.33 338.148 1090.04 311.407 1099.64 276.801C1109.62 284.853 1114.7 298.492 1112.4 311.082C1110.11 323.672 1100.53 334.649 1088.36 338.707C1073.68 343.582 1061.37 355.065 1055.51 369.318C1045.04 366.884 1033.35 370.547 1026.12 378.504C1018.92 386.461 1016.46 398.402 1019.92 408.567C1035.87 454.962 1069.36 495.155 1112.19 519.291" fill="#ECDE8E"/>
<path d="M1145.74 506.409C1117.42 504.36 1090.5 488.025 1075.67 463.907C1060.84 439.788 1058.48 408.478 1069.54 382.398C1074.85 369.838 1088.86 361.518 1102.49 362.853C1116.1 364.188 1128.23 375.036 1131.02 388.363C1132.65 396.128 1144.45 397.97 1150.15 392.44C1155.86 386.91 1155.95 377.566 1152.96 370.224C1149.97 362.882 1144.5 356.865 1139.87 350.397C1135.25 343.929 1131.3 336.361 1132.1 328.456C1162.5 328.192 1192.4 312.739 1210.12 288.103C1201.65 281.52 1193.22 274.937 1183.45 267.309C1168.25 285.848 1142.67 295.319 1118.99 291.183C1136.69 291.955 1151.19 270.649 1143.91 254.553C1136.64 238.456 1111.01 235.166 1099.88 248.88C1092.42 258.051 1080.45 263.38 1068.62 262.78C1056.79 262.18 1044.54 257.881 1037.94 247.46C1033.51 255.87 1030.09 262.615 1025.62 271.026C1036.97 275.945 1040.68 291.108 1036.87 302.85C1033.05 314.592 1023.81 323.649 1014.89 332.198C1051.33 338.148 1090.04 311.407 1099.64 276.801C1109.62 284.853 1114.7 298.492 1112.4 311.082C1110.11 323.672 1100.53 334.649 1088.36 338.707C1073.68 343.582 1061.37 355.065 1055.51 369.318C1045.04 366.884 1033.35 370.547 1026.12 378.504C1018.92 386.461 1016.46 398.402 1019.92 408.567C1035.87 454.962 1069.36 495.155 1112.19 519.291" stroke="#ECDE8E" stroke-width="0.2" stroke-miterlimit="10"/>
<path d="M920.364 399.078C915.86 378.664 911.356 358.024 911.65 337.133C911.973 316.242 917.576 294.732 931.191 278.846C944.836 262.96 967.481 253.911 987.576 259.936C1005.81 265.396 1024.04 270.855 1042.27 276.343C1044.6 261.354 1039.55 245.428 1029.03 234.468C1018.51 223.507 1002.76 217.767 987.629 219.424C946.722 223.832 911.236 226.888 870.301 231.296C876.407 264.528 861.936 295.292 860.449 326.6" fill="#ECDE8E"/>
<path d="M920.364 399.078C915.86 378.664 911.356 358.024 911.65 337.133C911.973 316.242 917.576 294.732 931.191 278.846C944.836 262.96 967.481 253.911 987.576 259.936C1005.81 265.396 1024.04 270.855 1042.27 276.343C1044.6 261.354 1039.55 245.428 1029.03 234.468C1018.51 223.507 1002.76 217.767 987.629 219.424C946.722 223.832 911.236 226.888 870.301 231.296C876.407 264.528 861.936 295.292 860.449 326.6" stroke="#ECDE8E" stroke-width="0.2" stroke-miterlimit="10"/>
<path d="M870.696 232.312C857.309 196.648 843.921 160.955 830.534 125.29C864.847 147.275 891.051 181.507 903.28 220.249C919.961 176.838 962.576 147.051 1007.83 135.672C1053.06 124.266 1100.82 128.868 1146.69 137.421C1178.9 143.454 1207.37 166.593 1219.74 196.864C1232.12 227.108 1232.21 263.414 1211.59 286.665C1202.44 277.851 1192.62 276.123 1183.48 267.309C1201.05 247.473 1197.29 210.797 1181.86 188.683C1166.41 166.568 1139.93 154.017 1113.2 149.992C1086.47 145.939 1059.2 149.48 1032.55 153.897C1007.88 158.004 982.44 163.24 962.36 178.106C942.28 192.972 929.222 220.095 938.157 243.391" fill="#ECDE8E"/>
<path d="M870.696 232.312C857.309 196.648 843.921 160.955 830.534 125.29C864.847 147.275 891.051 181.507 903.28 220.249C919.961 176.838 962.576 147.051 1007.83 135.672C1053.06 124.266 1100.82 128.868 1146.69 137.421C1178.9 143.454 1207.37 166.593 1219.74 196.864C1232.12 227.108 1232.21 263.414 1211.59 286.665C1202.44 277.851 1192.62 276.123 1183.48 267.309C1201.05 247.473 1197.29 210.797 1181.86 188.683C1166.41 166.568 1139.93 154.017 1113.2 149.992C1086.47 145.939 1059.2 149.48 1032.55 153.897C1007.88 158.004 982.44 163.24 962.36 178.106C942.28 192.972 929.222 220.095 938.157 243.391" stroke="#ECDE8E" stroke-width="0.2" stroke-miterlimit="10"/>
<path d="M826.39 399.023C836.549 405.465 851.888 434.045 856.17 448.644C860.453 463.214 862.843 478.432 868.904 492.354C874.965 506.304 885.628 519.325 900.332 523.343C915.037 527.361 933.391 518.958 935.997 503.997C938.943 487.06 934.212 468.961 923.38 455.572C940.794 460.326 954.758 475.833 957.57 493.593C960.383 511.352 951.931 530.432 936.822 540.304C921.714 550.176 900.824 550.333 885.587 540.668C868.571 529.902 840.464 513.793 824.775 503.846C824.258 470.984 826.4 429.4 826.418 399.023L826.39 399.023Z" fill="#ECDE8E" stroke="#ECDE8E" stroke-width="0.2" stroke-miterlimit="10"/>
<path d="M955.254 494.579C1013.3 533.8 1084.71 552.955 1154.66 548.028C1155.15 534.336 1155.64 520.672 1156.12 506.98C1136.68 506.234 1117.23 505.489 1097.81 504.743C1100.34 509.685 1107.48 513.529 1105.95 519.513C1104.43 525.526 1097.85 529.756 1091.75 528.68C1011.53 514.46 941.164 454.51 914.562 377.788C900.415 336.957 856.607 283.799 825.23 261.477C823.978 276.947 826.813 305.124 826.802 322.599C865.047 378.465 890.636 450.923 955.254 494.579Z" fill="#ECDE8E" stroke="#ECDE8E" stroke-width="0.2" stroke-miterlimit="10"/>
<path d="M1145.74 506.409C1117.42 504.36 1090.5 488.025 1075.67 463.907C1060.84 439.788 1058.48 408.478 1069.54 382.398C1074.85 369.838 1088.86 361.518 1102.49 362.853C1116.1 364.188 1128.23 375.036 1131.02 388.363C1132.65 396.128 1144.45 397.97 1150.15 392.44C1155.86 386.91 1155.95 377.566 1152.96 370.224C1149.97 362.882 1144.5 356.865 1139.87 350.397C1135.25 343.929 1131.3 336.361 1132.1 328.456C1162.5 328.192 1192.4 312.739 1210.12 288.103C1201.65 281.52 1193.22 274.937 1183.45 267.309C1168.25 285.848 1142.67 295.319 1118.99 291.183C1136.69 291.955 1151.19 270.649 1143.91 254.553C1136.64 238.456 1111.01 235.166 1099.88 248.88C1092.42 258.051 1080.45 263.38 1068.62 262.78C1056.79 262.18 1044.54 257.881 1037.94 247.46C1033.51 255.87 1030.09 262.615 1025.62 271.026C1036.97 275.945 1040.68 291.108 1036.87 302.85C1033.05 314.592 1023.81 323.649 1014.89 332.198C1051.33 338.148 1090.04 311.407 1099.64 276.801C1109.62 284.853 1114.7 298.492 1112.4 311.082C1110.11 323.672 1100.53 334.649 1088.36 338.707C1073.68 343.582 1061.37 355.065 1055.51 369.318C1045.04 366.884 1033.35 370.547 1026.12 378.504C1018.92 386.461 1016.46 398.402 1019.92 408.567C1035.87 454.962 1069.36 495.155 1112.19 519.291" fill="#ECDE8E"/>
<path d="M1145.74 506.409C1117.42 504.36 1090.5 488.025 1075.67 463.907C1060.84 439.788 1058.48 408.478 1069.54 382.398C1074.85 369.838 1088.86 361.518 1102.49 362.853C1116.1 364.188 1128.23 375.036 1131.02 388.363C1132.65 396.128 1144.45 397.97 1150.15 392.44C1155.86 386.91 1155.95 377.566 1152.96 370.224C1149.97 362.882 1144.5 356.865 1139.87 350.397C1135.25 343.929 1131.3 336.361 1132.1 328.456C1162.5 328.192 1192.4 312.739 1210.12 288.103C1201.65 281.52 1193.22 274.937 1183.45 267.309C1168.25 285.848 1142.67 295.319 1118.99 291.183C1136.69 291.955 1151.19 270.649 1143.91 254.553C1136.64 238.456 1111.01 235.166 1099.88 248.88C1092.42 258.051 1080.45 263.38 1068.62 262.78C1056.79 262.18 1044.54 257.881 1037.94 247.46C1033.51 255.87 1030.09 262.615 1025.62 271.026C1036.97 275.945 1040.68 291.108 1036.87 302.85C1033.05 314.592 1023.81 323.649 1014.89 332.198C1051.33 338.148 1090.04 311.407 1099.64 276.801C1109.62 284.853 1114.7 298.492 1112.4 311.082C1110.11 323.672 1100.53 334.649 1088.36 338.707C1073.68 343.582 1061.37 355.065 1055.51 369.318C1045.04 366.884 1033.35 370.547 1026.12 378.504C1018.92 386.461 1016.46 398.402 1019.92 408.567C1035.87 454.962 1069.36 495.155 1112.19 519.291" stroke="#ECDE8E" stroke-width="0.2" stroke-miterlimit="10"/>
<path d="M920.364 399.078C915.86 378.664 911.356 358.024 911.65 337.133C911.973 316.242 917.576 294.732 931.191 278.846C944.836 262.96 967.481 253.911 987.576 259.936C1005.81 265.396 1024.04 270.855 1042.27 276.343C1044.6 261.354 1039.55 245.428 1029.03 234.468C1018.51 223.507 1002.76 217.767 987.629 219.424C946.722 223.832 911.236 226.888 870.301 231.296C876.407 264.528 861.936 295.292 860.449 326.6" fill="#ECDE8E"/>
<path d="M920.364 399.078C915.86 378.664 911.356 358.024 911.65 337.133C911.973 316.242 917.576 294.732 931.191 278.846C944.836 262.96 967.481 253.911 987.576 259.936C1005.81 265.396 1024.04 270.855 1042.27 276.343C1044.6 261.354 1039.55 245.428 1029.03 234.468C1018.51 223.507 1002.76 217.767 987.629 219.424C946.722 223.832 911.236 226.888 870.301 231.296C876.407 264.528 861.936 295.292 860.449 326.6" stroke="#ECDE8E" stroke-width="0.2" stroke-miterlimit="10"/>
<path d="M870.696 232.312C857.309 196.648 836.896 154.655 823.508 118.99C857.822 140.975 891.051 181.507 903.28 220.249C919.961 176.838 962.576 147.051 1007.83 135.672C1053.06 124.266 1100.82 128.868 1146.69 137.421C1178.9 143.454 1207.37 166.593 1219.74 196.864C1232.12 227.108 1232.21 263.414 1211.59 286.665C1202.44 277.851 1192.62 276.123 1183.48 267.309C1201.05 247.473 1197.29 210.797 1181.86 188.683C1166.41 166.568 1139.94 154.017 1113.2 149.992C1086.47 145.939 1059.2 149.48 1032.55 153.897C1007.88 158.004 982.44 163.24 962.36 178.106C942.28 192.972 929.222 220.095 938.157 243.391" fill="#ECDE8E"/>
<path d="M870.696 232.312C857.309 196.648 836.896 154.655 823.508 118.99C857.822 140.975 891.051 181.507 903.28 220.249C919.961 176.838 962.576 147.051 1007.83 135.672C1053.06 124.266 1100.82 128.868 1146.69 137.421C1178.9 143.454 1207.37 166.593 1219.74 196.864C1232.12 227.108 1232.21 263.414 1211.59 286.665C1202.44 277.851 1192.62 276.123 1183.48 267.309C1201.05 247.473 1197.29 210.797 1181.86 188.683C1166.41 166.568 1139.94 154.017 1113.2 149.992C1086.47 145.939 1059.2 149.48 1032.55 153.897C1007.88 158.004 982.44 163.24 962.36 178.106C942.28 192.972 929.222 220.095 938.157 243.391" stroke="#ECDE8E" stroke-width="0.2" stroke-miterlimit="10"/>
<path d="M1505.17 5.96231C1488.79 13.6033 1472.38 21.2161 1456.04 27.0785C1435.18 15.9992 1413.99 4.83502 1390.96 -0.429848C1367.92 -5.66648 1342.4 -4.32658 1322.52 8.39405C1302.61 21.1147 1290.32 46.9111 1297.73 69.3315C1305.17 91.752 1335.2 104.898 1354.37 87.7442C1340.45 99.7344 1326.5 111.753 1312.77 121.005C1278.93 122.114 1251.9 85.4809 1256.1 51.9159C1260.3 18.3227 1288.8 -8.56515 1320.96 -19.1893C1353.12 -29.8134 1388.2 -26.7152 1421.34 -19.7787C1454.48 -12.8421 1486.88 -2.15113 1505.14 5.93406L1505.17 5.96231Z" fill="#ECDE8E" stroke="#ECDE8E" stroke-width="0.2" stroke-miterlimit="10"/>
<path d="M1462.15 4.38414C1415.92 -62.6092 1328.68 -98.4309 1248.67 -83.9111C1239.58 -82.2509 1231.11 -77.5977 1225.69 -70.1478C1210.46 -49.1242 1229.84 -25.5956 1249.99 -26.374C1253.95 -26.5411 1257.9 -24.9013 1260.18 -21.7097C1265.65 -14.0839 1257.8 -5.22382 1250.32 -6.38579C1230.17 -9.55978 1210.01 -12.762 1189.86 -15.936C1181.04 -40.3053 1193.25 -70.393 1216.58 -81.7282C1206.42 -88.1429 1196.96 -89.3625 1188.39 -99.6722C1187.57 -100.661 1188.13 -102.185 1189.38 -102.438C1243.5 -113.896 1306.45 -115.44 1362.3 -95.1359C1419.09 -74.4928 1470.24 -34.7684 1511.32 11.2456" fill="#ECDE8E"/>
<path d="M1462.15 4.38414C1415.92 -62.6092 1328.68 -98.4309 1248.67 -83.9111C1239.58 -82.2509 1231.11 -77.5977 1225.69 -70.1478C1210.46 -49.1242 1229.84 -25.5956 1249.99 -26.374C1253.95 -26.5411 1257.9 -24.9013 1260.18 -21.7097C1265.65 -14.0839 1257.8 -5.22382 1250.32 -6.38579C1230.17 -9.55978 1210.01 -12.762 1189.86 -15.936C1181.04 -40.3053 1193.25 -70.393 1216.58 -81.7282C1206.42 -88.1429 1196.96 -89.3625 1188.39 -99.6722C1187.57 -100.661 1188.13 -102.185 1189.38 -102.438C1243.5 -113.896 1306.45 -115.44 1362.3 -95.1359C1419.09 -74.4928 1470.24 -34.7684 1511.32 11.2456" stroke="#ECDE8E" stroke-width="0.2" stroke-miterlimit="10"/>
<path d="M965.055 -126.795C929.593 -117.274 906.675 -75.2508 917.889 -40.2932C929.103 -5.33566 975.131 17.4748 1007.66 6.82268C1015.33 19.2775 1018.04 19.9849 1025.71 32.4679C989.678 50.5147 925.095 40.8491 872.232 25.29C868.864 -7.99721 867.037 -21.0414 867.064 -65.7322" fill="#ECDE8E"/>
<path d="M965.055 -126.795C929.593 -117.274 906.675 -75.2508 917.889 -40.2932C929.103 -5.33566 975.131 17.4748 1007.66 6.82268C1015.33 19.2775 1018.04 19.9849 1025.71 32.4679C989.678 50.5147 925.095 40.8491 872.232 25.29C868.864 -7.99721 867.037 -21.0414 867.064 -65.7322" stroke="#ECDE8E" stroke-width="0.2" stroke-miterlimit="10"/>
<path d="M913.441 267.825C914.94 262.97 916.468 258.087 917.967 253.232Z" fill="#ECDE8E"/>
<path d="M913.441 267.825C914.94 262.97 916.468 258.087 917.967 253.232" stroke="#ECDE8E" stroke-width="0.2" stroke-miterlimit="10"/>
<path d="M868.865 -9.268C868.844 25.2594 862.655 84.4012 823.549 98.776C823.714 106.314 826.621 107.445 824.978 116.422C858.296 104.189 897.888 78.6912 904.147 44.6757C940.458 77.418 981.203 106.719 1027.91 121.173C1074.62 135.627 1128.18 133.627 1169.29 107.17C1210.41 80.713 1235.03 27.1156 1214.62 -15.7241C1198.67 -13.0516 1185.34 -11.8174 1169.33 -9.06025C1187.7 3.23153 1194.63 28.8136 1189.62 50.3232C1184.61 71.8328 1164.65 85.7956 1143.53 92.248C1102.76 104.674 1072.77 112.504 1031.63 95.1173C997.112 80.5291 958.672 66.6443 943.76 32.2492" fill="#ECDE8E"/>
<path d="M868.865 -9.268C868.844 25.2594 862.655 84.4012 823.549 98.776C823.714 106.314 826.621 107.445 824.978 116.422C858.296 104.189 897.888 78.6912 904.147 44.6757C940.458 77.418 981.203 106.719 1027.91 121.173C1074.62 135.627 1128.18 133.627 1169.29 107.17C1210.41 80.713 1235.03 27.1156 1214.62 -15.7241C1198.67 -13.0516 1185.34 -11.8174 1169.33 -9.06025C1187.7 3.23153 1194.63 28.8136 1189.62 50.3232C1184.61 71.8328 1164.65 85.7956 1143.53 92.248C1102.76 104.674 1072.77 112.504 1031.63 95.1173C997.112 80.5291 958.672 66.6443 943.76 32.2492" stroke="#ECDE8E" stroke-width="0.2" stroke-miterlimit="10"/>
<path d="M986.455 10.9037C1001.95 7.52517 1021.24 4.8829 1029.52 -8.80454C1037.79 -22.4638 1035.04 -41.8041 1023.27 -52.6239C1042.02 -49.8743 1058.32 -34.7605 1062.52 -16.2945C1077.82 -16.4547 1093.12 -16.615 1108.42 -16.747C1107.97 -25.8661 1107.53 -34.9852 1104.91 -43.9927C1112 -46.7834 1119.05 -49.5741 1126.14 -52.3649C1152.59 -41.7904 1178.01 -28.6474 1197.99 -6.81236C1172.75 -6.99683 1147.66 -15.7072 1127.77 -31.2183C1135.35 -18.82 1143.25 -5.15116 1141.38 9.24591C1139.5 23.643 1122.22 36.224 1110.23 28.0296C1095.47 17.9703 1080.74 7.88279 1065.98 -2.17653C1053.98 9.05253 1040.7 21.2689 1025.71 32.4397C1021.16 34.385 1019.61 40.2563 986.455 10.9319L986.455 10.9037Z" fill="#ECDE8E" stroke="#ECDE8E" stroke-width="0.2" stroke-miterlimit="10"/>
<path d="M20.3091 258.37C32.5551 267.384 39.2648 282.012 43.547 296.554C47.8291 311.095 50.2195 326.257 56.2522 340.151C62.3132 354.045 72.976 367.037 87.6527 371.027C102.358 375.016 120.683 366.643 123.289 351.738C126.235 334.857 121.504 316.786 110.672 303.454C128.086 308.179 142.022 323.658 144.862 341.39C147.675 359.121 139.223 378.116 124.143 387.96C109.063 397.803 88.1449 397.96 72.9352 388.324C55.9477 377.586 38.9602 366.848 22.7634 355.545C22.2466 322.796 21.7299 290.047 20.3373 258.399L20.3091 258.37Z" fill="#ECDE8E" stroke="#ECDE8E" stroke-width="0.2" stroke-miterlimit="10"/>
<path d="M142.575 342.377C200.59 381.484 271.97 400.583 341.896 395.684C342.384 382.049 342.873 368.385 343.361 354.749C323.939 354.004 304.49 353.258 285.069 352.512C287.607 357.454 294.746 361.27 293.218 367.254C291.69 373.238 285.111 377.469 279.014 376.393C198.852 362.201 128.484 302.449 101.91 225.925C87.7632 185.206 57.579 150.237 23.0712 122.888C21.8199 138.33 20.5968 153.744 16.8039 170.907C55.0209 226.602 78.0127 298.861 142.575 342.405L142.575 342.377Z" fill="#ECDE8E" stroke="#ECDE8E" stroke-width="0.2" stroke-miterlimit="10"/>
<path d="M332.973 354.178C304.66 352.128 277.768 335.851 262.962 311.789C248.156 287.726 245.775 256.5 256.828 230.506C262.143 217.974 276.15 209.71 289.755 211.017C303.361 212.324 315.493 223.172 318.279 236.471C319.912 244.208 331.711 246.05 337.416 240.548C343.122 235.046 343.212 225.701 340.224 218.388C337.236 211.074 331.763 205.057 327.138 198.618C322.512 192.178 318.564 184.61 319.36 176.733C349.762 176.469 379.638 161.044 397.324 136.493C388.859 129.938 380.423 123.384 370.66 115.755C355.462 134.238 329.881 143.68 306.227 139.573C323.898 140.345 338.392 119.096 331.119 103.056C323.845 87.0156 298.243 83.7254 287.113 97.4111C279.655 106.554 267.683 111.854 255.883 111.254C244.056 110.654 231.835 106.356 225.208 95.9626C220.771 104.373 217.351 111.062 212.886 119.472C224.231 124.391 227.92 139.498 224.102 151.211C220.284 162.925 211.048 171.954 202.122 180.475C238.534 186.425 277.224 159.741 286.842 125.247C296.802 133.271 301.904 146.882 299.61 159.415C297.316 171.949 287.768 182.925 275.599 186.955C260.945 191.802 248.602 203.257 242.75 217.482C232.278 215.048 220.589 218.711 213.386 226.64C206.183 234.569 203.72 246.481 207.214 256.619C223.164 302.9 256.62 342.953 299.457 367.032" fill="#ECDE8E"/>
<path d="M332.973 354.178C304.66 352.128 277.768 335.851 262.962 311.789C248.156 287.726 245.775 256.5 256.828 230.506C262.143 217.974 276.15 209.71 289.755 211.017C303.361 212.324 315.493 223.172 318.279 236.471C319.912 244.208 331.711 246.05 337.416 240.548C343.122 235.046 343.212 225.701 340.224 218.388C337.236 211.074 331.763 205.057 327.138 198.618C322.512 192.178 318.564 184.61 319.36 176.733C349.762 176.469 379.638 161.044 397.324 136.493C388.859 129.938 380.423 123.384 370.66 115.755C355.462 134.238 329.881 143.68 306.227 139.573C323.898 140.345 338.392 119.096 331.119 103.056C323.845 87.0156 298.243 83.7254 287.113 97.4111C279.655 106.554 267.683 111.854 255.883 111.254C244.056 110.654 231.835 106.356 225.208 95.9626C220.771 104.373 217.351 111.062 212.886 119.472C224.231 124.391 227.92 139.498 224.102 151.211C220.284 162.925 211.048 171.954 202.122 180.475C238.534 186.425 277.224 159.741 286.842 125.247C296.802 133.271 301.904 146.882 299.61 159.415C297.316 171.949 287.768 182.925 275.599 186.955C260.945 191.802 248.602 203.257 242.75 217.482C232.278 215.048 220.589 218.711 213.386 226.64C206.183 234.569 203.72 246.481 207.214 256.619C223.164 302.9 256.62 342.953 299.457 367.032" stroke="#ECDE8E" stroke-width="0.2" stroke-miterlimit="10"/>
<path d="M107.713 247.158C103.208 226.8 98.7042 206.216 98.999 185.382C99.3219 164.547 104.896 143.094 118.54 127.264C132.184 111.434 154.801 102.414 174.896 108.411C193.129 113.87 211.334 119.302 229.566 124.761C231.89 109.828 226.846 93.9307 216.324 82.9988C205.801 72.0668 190.052 66.3546 174.949 67.983C134.042 72.3909 98.5847 75.4188 57.6781 79.8267C63.7841 112.946 49.3125 143.625 47.826 174.849" fill="#ECDE8E"/>
<path d="M107.713 247.158C103.208 226.8 98.7042 206.216 98.999 185.382C99.3219 164.547 104.896 143.094 118.54 127.264C132.184 111.434 154.801 102.414 174.896 108.411C193.129 113.87 211.334 119.302 229.566 124.761C231.89 109.828 226.846 93.9307 216.324 82.9988C205.801 72.0668 190.052 66.3546 174.949 67.983C134.042 72.3909 98.5847 75.4188 57.6781 79.8267C63.7841 112.946 49.3125 143.625 47.826 174.849" stroke="#ECDE8E" stroke-width="0.2" stroke-miterlimit="10"/>
<path d="M58.0725 80.8719C44.6849 45.2919 31.2974 9.71192 17.9098 -25.8398C52.195 -3.91152 78.3993 30.2081 90.6276 68.8646C107.309 25.5671 149.896 -4.10724 195.126 -15.4858C240.327 -26.8644 288.06 -22.2906 333.899 -13.7372C366.104 -7.73288 394.545 15.3495 406.92 45.5366C419.295 75.6955 419.386 111.889 398.765 135.083C389.624 126.297 379.801 124.569 370.688 115.784C388.259 96.0038 384.498 59.4132 369.07 37.3832C353.642 15.325 327.17 2.83077 300.44 -1.1941C273.737 -5.21896 246.466 -1.70631 219.815 2.71015C195.169 6.78903 169.703 12.0249 149.652 26.8628C129.6 41.6725 116.542 68.7389 125.449 91.9508" fill="#ECDE8E"/>
<path d="M58.0725 80.8719C44.6849 45.2919 31.2974 9.71192 17.9098 -25.8398C52.195 -3.91152 78.3993 30.2081 90.6276 68.8646C107.309 25.5671 149.896 -4.10724 195.126 -15.4858C240.327 -26.8644 288.06 -22.2906 333.899 -13.7372C366.104 -7.73288 394.545 15.3495 406.92 45.5366C419.295 75.6955 419.386 111.889 398.765 135.083C389.624 126.297 379.801 124.569 370.688 115.784C388.259 96.0038 384.498 59.4132 369.07 37.3832C353.642 15.325 327.17 2.83077 300.44 -1.1941C273.737 -5.21896 246.466 -1.70631 219.815 2.71015C195.169 6.78903 169.703 12.0249 149.652 26.8628C129.6 41.6725 116.542 68.7389 125.449 91.9508" stroke="#ECDE8E" stroke-width="0.2" stroke-miterlimit="10"/>
<path d="M16.2471 253.371C28.4931 262.384 39.2931 282.04 43.5752 296.553C47.8573 311.095 50.2478 326.257 56.2805 340.151C62.3414 354.044 73.0043 367.037 87.681 371.027C102.386 375.016 120.712 366.642 123.318 351.738C126.263 334.857 121.532 316.786 110.7 303.454C128.114 308.179 142.05 323.658 144.891 341.389C147.703 359.121 139.251 378.116 124.171 387.959C109.091 397.803 88.1729 397.96 72.9632 388.324C55.9758 377.586 32.9183 368.143 16.7216 356.84C15.2731 324.288 16.2561 285.442 16.2753 253.399L16.2471 253.371Z" fill="#ECDE8E" stroke="#ECDE8E" stroke-width="0.2" stroke-miterlimit="10"/>
<path d="M142.575 342.376C200.59 381.484 271.97 400.583 341.896 395.684C342.384 382.048 342.872 368.385 343.361 354.749C323.939 354.003 304.49 353.258 285.069 352.512C287.607 357.454 294.746 361.27 293.218 367.254C291.69 373.238 285.11 377.469 279.014 376.392C198.852 362.201 128.484 302.448 101.91 225.924C87.7631 185.206 50.8643 143.57 16.3283 116.221C15.3011 134.571 17.0929 159.416 14.1746 177.398C52.3917 233.094 77.9844 298.833 142.575 342.376Z" fill="#ECDE8E" stroke="#ECDE8E" stroke-width="0.2" stroke-miterlimit="10"/>
<path d="M332.973 354.178C304.66 352.128 277.768 335.851 262.962 311.789C248.156 287.726 245.775 256.5 256.828 230.506C262.143 217.974 276.15 209.71 289.755 211.017C303.361 212.324 315.493 223.172 318.279 236.471C319.912 244.208 331.711 246.05 337.416 240.548C343.122 235.046 343.212 225.701 340.224 218.388C337.236 211.074 331.763 205.057 327.138 198.618C322.512 192.178 318.564 184.61 319.36 176.733C349.762 176.469 379.638 161.044 397.324 136.493C388.859 129.938 380.423 123.384 370.66 115.755C355.462 134.238 329.881 143.68 306.227 139.573C323.898 140.345 338.392 119.096 331.119 103.056C323.845 87.0156 298.243 83.7254 287.113 97.4111C279.655 106.554 267.683 111.854 255.883 111.254C244.056 110.654 231.835 106.356 225.208 95.9626C220.771 104.373 217.351 111.062 212.886 119.472C224.231 124.391 227.92 139.498 224.102 151.211C220.284 162.925 211.048 171.954 202.122 180.475C238.534 186.425 277.224 159.741 286.842 125.247C296.802 133.271 301.904 146.882 299.61 159.415C297.316 171.949 287.768 182.925 275.599 186.955C260.945 191.802 248.602 203.257 242.75 217.482C232.278 215.048 220.589 218.711 213.386 226.64C206.183 234.569 203.72 246.481 207.214 256.619C223.164 302.9 256.62 342.953 299.457 367.032" fill="#ECDE8E"/>
<path d="M332.973 354.178C304.66 352.128 277.768 335.851 262.962 311.789C248.156 287.726 245.775 256.5 256.828 230.506C262.143 217.974 276.15 209.71 289.755 211.017C303.361 212.324 315.493 223.172 318.279 236.471C319.912 244.208 331.711 246.05 337.416 240.548C343.122 235.046 343.212 225.701 340.224 218.388C337.236 211.074 331.763 205.057 327.138 198.618C322.512 192.178 318.564 184.61 319.36 176.733C349.762 176.469 379.638 161.044 397.324 136.493C388.859 129.938 380.423 123.384 370.66 115.755C355.462 134.238 329.881 143.68 306.227 139.573C323.898 140.345 338.392 119.096 331.119 103.056C323.845 87.0156 298.243 83.7254 287.113 97.4111C279.655 106.554 267.683 111.854 255.883 111.254C244.056 110.654 231.835 106.356 225.208 95.9626C220.771 104.373 217.351 111.062 212.886 119.472C224.231 124.391 227.92 139.498 224.102 151.211C220.284 162.925 211.048 171.954 202.122 180.475C238.534 186.425 277.224 159.741 286.842 125.247C296.802 133.271 301.904 146.882 299.61 159.415C297.316 171.949 287.768 182.925 275.599 186.955C260.945 191.802 248.602 203.257 242.75 217.482C232.278 215.048 220.589 218.711 213.386 226.64C206.183 234.569 203.72 246.481 207.214 256.619C223.164 302.9 256.62 342.953 299.457 367.032" stroke="#ECDE8E" stroke-width="0.2" stroke-miterlimit="10"/>
<path d="M403.416 618.017C431.815 616.002 458.84 599.756 473.731 575.712C488.622 551.667 491.04 520.444 479.99 494.436C474.662 481.898 460.638 473.618 446.974 474.908C433.31 476.199 421.137 487.033 418.334 500.328C416.693 508.063 404.864 509.89 399.136 504.382C393.409 498.873 393.33 489.529 396.355 482.218C399.38 474.908 404.86 468.898 409.493 462.464C414.127 456.03 418.111 448.466 417.326 440.589C386.81 440.289 354.248 416.696 336.507 392.095C345.008 385.55 333.589 362.309 343.389 354.72C358.621 373.221 406.76 407.523 430.531 403.444C412.774 404.196 398.277 382.928 405.57 366.897C412.891 350.866 438.581 347.606 449.752 361.306C457.199 370.457 469.221 375.772 481.078 375.186C492.934 374.6 505.217 370.316 511.885 359.931C516.34 368.347 519.752 375.04 524.207 383.455C512.828 388.361 509.092 403.463 512.896 415.181C516.7 426.9 525.982 435.939 534.897 444.471C498.337 450.377 459.538 423.647 449.961 389.142C439.935 397.154 434.846 410.759 437.125 423.295C439.404 435.831 448.995 446.819 461.188 450.863C475.892 455.728 488.249 467.197 494.113 481.43C504.643 479.008 516.356 482.685 523.578 490.623C530.8 498.56 533.249 510.475 529.742 520.608C513.681 566.871 480.064 606.883 437.057 630.911" fill="#ECDE8E"/>
<path d="M403.416 618.017C431.815 616.002 458.84 599.756 473.731 575.712C488.622 551.667 491.04 520.444 479.99 494.436C474.662 481.898 460.638 473.618 446.974 474.908C433.31 476.199 421.137 487.033 418.334 500.328C416.693 508.063 404.864 509.89 399.136 504.382C393.409 498.873 393.33 489.529 396.355 482.218C399.38 474.908 404.86 468.898 409.493 462.464C414.127 456.03 418.111 448.466 417.326 440.589C386.81 440.289 354.248 416.696 336.507 392.095C345.008 385.55 333.589 362.309 343.389 354.72C358.621 373.221 406.76 407.523 430.531 403.444C412.774 404.196 398.277 382.928 405.57 366.897C412.891 350.866 438.581 347.606 449.752 361.306C457.199 370.457 469.221 375.772 481.078 375.186C492.934 374.6 505.217 370.316 511.885 359.931C516.34 368.347 519.752 375.04 524.207 383.455C512.828 388.361 509.092 403.463 512.896 415.181C516.7 426.9 525.982 435.939 534.897 444.471C498.337 450.377 459.538 423.647 449.961 389.142C439.935 397.154 434.846 410.759 437.125 423.295C439.404 435.831 448.995 446.819 461.188 450.863C475.892 455.728 488.249 467.197 494.113 481.43C504.643 479.008 516.356 482.685 523.578 490.623C530.8 498.56 533.249 510.475 529.742 520.608C513.681 566.871 480.064 606.883 437.057 630.911" stroke="#ECDE8E" stroke-width="0.2" stroke-miterlimit="10"/>
<path d="M403.498 480.727C431.895 482.805 458.901 499.28 473.763 523.653C488.625 548.026 491.005 579.618 479.924 605.952C474.581 618.625 460.546 627.029 446.884 625.694C433.222 624.359 421.062 613.398 418.275 599.93C416.643 592.081 404.816 590.21 399.082 595.797C393.348 601.383 393.258 610.812 396.274 618.239C399.29 625.666 404.763 631.739 409.389 638.235C414.014 644.759 417.99 652.413 417.195 660.373C386.679 660.638 354.088 684.502 336.317 709.364C344.81 716.003 333.364 739.513 343.155 747.226C358.409 728.518 406.589 693.822 430.355 698.014C412.6 697.241 398.077 718.745 405.35 734.983C412.652 751.22 438.338 754.567 449.525 740.712C456.983 731.456 469.012 726.071 480.868 726.7C492.724 727.299 505.001 731.655 511.657 742.161C516.122 733.666 519.542 726.864 524.007 718.369C512.634 713.393 508.917 698.089 512.735 686.234C516.553 674.379 525.845 665.238 534.771 656.604C498.218 650.597 459.387 677.592 449.768 712.537C439.752 704.4 434.679 690.648 436.973 677.917C439.267 665.214 448.871 654.097 461.069 650.039C475.779 645.107 488.15 633.539 494.031 619.116C504.559 621.579 516.276 617.887 523.507 609.846C530.739 601.804 533.202 589.75 529.708 579.5C513.701 532.654 480.133 492.065 437.155 467.675" fill="#ECDE8E"/>
<path d="M403.498 480.727C431.895 482.805 458.901 499.28 473.763 523.653C488.625 548.026 491.005 579.618 479.924 605.952C474.581 618.625 460.546 627.029 446.884 625.694C433.222 624.359 421.062 613.398 418.275 599.93C416.643 592.081 404.816 590.21 399.082 595.797C393.348 601.383 393.258 610.812 396.274 618.239C399.29 625.666 404.763 631.739 409.389 638.235C414.014 644.759 417.99 652.413 417.195 660.373C386.679 660.638 354.088 684.502 336.317 709.364C344.81 716.003 333.364 739.513 343.155 747.226C358.409 728.518 406.589 693.822 430.355 698.014C412.6 697.241 398.077 718.745 405.35 734.983C412.652 751.22 438.338 754.567 449.525 740.712C456.983 731.456 469.012 726.071 480.868 726.7C492.724 727.299 505.001 731.655 511.657 742.161C516.122 733.666 519.542 726.864 524.007 718.369C512.634 713.393 508.917 698.089 512.735 686.234C516.553 674.379 525.845 665.238 534.771 656.604C498.218 650.597 459.387 677.592 449.768 712.537C439.752 704.4 434.679 690.648 436.973 677.917C439.267 665.214 448.871 654.097 461.069 650.039C475.779 645.107 488.15 633.539 494.031 619.116C504.559 621.579 516.276 617.887 523.507 609.846C530.739 601.804 533.202 589.75 529.708 579.5C513.701 532.654 480.133 492.065 437.155 467.675" stroke="#ECDE8E" stroke-width="0.2" stroke-miterlimit="10"/>
<path d="M107.713 247.158C103.208 226.8 98.7042 206.216 98.999 185.382C99.3219 164.547 104.896 143.094 118.54 127.264C132.184 111.434 154.801 102.414 174.896 108.411C193.129 113.87 211.334 119.302 229.566 124.761C231.89 109.828 226.846 93.9307 216.324 82.9988C205.801 72.0668 190.052 66.3546 174.949 67.983C134.042 72.3909 98.5847 75.4188 57.6781 79.8267C63.7841 112.946 49.3125 143.625 47.826 174.849" fill="#ECDE8E"/>
<path d="M107.713 247.158C103.208 226.8 98.7042 206.216 98.999 185.382C99.3219 164.547 104.896 143.094 118.54 127.264C132.184 111.434 154.801 102.414 174.896 108.411C193.129 113.87 211.334 119.302 229.566 124.761C231.89 109.828 226.846 93.9307 216.324 82.9988C205.801 72.0668 190.052 66.3546 174.949 67.983C134.042 72.3909 98.5847 75.4188 57.6781 79.8267C63.7841 112.946 49.3125 143.625 47.826 174.849" stroke="#ECDE8E" stroke-width="0.2" stroke-miterlimit="10"/>
<path d="M58.0723 80.8716C44.6847 45.2916 31.2964 11.0385 17.9089 -24.5415C51.9994 -7.52562 78.3991 30.2077 90.6274 68.8643C107.308 25.5668 149.896 -4.10755 195.125 -15.4862C240.327 -26.8648 288.06 -22.2909 333.898 -13.7376C366.104 -7.73319 394.545 15.3491 406.92 45.5363C419.294 75.6951 419.386 111.888 398.764 135.082C389.624 126.297 379.801 124.569 370.688 115.783C388.258 96.0034 384.498 59.4129 369.069 37.3829C353.641 15.3247 327.17 2.83046 300.439 -1.19442C273.737 -5.21928 246.466 -1.70662 219.815 2.70983C195.168 6.78871 169.703 12.0246 149.651 26.8625C129.6 41.6722 116.542 68.7386 125.448 91.9504" fill="#ECDE8E"/>
<path d="M58.0723 80.8716C44.6847 45.2916 31.2964 11.0385 17.9089 -24.5415C51.9994 -7.52562 78.3991 30.2077 90.6274 68.8643C107.308 25.5668 149.896 -4.10755 195.125 -15.4862C240.327 -26.8648 288.06 -22.2909 333.898 -13.7376C366.104 -7.73319 394.545 15.3491 406.92 45.5363C419.294 75.6951 419.386 111.888 398.764 135.082C389.624 126.297 379.801 124.569 370.688 115.783C388.258 96.0034 384.498 59.4129 369.069 37.3829C353.641 15.3247 327.17 2.83046 300.439 -1.19442C273.737 -5.21928 246.466 -1.70662 219.815 2.70983C195.168 6.78871 169.703 12.0246 149.651 26.8625C129.6 41.6722 116.542 68.7386 125.448 91.9504" stroke="#ECDE8E" stroke-width="0.2" stroke-miterlimit="10"/>
<path d="M88.8988 504.535C54.8044 541.245 -25.1759 553.421 -62.2489 520.029C-63.1425 503.739 -74.8699 477.166 -65.5458 463.027C-54.4296 473.028 -33.0705 490.234 -22.8581 501.137C-12.6457 512.041 2.25414 520.83 16.9353 517.451C31.6164 514.072 40.7185 493.299 29.2915 483.637C2.60035 461.064 -37.1612 438.991 -62.8072 415.233C-64.8064 406.762 -63.7246 391.376 -62.1099 381.976C-53.8704 387.571 -34.1711 395.346 -25.056 400.095C9.26603 454.913 65.5018 496.08 128.81 512.775" fill="#ECDE8E"/>
<path d="M88.8988 504.535C54.8044 541.245 -25.1759 553.421 -62.2489 520.029C-63.1425 503.739 -74.8699 477.166 -65.5458 463.027C-54.4296 473.028 -33.0705 490.234 -22.8581 501.137C-12.6457 512.041 2.25414 520.83 16.9353 517.451C31.6164 514.072 40.7185 493.299 29.2915 483.637C2.60035 461.064 -37.1612 438.991 -62.8072 415.233C-64.8064 406.762 -63.7246 391.376 -62.1099 381.976C-53.8704 387.571 -34.1711 395.346 -25.056 400.095C9.26603 454.913 65.5018 496.08 128.81 512.775" stroke="#ECDE8E" stroke-width="0.2" stroke-miterlimit="10"/>
<path d="M464.349 498.775C351.608 535.352 180.305 551.003 67.4673 514.545C69.5312 509.097 71.567 503.622 73.6309 498.174C161.689 526.628 259.358 531.966 352.777 515.929C385.103 510.387 416.953 497.024 436.673 471.289" fill="#ECDE8E"/>
<path d="M464.349 498.775C351.608 535.352 180.305 551.003 67.4673 514.545C69.5312 509.097 71.567 503.622 73.6309 498.174C161.689 526.628 259.358 531.966 352.777 515.929C385.103 510.387 416.953 497.024 436.673 471.289" stroke="#ECDE8E" stroke-width="0.2" stroke-miterlimit="10"/>
<path d="M223.031 525.564C186.282 517.044 155.332 487.749 145.361 452.03C142.572 442.091 149.551 430.577 159.772 428.211C169.992 425.846 181.477 433.08 183.532 443.188C192.916 423.149 214.801 409.385 237.667 408.693C243.282 413.016 250.226 415.194 256.943 417.513C263.66 419.832 270.546 422.49 275.568 427.405C280.618 432.349 283.408 440.171 280.412 446.521C277.416 452.871 267.506 455.547 262.795 450.293C253.118 439.531 239.376 431.844 224.753 431.299C210.131 430.754 194.996 438.142 188.354 450.927C181.685 463.712 185.259 481.302 197.478 489.186C230.352 510.408 269.357 522.401 308.708 523.356" fill="#ECDE8E"/>
<path d="M223.031 525.564C186.282 517.044 155.332 487.749 145.361 452.03C142.572 442.091 149.551 430.577 159.772 428.211C169.992 425.846 181.477 433.08 183.532 443.188C192.916 423.149 214.801 409.385 237.667 408.693C243.282 413.016 250.226 415.194 256.943 417.513C263.66 419.832 270.546 422.49 275.568 427.405C280.618 432.349 283.408 440.171 280.412 446.521C277.416 452.871 267.506 455.547 262.795 450.293C253.118 439.531 239.376 431.844 224.753 431.299C210.131 430.754 194.996 438.142 188.354 450.927C181.685 463.712 185.259 481.302 197.478 489.186C230.352 510.408 269.357 522.401 308.708 523.356" stroke="#ECDE8E" stroke-width="0.2" stroke-miterlimit="10"/>
<path d="M1457.94 7.28939C1411.74 -59.5063 1324.53 -95.215 1244.58 -80.7517C1235.49 -79.1197 1227.02 -74.4665 1221.62 -67.0166C1206.39 -46.0495 1225.77 -22.5773 1245.9 -23.384C1249.82 -23.5511 1253.8 -21.9395 1256.09 -18.7197C1261.53 -11.0939 1253.71 -2.26202 1246.23 -3.45222C1226.07 -6.62621 1205.95 -9.8002 1185.79 -12.9742C1176.97 -37.287 1189.19 -67.2618 1212.48 -78.5688C1202.32 -84.9835 1192.87 -86.2031 1184.29 -96.4563C1183.47 -97.4449 1184.04 -98.9691 1185.28 -99.2224C1239.37 -110.652 1302.3 -112.196 1358.12 -91.9483C1414.88 -71.3617 1466.01 -31.7503 1507.05 14.1226" fill="#ECDE8E"/>
<path d="M1457.94 7.28939C1411.74 -59.5063 1324.53 -95.215 1244.58 -80.7517C1235.49 -79.1197 1227.02 -74.4665 1221.62 -67.0166C1206.39 -46.0495 1225.77 -22.5773 1245.9 -23.384C1249.82 -23.5511 1253.8 -21.9395 1256.09 -18.7197C1261.53 -11.0939 1253.71 -2.26202 1246.23 -3.45222C1226.07 -6.62621 1205.95 -9.8002 1185.79 -12.9742C1176.97 -37.287 1189.19 -67.2618 1212.48 -78.5688C1202.32 -84.9835 1192.87 -86.2031 1184.29 -96.4563C1183.47 -97.4449 1184.04 -98.9691 1185.28 -99.2224C1239.37 -110.652 1302.3 -112.196 1358.12 -91.9483C1414.88 -71.3617 1466.01 -31.7503 1507.05 14.1226" stroke="#ECDE8E" stroke-width="0.2" stroke-miterlimit="10"/>
<path d="M1251.01 491.312C1222.61 493.327 1195.59 509.573 1180.7 533.617C1165.81 557.662 1163.39 588.885 1174.44 614.893C1179.77 627.431 1193.79 635.711 1207.45 634.42C1221.12 633.13 1233.29 622.296 1236.09 609.001C1237.74 601.266 1249.56 599.438 1255.29 604.947C1261.02 610.456 1261.1 619.8 1258.07 627.11C1255.05 634.421 1249.57 640.431 1244.94 646.865C1240.3 653.299 1236.32 660.863 1237.1 668.74C1267.62 669.04 1300.18 692.633 1317.92 717.234C1309.42 723.778 1320.84 747.02 1311.04 754.608C1295.81 736.108 1247.67 701.805 1223.9 705.885C1241.65 705.133 1256.15 726.4 1248.86 742.432C1241.54 758.463 1215.85 761.722 1204.68 748.023C1197.23 738.872 1185.21 733.557 1173.35 734.143C1161.49 734.729 1149.21 739.013 1142.54 749.398C1138.09 740.982 1134.68 734.289 1130.22 725.873C1141.6 720.968 1145.34 705.866 1141.53 694.148C1137.73 682.429 1128.45 673.39 1119.53 664.858C1156.09 658.951 1194.89 685.682 1204.47 720.187C1214.49 712.175 1219.58 698.57 1217.3 686.034C1215.02 673.498 1205.43 662.51 1193.24 658.465C1178.54 653.601 1166.18 642.131 1160.32 627.899C1149.79 630.321 1138.07 626.644 1130.85 618.706C1123.63 610.769 1121.18 598.853 1124.69 588.72C1140.75 542.458 1174.36 502.446 1217.37 478.418" fill="#ECDE8E"/>
<path d="M1251.01 491.312C1222.61 493.327 1195.59 509.573 1180.7 533.617C1165.81 557.662 1163.39 588.885 1174.44 614.893C1179.77 627.431 1193.79 635.711 1207.45 634.42C1221.12 633.13 1233.29 622.296 1236.09 609.001C1237.74 601.266 1249.56 599.438 1255.29 604.947C1261.02 610.456 1261.1 619.8 1258.07 627.11C1255.05 634.421 1249.57 640.431 1244.94 646.865C1240.3 653.299 1236.32 660.863 1237.1 668.74C1267.62 669.04 1300.18 692.633 1317.92 717.234C1309.42 723.778 1320.84 747.02 1311.04 754.608C1295.81 736.108 1247.67 701.805 1223.9 705.885C1241.65 705.133 1256.15 726.4 1248.86 742.432C1241.54 758.463 1215.85 761.722 1204.68 748.023C1197.23 738.872 1185.21 733.557 1173.35 734.143C1161.49 734.729 1149.21 739.013 1142.54 749.398C1138.09 740.982 1134.68 734.289 1130.22 725.873C1141.6 720.968 1145.34 705.866 1141.53 694.148C1137.73 682.429 1128.45 673.39 1119.53 664.858C1156.09 658.951 1194.89 685.682 1204.47 720.187C1214.49 712.175 1219.58 698.57 1217.3 686.034C1215.02 673.498 1205.43 662.51 1193.24 658.465C1178.54 653.601 1166.18 642.131 1160.32 627.899C1149.79 630.321 1138.07 626.644 1130.85 618.706C1123.63 610.769 1121.18 598.853 1124.69 588.72C1140.75 542.458 1174.36 502.446 1217.37 478.418" stroke="#ECDE8E" stroke-width="0.2" stroke-miterlimit="10"/>
<path d="M1250.93 628.631C1222.53 626.553 1195.53 610.078 1180.67 585.705C1165.8 561.332 1163.42 529.739 1174.5 503.406C1179.85 490.733 1193.88 482.328 1207.54 483.663C1221.21 484.998 1233.37 495.959 1236.15 509.428C1237.79 517.277 1249.61 519.147 1255.35 513.561C1261.08 507.974 1261.17 498.545 1258.15 491.118C1255.14 483.692 1249.67 477.618 1245.04 471.122C1240.41 464.598 1236.44 456.945 1237.23 448.984C1267.75 448.72 1300.34 424.855 1318.11 399.994C1309.62 393.354 1321.06 369.844 1311.27 362.131C1296.02 380.84 1247.84 415.536 1224.07 411.343C1241.83 412.116 1256.35 390.612 1249.08 374.375C1241.78 358.137 1216.09 354.79 1204.9 368.645C1197.44 377.901 1185.42 383.286 1173.56 382.658C1161.7 382.058 1149.43 377.703 1142.77 367.197C1138.31 375.692 1134.89 382.494 1130.42 390.989C1141.79 395.964 1145.51 411.268 1141.69 423.123C1137.88 434.978 1128.58 444.12 1119.66 452.753C1156.21 458.76 1195.04 431.766 1204.66 396.821C1214.68 404.957 1219.75 418.709 1217.46 431.44C1215.16 444.143 1205.56 455.261 1193.36 459.319C1178.65 464.251 1166.28 475.818 1160.4 490.241C1149.87 487.779 1138.15 491.47 1130.92 499.512C1123.69 507.554 1121.23 519.607 1124.72 529.857C1140.73 576.703 1174.3 617.292 1217.27 641.682" fill="#ECDE8E"/>
<path d="M1250.93 628.631C1222.53 626.553 1195.53 610.078 1180.67 585.705C1165.8 561.332 1163.42 529.739 1174.5 503.406C1179.85 490.733 1193.88 482.328 1207.54 483.663C1221.21 484.998 1233.37 495.959 1236.15 509.428C1237.79 517.277 1249.61 519.147 1255.35 513.561C1261.08 507.974 1261.17 498.545 1258.15 491.118C1255.14 483.692 1249.67 477.618 1245.04 471.122C1240.41 464.598 1236.44 456.945 1237.23 448.984C1267.75 448.72 1300.34 424.855 1318.11 399.994C1309.62 393.354 1321.06 369.844 1311.27 362.131C1296.02 380.84 1247.84 415.536 1224.07 411.343C1241.83 412.116 1256.35 390.612 1249.08 374.375C1241.78 358.137 1216.09 354.79 1204.9 368.645C1197.44 377.901 1185.42 383.286 1173.56 382.658C1161.7 382.058 1149.43 377.703 1142.77 367.197C1138.31 375.692 1134.89 382.494 1130.42 390.989C1141.79 395.964 1145.51 411.268 1141.69 423.123C1137.88 434.978 1128.58 444.12 1119.66 452.753C1156.21 458.76 1195.04 431.766 1204.66 396.821C1214.68 404.957 1219.75 418.709 1217.46 431.44C1215.16 444.143 1205.56 455.261 1193.36 459.319C1178.65 464.251 1166.28 475.818 1160.4 490.241C1149.87 487.779 1138.15 491.47 1130.92 499.512C1123.69 507.554 1121.23 519.607 1124.72 529.857C1140.73 576.703 1174.3 617.292 1217.27 641.682" stroke="#ECDE8E" stroke-width="0.2" stroke-miterlimit="10"/>
<path d="M1635.35 262.582C1623.09 271.496 1616.36 285.975 1612.06 300.37C1607.76 314.766 1605.36 329.784 1599.31 343.529C1593.23 357.303 1582.55 370.142 1567.87 374.085C1553.16 378.029 1534.84 369.718 1532.26 354.923C1529.33 338.18 1534.08 320.312 1544.93 307.106C1527.51 311.754 1513.56 327.075 1510.69 344.634C1507.86 362.192 1516.29 381.028 1531.36 390.777C1546.43 400.554 1567.35 400.707 1582.57 391.202C1599.57 380.569 1616.57 369.964 1632.78 358.794C1633.33 326.356 1633.89 293.918 1635.32 262.582L1635.35 262.582Z" fill="#ECDE8E" stroke="#ECDE8E" stroke-width="0.2" stroke-miterlimit="10"/>
<path d="M1512.98 345.651C1454.92 384.322 1383.52 403.139 1313.6 398.213C1313.12 384.689 1312.65 371.194 1312.18 357.671C1331.6 356.949 1351.05 356.254 1370.47 355.532C1367.93 360.415 1360.79 364.193 1362.31 370.123C1363.83 376.053 1370.4 380.235 1376.5 379.194C1456.68 365.239 1527.12 306.135 1553.78 230.377C1567.98 190.071 1598.2 155.477 1632.74 128.423C1633.98 143.697 1635.18 159 1638.95 175.969C1600.67 231.083 1577.59 302.637 1512.98 345.68L1512.98 345.651Z" fill="#ECDE8E" stroke="#ECDE8E" stroke-width="0.2" stroke-miterlimit="10"/>
<path d="M1322.57 357.112C1350.88 355.125 1377.79 339.02 1392.63 315.202C1407.46 291.383 1409.88 260.471 1398.86 234.717C1393.56 222.32 1379.56 214.096 1365.96 215.387C1352.35 216.677 1340.2 227.37 1337.4 240.552C1335.76 248.23 1323.96 250.03 1318.26 244.578C1312.56 239.098 1312.48 229.866 1315.48 222.612C1318.47 215.358 1323.95 209.433 1328.59 203.055C1333.22 196.678 1337.18 189.199 1336.39 181.406C1305.99 181.106 1276.13 165.814 1258.48 141.44C1266.95 134.952 1275.39 128.463 1285.16 120.931C1300.34 139.263 1325.91 148.651 1349.57 144.6C1331.9 145.352 1317.43 124.282 1324.72 108.392C1332.01 92.5018 1357.62 89.2705 1368.73 102.828C1376.18 111.895 1388.15 117.182 1399.95 116.596C1411.77 116.01 1424 111.783 1430.64 101.51C1435.07 109.841 1438.48 116.478 1442.93 124.809C1431.58 129.658 1427.88 144.647 1431.68 156.224C1435.48 167.829 1444.71 176.784 1453.63 185.231C1417.21 191.081 1378.55 164.605 1368.97 130.411C1359 138.338 1353.88 151.83 1356.16 164.253C1358.44 176.676 1367.98 187.551 1380.14 191.568C1394.79 196.404 1407.12 207.76 1412.95 221.852C1423.43 219.458 1435.11 223.079 1442.31 230.96C1449.5 238.841 1451.95 250.643 1448.44 260.663C1432.44 306.474 1398.93 346.119 1356.07 369.921" fill="#ECDE8E"/>
<path d="M1322.57 357.112C1350.88 355.125 1377.79 339.02 1392.63 315.202C1407.46 291.383 1409.88 260.471 1398.86 234.717C1393.56 222.32 1379.56 214.096 1365.96 215.387C1352.35 216.677 1340.2 227.37 1337.4 240.552C1335.76 248.23 1323.96 250.03 1318.26 244.578C1312.56 239.098 1312.48 229.866 1315.48 222.612C1318.47 215.358 1323.95 209.433 1328.59 203.055C1333.22 196.678 1337.18 189.199 1336.39 181.406C1305.99 181.106 1276.13 165.814 1258.48 141.44C1266.95 134.952 1275.39 128.463 1285.16 120.931C1300.34 139.263 1325.91 148.651 1349.57 144.6C1331.9 145.352 1317.43 124.282 1324.72 108.392C1332.01 92.5018 1357.62 89.2705 1368.73 102.828C1376.18 111.895 1388.15 117.182 1399.95 116.596C1411.77 116.01 1424 111.783 1430.64 101.51C1435.07 109.841 1438.48 116.478 1442.93 124.809C1431.58 129.658 1427.88 144.647 1431.68 156.224C1435.48 167.829 1444.71 176.784 1453.63 185.231C1417.21 191.081 1378.55 164.605 1368.97 130.411C1359 138.338 1353.88 151.83 1356.16 164.253C1358.44 176.676 1367.98 187.551 1380.14 191.568C1394.79 196.404 1407.12 207.76 1412.95 221.852C1423.43 219.458 1435.11 223.079 1442.31 230.96C1449.5 238.841 1451.95 250.643 1448.44 260.663C1432.44 306.474 1398.93 346.119 1356.07 369.921" stroke="#ECDE8E" stroke-width="0.2" stroke-miterlimit="10"/>
<path d="M1547.98 251.35C1552.51 231.195 1557.04 210.815 1556.77 190.177C1556.47 169.539 1550.92 148.306 1537.3 132.601C1523.67 116.896 1501.07 107.933 1480.97 113.85C1462.73 119.231 1444.52 124.612 1426.28 129.965C1423.97 115.171 1429.03 99.4203 1439.57 88.6138C1450.1 77.8074 1465.86 72.1704 1480.96 73.7887C1521.86 78.189 1557.32 81.2592 1598.22 85.6596C1592.07 118.461 1606.51 148.875 1607.96 179.79" fill="#ECDE8E"/>
<path d="M1547.98 251.35C1552.51 231.195 1557.04 210.815 1556.77 190.177C1556.47 169.539 1550.92 148.306 1537.3 132.601C1523.67 116.896 1501.07 107.933 1480.97 113.85C1462.73 119.231 1444.52 124.612 1426.28 129.965C1423.97 115.171 1429.03 99.4203 1439.57 88.6138C1450.1 77.8074 1465.86 72.1704 1480.96 73.7887C1521.86 78.189 1557.32 81.2592 1598.22 85.6596C1592.07 118.461 1606.51 148.875 1607.96 179.79" stroke="#ECDE8E" stroke-width="0.2" stroke-miterlimit="10"/>
<path d="M1597.79 86.704C1611.22 51.4788 1624.65 16.2536 1638.08 -18.9434C1603.77 2.71811 1577.53 36.4958 1565.25 74.7707C1548.62 31.8768 1506.07 2.40565 1460.86 -8.88583C1415.67 -20.2055 1367.93 -15.717 1322.08 -7.30307C1289.87 -1.39365 1261.4 21.457 1248.99 51.3188C1236.58 81.1806 1236.44 117.035 1257.04 140.028C1266.19 131.338 1276.01 129.65 1285.14 120.96C1267.59 101.357 1271.39 65.1093 1286.85 43.2954C1302.3 21.4815 1328.79 9.10359 1355.52 5.16712C1382.23 1.2024 1409.5 4.71943 1436.14 9.1395C1460.79 13.2196 1486.24 18.4294 1506.28 33.1219C1526.31 47.8144 1539.34 74.6423 1530.4 97.6176" fill="#ECDE8E"/>
<path d="M1597.79 86.704C1611.22 51.4788 1624.65 16.2536 1638.08 -18.9434C1603.77 2.71811 1577.53 36.4958 1565.25 74.7707C1548.62 31.8768 1506.07 2.40565 1460.86 -8.88583C1415.67 -20.2055 1367.93 -15.717 1322.08 -7.30307C1289.87 -1.39365 1261.4 21.457 1248.99 51.3188C1236.58 81.1806 1236.44 117.035 1257.04 140.028C1266.19 131.338 1276.01 129.65 1285.14 120.96C1267.59 101.357 1271.39 65.1093 1286.85 43.2954C1302.3 21.4815 1328.79 9.10359 1355.52 5.16712C1382.23 1.2024 1409.5 4.71943 1436.14 9.1395C1460.79 13.2196 1486.24 18.4294 1506.28 33.1219C1526.31 47.8144 1539.34 74.6423 1530.4 97.6176" stroke="#ECDE8E" stroke-width="0.2" stroke-miterlimit="10"/>
<path d="M1639.44 257.616C1627.19 266.529 1616.36 285.975 1612.06 300.37C1607.76 314.766 1605.36 329.784 1599.31 343.529C1593.23 357.302 1582.55 370.142 1567.87 374.085C1553.16 378.029 1534.84 369.718 1532.26 354.923C1529.33 338.18 1534.08 320.312 1544.93 307.106C1527.51 311.754 1513.56 327.075 1510.69 344.634C1507.86 362.192 1516.29 381.028 1531.36 390.777C1546.43 400.554 1567.34 400.707 1582.57 391.202C1599.57 380.569 1622.63 371.238 1638.85 360.068C1640.33 327.828 1639.4 289.348 1639.41 257.616L1639.44 257.616Z" fill="#ECDE8E" stroke="#ECDE8E" stroke-width="0.2" stroke-miterlimit="10"/>
<path d="M1512.98 345.651C1454.92 384.322 1383.52 403.138 1313.6 398.213C1313.12 384.689 1312.65 371.194 1312.18 357.671C1331.6 356.949 1351.05 356.254 1370.47 355.532C1367.93 360.415 1360.79 364.193 1362.31 370.123C1363.83 376.052 1370.4 380.235 1376.5 379.194C1456.68 365.239 1527.12 306.135 1553.78 230.377C1567.98 190.071 1604.93 148.875 1639.5 121.821C1640.5 140.003 1638.68 164.62 1641.58 182.436C1603.29 237.55 1577.62 302.637 1512.98 345.68L1512.98 345.651Z" fill="#ECDE8E" stroke="#ECDE8E" stroke-width="0.2" stroke-miterlimit="10"/>
<path d="M1322.57 357.112C1350.88 355.125 1377.79 339.02 1392.63 315.202C1407.46 291.383 1409.88 260.471 1398.86 234.717C1393.56 222.32 1379.56 214.096 1365.96 215.387C1352.35 216.677 1340.2 227.37 1337.4 240.552C1335.76 248.23 1323.96 250.03 1318.26 244.578C1312.56 239.098 1312.48 229.866 1315.48 222.612C1318.47 215.358 1323.95 209.433 1328.59 203.055C1333.22 196.678 1337.18 189.199 1336.39 181.406C1305.99 181.106 1276.13 165.814 1258.48 141.44C1266.95 134.952 1275.39 128.463 1285.16 120.931C1300.34 139.263 1325.91 148.651 1349.57 144.6C1331.9 145.352 1317.43 124.282 1324.72 108.392C1332.01 92.5018 1357.62 89.2705 1368.73 102.828C1376.18 111.895 1388.15 117.182 1399.95 116.596C1411.77 116.01 1424 111.783 1430.64 101.51C1435.07 109.841 1438.48 116.478 1442.93 124.809C1431.58 129.658 1427.88 144.647 1431.68 156.224C1435.48 167.829 1444.71 176.784 1453.63 185.231C1417.21 191.081 1378.55 164.605 1368.97 130.411C1359 138.338 1353.88 151.83 1356.16 164.253C1358.44 176.676 1367.98 187.551 1380.14 191.568C1394.79 196.404 1407.12 207.76 1412.95 221.852C1423.43 219.458 1435.11 223.079 1442.31 230.96C1449.5 238.841 1451.95 250.643 1448.44 260.663C1432.44 306.474 1398.93 346.119 1356.07 369.921" fill="#ECDE8E"/>
<path d="M1322.57 357.112C1350.88 355.125 1377.79 339.02 1392.63 315.202C1407.46 291.383 1409.88 260.471 1398.86 234.717C1393.56 222.32 1379.56 214.096 1365.96 215.387C1352.35 216.677 1340.2 227.37 1337.4 240.552C1335.76 248.23 1323.96 250.03 1318.26 244.578C1312.56 239.098 1312.48 229.866 1315.48 222.612C1318.47 215.358 1323.95 209.433 1328.59 203.055C1333.22 196.678 1337.18 189.199 1336.39 181.406C1305.99 181.106 1276.13 165.814 1258.48 141.44C1266.95 134.952 1275.39 128.463 1285.16 120.931C1300.34 139.263 1325.91 148.651 1349.57 144.6C1331.9 145.352 1317.43 124.282 1324.72 108.392C1332.01 92.5018 1357.62 89.2705 1368.73 102.828C1376.18 111.895 1388.15 117.182 1399.95 116.596C1411.77 116.01 1424 111.783 1430.64 101.51C1435.07 109.841 1438.48 116.478 1442.93 124.809C1431.58 129.658 1427.88 144.647 1431.68 156.224C1435.48 167.829 1444.71 176.784 1453.63 185.231C1417.21 191.081 1378.55 164.605 1368.97 130.411C1359 138.338 1353.88 151.83 1356.16 164.253C1358.44 176.676 1367.98 187.551 1380.14 191.568C1394.79 196.404 1407.12 207.76 1412.95 221.852C1423.43 219.458 1435.11 223.079 1442.31 230.96C1449.5 238.841 1451.95 250.643 1448.44 260.663C1432.44 306.474 1398.93 346.119 1356.07 369.921" stroke="#ECDE8E" stroke-width="0.2" stroke-miterlimit="10"/>
<path d="M1547.98 251.35C1552.51 231.195 1557.04 210.815 1556.77 190.177C1556.47 169.539 1550.92 148.306 1537.3 132.601C1523.67 116.896 1501.07 107.933 1480.97 113.85C1462.73 119.231 1444.52 124.612 1426.28 129.965C1423.97 115.171 1429.03 99.4203 1439.57 88.6138C1450.1 77.8074 1465.86 72.1704 1480.96 73.7887C1521.86 78.189 1557.32 81.2592 1598.22 85.6596C1592.07 118.461 1606.51 148.875 1607.96 179.79" fill="#ECDE8E"/>
<path d="M1547.98 251.35C1552.51 231.195 1557.04 210.815 1556.77 190.177C1556.47 169.539 1550.92 148.306 1537.3 132.601C1523.67 116.896 1501.07 107.933 1480.97 113.85C1462.73 119.231 1444.52 124.612 1426.28 129.965C1423.97 115.171 1429.03 99.4203 1439.57 88.6138C1450.1 77.8074 1465.86 72.1704 1480.96 73.7887C1521.86 78.189 1557.32 81.2592 1598.22 85.6596C1592.07 118.461 1606.51 148.875 1607.96 179.79" stroke="#ECDE8E" stroke-width="0.2" stroke-miterlimit="10"/>
<path d="M1597.79 86.704C1611.22 51.4788 1624.65 17.5523 1638.08 -17.6729C1603.97 -0.867117 1577.53 36.4677 1565.25 74.7426C1548.62 31.8486 1506.07 2.3775 1460.86 -8.91398C1415.67 -20.2337 1367.93 -15.7451 1322.08 -7.33122C1289.87 -1.4218 1261.4 21.4289 1248.99 51.2907C1236.58 81.1524 1236.44 117.007 1257.04 140C1266.19 131.31 1276.01 129.622 1285.14 120.932C1267.59 101.328 1271.39 65.0811 1286.85 43.2672C1302.3 21.4533 1328.79 9.07543 1355.52 5.13896C1382.23 1.17424 1409.5 4.69126 1436.14 9.11134C1460.79 13.1914 1486.25 18.4013 1506.28 33.0938C1526.31 47.7862 1539.34 74.6142 1530.41 97.5894" fill="#ECDE8E"/>
<path d="M1597.79 86.704C1611.22 51.4788 1624.65 17.5523 1638.08 -17.6729C1603.97 -0.867117 1577.53 36.4677 1565.25 74.7426C1548.62 31.8486 1506.07 2.3775 1460.86 -8.91398C1415.67 -20.2337 1367.93 -15.7451 1322.08 -7.33122C1289.87 -1.4218 1261.4 21.4289 1248.99 51.2907C1236.58 81.1524 1236.44 117.007 1257.04 140C1266.19 131.31 1276.01 129.622 1285.14 120.932C1267.59 101.328 1271.39 65.0811 1286.85 43.2672C1302.3 21.4533 1328.79 9.07543 1355.52 5.13896C1382.23 1.17424 1409.5 4.69126 1436.14 9.11134C1460.79 13.1914 1486.25 18.4013 1506.28 33.0938C1526.31 47.7862 1539.34 74.6142 1530.41 97.5894" stroke="#ECDE8E" stroke-width="0.2" stroke-miterlimit="10"/>
<path d="M1569.05 518.858C1603.1 556.286 1683.07 568.784 1720.18 534.815C1721.09 518.215 1732.85 491.176 1723.55 476.744C1712.42 486.929 1691.04 504.42 1680.81 515.509C1670.59 526.598 1655.68 535.538 1641 532.085C1626.32 528.632 1617.25 507.453 1628.69 497.607C1655.4 474.642 1695.19 452.194 1720.87 428.014C1722.88 419.377 1721.81 403.707 1720.21 394.136C1711.96 399.806 1692.25 407.699 1683.13 412.549C1648.75 468.343 1592.46 510.233 1529.13 527.163" fill="#ECDE8E"/>
<path d="M1569.05 518.858C1603.1 556.286 1683.07 568.784 1720.18 534.815C1721.09 518.215 1732.85 491.176 1723.55 476.744C1712.42 486.929 1691.04 504.42 1680.81 515.509C1670.59 526.598 1655.68 535.538 1641 532.085C1626.32 528.632 1617.25 507.453 1628.69 497.607C1655.4 474.642 1695.19 452.194 1720.87 428.014C1722.88 419.377 1721.81 403.707 1720.21 394.136C1711.96 399.806 1692.25 407.699 1683.13 412.549C1648.75 468.343 1592.46 510.233 1529.13 527.163" stroke="#ECDE8E" stroke-width="0.2" stroke-miterlimit="10"/>
<path d="M1434.87 540.121C1471.63 531.504 1502.61 501.682 1512.63 465.297C1515.43 455.164 1508.46 443.443 1498.24 441.009C1488.03 438.575 1476.53 445.937 1474.47 456.24C1465.11 435.823 1443.24 421.751 1420.37 421.031C1414.75 425.404 1407.81 427.658 1401.09 429.997C1394.37 432.365 1387.48 435.043 1382.45 440.065C1377.39 445.087 1374.59 453.047 1377.58 459.542C1380.57 466.037 1390.48 468.753 1395.19 463.42C1404.88 452.472 1418.64 444.66 1433.26 444.132C1447.88 443.605 1463.01 451.152 1469.63 464.17C1476.29 477.189 1472.69 495.143 1460.47 503.153C1427.57 524.759 1388.55 536.903 1349.19 537.84" fill="#ECDE8E"/>
<path d="M1434.87 540.121C1471.63 531.504 1502.61 501.682 1512.63 465.297C1515.43 455.164 1508.46 443.443 1498.24 441.009C1488.03 438.575 1476.53 445.937 1474.47 456.24C1465.11 435.823 1443.24 421.751 1420.37 421.031C1414.75 425.404 1407.81 427.658 1401.09 429.997C1394.37 432.365 1387.48 435.043 1382.45 440.065C1377.39 445.087 1374.59 453.047 1377.58 459.542C1380.57 466.037 1390.48 468.753 1395.19 463.42C1404.88 452.472 1418.64 444.66 1433.26 444.132C1447.88 443.605 1463.01 451.152 1469.63 464.17C1476.29 477.189 1472.69 495.143 1460.47 503.153C1427.57 524.759 1388.55 536.903 1349.19 537.84" stroke="#ECDE8E" stroke-width="0.2" stroke-miterlimit="10"/>
</g>
</g>
<defs>
<clipPath id="clip0_186_6644">
<rect width="1728" height="483" fill="white"/>
</clipPath>
<clipPath id="clip1_186_6644">
<rect width="1479.98" height="1799.63" fill="white" transform="translate(1727.51 -184.925) rotate(90.0342)"/>
</clipPath>
</defs>
</svg>
